<svg width="100%" viewBox="0 0 1533 556" fill="none" xmlns="http://www.w3.org/2000/svg">
<circle cx="522.452" cy="383.524" r="14.5" fill="var(--fg, black)"/>
<path d="M275.14 257.31C273.159 256.331 270.76 257.143 269.781 259.123C268.802 261.103 269.614 263.502 271.595 264.481L275.14 257.31ZM509.917 380.984C512.009 380.276 513.132 378.005 512.424 375.913L500.884 341.812C500.176 339.72 497.906 338.597 495.813 339.305C493.721 340.013 492.598 342.284 493.306 344.376L503.564 374.688L473.252 384.945C471.16 385.653 470.037 387.924 470.745 390.016C471.453 392.109 473.724 393.231 475.816 392.523L509.917 380.984ZM271.595 264.481L506.862 380.781L510.407 373.609L275.14 257.31L271.595 264.481Z" fill="#AD1E1E"/>
<path d="M113.892 438.154L250.146 40.391L477.802 18.3867L278.921 549.02L113.892 438.154Z" stroke="var(--fg, black)" stroke-width="8" stroke-linecap="round" stroke-linejoin="round"/>
<path d="M157.398 198.029C157.398 197.262 157.745 196.55 158.438 195.893C159.132 195.235 159.899 194.888 160.739 194.852C161.396 194.852 161.998 195.181 162.546 195.838C163.094 196.495 163.386 197.536 163.422 198.96C163.422 200.018 163.075 202.118 162.382 205.258C161.834 207.303 161.341 208.982 160.903 210.297C160.465 211.611 159.826 213.09 158.986 214.733C158.146 216.376 157.142 217.617 155.974 218.457C154.805 219.297 153.491 219.717 152.03 219.717C150.424 219.717 149 219.425 147.758 218.841C146.517 218.256 145.623 217.471 145.075 216.485C145.038 216.522 144.984 216.595 144.911 216.705C143.414 218.713 141.588 219.717 139.434 219.717C138.484 219.717 137.572 219.607 136.695 219.388C135.819 219.169 134.961 218.822 134.121 218.348C133.281 217.873 132.606 217.161 132.095 216.212C131.584 215.262 131.328 214.112 131.328 212.761C131.328 210.79 131.949 208.124 133.19 204.765C134.432 201.406 135.071 199.27 135.107 198.357C135.107 198.321 135.107 198.284 135.107 198.248C135.107 197.919 135.107 197.7 135.107 197.59C135.107 197.481 135.034 197.353 134.888 197.207C134.742 197.061 134.541 196.988 134.285 196.988H134.066C133.227 196.988 132.46 197.335 131.766 198.029C131.072 198.722 130.525 199.471 130.123 200.274C129.721 201.077 129.411 201.844 129.192 202.574C128.973 203.305 128.827 203.706 128.754 203.779C128.681 203.852 128.389 203.889 127.878 203.889H127.111C126.892 203.67 126.782 203.505 126.782 203.396C126.782 203.177 126.928 202.666 127.22 201.862C127.512 201.059 127.932 200.128 128.48 199.069C129.028 198.01 129.831 197.061 130.89 196.221C131.949 195.381 133.135 194.962 134.45 194.962C136.02 194.962 137.225 195.418 138.065 196.331C138.904 197.244 139.324 198.302 139.324 199.507C139.324 200.165 138.722 202.136 137.517 205.422C136.312 208.708 135.709 211.246 135.709 213.035C135.709 214.715 136.093 215.901 136.86 216.595C137.626 217.289 138.594 217.654 139.762 217.69C141.332 217.69 142.72 216.577 143.925 214.35L144.199 213.857V212.597C144.199 212.487 144.199 212.323 144.199 212.104C144.199 211.885 144.217 211.739 144.253 211.666C144.29 211.593 144.308 211.465 144.308 211.282C144.308 211.1 144.326 210.936 144.363 210.79C144.399 210.644 144.454 210.406 144.527 210.078C144.6 209.749 144.655 209.439 144.691 209.147C144.728 208.854 144.838 208.416 145.02 207.832C145.203 207.248 145.349 206.664 145.458 206.079C145.568 205.495 145.769 204.71 146.061 203.724C147.12 199.562 147.722 197.317 147.868 196.988C148.343 196.002 149.128 195.509 150.223 195.509C150.917 195.509 151.391 195.692 151.647 196.057C151.903 196.422 152.049 196.769 152.085 197.097C152.085 197.572 151.556 199.909 150.497 204.108C149.438 208.307 148.854 210.717 148.744 211.337C148.671 211.739 148.635 212.378 148.635 213.254V213.638C148.635 214.185 148.69 214.715 148.799 215.226C148.909 215.737 149.255 216.266 149.84 216.814C150.424 217.362 151.245 217.654 152.304 217.69C154.897 217.69 156.96 215.463 158.493 211.009C158.822 210.169 159.187 208.982 159.588 207.449C159.99 205.915 160.209 204.82 160.246 204.163C160.246 202.958 160.008 202.008 159.534 201.315C159.059 200.621 158.584 200.037 158.11 199.562C157.635 199.087 157.398 198.576 157.398 198.029Z" fill="#1C9812"/>
<ellipse cx="273.745" cy="261.896" rx="10.936" ry="16.3116" transform="rotate(19.2991 273.745 261.896)" fill="var(--fg, black)"/>
<path d="M271.369 264.88C273.291 265.968 275.732 265.291 276.82 263.368C277.908 261.445 277.231 259.005 275.308 257.917L271.369 264.88ZM171.929 200.773C169.8 201.364 168.553 203.568 169.143 205.697L178.764 240.388C179.354 242.516 181.558 243.764 183.687 243.173C185.816 242.583 187.063 240.379 186.473 238.25L177.921 207.413L208.758 198.862C210.886 198.272 212.133 196.067 211.543 193.939C210.953 191.81 208.748 190.563 206.62 191.153L171.929 200.773ZM275.308 257.917L174.968 201.146L171.028 208.109L271.369 264.88L275.308 257.917Z" fill="#1C9812"/>
<circle cx="522.452" cy="383.524" r="14.5" fill="var(--fg, black)"/>
<path d="M275.14 257.31C273.159 256.331 270.76 257.143 269.781 259.123C268.802 261.103 269.614 263.502 271.595 264.481L275.14 257.31ZM509.917 380.984C512.009 380.276 513.132 378.005 512.424 375.913L500.884 341.812C500.176 339.72 497.906 338.597 495.813 339.305C493.721 340.013 492.598 342.284 493.306 344.376L503.564 374.688L473.252 384.945C471.16 385.653 470.037 387.924 470.745 390.016C471.453 392.109 473.724 393.231 475.816 392.523L509.917 380.984ZM271.595 264.481L506.862 380.781L510.407 373.609L275.14 257.31L271.595 264.481Z" fill="#AD1E1E"/>
<path d="M113.892 438.154L250.146 40.391L477.802 18.3867L278.921 549.02L113.892 438.154Z" stroke="var(--fg, black)" stroke-width="8" stroke-linecap="round" stroke-linejoin="round"/>
<path d="M157.398 198.029C157.398 197.262 157.745 196.55 158.438 195.893C159.132 195.235 159.899 194.888 160.739 194.852C161.396 194.852 161.998 195.181 162.546 195.838C163.094 196.495 163.386 197.536 163.422 198.96C163.422 200.018 163.075 202.118 162.382 205.258C161.834 207.303 161.341 208.982 160.903 210.297C160.465 211.611 159.826 213.09 158.986 214.733C158.146 216.376 157.142 217.617 155.974 218.457C154.805 219.297 153.491 219.717 152.03 219.717C150.424 219.717 149 219.425 147.758 218.841C146.517 218.256 145.623 217.471 145.075 216.485C145.038 216.522 144.984 216.595 144.911 216.705C143.414 218.713 141.588 219.717 139.434 219.717C138.484 219.717 137.572 219.607 136.695 219.388C135.819 219.169 134.961 218.822 134.121 218.348C133.281 217.873 132.606 217.161 132.095 216.212C131.584 215.262 131.328 214.112 131.328 212.761C131.328 210.79 131.949 208.124 133.19 204.765C134.432 201.406 135.071 199.27 135.107 198.357C135.107 198.321 135.107 198.284 135.107 198.248C135.107 197.919 135.107 197.7 135.107 197.59C135.107 197.481 135.034 197.353 134.888 197.207C134.742 197.061 134.541 196.988 134.285 196.988H134.066C133.227 196.988 132.46 197.335 131.766 198.029C131.072 198.722 130.525 199.471 130.123 200.274C129.721 201.077 129.411 201.844 129.192 202.574C128.973 203.305 128.827 203.706 128.754 203.779C128.681 203.852 128.389 203.889 127.878 203.889H127.111C126.892 203.67 126.782 203.505 126.782 203.396C126.782 203.177 126.928 202.666 127.22 201.862C127.512 201.059 127.932 200.128 128.48 199.069C129.028 198.01 129.831 197.061 130.89 196.221C131.949 195.381 133.135 194.962 134.45 194.962C136.02 194.962 137.225 195.418 138.065 196.331C138.904 197.244 139.324 198.302 139.324 199.507C139.324 200.165 138.722 202.136 137.517 205.422C136.312 208.708 135.709 211.246 135.709 213.035C135.709 214.715 136.093 215.901 136.86 216.595C137.626 217.289 138.594 217.654 139.762 217.69C141.332 217.69 142.72 216.577 143.925 214.35L144.199 213.857V212.597C144.199 212.487 144.199 212.323 144.199 212.104C144.199 211.885 144.217 211.739 144.253 211.666C144.29 211.593 144.308 211.465 144.308 211.282C144.308 211.1 144.326 210.936 144.363 210.79C144.399 210.644 144.454 210.406 144.527 210.078C144.6 209.749 144.655 209.439 144.691 209.147C144.728 208.854 144.838 208.416 145.02 207.832C145.203 207.248 145.349 206.664 145.458 206.079C145.568 205.495 145.769 204.71 146.061 203.724C147.12 199.562 147.722 197.317 147.868 196.988C148.343 196.002 149.128 195.509 150.223 195.509C150.917 195.509 151.391 195.692 151.647 196.057C151.903 196.422 152.049 196.769 152.085 197.097C152.085 197.572 151.556 199.909 150.497 204.108C149.438 208.307 148.854 210.717 148.744 211.337C148.671 211.739 148.635 212.378 148.635 213.254V213.638C148.635 214.185 148.69 214.715 148.799 215.226C148.909 215.737 149.255 216.266 149.84 216.814C150.424 217.362 151.245 217.654 152.304 217.69C154.897 217.69 156.96 215.463 158.493 211.009C158.822 210.169 159.187 208.982 159.588 207.449C159.99 205.915 160.209 204.82 160.246 204.163C160.246 202.958 160.008 202.008 159.534 201.315C159.059 200.621 158.584 200.037 158.11 199.562C157.635 199.087 157.398 198.576 157.398 198.029Z" fill="#1C9812"/>
<ellipse cx="273.745" cy="261.896" rx="10.936" ry="16.3116" transform="rotate(19.2991 273.745 261.896)" fill="var(--fg, black)"/>
<path d="M271.369 264.88C273.291 265.968 275.732 265.291 276.82 263.368C277.908 261.445 277.231 259.005 275.308 257.917L271.369 264.88ZM171.929 200.773C169.8 201.364 168.553 203.568 169.143 205.697L178.764 240.388C179.354 242.516 181.558 243.764 183.687 243.173C185.816 242.583 187.063 240.379 186.473 238.25L177.921 207.413L208.758 198.862C210.886 198.272 212.133 196.067 211.543 193.939C210.953 191.81 208.748 190.563 206.62 191.153L171.929 200.773ZM275.308 257.917L174.968 201.146L171.028 208.109L271.369 264.88L275.308 257.917Z" fill="#1C9812"/>
<path d="M725.968 87.1151C725.383 86.5293 724.433 86.5293 723.847 87.1151L714.301 96.6611C713.715 97.2469 713.715 98.1966 714.301 98.7824C714.887 99.3682 715.837 99.3682 716.422 98.7824L724.908 90.2971L733.393 98.7824C733.979 99.3682 734.929 99.3682 735.514 98.7824C736.1 98.1966 736.1 97.2469 735.514 96.6611L725.968 87.1151ZM726.408 262.007L726.408 254.764L723.408 254.764L723.408 262.007L726.408 262.007ZM726.408 240.278L726.408 225.792L723.408 225.792L723.408 240.278L726.408 240.278ZM726.408 211.306L726.408 196.82L723.408 196.82L723.408 211.306L726.408 211.306ZM726.408 182.334L726.408 167.848L723.408 167.848L723.408 182.334L726.408 182.334ZM726.408 153.362L726.408 138.876L723.408 138.876L723.408 153.362L726.408 153.362ZM726.408 124.391L726.408 109.905L723.408 109.905L723.408 124.391L726.408 124.391ZM726.408 95.4187L726.408 88.1758L723.408 88.1758L723.408 95.4187L726.408 95.4187ZM727.029 86.0545C725.857 84.8829 723.958 84.8829 722.786 86.0545L703.695 105.146C702.523 106.318 702.523 108.217 703.695 109.389C704.866 110.561 706.766 110.561 707.937 109.389L724.908 92.4184L741.878 109.389C743.05 110.561 744.949 110.561 746.121 109.389C747.292 108.217 747.292 106.318 746.121 105.146L727.029 86.0545ZM727.908 262.007L727.908 254.764L721.908 254.764L721.908 262.007L727.908 262.007ZM727.908 240.278L727.908 225.792L721.908 225.792L721.908 240.278L727.908 240.278ZM727.908 211.306L727.908 196.82L721.908 196.82L721.908 211.306L727.908 211.306ZM727.908 182.334L727.908 167.848L721.908 167.848L721.908 182.334L727.908 182.334ZM727.908 153.362L727.908 138.876L721.908 138.876L721.908 153.362L727.908 153.362ZM727.908 124.391L727.908 109.905L721.908 109.905L721.908 124.391L727.908 124.391ZM727.908 95.4187L727.908 88.1758L721.908 88.1758L721.908 95.4187L727.908 95.4187Z" fill="var(--fg, black)"/>
<circle cx="974.155" cy="383.524" r="14.5" fill="var(--fg, black)"/>
<path d="M726.842 257.31C724.862 256.331 722.463 257.143 721.484 259.123C720.505 261.103 721.317 263.502 723.297 264.481L726.842 257.31ZM961.62 380.984C963.712 380.276 964.834 378.005 964.126 375.913L952.587 341.812C951.879 339.72 949.608 338.597 947.516 339.305C945.423 340.013 944.301 342.284 945.009 344.376L955.266 374.688L924.955 384.945C922.862 385.653 921.74 387.924 922.448 390.016C923.156 392.109 925.426 393.231 927.519 392.523L961.62 380.984ZM723.297 264.481L958.565 380.781L962.11 373.609L726.842 257.31L723.297 264.481Z" fill="#AD1E1E"/>
<path d="M565.594 438.154L701.849 40.391L929.505 18.3867L730.624 549.02L565.594 438.154Z" stroke="var(--fg, black)" stroke-width="8" stroke-linecap="round" stroke-linejoin="round"/>
<path d="M665.3 285.363C665.3 285.038 665.483 284.409 665.848 283.475C666.214 282.541 666.722 281.484 667.371 280.307C668.021 279.129 668.915 278.113 670.052 277.26C671.189 276.408 672.388 275.961 673.647 275.92C675.515 275.92 676.916 276.428 677.85 277.443C678.784 278.459 679.252 279.657 679.252 281.038C679.252 281.769 678.561 284.043 677.18 287.861C675.799 291.679 675.109 294.542 675.109 296.451C675.109 298.198 675.393 299.416 675.962 300.107C676.53 300.797 677.383 301.163 678.52 301.203C679.658 301.244 680.734 300.899 681.749 300.168C682.765 299.437 683.516 298.746 684.004 298.096L684.674 297.061C684.755 296.898 685.527 293.811 686.989 287.8C688.207 282.926 688.938 280.083 689.182 279.271C689.426 278.459 689.71 277.87 690.035 277.504C690.726 276.895 691.457 276.59 692.228 276.59C692.919 276.59 693.426 276.793 693.751 277.2C694.076 277.606 694.239 277.992 694.239 278.357L689.609 297.731C689.568 297.934 689.548 298.259 689.548 298.706C689.548 299.721 689.69 300.391 689.974 300.716C690.258 301.041 690.685 301.224 691.254 301.264C692.147 301.143 692.858 300.513 693.386 299.376C693.914 298.239 694.523 296.451 695.214 294.014C695.295 293.69 695.701 293.527 696.432 293.527C697.204 293.527 697.59 293.71 697.59 294.075C697.549 294.278 697.508 294.563 697.468 294.928C697.427 295.294 697.244 295.944 696.919 296.878C696.595 297.812 696.249 298.685 695.884 299.498C695.518 300.31 695.01 301.082 694.361 301.813C693.711 302.544 692.98 303.051 692.167 303.336C691.842 303.417 691.355 303.458 690.705 303.458C688.025 303.458 686.177 302.32 685.161 300.046C685.08 300.087 684.857 300.29 684.491 300.655C684.125 301.021 683.76 301.325 683.394 301.569C683.029 301.813 682.582 302.117 682.054 302.483C681.526 302.848 680.937 303.092 680.287 303.214C679.637 303.336 678.947 303.437 678.216 303.519C676.429 303.519 674.845 303.153 673.464 302.422C671.352 301.163 670.296 299.01 670.296 295.964C670.296 293.649 671.007 290.623 672.428 286.886C673.85 283.15 674.56 280.774 674.56 279.758C674.56 279.718 674.56 279.677 674.56 279.636C674.56 279.271 674.56 279.027 674.56 278.905C674.56 278.784 674.479 278.641 674.317 278.479C674.154 278.316 673.931 278.235 673.647 278.235H673.403C672.469 278.235 671.616 278.621 670.844 279.393C670.072 280.164 669.463 280.997 669.016 281.891C668.57 282.784 668.224 283.637 667.981 284.449C667.737 285.262 667.575 285.709 667.493 285.79C667.412 285.871 667.087 285.912 666.519 285.912H665.666C665.422 285.668 665.3 285.485 665.3 285.363Z" fill="#2739DC"/>
<path d="M609.101 198.029C609.101 197.262 609.447 196.55 610.141 195.893C610.835 195.235 611.602 194.888 612.441 194.852C613.099 194.852 613.701 195.181 614.249 195.838C614.797 196.495 615.089 197.536 615.125 198.96C615.125 200.018 614.778 202.118 614.085 205.258C613.537 207.303 613.044 208.982 612.606 210.297C612.168 211.611 611.529 213.09 610.689 214.733C609.849 216.376 608.845 217.617 607.677 218.457C606.508 219.297 605.194 219.717 603.733 219.717C602.127 219.717 600.703 219.425 599.461 218.841C598.22 218.256 597.325 217.471 596.778 216.485C596.741 216.522 596.686 216.595 596.613 216.705C595.116 218.713 593.291 219.717 591.137 219.717C590.187 219.717 589.274 219.607 588.398 219.388C587.522 219.169 586.664 218.822 585.824 218.348C584.984 217.873 584.309 217.161 583.798 216.212C583.286 215.262 583.031 214.112 583.031 212.761C583.031 210.79 583.652 208.124 584.893 204.765C586.134 201.406 586.773 199.27 586.81 198.357C586.81 198.321 586.81 198.284 586.81 198.248C586.81 197.919 586.81 197.7 586.81 197.59C586.81 197.481 586.737 197.353 586.591 197.207C586.445 197.061 586.244 196.988 585.988 196.988H585.769C584.93 196.988 584.163 197.335 583.469 198.029C582.775 198.722 582.228 199.471 581.826 200.274C581.424 201.077 581.114 201.844 580.895 202.574C580.676 203.305 580.53 203.706 580.457 203.779C580.384 203.852 580.092 203.889 579.58 203.889H578.814C578.595 203.67 578.485 203.505 578.485 203.396C578.485 203.177 578.631 202.666 578.923 201.862C579.215 201.059 579.635 200.128 580.183 199.069C580.731 198.01 581.534 197.061 582.593 196.221C583.652 195.381 584.838 194.962 586.153 194.962C587.723 194.962 588.928 195.418 589.767 196.331C590.607 197.244 591.027 198.302 591.027 199.507C591.027 200.165 590.425 202.136 589.22 205.422C588.015 208.708 587.412 211.246 587.412 213.035C587.412 214.715 587.796 215.901 588.562 216.595C589.329 217.289 590.297 217.654 591.465 217.69C593.035 217.69 594.423 216.577 595.628 214.35L595.901 213.857V212.597C595.901 212.487 595.901 212.323 595.901 212.104C595.901 211.885 595.92 211.739 595.956 211.666C595.993 211.593 596.011 211.465 596.011 211.282C596.011 211.1 596.029 210.936 596.066 210.79C596.102 210.644 596.157 210.406 596.23 210.078C596.303 209.749 596.358 209.439 596.394 209.147C596.431 208.854 596.54 208.416 596.723 207.832C596.906 207.248 597.052 206.664 597.161 206.079C597.271 205.495 597.471 204.71 597.764 203.724C598.822 199.562 599.425 197.317 599.571 196.988C600.046 196.002 600.831 195.509 601.926 195.509C602.62 195.509 603.094 195.692 603.35 196.057C603.606 196.422 603.752 196.769 603.788 197.097C603.788 197.572 603.259 199.909 602.2 204.108C601.141 208.307 600.557 210.717 600.447 211.337C600.374 211.739 600.338 212.378 600.338 213.254V213.638C600.338 214.185 600.392 214.715 600.502 215.226C600.612 215.737 600.958 216.266 601.543 216.814C602.127 217.362 602.948 217.654 604.007 217.69C606.6 217.69 608.662 215.463 610.196 211.009C610.525 210.169 610.89 208.982 611.291 207.449C611.693 205.915 611.912 204.82 611.949 204.163C611.949 202.958 611.711 202.008 611.237 201.315C610.762 200.621 610.287 200.037 609.813 199.562C609.338 199.087 609.101 198.576 609.101 198.029Z" fill="#1C9812"/>
<path d="M755.607 150.456C755.607 149.572 755.271 149.131 754.6 149.131C753.752 149.131 752.868 149.643 751.949 150.668C751.031 151.693 750.271 153.265 749.67 155.385C749.635 155.421 749.599 155.474 749.564 155.545C749.529 155.615 749.511 155.668 749.511 155.704C749.511 155.739 749.476 155.774 749.405 155.81C749.334 155.845 749.281 155.863 749.246 155.863C749.211 155.863 749.14 155.863 749.034 155.863C748.928 155.863 748.787 155.863 748.61 155.863H747.868C747.656 155.651 747.55 155.491 747.55 155.385C747.55 155.138 747.691 154.626 747.974 153.848C748.257 153.071 748.681 152.152 749.246 151.092C749.811 150.032 750.589 149.131 751.578 148.389C752.568 147.646 753.681 147.258 754.918 147.222C756.402 147.222 757.551 147.646 758.363 148.495C759.176 149.343 759.6 150.332 759.635 151.463C759.635 152.064 759.582 152.523 759.476 152.841C759.476 153.053 759.211 153.831 758.681 155.173C758.151 156.516 757.604 158.089 757.038 159.891C756.473 161.693 756.155 163.266 756.084 164.609C756.084 165.563 756.172 166.34 756.349 166.941C756.808 168.461 757.922 169.22 759.688 169.22C760.996 169.22 762.215 168.62 763.346 167.418C764.477 166.217 765.36 164.821 765.996 163.231C766.632 161.64 767.145 160.174 767.534 158.831C767.922 157.488 768.117 156.516 768.117 155.916C768.117 155.103 767.975 154.396 767.693 153.795C767.41 153.195 767.092 152.735 766.738 152.417C766.385 152.099 766.067 151.781 765.784 151.463C765.502 151.145 765.36 150.756 765.36 150.297C765.36 149.519 765.696 148.795 766.367 148.123C767.039 147.452 767.763 147.116 768.541 147.116C769.212 147.116 769.813 147.434 770.343 148.07C770.873 148.707 771.156 149.731 771.191 151.145C771.191 152.099 770.979 153.566 770.555 155.545C770.131 157.523 769.477 159.732 768.594 162.17C767.71 164.609 766.456 166.711 764.83 168.478C763.205 170.245 761.332 171.146 759.211 171.182C756.95 171.182 755.148 170.599 753.805 169.432C752.497 168.302 751.843 166.623 751.843 164.397C751.843 163.301 751.985 162.17 752.267 161.004C752.55 159.838 753.275 157.771 754.441 154.802C755.218 152.541 755.607 151.092 755.607 150.456Z" fill="var(--fg, black)"/>
<path d="M772.932 167.794C772.932 167.594 773.045 167.207 773.269 166.632C773.494 166.058 773.807 165.408 774.206 164.684C774.606 163.959 775.156 163.334 775.855 162.81C776.555 162.285 777.292 162.01 778.066 161.985C779.216 161.985 780.078 162.298 780.652 162.922C781.227 163.547 781.514 164.284 781.514 165.133C781.514 165.583 781.089 166.982 780.24 169.331C779.391 171.679 778.966 173.44 778.966 174.615C778.966 175.689 779.141 176.439 779.49 176.863C779.84 177.288 780.365 177.513 781.064 177.538C781.764 177.563 782.426 177.35 783.051 176.901C783.675 176.451 784.137 176.026 784.437 175.627L784.85 174.989C784.9 174.89 785.374 172.991 786.274 169.293C787.023 166.295 787.473 164.546 787.623 164.046C787.773 163.547 787.948 163.184 788.147 162.96C788.572 162.585 789.022 162.397 789.497 162.397C789.921 162.397 790.234 162.522 790.433 162.772C790.633 163.022 790.733 163.259 790.733 163.484L787.885 175.402C787.86 175.527 787.848 175.726 787.848 176.001C787.848 176.626 787.935 177.038 788.11 177.238C788.285 177.438 788.547 177.55 788.897 177.575C789.447 177.5 789.884 177.113 790.209 176.414C790.533 175.714 790.908 174.615 791.333 173.116C791.383 172.916 791.633 172.816 792.082 172.816C792.557 172.816 792.794 172.928 792.794 173.153C792.769 173.278 792.745 173.453 792.72 173.678C792.695 173.903 792.582 174.302 792.382 174.877C792.182 175.452 791.97 175.989 791.745 176.488C791.52 176.988 791.208 177.463 790.808 177.913C790.408 178.362 789.959 178.675 789.459 178.849C789.259 178.899 788.959 178.924 788.56 178.924C786.911 178.924 785.774 178.225 785.149 176.826C785.099 176.851 784.962 176.976 784.737 177.201C784.512 177.425 784.287 177.613 784.063 177.763C783.838 177.913 783.563 178.1 783.238 178.325C782.913 178.55 782.551 178.7 782.151 178.775C781.752 178.849 781.327 178.912 780.877 178.962C779.778 178.962 778.803 178.737 777.954 178.287C776.655 177.513 776.005 176.189 776.005 174.315C776.005 172.891 776.442 171.029 777.317 168.731C778.191 166.432 778.628 164.971 778.628 164.346C778.628 164.321 778.628 164.296 778.628 164.271C778.628 164.046 778.628 163.897 778.628 163.822C778.628 163.747 778.579 163.659 778.479 163.559C778.379 163.459 778.241 163.409 778.066 163.409H777.916C777.342 163.409 776.817 163.647 776.342 164.121C775.868 164.596 775.493 165.108 775.218 165.658C774.943 166.208 774.731 166.732 774.581 167.232C774.431 167.732 774.331 168.006 774.281 168.056C774.231 168.106 774.031 168.131 773.682 168.131H773.157C773.007 167.981 772.932 167.869 772.932 167.794Z" fill="var(--fg, black)"/>
<path d="M794.443 167.794C794.468 167.719 794.493 167.619 794.518 167.494C794.543 167.37 794.606 167.095 794.706 166.67C794.806 166.245 794.931 165.858 795.08 165.508C795.23 165.158 795.418 164.746 795.643 164.272C795.867 163.797 796.117 163.422 796.392 163.147C796.667 162.872 796.992 162.598 797.367 162.323C797.741 162.048 798.154 161.936 798.603 161.985C800.477 161.985 801.676 162.785 802.201 164.384L802.576 164.047C804.125 162.673 805.599 161.985 806.998 161.985C808.622 161.985 809.896 162.573 810.82 163.747C811.745 164.921 812.207 166.345 812.207 168.019C812.207 170.717 811.258 173.203 809.359 175.477C807.46 177.75 805.311 178.9 802.913 178.925C802.363 178.925 801.876 178.85 801.451 178.7C801.177 178.575 800.889 178.388 800.589 178.138C800.29 177.888 800.052 177.676 799.877 177.501L799.615 177.201C799.59 177.226 799.315 178.313 798.791 180.461C798.266 182.61 798.004 183.697 798.004 183.722C798.004 183.872 798.104 183.959 798.303 183.984C798.503 184.009 798.966 184.046 799.69 184.096H800.627C800.777 184.271 800.852 184.384 800.852 184.434C800.852 184.484 800.814 184.709 800.739 185.108C800.664 185.408 800.589 185.595 800.515 185.67C800.44 185.745 800.277 185.795 800.027 185.82C799.977 185.82 799.84 185.82 799.615 185.82C799.39 185.82 798.966 185.808 798.341 185.783C797.716 185.758 796.942 185.745 796.017 185.745C794.269 185.745 793.157 185.77 792.682 185.82H792.382C792.207 185.645 792.12 185.508 792.12 185.408C792.17 184.734 792.332 184.296 792.607 184.096H793.357C794.206 184.071 794.693 183.922 794.818 183.647C794.893 183.497 795.655 180.511 797.104 174.69C798.553 168.869 799.315 165.783 799.39 165.433C799.415 165.308 799.428 165.133 799.428 164.909C799.428 163.884 799.115 163.372 798.491 163.372C797.941 163.372 797.479 163.722 797.104 164.421C796.729 165.121 796.442 165.883 796.242 166.707C796.042 167.532 795.892 167.982 795.793 168.057C795.743 168.107 795.543 168.132 795.193 168.132H794.668C794.518 167.982 794.443 167.869 794.443 167.794ZM800.252 174.727C800.802 176.626 801.726 177.576 803.025 177.576C803.775 177.576 804.499 177.288 805.199 176.714C805.899 176.139 806.473 175.414 806.923 174.54C807.373 173.691 807.822 172.341 808.272 170.493C808.722 168.644 808.959 167.27 808.984 166.37V166.145C808.984 164.297 808.222 163.372 806.698 163.372C806.423 163.372 806.148 163.41 805.874 163.485C805.599 163.559 805.324 163.672 805.049 163.822C804.774 163.972 804.524 164.134 804.3 164.309C804.075 164.484 803.862 164.671 803.663 164.871C803.463 165.071 803.275 165.258 803.1 165.433C802.925 165.608 802.788 165.783 802.688 165.958C802.588 166.133 802.488 166.258 802.388 166.333L802.276 166.483C802.276 166.508 802.238 166.683 802.163 167.007C802.089 167.332 801.951 167.882 801.751 168.656C801.551 169.431 801.376 170.08 801.227 170.605C800.577 173.253 800.252 174.627 800.252 174.727Z" fill="var(--fg, black)"/>
<path d="M723.703 265.282C725.798 265.982 728.064 264.852 728.765 262.757C729.466 260.662 728.335 258.395 726.24 257.695L723.703 265.282ZM644.028 231.432C642.051 232.418 641.247 234.82 642.233 236.797L658.3 269.013C659.286 270.99 661.688 271.793 663.665 270.807C665.642 269.821 666.445 267.419 665.459 265.442L651.177 236.806L679.814 222.525C681.791 221.539 682.594 219.137 681.608 217.16C680.622 215.183 678.22 214.38 676.243 215.365L644.028 231.432ZM726.24 257.695L647.082 231.218L644.544 238.805L723.703 265.282L726.24 257.695Z" fill="#2739DC"/>
<ellipse cx="725.448" cy="261.896" rx="10.936" ry="16.3116" transform="rotate(19.2991 725.448 261.896)" fill="var(--fg, black)"/>
<path d="M723.072 264.88C724.994 265.968 727.435 265.291 728.523 263.368C729.611 261.445 728.934 259.005 727.011 257.917L723.072 264.88ZM623.632 200.773C621.503 201.364 620.256 203.568 620.846 205.697L630.467 240.388C631.057 242.516 633.261 243.764 635.39 243.173C637.519 242.583 638.766 240.379 638.176 238.25L629.624 207.413L660.46 198.862C662.589 198.272 663.836 196.067 663.246 193.939C662.656 191.81 660.451 190.563 658.323 191.153L623.632 200.773ZM727.011 257.917L626.67 201.146L622.731 208.109L723.072 264.88L727.011 257.917Z" fill="#1C9812"/>
<circle cx="1452.57" cy="383.524" r="14.5" fill="var(--fg, black)"/>
<path d="M1205.26 257.31C1203.28 256.331 1200.88 257.143 1199.9 259.123C1198.92 261.103 1199.74 263.502 1201.72 264.481L1205.26 257.31ZM1440.04 380.984C1442.13 380.276 1443.25 378.005 1442.55 375.913L1431.01 341.812C1430.3 339.72 1428.03 338.597 1425.94 339.305C1423.84 340.013 1422.72 342.284 1423.43 344.376L1433.69 374.688L1403.37 384.945C1401.28 385.653 1400.16 387.924 1400.87 390.016C1401.58 392.109 1403.85 393.231 1405.94 392.523L1440.04 380.984ZM1201.72 264.481L1436.98 380.781L1440.53 373.609L1205.26 257.31L1201.72 264.481Z" fill="#AD1E1E"/>
<path d="M1044.01 438.154L1180.27 40.391L1407.92 18.3867L1209.04 549.02L1044.01 438.154Z" stroke="var(--fg, black)" stroke-width="8" stroke-linecap="round" stroke-linejoin="round"/>
<path d="M1244.74 217.444C1244.74 216.527 1244.39 216.069 1243.69 216.069C1242.81 216.069 1241.9 216.601 1240.94 217.664C1239.99 218.727 1239.2 220.359 1238.58 222.559C1238.54 222.596 1238.51 222.651 1238.47 222.724C1238.43 222.797 1238.41 222.852 1238.41 222.889C1238.41 222.926 1238.38 222.962 1238.3 222.999C1238.23 223.036 1238.18 223.054 1238.14 223.054C1238.1 223.054 1238.03 223.054 1237.92 223.054C1237.81 223.054 1237.66 223.054 1237.48 223.054H1236.71C1236.49 222.834 1236.38 222.669 1236.38 222.559C1236.38 222.302 1236.53 221.771 1236.82 220.964C1237.11 220.157 1237.55 219.204 1238.14 218.104C1238.73 217.004 1239.53 216.069 1240.56 215.299C1241.59 214.529 1242.74 214.126 1244.02 214.089C1245.56 214.089 1246.76 214.529 1247.6 215.409C1248.44 216.289 1248.88 217.316 1248.92 218.489C1248.92 219.112 1248.86 219.589 1248.75 219.919C1248.75 220.139 1248.48 220.946 1247.93 222.339C1247.38 223.732 1246.81 225.364 1246.22 227.234C1245.64 229.104 1245.31 230.736 1245.23 232.129C1245.23 233.119 1245.33 233.926 1245.51 234.549C1245.99 236.126 1247.14 236.914 1248.97 236.914C1250.33 236.914 1251.6 236.291 1252.77 235.044C1253.94 233.797 1254.86 232.349 1255.52 230.699C1256.18 229.049 1256.71 227.527 1257.11 226.134C1257.52 224.741 1257.72 223.732 1257.72 223.109C1257.72 222.266 1257.57 221.532 1257.28 220.909C1256.99 220.286 1256.66 219.809 1256.29 219.479C1255.92 219.149 1255.59 218.819 1255.3 218.489C1255.01 218.159 1254.86 217.756 1254.86 217.279C1254.86 216.472 1255.21 215.721 1255.9 215.024C1256.6 214.327 1257.35 213.979 1258.16 213.979C1258.86 213.979 1259.48 214.309 1260.03 214.969C1260.58 215.629 1260.87 216.692 1260.91 218.159C1260.91 219.149 1260.69 220.671 1260.25 222.724C1259.81 224.777 1259.13 227.069 1258.21 229.599C1257.3 232.129 1256 234.311 1254.31 236.144C1252.62 237.978 1250.68 238.913 1248.48 238.949C1246.13 238.949 1244.26 238.344 1242.87 237.134C1241.51 235.961 1240.83 234.219 1240.83 231.909C1240.83 230.772 1240.98 229.599 1241.27 228.389C1241.57 227.179 1242.32 225.034 1243.53 221.954C1244.34 219.607 1244.74 218.104 1244.74 217.444Z" fill="#2739DC"/>
<path d="M1143.72 285.363C1143.72 285.038 1143.9 284.409 1144.27 283.475C1144.63 282.541 1145.14 281.484 1145.79 280.307C1146.44 279.129 1147.33 278.113 1148.47 277.26C1149.61 276.408 1150.81 275.961 1152.07 275.92C1153.93 275.92 1155.34 276.428 1156.27 277.443C1157.2 278.459 1157.67 279.657 1157.67 281.038C1157.67 281.769 1156.98 284.043 1155.6 287.861C1154.22 291.679 1153.53 294.542 1153.53 296.451C1153.53 298.198 1153.81 299.416 1154.38 300.107C1154.95 300.797 1155.8 301.163 1156.94 301.203C1158.08 301.244 1159.15 300.899 1160.17 300.168C1161.18 299.437 1161.94 298.746 1162.42 298.096L1163.09 297.061C1163.17 296.898 1163.95 293.811 1165.41 287.8C1166.63 282.926 1167.36 280.083 1167.6 279.271C1167.85 278.459 1168.13 277.87 1168.45 277.504C1169.15 276.895 1169.88 276.59 1170.65 276.59C1171.34 276.59 1171.85 276.793 1172.17 277.2C1172.5 277.606 1172.66 277.992 1172.66 278.357L1168.03 297.731C1167.99 297.934 1167.97 298.259 1167.97 298.706C1167.97 299.721 1168.11 300.391 1168.39 300.716C1168.68 301.041 1169.1 301.224 1169.67 301.264C1170.57 301.143 1171.28 300.513 1171.81 299.376C1172.33 298.239 1172.94 296.451 1173.63 294.014C1173.71 293.69 1174.12 293.527 1174.85 293.527C1175.62 293.527 1176.01 293.71 1176.01 294.075C1175.97 294.278 1175.93 294.563 1175.89 294.928C1175.85 295.294 1175.66 295.944 1175.34 296.878C1175.01 297.812 1174.67 298.685 1174.3 299.498C1173.94 300.31 1173.43 301.082 1172.78 301.813C1172.13 302.544 1171.4 303.051 1170.59 303.336C1170.26 303.417 1169.77 303.458 1169.12 303.458C1166.44 303.458 1164.6 302.32 1163.58 300.046C1163.5 300.087 1163.28 300.29 1162.91 300.655C1162.55 301.021 1162.18 301.325 1161.81 301.569C1161.45 301.813 1161 302.117 1160.47 302.483C1159.95 302.848 1159.36 303.092 1158.71 303.214C1158.06 303.336 1157.37 303.437 1156.64 303.519C1154.85 303.519 1153.26 303.153 1151.88 302.422C1149.77 301.163 1148.72 299.01 1148.72 295.964C1148.72 293.649 1149.43 290.623 1150.85 286.886C1152.27 283.15 1152.98 280.774 1152.98 279.758C1152.98 279.718 1152.98 279.677 1152.98 279.636C1152.98 279.271 1152.98 279.027 1152.98 278.905C1152.98 278.784 1152.9 278.641 1152.74 278.479C1152.57 278.316 1152.35 278.235 1152.07 278.235H1151.82C1150.89 278.235 1150.04 278.621 1149.26 279.393C1148.49 280.164 1147.88 280.997 1147.44 281.891C1146.99 282.784 1146.64 283.637 1146.4 284.449C1146.16 285.262 1145.99 285.709 1145.91 285.79C1145.83 285.871 1145.51 285.912 1144.94 285.912H1144.09C1143.84 285.668 1143.72 285.485 1143.72 285.363Z" fill="#2739DC"/>
<path d="M1087.52 198.029C1087.52 197.262 1087.87 196.55 1088.56 195.893C1089.25 195.235 1090.02 194.888 1090.86 194.852C1091.52 194.852 1092.12 195.181 1092.67 195.838C1093.22 196.495 1093.51 197.536 1093.54 198.96C1093.54 200.018 1093.2 202.118 1092.5 205.258C1091.96 207.303 1091.46 208.982 1091.03 210.297C1090.59 211.611 1089.95 213.09 1089.11 214.733C1088.27 216.376 1087.26 217.617 1086.1 218.457C1084.93 219.297 1083.61 219.717 1082.15 219.717C1080.55 219.717 1079.12 219.425 1077.88 218.841C1076.64 218.256 1075.75 217.471 1075.2 216.485C1075.16 216.522 1075.11 216.595 1075.03 216.705C1073.54 218.713 1071.71 219.717 1069.56 219.717C1068.61 219.717 1067.69 219.607 1066.82 219.388C1065.94 219.169 1065.08 218.822 1064.24 218.348C1063.4 217.873 1062.73 217.161 1062.22 216.212C1061.71 215.262 1061.45 214.112 1061.45 212.761C1061.45 210.79 1062.07 208.124 1063.31 204.765C1064.55 201.406 1065.19 199.27 1065.23 198.357C1065.23 198.321 1065.23 198.284 1065.23 198.248C1065.23 197.919 1065.23 197.7 1065.23 197.59C1065.23 197.481 1065.16 197.353 1065.01 197.207C1064.86 197.061 1064.66 196.988 1064.41 196.988H1064.19C1063.35 196.988 1062.58 197.335 1061.89 198.029C1061.19 198.722 1060.65 199.471 1060.25 200.274C1059.84 201.077 1059.53 201.844 1059.31 202.574C1059.1 203.305 1058.95 203.706 1058.88 203.779C1058.8 203.852 1058.51 203.889 1058 203.889H1057.23C1057.01 203.67 1056.9 203.505 1056.9 203.396C1056.9 203.177 1057.05 202.666 1057.34 201.862C1057.64 201.059 1058.05 200.128 1058.6 199.069C1059.15 198.01 1059.95 197.061 1061.01 196.221C1062.07 195.381 1063.26 194.962 1064.57 194.962C1066.14 194.962 1067.35 195.418 1068.19 196.331C1069.03 197.244 1069.45 198.302 1069.45 199.507C1069.45 200.165 1068.84 202.136 1067.64 205.422C1066.43 208.708 1065.83 211.246 1065.83 213.035C1065.83 214.715 1066.22 215.901 1066.98 216.595C1067.75 217.289 1068.72 217.654 1069.88 217.69C1071.45 217.69 1072.84 216.577 1074.05 214.35L1074.32 213.857V212.597C1074.32 212.487 1074.32 212.323 1074.32 212.104C1074.32 211.885 1074.34 211.739 1074.38 211.666C1074.41 211.593 1074.43 211.465 1074.43 211.282C1074.43 211.1 1074.45 210.936 1074.49 210.79C1074.52 210.644 1074.58 210.406 1074.65 210.078C1074.72 209.749 1074.78 209.439 1074.81 209.147C1074.85 208.854 1074.96 208.416 1075.14 207.832C1075.33 207.248 1075.47 206.664 1075.58 206.079C1075.69 205.495 1075.89 204.71 1076.18 203.724C1077.24 199.562 1077.84 197.317 1077.99 196.988C1078.47 196.002 1079.25 195.509 1080.35 195.509C1081.04 195.509 1081.51 195.692 1081.77 196.057C1082.03 196.422 1082.17 196.769 1082.21 197.097C1082.21 197.572 1081.68 199.909 1080.62 204.108C1079.56 208.307 1078.98 210.717 1078.87 211.337C1078.79 211.739 1078.76 212.378 1078.76 213.254V213.638C1078.76 214.185 1078.81 214.715 1078.92 215.226C1079.03 215.737 1079.38 216.266 1079.96 216.814C1080.55 217.362 1081.37 217.654 1082.43 217.69C1085.02 217.69 1087.08 215.463 1088.62 211.009C1088.94 210.169 1089.31 208.982 1089.71 207.449C1090.11 205.915 1090.33 204.82 1090.37 204.163C1090.37 202.958 1090.13 202.008 1089.66 201.315C1089.18 200.621 1088.71 200.037 1088.23 199.562C1087.76 199.087 1087.52 198.576 1087.52 198.029Z" fill="#1C9812"/>
<path d="M1199.67 260.009C1198.86 262.061 1199.86 264.387 1201.91 265.205C1203.96 266.022 1206.29 265.02 1207.11 262.968L1199.67 260.009ZM1244.9 164.887C1244.03 162.858 1241.67 161.921 1239.65 162.795L1206.58 177.027C1204.55 177.901 1203.61 180.254 1204.49 182.283C1205.36 184.312 1207.71 185.249 1209.74 184.376L1239.13 171.724L1251.79 201.117C1252.66 203.146 1255.01 204.083 1257.04 203.21C1259.07 202.337 1260.01 199.984 1259.13 197.954L1244.9 164.887ZM1207.11 262.968L1244.94 167.949L1237.51 164.989L1199.67 260.009L1207.11 262.968Z" fill="#2739DC"/>
<path d="M1202.12 265.282C1204.22 265.982 1206.48 264.852 1207.18 262.757C1207.89 260.662 1206.76 258.395 1204.66 257.695L1202.12 265.282ZM1122.45 231.432C1120.47 232.418 1119.67 234.82 1120.65 236.797L1136.72 269.013C1137.71 270.99 1140.11 271.793 1142.08 270.807C1144.06 269.821 1144.86 267.419 1143.88 265.442L1129.6 236.806L1158.23 222.525C1160.21 221.539 1161.01 219.137 1160.03 217.16C1159.04 215.183 1156.64 214.38 1154.66 215.365L1122.45 231.432ZM1204.66 257.695L1125.5 231.218L1122.96 238.805L1202.12 265.282L1204.66 257.695Z" fill="#2739DC"/>
<ellipse cx="1203.87" cy="261.896" rx="10.936" ry="16.3116" transform="rotate(19.2991 1203.87 261.896)" fill="var(--fg, black)"/>
<path d="M1201.49 264.88C1203.41 265.968 1205.85 265.291 1206.94 263.368C1208.03 261.445 1207.35 259.005 1205.43 257.917L1201.49 264.88ZM1102.05 200.773C1099.92 201.364 1098.68 203.568 1099.27 205.697L1108.89 240.388C1109.48 242.516 1111.68 243.764 1113.81 243.173C1115.94 242.583 1117.19 240.379 1116.6 238.25L1108.04 207.413L1138.88 198.862C1141.01 198.272 1142.26 196.067 1141.67 193.939C1141.08 191.81 1138.87 190.563 1136.74 191.153L1102.05 200.773ZM1205.43 257.917L1105.09 201.146L1101.15 208.109L1201.49 264.88L1205.43 257.917Z" fill="#1C9812"/>
</svg>
