<svg width="100%" viewBox="0 0 1532 556" fill="none" xmlns="http://www.w3.org/2000/svg">

<path d="M801 165.5L1140 149.5V488" stroke="#AD1E1E" stroke-width="8" stroke-dasharray="16 16"/>
<path d="M1301 519.697L803.905 428.219L803.905 100.638L1301 53.3984L1301 519.697Z" stroke="var(--fg, black)" stroke-width="8"/>
<path d="M1131.12 158.133C1132.85 155.307 1131.96 151.613 1129.13 149.883L1083.08 121.687C1080.25 119.957 1076.56 120.846 1074.83 123.672C1073.1 126.498 1073.99 130.191 1076.81 131.922L1117.75 156.984L1092.69 197.922C1090.96 200.748 1091.85 204.441 1094.67 206.172C1097.5 207.902 1101.19 207.013 1102.92 204.187L1131.12 158.133ZM441.403 325.834L1127.4 160.834L1124.6 149.166L438.597 314.166L441.403 325.834Z" fill="#AD1E1E"/>
<path d="M149.743 316.772C147.408 319.124 147.421 322.923 149.772 325.258L188.09 363.307C190.441 365.642 194.24 365.629 196.575 363.277C198.91 360.926 198.897 357.127 196.545 354.792L162.485 320.97L196.307 286.91C198.642 284.559 198.629 280.76 196.277 278.425C193.926 276.09 190.127 276.103 187.792 278.455L149.743 316.772ZM438.979 314L153.979 315L154.021 327L439.021 326L438.979 314Z" fill="#1C9812"/>
<path d="M443.243 57.7577C440.899 55.4146 437.101 55.4145 434.757 57.7577L396.574 95.9415C394.23 98.2846 394.23 102.084 396.574 104.427C398.917 106.77 402.716 106.77 405.059 104.427L439 70.4856L472.941 104.427C475.284 106.77 479.083 106.77 481.426 104.427C483.77 102.084 483.77 98.2846 481.426 95.9415L443.243 57.7577ZM445 320L445 62.0003L433 62.0003L433 320L445 320Z" fill="#1C9812"/>
<path d="M617.666 366.097C620.481 364.348 621.345 360.649 619.597 357.834L591.101 311.965C589.352 309.15 585.652 308.286 582.838 310.034C580.023 311.783 579.159 315.482 580.907 318.297L606.237 359.07L565.465 384.399C562.65 386.148 561.786 389.848 563.534 392.662C565.283 395.477 568.982 396.341 571.797 394.593L617.666 366.097ZM437.635 325.843L613.135 366.843L615.865 355.157L440.365 314.157L437.635 325.843Z" fill="#1C9812"/>
<path d="M436 319.045L1019 319.045" stroke="#1C9812" stroke-width="4" stroke-linecap="round" stroke-dasharray="16 16"/>
<circle cx="1019.5" cy="318.5" r="14.5" fill="#1C9812"/>
<circle cx="805.5" cy="100.5" r="14.5" fill="#2739DC"/>
<circle cx="1300.5" cy="53.5" r="14.5" fill="#2739DC"/>
<circle cx="805.5" cy="427.5" r="14.5" fill="#2739DC"/>
<circle cx="1300.5" cy="521.5" r="14.5" fill="#2739DC"/>
<circle cx="1140.5" cy="149.5" r="14.5" fill="#AD1E1E"/>
<path d="M324 52.9542C324 52.9542 324 52.6792 324 52.1293C324 51.5794 324.296 51.1564 324.888 50.8603H343.86V41.3425L343.924 31.8248C344.347 31.2748 344.749 30.9999 345.129 30.9999C345.679 30.9999 346.102 31.3171 346.398 31.9517V50.8603H365.307C365.942 51.1987 366.259 51.6217 366.259 52.1293C366.259 52.6369 365.942 53.0599 365.307 53.3984H346.398V72.307C346.06 72.8992 345.679 73.1953 345.256 73.1953H345.129H345.003C344.495 73.1953 344.114 72.8992 343.86 72.307V53.3984H324.888C324.296 53.1023 324 52.6792 324 52.1293V52.9542Z" fill="#1C9812"/>
<path d="M371.145 49.7817C371.145 49.1895 371.462 48.1743 372.097 46.736C372.731 45.2978 373.747 43.7961 375.142 42.231C376.538 40.6658 378.104 39.9044 379.838 39.9467C381.572 39.9467 382.968 40.4332 384.026 41.4061C385.083 42.379 385.633 43.7327 385.675 45.467C385.591 46.2707 385.527 46.7149 385.485 46.7995C385.485 46.9264 385.147 47.8993 384.47 49.7183C383.793 51.5372 383.095 53.5888 382.376 55.8731C381.657 58.1574 381.318 59.9763 381.361 61.3299C381.361 63.1489 381.657 64.4179 382.249 65.1371C382.841 65.8562 383.73 66.2369 384.914 66.2792C385.887 66.2792 386.796 66.0465 387.642 65.5812C388.489 65.1159 389.144 64.6294 389.609 64.1218C390.075 63.6142 390.646 62.9162 391.323 62.0279C391.323 61.9856 391.428 61.5626 391.64 60.7589C391.851 59.9552 392.148 58.7073 392.528 57.0152C392.909 55.3232 393.311 53.758 393.734 52.3198C395.341 45.9746 396.23 42.654 396.399 42.3579C396.949 41.2157 397.858 40.6447 399.127 40.6447C399.677 40.6447 400.121 40.7927 400.46 41.0888C400.798 41.3849 401.031 41.6387 401.158 41.8503C401.285 42.0618 401.327 42.2521 401.285 42.4213C401.285 42.9712 400.248 47.4129 398.175 55.7462C396.103 64.0795 394.918 68.6481 394.622 69.4518C393.438 72.9628 391.386 75.7547 388.467 77.8274C385.549 79.9002 382.63 80.9577 379.711 81C377.807 81 376.137 80.5347 374.698 79.6041C373.26 78.6734 372.541 77.2775 372.541 75.4162C372.541 74.4856 372.689 73.703 372.985 73.0685C373.281 72.434 373.683 71.9687 374.191 71.6726C374.698 71.3765 375.121 71.165 375.46 71.0381C375.798 70.9112 376.158 70.8477 376.538 70.8477C378.4 70.8477 379.33 71.736 379.33 73.5127C379.33 74.3587 379.076 75.099 378.569 75.7335C378.061 76.368 377.575 76.791 377.109 77.0025C376.644 77.214 376.369 77.3198 376.285 77.3198L376.094 77.3832C376.179 77.5948 376.581 77.8486 377.3 78.1447C378.019 78.4408 378.738 78.5888 379.457 78.5888H379.965C380.684 78.5888 381.234 78.5465 381.615 78.4619C383.011 78.0812 384.301 77.2775 385.485 76.0508C386.67 74.824 387.579 73.5127 388.214 72.1168C388.848 70.7208 389.335 69.5364 389.673 68.5635C390.011 67.5905 390.181 66.956 390.181 66.6599L389.8 66.9137C389.546 67.0829 389.144 67.3156 388.594 67.6117C388.044 67.9078 387.494 68.1616 386.945 68.3731C386.098 68.5846 385.274 68.6904 384.47 68.6904C382.524 68.6904 380.811 68.225 379.33 67.2944C377.85 66.3638 376.877 64.8621 376.412 62.7893C376.369 62.4932 376.348 61.8376 376.348 60.8223C376.348 58.4112 377.088 55.2597 378.569 51.368C380.049 47.4763 380.79 45.0017 380.79 43.9442C380.79 43.9019 380.79 43.8596 380.79 43.8173C380.79 43.4365 380.79 43.1827 380.79 43.0558C380.79 42.9289 380.705 42.7809 380.536 42.6117C380.367 42.4425 380.134 42.3579 379.838 42.3579H379.584C378.611 42.3579 377.723 42.7597 376.919 43.5634C376.115 44.3672 375.481 45.2343 375.016 46.165C374.55 47.0956 374.191 47.9839 373.937 48.8299C373.683 49.676 373.514 50.1413 373.429 50.2259C373.345 50.3105 373.006 50.3528 372.414 50.3528H371.526C371.272 50.099 371.145 49.9086 371.145 49.7817Z" fill="#1C9812"/>
<path d="M72 365.015C72 365.015 72 364.689 72 364.038C72 363.386 72.3509 362.885 73.0526 362.534H95.5338V351.256L95.609 339.977C96.1103 339.326 96.5865 339 97.0376 339C97.6892 339 98.1905 339.376 98.5414 340.128V362.534H120.947C121.699 362.935 122.075 363.436 122.075 364.038C122.075 364.639 121.699 365.14 120.947 365.541H98.5414V387.947C98.1404 388.649 97.6892 389 97.188 389H97.0376H96.8872C96.2857 389 95.8346 388.649 95.5338 387.947V365.541H73.0526C72.3509 365.19 72 364.689 72 364.038V365.015Z" fill="#1C9812"/>
<path d="M152.376 357.421C151.874 357.421 150.546 357.145 148.391 356.594C146.235 356.043 144.656 355.767 143.654 355.767C142.651 355.767 141.799 355.867 141.097 356.068C140.396 356.268 139.819 356.519 139.368 356.82C138.917 357.12 138.616 357.396 138.466 357.647C138.315 357.897 138.14 358.173 137.94 358.474L137.789 358.774C137.639 358.925 137.263 359 136.661 359C135.609 359 135.082 358.799 135.082 358.398C135.082 358.148 135.158 357.797 135.308 357.346C135.96 355.391 137.037 353.712 138.541 352.308C140.045 350.905 141.699 350.053 143.503 349.752C144.105 349.652 144.531 349.601 144.782 349.601C146.035 349.601 147.163 350.028 148.165 350.88C149.168 351.732 150.12 352.559 151.022 353.361C151.925 354.163 152.877 354.589 153.879 354.639C154.982 354.639 156.085 353.812 157.188 352.158C158.29 350.504 158.867 349.677 158.917 349.677C158.967 349.627 159.343 349.601 160.045 349.601H161.022C161.323 349.902 161.473 350.103 161.473 350.203C161.473 350.403 161.348 350.754 161.097 351.256C160.847 351.757 160.496 352.283 160.045 352.835C159.594 353.386 159.168 353.937 158.767 354.489C158.366 355.04 158.015 355.516 157.714 355.917L157.188 356.594C155.032 359.15 151.624 362.534 146.962 366.744C142.3 370.955 139.418 373.662 138.315 374.865L137.413 375.767L138.541 375.842C139.644 375.842 141.248 376.118 143.353 376.669C145.458 377.221 147.037 377.496 148.09 377.496C149.995 377.496 151.749 377.02 153.353 376.068C154.957 375.115 156.01 373.862 156.511 372.308C156.711 371.857 156.887 371.581 157.037 371.481C157.188 371.381 157.564 371.331 158.165 371.331C159.117 371.331 159.594 371.581 159.594 372.083C159.594 372.333 159.569 372.559 159.518 372.759C158.666 375.867 157.012 378.449 154.556 380.504C152.1 382.559 149.644 383.611 147.188 383.662C145.884 383.662 144.732 383.236 143.729 382.383C142.727 381.531 141.749 380.679 140.797 379.827C139.844 378.975 138.892 378.549 137.94 378.549C135.734 378.549 133.754 380.053 132 383.06C131.699 383.461 131.273 383.662 130.722 383.662H130.346H129.368C129.067 383.361 128.917 383.135 128.917 382.985C128.917 382.233 130.371 380.078 133.278 376.519C135.233 374.263 138.541 371.005 143.203 366.744C147.864 362.484 150.747 359.777 151.849 358.624C152.451 357.822 152.626 357.421 152.376 357.421Z" fill="#1C9812"/>
<path d="M584 415.015C584 415.015 584 414.689 584 414.038C584 413.386 584.351 412.885 585.053 412.534H607.534V401.256L607.609 389.977C608.11 389.326 608.586 389 609.038 389C609.689 389 610.19 389.376 610.541 390.128V412.534H632.947C633.699 412.935 634.075 413.436 634.075 414.038C634.075 414.639 633.699 415.14 632.947 415.541H610.541V437.947C610.14 438.649 609.689 439 609.188 439H609.038H608.887C608.286 439 607.835 438.649 607.534 437.947V415.541H585.053C584.351 415.19 584 414.689 584 414.038V415.015Z" fill="#1C9812"/>
<path d="M642.195 411.105C642.546 409 643.9 406.569 646.256 403.812C648.611 401.055 651.519 399.652 654.977 399.601C656.732 399.601 658.336 400.053 659.789 400.955C661.243 401.857 662.321 402.985 663.022 404.338C665.128 401.18 667.659 399.601 670.616 399.601C672.471 399.601 674.075 400.153 675.429 401.256C676.782 402.358 677.484 403.837 677.534 405.692C677.534 407.145 677.183 408.323 676.481 409.226C675.779 410.128 675.103 410.679 674.451 410.88C673.799 411.08 673.223 411.18 672.722 411.18C671.769 411.18 670.992 410.905 670.391 410.353C669.789 409.802 669.489 409.075 669.489 408.173C669.489 405.867 670.742 404.288 673.248 403.436C672.697 402.784 671.694 402.459 670.241 402.459C669.589 402.459 669.113 402.509 668.812 402.609C666.907 403.411 665.504 405.065 664.601 407.571C661.594 418.649 660.09 425.115 660.09 426.97C660.09 428.373 660.491 429.376 661.293 429.977C662.095 430.579 662.972 430.88 663.925 430.88C665.779 430.88 667.609 430.053 669.413 428.398C671.218 426.744 672.446 424.714 673.098 422.308C673.248 421.807 673.398 421.531 673.549 421.481C673.699 421.431 674.1 421.381 674.752 421.331H675.053C675.804 421.331 676.18 421.531 676.18 421.932C676.18 421.982 676.13 422.258 676.03 422.759C675.228 425.617 673.674 428.148 671.368 430.353C669.063 432.559 666.381 433.662 663.323 433.662C659.814 433.662 657.158 432.083 655.353 428.925C653.298 432.033 650.942 433.586 648.286 433.586H647.835C645.378 433.586 643.624 432.935 642.571 431.632C641.519 430.328 640.967 428.95 640.917 427.496C640.917 425.892 641.393 424.589 642.346 423.586C643.298 422.584 644.426 422.083 645.729 422.083C647.885 422.083 648.962 423.135 648.962 425.241C648.962 426.243 648.662 427.12 648.06 427.872C647.459 428.624 646.882 429.125 646.331 429.376C645.779 429.627 645.454 429.752 645.353 429.752L645.128 429.827C645.128 429.877 645.278 429.977 645.579 430.128C645.88 430.278 646.281 430.454 646.782 430.654C647.283 430.855 647.759 430.93 648.21 430.88C650.015 430.88 651.569 429.752 652.872 427.496C653.323 426.694 653.9 424.99 654.601 422.383C655.303 419.777 656.005 417.07 656.707 414.263C657.408 411.456 657.809 409.802 657.91 409.301C658.16 407.947 658.286 406.97 658.286 406.368C658.286 404.965 657.91 403.962 657.158 403.361C656.406 402.759 655.554 402.459 654.601 402.459C652.596 402.459 650.717 403.261 648.962 404.865C647.208 406.469 645.98 408.524 645.278 411.03C645.178 411.481 645.053 411.732 644.902 411.782C644.752 411.832 644.351 411.882 643.699 411.932H642.647C642.346 411.632 642.195 411.356 642.195 411.105Z" fill="#1C9812"/>
<path d="M673 51C673 49.16 673.133 47.4133 673.4 45.76C673.667 44.1067 673.973 42.68 674.32 41.48C674.667 40.28 675.16 39.1067 675.8 37.96C676.44 36.8133 676.947 35.92 677.32 35.28C677.693 34.64 678.253 33.9467 679 33.2C679.747 32.4533 680.187 32 680.32 31.84C680.453 31.68 680.787 31.4 681.32 31H681.84H682C682.373 31 682.56 31.12 682.56 31.36C682.56 31.44 682.333 31.72 681.88 32.2C681.427 32.68 680.88 33.3867 680.24 34.32C679.6 35.2533 678.947 36.4 678.28 37.76C677.613 39.12 677.053 40.96 676.6 43.28C676.147 45.6 675.92 48.1733 675.92 51C675.92 53.8267 676.147 56.3867 676.6 58.68C677.053 60.9733 677.6 62.8267 678.24 64.24C678.88 65.6533 679.533 66.8 680.2 67.68C680.867 68.56 681.427 69.2667 681.88 69.8C682.333 70.3333 682.56 70.6133 682.56 70.64C682.56 70.88 682.36 71 681.96 71H681.84H681.32L680.2 70.04C677.693 67.7733 675.867 64.9467 674.72 61.56C673.573 58.1733 673 54.6533 673 51Z" fill="#2739DC"/>
<path d="M688.16 51.5198C688.16 51.5198 688.16 51.3465 688.16 50.9998C688.16 50.6531 688.347 50.3865 688.72 50.1998H711.96C712.36 50.4131 712.56 50.6798 712.56 50.9998C712.56 51.3198 712.36 51.5865 711.96 51.7998H688.72C688.347 51.6131 688.16 51.3465 688.16 50.9998V51.5198Z" fill="#2739DC"/>
<path d="M720.28 43.84C719.56 43.84 718.987 43.6 718.56 43.12C718.133 42.64 717.92 42.0533 717.92 41.36C717.92 39.4667 718.627 37.8267 720.04 36.44C721.453 35.0533 723.213 34.36 725.32 34.36C727.747 34.36 729.773 35.1067 731.4 36.6C733.027 38.0933 733.853 40.0267 733.88 42.4C733.88 43.5467 733.613 44.64 733.08 45.68C732.547 46.72 731.907 47.6267 731.16 48.4C730.413 49.1733 729.347 50.16 727.96 51.36C727 52.1867 725.667 53.4133 723.96 55.04L721.6 57.28L724.64 57.32C728.827 57.32 731.053 57.2533 731.32 57.12C731.507 57.0667 731.827 55.88 732.28 53.56V53.44H733.88V53.56C733.853 53.64 733.68 54.8533 733.36 57.2C733.04 59.5467 732.84 60.7733 732.76 60.88V61H717.92V60.24V59.76C717.92 59.5733 718 59.3733 718.16 59.16C718.32 58.9467 718.72 58.48 719.36 57.76C720.133 56.9067 720.8 56.16 721.36 55.52C721.6 55.2533 722.053 54.76 722.72 54.04C723.387 53.32 723.84 52.8267 724.08 52.56C724.32 52.2933 724.707 51.8533 725.24 51.24C725.773 50.6267 726.147 50.1733 726.36 49.88C726.573 49.5867 726.88 49.1867 727.28 48.68C727.68 48.1733 727.96 47.7467 728.12 47.4C728.28 47.0533 728.48 46.6667 728.72 46.24C728.96 45.8133 729.133 45.3867 729.24 44.96C729.347 44.5333 729.44 44.1333 729.52 43.76C729.6 43.3867 729.64 42.9467 729.64 42.44C729.64 40.76 729.187 39.3067 728.28 38.08C727.373 36.8533 726.08 36.24 724.4 36.24C723.52 36.24 722.747 36.4667 722.08 36.92C721.413 37.3733 720.947 37.8133 720.68 38.24C720.413 38.6667 720.28 38.92 720.28 39C720.28 39.0267 720.347 39.04 720.48 39.04C720.96 39.04 721.453 39.2267 721.96 39.6C722.467 39.9733 722.72 40.5867 722.72 41.44C722.72 42.1067 722.507 42.6667 722.08 43.12C721.653 43.5733 721.053 43.8133 720.28 43.84Z" fill="#2739DC"/>
<path d="M739.04 59.6C739.04 59.6 739.04 59.2667 739.04 58.6C739.04 57.9334 739.253 57.36 739.68 56.88C740.107 56.4 740.68 56.16 741.4 56.16C742.147 56.16 742.813 56.4934 743.4 57.16C743.987 57.8267 744.293 59 744.32 60.68C744.32 61.6134 744.2 62.52 743.96 63.4C743.72 64.28 743.44 65.04 743.12 65.68C742.8 66.32 742.453 66.8667 742.08 67.32C741.707 67.7734 741.387 68.1334 741.12 68.4C740.853 68.6667 740.68 68.7867 740.6 68.76C740.493 68.76 740.32 68.64 740.08 68.4C739.84 68.16 739.72 67.9867 739.72 67.88C739.72 67.7734 739.867 67.56 740.16 67.24C740.453 66.92 740.787 66.52 741.16 66.04C741.533 65.56 741.88 64.8934 742.2 64.04C742.52 63.1867 742.733 62.2134 742.84 61.12V60.64L742.8 60.68C742.747 60.7067 742.68 60.7334 742.6 60.76C742.52 60.7867 742.44 60.8267 742.36 60.88C742.28 60.9334 742.16 60.96 742 60.96C741.84 60.96 741.68 60.9734 741.52 61C740.8 61 740.213 60.7734 739.76 60.32L739.04 59.6Z" fill="#2739DC"/>
<path d="M762.228 37.88L761.708 38.08C761.334 38.2133 760.801 38.3467 760.108 38.48C759.414 38.6133 758.641 38.7067 757.788 38.76H757.028V36.92H757.788C759.041 36.8667 760.201 36.6667 761.268 36.32C762.334 35.9733 763.081 35.6533 763.508 35.36C763.934 35.0667 764.308 34.7733 764.628 34.48C764.681 34.4 764.841 34.36 765.108 34.36C765.348 34.36 765.574 34.44 765.788 34.6V46.56L765.828 58.56C766.014 58.7467 766.174 58.8667 766.308 58.92C766.441 58.9733 766.761 59.0267 767.268 59.08C767.774 59.1333 768.601 59.16 769.748 59.16H770.788V61H770.348C769.788 60.92 767.668 60.88 763.988 60.88C760.361 60.88 758.268 60.92 757.708 61H757.228V59.16H758.268C758.854 59.16 759.361 59.16 759.788 59.16C760.214 59.16 760.548 59.1467 760.788 59.12C761.028 59.0933 761.241 59.0533 761.428 59C761.614 58.9467 761.721 58.92 761.748 58.92C761.774 58.92 761.854 58.8533 761.988 58.72C762.121 58.5867 762.201 58.5333 762.228 58.56V37.88Z" fill="#2739DC"/>
<path d="M776.828 59.6C776.828 59.6 776.828 59.2667 776.828 58.6C776.828 57.9334 777.041 57.36 777.468 56.88C777.895 56.4 778.468 56.16 779.188 56.16C779.935 56.16 780.601 56.4934 781.188 57.16C781.775 57.8267 782.081 59 782.108 60.68C782.108 61.6134 781.988 62.52 781.748 63.4C781.508 64.28 781.228 65.04 780.908 65.68C780.588 66.32 780.241 66.8667 779.868 67.32C779.495 67.7734 779.175 68.1334 778.908 68.4C778.641 68.6667 778.468 68.7867 778.388 68.76C778.281 68.76 778.108 68.64 777.868 68.4C777.628 68.16 777.508 67.9867 777.508 67.88C777.508 67.7734 777.655 67.56 777.948 67.24C778.241 66.92 778.575 66.52 778.948 66.04C779.321 65.56 779.668 64.8934 779.988 64.04C780.308 63.1867 780.521 62.2134 780.628 61.12V60.64L780.588 60.68C780.535 60.7067 780.468 60.7334 780.388 60.76C780.308 60.7867 780.228 60.8267 780.148 60.88C780.068 60.9334 779.948 60.96 779.788 60.96C779.628 60.96 779.468 60.9734 779.308 61C778.588 61 778.001 60.7734 777.548 60.32L776.828 59.6Z" fill="#2739DC"/>
<path d="M794.852 51.5198C794.852 51.5198 794.852 51.3465 794.852 50.9998C794.852 50.6531 795.039 50.3865 795.412 50.1998H818.652C819.052 50.4131 819.252 50.6798 819.252 50.9998C819.252 51.3198 819.052 51.5865 818.652 51.7998H795.412C795.039 51.6131 794.852 51.3465 794.852 50.9998V51.5198Z" fill="#2739DC"/>
<path d="M831.132 37.88L830.612 38.08C830.239 38.2133 829.705 38.3467 829.012 38.48C828.319 38.6133 827.545 38.7067 826.692 38.76H825.932V36.92H826.692C827.945 36.8667 829.105 36.6667 830.172 36.32C831.239 35.9733 831.985 35.6533 832.412 35.36C832.839 35.0667 833.212 34.7733 833.532 34.48C833.585 34.4 833.745 34.36 834.012 34.36C834.252 34.36 834.479 34.44 834.692 34.6V46.56L834.732 58.56C834.919 58.7467 835.079 58.8667 835.212 58.92C835.345 58.9733 835.665 59.0267 836.172 59.08C836.679 59.1333 837.505 59.16 838.652 59.16H839.692V61H839.252C838.692 60.92 836.572 60.88 832.892 60.88C829.265 60.88 827.172 60.92 826.612 61H826.132V59.16H827.172C827.759 59.16 828.265 59.16 828.692 59.16C829.119 59.16 829.452 59.1467 829.692 59.12C829.932 59.0933 830.145 59.0533 830.332 59C830.519 58.9467 830.625 58.92 830.652 58.92C830.679 58.92 830.759 58.8533 830.892 58.72C831.025 58.5867 831.105 58.5333 831.132 58.56V37.88Z" fill="#2739DC"/>
<path d="M845.012 31.04L845.172 31C845.305 31 845.439 31 845.572 31H846.052L847.172 31.96C849.679 34.2267 851.505 37.0533 852.652 40.44C853.799 43.8267 854.372 47.3467 854.372 51C854.372 52.8133 854.239 54.56 853.972 56.24C853.705 57.92 853.399 59.3467 853.052 60.52C852.705 61.6933 852.212 62.8667 851.572 64.04C850.932 65.2133 850.425 66.1067 850.052 66.72C849.679 67.3333 849.132 68.0133 848.412 68.76C847.692 69.5067 847.265 69.9467 847.132 70.08C846.999 70.2133 846.692 70.4667 846.212 70.84C846.132 70.92 846.079 70.9733 846.052 71H845.572C845.359 71 845.212 71 845.132 71C845.052 71 844.985 70.96 844.932 70.88C844.879 70.8 844.839 70.68 844.812 70.52C844.839 70.4933 844.985 70.32 845.252 70C849.385 65.7067 851.452 59.3733 851.452 51C851.452 42.6267 849.385 36.2933 845.252 32C844.985 31.68 844.839 31.5067 844.812 31.48C844.812 31.2667 844.879 31.12 845.012 31.04Z" fill="#2739DC"/>
<path d="M1326 53.8916C1326 52.0516 1326.13 50.3049 1326.4 48.6516C1326.67 46.9983 1326.97 45.5716 1327.32 44.3716C1327.67 43.1716 1328.16 41.9983 1328.8 40.8516C1329.44 39.7049 1329.95 38.8116 1330.32 38.1716C1330.69 37.5316 1331.25 36.8383 1332 36.0916C1332.75 35.3449 1333.19 34.8916 1333.32 34.7316C1333.45 34.5716 1333.79 34.2916 1334.32 33.8916H1334.84H1335C1335.37 33.8916 1335.56 34.0116 1335.56 34.2516C1335.56 34.3316 1335.33 34.6116 1334.88 35.0916C1334.43 35.5716 1333.88 36.2783 1333.24 37.2116C1332.6 38.1449 1331.95 39.2916 1331.28 40.6516C1330.61 42.0116 1330.05 43.8516 1329.6 46.1716C1329.15 48.4916 1328.92 51.0649 1328.92 53.8916C1328.92 56.7183 1329.15 59.2783 1329.6 61.5716C1330.05 63.8649 1330.6 65.7183 1331.24 67.1316C1331.88 68.5449 1332.53 69.6916 1333.2 70.5716C1333.87 71.4516 1334.43 72.1583 1334.88 72.6916C1335.33 73.2249 1335.56 73.5049 1335.56 73.5316C1335.56 73.7716 1335.36 73.8916 1334.96 73.8916H1334.84H1334.32L1333.2 72.9316C1330.69 70.6649 1328.87 67.8383 1327.72 64.4516C1326.57 61.0649 1326 57.5449 1326 53.8916Z" fill="#2739DC"/>
<path d="M1342.16 46.7316C1341.44 46.7316 1340.87 46.4916 1340.44 46.0116C1340.01 45.5316 1339.8 44.9449 1339.8 44.2516C1339.8 42.3583 1340.51 40.7183 1341.92 39.3316C1343.33 37.9449 1345.09 37.2516 1347.2 37.2516C1349.63 37.2516 1351.65 37.9983 1353.28 39.4916C1354.91 40.9849 1355.73 42.9183 1355.76 45.2916C1355.76 46.4383 1355.49 47.5316 1354.96 48.5716C1354.43 49.6116 1353.79 50.5183 1353.04 51.2916C1352.29 52.0649 1351.23 53.0516 1349.84 54.2516C1348.88 55.0783 1347.55 56.3049 1345.84 57.9316L1343.48 60.1716L1346.52 60.2116C1350.71 60.2116 1352.93 60.1449 1353.2 60.0116C1353.39 59.9583 1353.71 58.7716 1354.16 56.4516V56.3316H1355.76V56.4516C1355.73 56.5316 1355.56 57.7449 1355.24 60.0916C1354.92 62.4383 1354.72 63.6649 1354.64 63.7716V63.8916H1339.8V63.1316V62.6516C1339.8 62.4649 1339.88 62.2649 1340.04 62.0516C1340.2 61.8383 1340.6 61.3716 1341.24 60.6516C1342.01 59.7983 1342.68 59.0516 1343.24 58.4116C1343.48 58.1449 1343.93 57.6516 1344.6 56.9316C1345.27 56.2116 1345.72 55.7183 1345.96 55.4516C1346.2 55.1849 1346.59 54.7449 1347.12 54.1316C1347.65 53.5183 1348.03 53.0649 1348.24 52.7716C1348.45 52.4783 1348.76 52.0783 1349.16 51.5716C1349.56 51.0649 1349.84 50.6383 1350 50.2916C1350.16 49.9449 1350.36 49.5583 1350.6 49.1316C1350.84 48.7049 1351.01 48.2783 1351.12 47.8516C1351.23 47.4249 1351.32 47.0249 1351.4 46.6516C1351.48 46.2783 1351.52 45.8383 1351.52 45.3316C1351.52 43.6516 1351.07 42.1983 1350.16 40.9716C1349.25 39.7449 1347.96 39.1316 1346.28 39.1316C1345.4 39.1316 1344.63 39.3583 1343.96 39.8116C1343.29 40.2649 1342.83 40.7049 1342.56 41.1316C1342.29 41.5583 1342.16 41.8116 1342.16 41.8916C1342.16 41.9183 1342.23 41.9316 1342.36 41.9316C1342.84 41.9316 1343.33 42.1183 1343.84 42.4916C1344.35 42.8649 1344.6 43.4783 1344.6 44.3316C1344.6 44.9983 1344.39 45.5583 1343.96 46.0116C1343.53 46.4649 1342.93 46.7049 1342.16 46.7316Z" fill="#2739DC"/>
<path d="M1360.92 62.4911C1360.92 62.4911 1360.92 62.1578 1360.92 61.4911C1360.92 60.8245 1361.13 60.2511 1361.56 59.7711C1361.99 59.2911 1362.56 59.0511 1363.28 59.0511C1364.03 59.0511 1364.69 59.3845 1365.28 60.0511C1365.87 60.7178 1366.17 61.8911 1366.2 63.5711C1366.2 64.5045 1366.08 65.4111 1365.84 66.2911C1365.6 67.1711 1365.32 67.9311 1365 68.5711C1364.68 69.2111 1364.33 69.7578 1363.96 70.2111C1363.59 70.6645 1363.27 71.0245 1363 71.2911C1362.73 71.5578 1362.56 71.6778 1362.48 71.6511C1362.37 71.6511 1362.2 71.5311 1361.96 71.2911C1361.72 71.0511 1361.6 70.8778 1361.6 70.7711C1361.6 70.6645 1361.75 70.4511 1362.04 70.1311C1362.33 69.8111 1362.67 69.4111 1363.04 68.9311C1363.41 68.4511 1363.76 67.7845 1364.08 66.9311C1364.4 66.0778 1364.61 65.1045 1364.72 64.0111V63.5311L1364.68 63.5711C1364.63 63.5978 1364.56 63.6245 1364.48 63.6511C1364.4 63.6778 1364.32 63.7178 1364.24 63.7711C1364.16 63.8245 1364.04 63.8511 1363.88 63.8511C1363.72 63.8511 1363.56 63.8645 1363.4 63.8911C1362.68 63.8911 1362.09 63.6645 1361.64 63.2111L1360.92 62.4911Z" fill="#2739DC"/>
<path d="M1384.11 40.7716L1383.59 40.9716C1383.21 41.1049 1382.68 41.2383 1381.99 41.3716C1381.29 41.5049 1380.52 41.5983 1379.67 41.6516H1378.91V39.8116H1379.67C1380.92 39.7583 1382.08 39.5583 1383.15 39.2116C1384.21 38.8649 1384.96 38.5449 1385.39 38.2516C1385.81 37.9583 1386.19 37.6649 1386.51 37.3716C1386.56 37.2916 1386.72 37.2516 1386.99 37.2516C1387.23 37.2516 1387.45 37.3316 1387.67 37.4916V49.4516L1387.71 61.4516C1387.89 61.6383 1388.05 61.7583 1388.19 61.8116C1388.32 61.8649 1388.64 61.9183 1389.15 61.9716C1389.65 62.0249 1390.48 62.0516 1391.63 62.0516H1392.67V63.8916H1392.23C1391.67 63.8116 1389.55 63.7716 1385.87 63.7716C1382.24 63.7716 1380.15 63.8116 1379.59 63.8916H1379.11V62.0516H1380.15C1380.73 62.0516 1381.24 62.0516 1381.67 62.0516C1382.09 62.0516 1382.43 62.0383 1382.67 62.0116C1382.91 61.9849 1383.12 61.9449 1383.31 61.8916C1383.49 61.8383 1383.6 61.8116 1383.63 61.8116C1383.65 61.8116 1383.73 61.7449 1383.87 61.6116C1384 61.4783 1384.08 61.4249 1384.11 61.4516V40.7716Z" fill="#2739DC"/>
<path d="M1398.71 62.4911C1398.71 62.4911 1398.71 62.1578 1398.71 61.4911C1398.71 60.8245 1398.92 60.2511 1399.35 59.7711C1399.77 59.2911 1400.35 59.0511 1401.07 59.0511C1401.81 59.0511 1402.48 59.3845 1403.07 60.0511C1403.65 60.7178 1403.96 61.8911 1403.99 63.5711C1403.99 64.5045 1403.87 65.4111 1403.63 66.2911C1403.39 67.1711 1403.11 67.9311 1402.79 68.5711C1402.47 69.2111 1402.12 69.7578 1401.75 70.2111C1401.37 70.6645 1401.05 71.0245 1400.79 71.2911C1400.52 71.5578 1400.35 71.6778 1400.27 71.6511C1400.16 71.6511 1399.99 71.5311 1399.75 71.2911C1399.51 71.0511 1399.39 70.8778 1399.39 70.7711C1399.39 70.6645 1399.53 70.4511 1399.83 70.1311C1400.12 69.8111 1400.45 69.4111 1400.83 68.9311C1401.2 68.4511 1401.55 67.7845 1401.87 66.9311C1402.19 66.0778 1402.4 65.1045 1402.51 64.0111V63.5311L1402.47 63.5711C1402.41 63.5978 1402.35 63.6245 1402.27 63.6511C1402.19 63.6778 1402.11 63.7178 1402.03 63.7711C1401.95 63.8245 1401.83 63.8511 1401.67 63.8511C1401.51 63.8511 1401.35 63.8645 1401.19 63.8911C1400.47 63.8911 1399.88 63.6645 1399.43 63.2111L1398.71 62.4911Z" fill="#2739DC"/>
<path d="M1416.73 54.4114C1416.73 54.4114 1416.73 54.2381 1416.73 53.8914C1416.73 53.5447 1416.92 53.2781 1417.29 53.0914H1440.53C1440.93 53.3047 1441.13 53.5714 1441.13 53.8914C1441.13 54.2114 1440.93 54.4781 1440.53 54.6914H1417.29C1416.92 54.5047 1416.73 54.2381 1416.73 53.8914V54.4114Z" fill="#2739DC"/>
<path d="M1453.01 40.7716L1452.49 40.9716C1452.12 41.1049 1451.59 41.2383 1450.89 41.3716C1450.2 41.5049 1449.43 41.5983 1448.57 41.6516H1447.81V39.8116H1448.57C1449.83 39.7583 1450.99 39.5583 1452.05 39.2116C1453.12 38.8649 1453.87 38.5449 1454.29 38.2516C1454.72 37.9583 1455.09 37.6649 1455.41 37.3716C1455.47 37.2916 1455.63 37.2516 1455.89 37.2516C1456.13 37.2516 1456.36 37.3316 1456.57 37.4916V49.4516L1456.61 61.4516C1456.8 61.6383 1456.96 61.7583 1457.09 61.8116C1457.23 61.8649 1457.55 61.9183 1458.05 61.9716C1458.56 62.0249 1459.39 62.0516 1460.53 62.0516H1461.57V63.8916H1461.13C1460.57 63.8116 1458.45 63.7716 1454.77 63.7716C1451.15 63.7716 1449.05 63.8116 1448.49 63.8916H1448.01V62.0516H1449.05C1449.64 62.0516 1450.15 62.0516 1450.57 62.0516C1451 62.0516 1451.33 62.0383 1451.57 62.0116C1451.81 61.9849 1452.03 61.9449 1452.21 61.8916C1452.4 61.8383 1452.51 61.8116 1452.53 61.8116C1452.56 61.8116 1452.64 61.7449 1452.77 61.6116C1452.91 61.4783 1452.99 61.4249 1453.01 61.4516V40.7716Z" fill="#2739DC"/>
<path d="M1466.89 33.9316L1467.05 33.8916C1467.19 33.8916 1467.32 33.8916 1467.45 33.8916H1467.93L1469.05 34.8516C1471.56 37.1183 1473.39 39.9449 1474.53 43.3316C1475.68 46.7183 1476.25 50.2383 1476.25 53.8916C1476.25 55.7049 1476.12 57.4516 1475.85 59.1316C1475.59 60.8116 1475.28 62.2383 1474.93 63.4116C1474.59 64.5849 1474.09 65.7583 1473.45 66.9316C1472.81 68.1049 1472.31 68.9983 1471.93 69.6116C1471.56 70.2249 1471.01 70.9049 1470.29 71.6516C1469.57 72.3983 1469.15 72.8383 1469.01 72.9716C1468.88 73.1049 1468.57 73.3583 1468.09 73.7316C1468.01 73.8116 1467.96 73.8649 1467.93 73.8916H1467.45C1467.24 73.8916 1467.09 73.8916 1467.01 73.8916C1466.93 73.8916 1466.87 73.8516 1466.81 73.7716C1466.76 73.6916 1466.72 73.5716 1466.69 73.4116C1466.72 73.3849 1466.87 73.2116 1467.13 72.8916C1471.27 68.5983 1473.33 62.2649 1473.33 53.8916C1473.33 45.5183 1471.27 39.1849 1467.13 34.8916C1466.87 34.5716 1466.72 34.3983 1466.69 34.3716C1466.69 34.1583 1466.76 34.0116 1466.89 33.9316Z" fill="#2739DC"/>
<path d="M1326 526C1326 524.16 1326.13 522.413 1326.4 520.76C1326.67 519.107 1326.97 517.68 1327.32 516.48C1327.67 515.28 1328.16 514.107 1328.8 512.96C1329.44 511.813 1329.95 510.92 1330.32 510.28C1330.69 509.64 1331.25 508.947 1332 508.2C1332.75 507.453 1333.19 507 1333.32 506.84C1333.45 506.68 1333.79 506.4 1334.32 506H1334.84H1335C1335.37 506 1335.56 506.12 1335.56 506.36C1335.56 506.44 1335.33 506.72 1334.88 507.2C1334.43 507.68 1333.88 508.387 1333.24 509.32C1332.6 510.253 1331.95 511.4 1331.28 512.76C1330.61 514.12 1330.05 515.96 1329.6 518.28C1329.15 520.6 1328.92 523.173 1328.92 526C1328.92 528.827 1329.15 531.387 1329.6 533.68C1330.05 535.973 1330.6 537.827 1331.24 539.24C1331.88 540.653 1332.53 541.8 1333.2 542.68C1333.87 543.56 1334.43 544.267 1334.88 544.8C1335.33 545.333 1335.56 545.613 1335.56 545.64C1335.56 545.88 1335.36 546 1334.96 546H1334.84H1334.32L1333.2 545.04C1330.69 542.773 1328.87 539.947 1327.72 536.56C1326.57 533.173 1326 529.653 1326 526Z" fill="#2739DC"/>
<path d="M1342.16 518.84C1341.44 518.84 1340.87 518.6 1340.44 518.12C1340.01 517.64 1339.8 517.053 1339.8 516.36C1339.8 514.467 1340.51 512.827 1341.92 511.44C1343.33 510.053 1345.09 509.36 1347.2 509.36C1349.63 509.36 1351.65 510.107 1353.28 511.6C1354.91 513.093 1355.73 515.027 1355.76 517.4C1355.76 518.547 1355.49 519.64 1354.96 520.68C1354.43 521.72 1353.79 522.627 1353.04 523.4C1352.29 524.173 1351.23 525.16 1349.84 526.36C1348.88 527.187 1347.55 528.413 1345.84 530.04L1343.48 532.28L1346.52 532.32C1350.71 532.32 1352.93 532.253 1353.2 532.12C1353.39 532.067 1353.71 530.88 1354.16 528.56V528.44H1355.76V528.56C1355.73 528.64 1355.56 529.853 1355.24 532.2C1354.92 534.547 1354.72 535.773 1354.64 535.88V536H1339.8V535.24V534.76C1339.8 534.573 1339.88 534.373 1340.04 534.16C1340.2 533.947 1340.6 533.48 1341.24 532.76C1342.01 531.907 1342.68 531.16 1343.24 530.52C1343.48 530.253 1343.93 529.76 1344.6 529.04C1345.27 528.32 1345.72 527.827 1345.96 527.56C1346.2 527.293 1346.59 526.853 1347.12 526.24C1347.65 525.627 1348.03 525.173 1348.24 524.88C1348.45 524.587 1348.76 524.187 1349.16 523.68C1349.56 523.173 1349.84 522.747 1350 522.4C1350.16 522.053 1350.36 521.667 1350.6 521.24C1350.84 520.813 1351.01 520.387 1351.12 519.96C1351.23 519.533 1351.32 519.133 1351.4 518.76C1351.48 518.387 1351.52 517.947 1351.52 517.44C1351.52 515.76 1351.07 514.307 1350.16 513.08C1349.25 511.853 1347.96 511.24 1346.28 511.24C1345.4 511.24 1344.63 511.467 1343.96 511.92C1343.29 512.373 1342.83 512.813 1342.56 513.24C1342.29 513.667 1342.16 513.92 1342.16 514C1342.16 514.027 1342.23 514.04 1342.36 514.04C1342.84 514.04 1343.33 514.227 1343.84 514.6C1344.35 514.973 1344.6 515.587 1344.6 516.44C1344.6 517.107 1344.39 517.667 1343.96 518.12C1343.53 518.573 1342.93 518.813 1342.16 518.84Z" fill="#2739DC"/>
<path d="M1360.92 534.6C1360.92 534.6 1360.92 534.267 1360.92 533.6C1360.92 532.933 1361.13 532.36 1361.56 531.88C1361.99 531.4 1362.56 531.16 1363.28 531.16C1364.03 531.16 1364.69 531.493 1365.28 532.16C1365.87 532.827 1366.17 534 1366.2 535.68C1366.2 536.613 1366.08 537.52 1365.84 538.4C1365.6 539.28 1365.32 540.04 1365 540.68C1364.68 541.32 1364.33 541.867 1363.96 542.32C1363.59 542.773 1363.27 543.133 1363 543.4C1362.73 543.667 1362.56 543.787 1362.48 543.76C1362.37 543.76 1362.2 543.64 1361.96 543.4C1361.72 543.16 1361.6 542.987 1361.6 542.88C1361.6 542.773 1361.75 542.56 1362.04 542.24C1362.33 541.92 1362.67 541.52 1363.04 541.04C1363.41 540.56 1363.76 539.893 1364.08 539.04C1364.4 538.187 1364.61 537.213 1364.72 536.12V535.64L1364.68 535.68C1364.63 535.707 1364.56 535.733 1364.48 535.76C1364.4 535.787 1364.32 535.827 1364.24 535.88C1364.16 535.933 1364.04 535.96 1363.88 535.96C1363.72 535.96 1363.56 535.973 1363.4 536C1362.68 536 1362.09 535.773 1361.64 535.32L1360.92 534.6Z" fill="#2739DC"/>
<path d="M1378.95 526.52C1378.95 526.52 1378.95 526.346 1378.95 526C1378.95 525.653 1379.13 525.386 1379.51 525.2H1402.75C1403.15 525.413 1403.35 525.68 1403.35 526C1403.35 526.32 1403.15 526.586 1402.75 526.8H1379.51C1379.13 526.613 1378.95 526.346 1378.95 526V526.52Z" fill="#2739DC"/>
<path d="M1415.23 512.88L1414.71 513.08C1414.33 513.213 1413.8 513.347 1413.11 513.48C1412.41 513.613 1411.64 513.707 1410.79 513.76H1410.03V511.92H1410.79C1412.04 511.867 1413.2 511.667 1414.27 511.32C1415.33 510.973 1416.08 510.653 1416.51 510.36C1416.93 510.067 1417.31 509.773 1417.63 509.48C1417.68 509.4 1417.84 509.36 1418.11 509.36C1418.35 509.36 1418.57 509.44 1418.79 509.6V521.56L1418.83 533.56C1419.01 533.747 1419.17 533.867 1419.31 533.92C1419.44 533.973 1419.76 534.027 1420.27 534.08C1420.77 534.133 1421.6 534.16 1422.75 534.16H1423.79V536H1423.35C1422.79 535.92 1420.67 535.88 1416.99 535.88C1413.36 535.88 1411.27 535.92 1410.71 536H1410.23V534.16H1411.27C1411.85 534.16 1412.36 534.16 1412.79 534.16C1413.21 534.16 1413.55 534.147 1413.79 534.12C1414.03 534.093 1414.24 534.053 1414.43 534C1414.61 533.947 1414.72 533.92 1414.75 533.92C1414.77 533.92 1414.85 533.853 1414.99 533.72C1415.12 533.587 1415.2 533.533 1415.23 533.56V512.88Z" fill="#2739DC"/>
<path d="M1429.83 534.6C1429.83 534.6 1429.83 534.267 1429.83 533.6C1429.83 532.933 1430.04 532.36 1430.47 531.88C1430.89 531.4 1431.47 531.16 1432.19 531.16C1432.93 531.16 1433.6 531.493 1434.19 532.16C1434.77 532.827 1435.08 534 1435.11 535.68C1435.11 536.613 1434.99 537.52 1434.75 538.4C1434.51 539.28 1434.23 540.04 1433.91 540.68C1433.59 541.32 1433.24 541.867 1432.87 542.32C1432.49 542.773 1432.17 543.133 1431.91 543.4C1431.64 543.667 1431.47 543.787 1431.39 543.76C1431.28 543.76 1431.11 543.64 1430.87 543.4C1430.63 543.16 1430.51 542.987 1430.51 542.88C1430.51 542.773 1430.65 542.56 1430.95 542.24C1431.24 541.92 1431.57 541.52 1431.95 541.04C1432.32 540.56 1432.67 539.893 1432.99 539.04C1433.31 538.187 1433.52 537.213 1433.63 536.12V535.64L1433.59 535.68C1433.53 535.707 1433.47 535.733 1433.39 535.76C1433.31 535.787 1433.23 535.827 1433.15 535.88C1433.07 535.933 1432.95 535.96 1432.79 535.96C1432.63 535.96 1432.47 535.973 1432.31 536C1431.59 536 1431 535.773 1430.55 535.32L1429.83 534.6Z" fill="#2739DC"/>
<path d="M1447.85 526.52C1447.85 526.52 1447.85 526.346 1447.85 526C1447.85 525.653 1448.04 525.386 1448.41 525.2H1471.65C1472.05 525.413 1472.25 525.68 1472.25 526C1472.25 526.32 1472.05 526.586 1471.65 526.8H1448.41C1448.04 526.613 1447.85 526.346 1447.85 526V526.52Z" fill="#2739DC"/>
<path d="M1484.13 512.88L1483.61 513.08C1483.24 513.213 1482.71 513.347 1482.01 513.48C1481.32 513.613 1480.55 513.707 1479.69 513.76H1478.93V511.92H1479.69C1480.95 511.867 1482.11 511.667 1483.17 511.32C1484.24 510.973 1484.99 510.653 1485.41 510.36C1485.84 510.067 1486.21 509.773 1486.53 509.48C1486.59 509.4 1486.75 509.36 1487.01 509.36C1487.25 509.36 1487.48 509.44 1487.69 509.6V521.56L1487.73 533.56C1487.92 533.747 1488.08 533.867 1488.21 533.92C1488.35 533.973 1488.67 534.027 1489.17 534.08C1489.68 534.133 1490.51 534.16 1491.65 534.16H1492.69V536H1492.25C1491.69 535.92 1489.57 535.88 1485.89 535.88C1482.27 535.88 1480.17 535.92 1479.61 536H1479.13V534.16H1480.17C1480.76 534.16 1481.27 534.16 1481.69 534.16C1482.12 534.16 1482.45 534.147 1482.69 534.12C1482.93 534.093 1483.15 534.053 1483.33 534C1483.52 533.947 1483.63 533.92 1483.65 533.92C1483.68 533.92 1483.76 533.853 1483.89 533.72C1484.03 533.587 1484.11 533.533 1484.13 533.56V512.88Z" fill="#2739DC"/>
<path d="M1498.01 506.04L1498.17 506C1498.31 506 1498.44 506 1498.57 506H1499.05L1500.17 506.96C1502.68 509.227 1504.51 512.053 1505.65 515.44C1506.8 518.827 1507.37 522.347 1507.37 526C1507.37 527.813 1507.24 529.56 1506.97 531.24C1506.71 532.92 1506.4 534.347 1506.05 535.52C1505.71 536.693 1505.21 537.867 1504.57 539.04C1503.93 540.213 1503.43 541.107 1503.05 541.72C1502.68 542.333 1502.13 543.013 1501.41 543.76C1500.69 544.507 1500.27 544.947 1500.13 545.08C1500 545.213 1499.69 545.467 1499.21 545.84C1499.13 545.92 1499.08 545.973 1499.05 546H1498.57C1498.36 546 1498.21 546 1498.13 546C1498.05 546 1497.99 545.96 1497.93 545.88C1497.88 545.8 1497.84 545.68 1497.81 545.52C1497.84 545.493 1497.99 545.32 1498.25 545C1502.39 540.707 1504.45 534.373 1504.45 526C1504.45 517.627 1502.39 511.293 1498.25 507C1497.99 506.68 1497.84 506.507 1497.81 506.48C1497.81 506.267 1497.88 506.12 1498.01 506.04Z" fill="#2739DC"/>
<path d="M683 479C683 477.16 683.133 475.413 683.4 473.76C683.667 472.107 683.973 470.68 684.32 469.48C684.667 468.28 685.16 467.107 685.8 465.96C686.44 464.813 686.947 463.92 687.32 463.28C687.693 462.64 688.253 461.947 689 461.2C689.747 460.453 690.187 460 690.32 459.84C690.453 459.68 690.787 459.4 691.32 459H691.84H692C692.373 459 692.56 459.12 692.56 459.36C692.56 459.44 692.333 459.72 691.88 460.2C691.427 460.68 690.88 461.387 690.24 462.32C689.6 463.253 688.947 464.4 688.28 465.76C687.613 467.12 687.053 468.96 686.6 471.28C686.147 473.6 685.92 476.173 685.92 479C685.92 481.827 686.147 484.387 686.6 486.68C687.053 488.973 687.6 490.827 688.24 492.24C688.88 493.653 689.533 494.8 690.2 495.68C690.867 496.56 691.427 497.267 691.88 497.8C692.333 498.333 692.56 498.613 692.56 498.64C692.56 498.88 692.36 499 691.96 499H691.84H691.32L690.2 498.04C687.693 495.773 685.867 492.947 684.72 489.56C683.573 486.173 683 482.653 683 479Z" fill="#2739DC"/>
<path d="M698.16 479.52C698.16 479.52 698.16 479.346 698.16 479C698.16 478.653 698.347 478.386 698.72 478.2H721.96C722.36 478.413 722.56 478.68 722.56 479C722.56 479.32 722.36 479.586 721.96 479.8H698.72C698.347 479.613 698.16 479.346 698.16 479V479.52Z" fill="#2739DC"/>
<path d="M730.28 471.84C729.56 471.84 728.987 471.6 728.56 471.12C728.133 470.64 727.92 470.053 727.92 469.36C727.92 467.467 728.627 465.827 730.04 464.44C731.453 463.053 733.213 462.36 735.32 462.36C737.747 462.36 739.774 463.107 741.4 464.6C743.027 466.093 743.854 468.027 743.88 470.4C743.88 471.547 743.614 472.64 743.08 473.68C742.547 474.72 741.907 475.627 741.16 476.4C740.413 477.173 739.347 478.16 737.96 479.36C737 480.187 735.667 481.413 733.96 483.04L731.6 485.28L734.64 485.32C738.827 485.32 741.054 485.253 741.32 485.12C741.507 485.067 741.827 483.88 742.28 481.56V481.44H743.88V481.56C743.854 481.64 743.68 482.853 743.36 485.2C743.04 487.547 742.84 488.773 742.76 488.88V489H727.92V488.24V487.76C727.92 487.573 728 487.373 728.16 487.16C728.32 486.947 728.72 486.48 729.36 485.76C730.133 484.907 730.8 484.16 731.36 483.52C731.6 483.253 732.053 482.76 732.72 482.04C733.387 481.32 733.84 480.827 734.08 480.56C734.32 480.293 734.707 479.853 735.24 479.24C735.773 478.627 736.147 478.173 736.36 477.88C736.573 477.587 736.88 477.187 737.28 476.68C737.68 476.173 737.96 475.747 738.12 475.4C738.28 475.053 738.48 474.667 738.72 474.24C738.96 473.813 739.134 473.387 739.24 472.96C739.347 472.533 739.44 472.133 739.52 471.76C739.6 471.387 739.64 470.947 739.64 470.44C739.64 468.76 739.187 467.307 738.28 466.08C737.373 464.853 736.08 464.24 734.4 464.24C733.52 464.24 732.747 464.467 732.08 464.92C731.413 465.373 730.947 465.813 730.68 466.24C730.413 466.667 730.28 466.92 730.28 467C730.28 467.027 730.347 467.04 730.48 467.04C730.96 467.04 731.453 467.227 731.96 467.6C732.467 467.973 732.72 468.587 732.72 469.44C732.72 470.107 732.507 470.667 732.08 471.12C731.653 471.573 731.053 471.813 730.28 471.84Z" fill="#2739DC"/>
<path d="M749.04 487.6C749.04 487.6 749.04 487.267 749.04 486.6C749.04 485.933 749.253 485.36 749.68 484.88C750.107 484.4 750.68 484.16 751.4 484.16C752.147 484.16 752.813 484.493 753.4 485.16C753.987 485.827 754.293 487 754.32 488.68C754.32 489.613 754.2 490.52 753.96 491.4C753.72 492.28 753.44 493.04 753.12 493.68C752.8 494.32 752.453 494.867 752.08 495.32C751.707 495.773 751.387 496.133 751.12 496.4C750.853 496.667 750.68 496.787 750.6 496.76C750.493 496.76 750.32 496.64 750.08 496.4C749.84 496.16 749.72 495.987 749.72 495.88C749.72 495.773 749.867 495.56 750.16 495.24C750.453 494.92 750.787 494.52 751.16 494.04C751.533 493.56 751.88 492.893 752.2 492.04C752.52 491.187 752.733 490.213 752.84 489.12V488.64L752.8 488.68C752.747 488.707 752.68 488.733 752.6 488.76C752.52 488.787 752.44 488.827 752.36 488.88C752.28 488.933 752.16 488.96 752 488.96C751.84 488.96 751.68 488.973 751.52 489C750.8 489 750.213 488.773 749.76 488.32L749.04 487.6Z" fill="#2739DC"/>
<path d="M767.068 479.52C767.068 479.52 767.068 479.346 767.068 479C767.068 478.653 767.255 478.386 767.628 478.2H790.868C791.268 478.413 791.468 478.68 791.468 479C791.468 479.32 791.268 479.586 790.868 479.8H767.628C767.255 479.613 767.068 479.346 767.068 479V479.52Z" fill="#2739DC"/>
<path d="M803.348 465.88L802.828 466.08C802.455 466.213 801.921 466.347 801.228 466.48C800.535 466.613 799.761 466.707 798.908 466.76H798.148V464.92H798.908C800.161 464.867 801.321 464.667 802.388 464.32C803.455 463.973 804.201 463.653 804.628 463.36C805.055 463.067 805.428 462.773 805.748 462.48C805.801 462.4 805.961 462.36 806.228 462.36C806.468 462.36 806.695 462.44 806.908 462.6V474.56L806.948 486.56C807.135 486.747 807.295 486.867 807.428 486.92C807.561 486.973 807.881 487.027 808.388 487.08C808.895 487.133 809.721 487.16 810.868 487.16H811.908V489H811.468C810.908 488.92 808.788 488.88 805.108 488.88C801.481 488.88 799.388 488.92 798.828 489H798.348V487.16H799.388C799.975 487.16 800.481 487.16 800.908 487.16C801.335 487.16 801.668 487.147 801.908 487.12C802.148 487.093 802.361 487.053 802.548 487C802.735 486.947 802.841 486.92 802.868 486.92C802.895 486.92 802.975 486.853 803.108 486.72C803.241 486.587 803.321 486.533 803.348 486.56V465.88Z" fill="#2739DC"/>
<path d="M817.948 487.6C817.948 487.6 817.948 487.267 817.948 486.6C817.948 485.933 818.161 485.36 818.588 484.88C819.015 484.4 819.588 484.16 820.308 484.16C821.055 484.16 821.721 484.493 822.308 485.16C822.895 485.827 823.201 487 823.228 488.68C823.228 489.613 823.108 490.52 822.868 491.4C822.628 492.28 822.348 493.04 822.028 493.68C821.708 494.32 821.361 494.867 820.988 495.32C820.615 495.773 820.295 496.133 820.028 496.4C819.761 496.667 819.588 496.787 819.508 496.76C819.401 496.76 819.228 496.64 818.988 496.4C818.748 496.16 818.628 495.987 818.628 495.88C818.628 495.773 818.775 495.56 819.068 495.24C819.361 494.92 819.695 494.52 820.068 494.04C820.441 493.56 820.788 492.893 821.108 492.04C821.428 491.187 821.641 490.213 821.748 489.12V488.64L821.708 488.68C821.655 488.707 821.588 488.733 821.508 488.76C821.428 488.787 821.348 488.827 821.268 488.88C821.188 488.933 821.068 488.96 820.908 488.96C820.748 488.96 820.588 488.973 820.428 489C819.708 489 819.121 488.773 818.668 488.32L817.948 487.6Z" fill="#2739DC"/>
<path d="M835.972 479.52C835.972 479.52 835.972 479.346 835.972 479C835.972 478.653 836.159 478.386 836.532 478.2H859.772C860.172 478.413 860.372 478.68 860.372 479C860.372 479.32 860.172 479.586 859.772 479.8H836.532C836.159 479.613 835.972 479.346 835.972 479V479.52Z" fill="#2739DC"/>
<path d="M872.252 465.88L871.732 466.08C871.359 466.213 870.825 466.347 870.132 466.48C869.439 466.613 868.665 466.707 867.812 466.76H867.052V464.92H867.812C869.065 464.867 870.225 464.667 871.292 464.32C872.359 463.973 873.105 463.653 873.532 463.36C873.959 463.067 874.332 462.773 874.652 462.48C874.705 462.4 874.865 462.36 875.132 462.36C875.372 462.36 875.599 462.44 875.812 462.6V474.56L875.852 486.56C876.039 486.747 876.199 486.867 876.332 486.92C876.465 486.973 876.785 487.027 877.292 487.08C877.799 487.133 878.625 487.16 879.772 487.16H880.812V489H880.372C879.812 488.92 877.692 488.88 874.012 488.88C870.385 488.88 868.292 488.92 867.732 489H867.252V487.16H868.292C868.879 487.16 869.385 487.16 869.812 487.16C870.239 487.16 870.572 487.147 870.812 487.12C871.052 487.093 871.265 487.053 871.452 487C871.639 486.947 871.745 486.92 871.772 486.92C871.799 486.92 871.879 486.853 872.012 486.72C872.145 486.587 872.225 486.533 872.252 486.56V465.88Z" fill="#2739DC"/>
<path d="M886.132 459.04L886.292 459C886.425 459 886.559 459 886.692 459H887.172L888.292 459.96C890.799 462.227 892.625 465.053 893.772 468.44C894.919 471.827 895.492 475.347 895.492 479C895.492 480.813 895.359 482.56 895.092 484.24C894.825 485.92 894.519 487.347 894.172 488.52C893.825 489.693 893.332 490.867 892.692 492.04C892.052 493.213 891.545 494.107 891.172 494.72C890.799 495.333 890.252 496.013 889.532 496.76C888.812 497.507 888.385 497.947 888.252 498.08C888.119 498.213 887.812 498.467 887.332 498.84C887.252 498.92 887.199 498.973 887.172 499H886.692C886.479 499 886.332 499 886.252 499C886.172 499 886.105 498.96 886.052 498.88C885.999 498.8 885.959 498.68 885.932 498.52C885.959 498.493 886.105 498.32 886.372 498C890.505 493.707 892.572 487.373 892.572 479C892.572 470.627 890.505 464.293 886.372 460C886.105 459.68 885.959 459.507 885.932 459.48C885.932 459.267 885.999 459.12 886.132 459.04Z" fill="#2739DC"/>
<path d="M258 278C258 275.7 258.167 273.517 258.5 271.45C258.833 269.383 259.217 267.6 259.65 266.1C260.083 264.6 260.7 263.133 261.5 261.7C262.3 260.267 262.933 259.15 263.4 258.35C263.867 257.55 264.567 256.683 265.5 255.75C266.433 254.817 266.983 254.25 267.15 254.05C267.317 253.85 267.733 253.5 268.4 253H269.05H269.25C269.717 253 269.95 253.15 269.95 253.45C269.95 253.55 269.667 253.9 269.1 254.5C268.533 255.1 267.85 255.983 267.05 257.15C266.25 258.317 265.433 259.75 264.6 261.45C263.767 263.15 263.067 265.45 262.5 268.35C261.933 271.25 261.65 274.467 261.65 278C261.65 281.533 261.933 284.733 262.5 287.6C263.067 290.467 263.75 292.783 264.55 294.55C265.35 296.317 266.167 297.75 267 298.85C267.833 299.95 268.533 300.833 269.1 301.5C269.667 302.167 269.95 302.517 269.95 302.55C269.95 302.85 269.7 303 269.2 303H269.05H268.4L267 301.8C263.867 298.967 261.583 295.433 260.15 291.2C258.717 286.967 258 282.567 258 278Z" fill="#1C9812"/>
<path d="M277.55 261.25C279.416 258.55 281.966 257.2 285.2 257.2C286.8 257.2 288.4 257.633 290 258.5C291.6 259.367 292.9 260.9 293.9 263.1C295.133 265.867 295.75 269.667 295.75 274.5C295.75 279.667 295.033 283.617 293.6 286.35C292.933 287.75 292.016 288.867 290.85 289.7C289.683 290.533 288.666 291.05 287.8 291.25C286.933 291.45 286.083 291.567 285.25 291.6C284.383 291.6 283.516 291.5 282.65 291.3C281.783 291.1 280.766 290.567 279.6 289.7C278.433 288.833 277.516 287.717 276.85 286.35C275.416 283.617 274.7 279.667 274.7 274.5C274.7 268.7 275.65 264.283 277.55 261.25ZM288.8 260.65C287.8 259.583 286.616 259.05 285.25 259.05C283.85 259.05 282.65 259.583 281.65 260.65C280.816 261.517 280.266 262.717 280 264.25C279.733 265.783 279.6 268.983 279.6 273.85C279.6 279.117 279.733 282.583 280 284.25C280.266 285.917 280.866 287.233 281.8 288.2C282.733 289.2 283.883 289.7 285.25 289.7C286.583 289.7 287.716 289.2 288.65 288.2C289.616 287.2 290.216 285.8 290.45 284C290.683 282.2 290.816 278.817 290.85 273.85C290.85 269.017 290.716 265.833 290.45 264.3C290.183 262.767 289.633 261.55 288.8 260.65Z" fill="#1C9812"/>
<path d="M301.65 288.75C301.65 288.75 301.65 288.333 301.65 287.5C301.65 286.667 301.917 285.95 302.45 285.35C302.983 284.75 303.7 284.45 304.6 284.45C305.533 284.45 306.367 284.867 307.1 285.7C307.833 286.533 308.217 288 308.25 290.1C308.25 291.267 308.1 292.4 307.8 293.5C307.5 294.6 307.15 295.55 306.75 296.35C306.35 297.15 305.917 297.833 305.45 298.4C304.983 298.967 304.583 299.417 304.25 299.75C303.917 300.083 303.7 300.233 303.6 300.2C303.467 300.2 303.25 300.05 302.95 299.75C302.65 299.45 302.5 299.233 302.5 299.1C302.5 298.967 302.683 298.7 303.05 298.3C303.417 297.9 303.833 297.4 304.3 296.8C304.767 296.2 305.2 295.367 305.6 294.3C306 293.233 306.267 292.017 306.4 290.65V290.05L306.35 290.1C306.283 290.133 306.2 290.167 306.1 290.2C306 290.233 305.9 290.283 305.8 290.35C305.7 290.417 305.55 290.45 305.35 290.45C305.15 290.45 304.95 290.467 304.75 290.5C303.85 290.5 303.117 290.217 302.55 289.65L301.65 288.75Z" fill="#1C9812"/>
<path d="M324.785 261.25C326.652 258.55 329.202 257.2 332.435 257.2C334.035 257.2 335.635 257.633 337.235 258.5C338.835 259.367 340.135 260.9 341.135 263.1C342.368 265.867 342.985 269.667 342.985 274.5C342.985 279.667 342.268 283.617 340.835 286.35C340.168 287.75 339.252 288.867 338.085 289.7C336.918 290.533 335.902 291.05 335.035 291.25C334.168 291.45 333.318 291.567 332.485 291.6C331.618 291.6 330.752 291.5 329.885 291.3C329.018 291.1 328.002 290.567 326.835 289.7C325.668 288.833 324.752 287.717 324.085 286.35C322.652 283.617 321.935 279.667 321.935 274.5C321.935 268.7 322.885 264.283 324.785 261.25ZM336.035 260.65C335.035 259.583 333.852 259.05 332.485 259.05C331.085 259.05 329.885 259.583 328.885 260.65C328.052 261.517 327.502 262.717 327.235 264.25C326.968 265.783 326.835 268.983 326.835 273.85C326.835 279.117 326.968 282.583 327.235 284.25C327.502 285.917 328.102 287.233 329.035 288.2C329.968 289.2 331.118 289.7 332.485 289.7C333.818 289.7 334.952 289.2 335.885 288.2C336.852 287.2 337.452 285.8 337.685 284C337.918 282.2 338.052 278.817 338.085 273.85C338.085 269.017 337.952 265.833 337.685 264.3C337.418 262.767 336.868 261.55 336.035 260.65Z" fill="#1C9812"/>
<path d="M348.885 288.75C348.885 288.75 348.885 288.333 348.885 287.5C348.885 286.667 349.152 285.95 349.685 285.35C350.219 284.75 350.935 284.45 351.835 284.45C352.769 284.45 353.602 284.867 354.335 285.7C355.069 286.533 355.452 288 355.485 290.1C355.485 291.267 355.335 292.4 355.035 293.5C354.735 294.6 354.385 295.55 353.985 296.35C353.585 297.15 353.152 297.833 352.685 298.4C352.219 298.967 351.819 299.417 351.485 299.75C351.152 300.083 350.935 300.233 350.835 300.2C350.702 300.2 350.485 300.05 350.185 299.75C349.885 299.45 349.735 299.233 349.735 299.1C349.735 298.967 349.919 298.7 350.285 298.3C350.652 297.9 351.069 297.4 351.535 296.8C352.002 296.2 352.435 295.367 352.835 294.3C353.235 293.233 353.502 292.017 353.635 290.65V290.05L353.585 290.1C353.519 290.133 353.435 290.167 353.335 290.2C353.235 290.233 353.135 290.283 353.035 290.35C352.935 290.417 352.785 290.45 352.585 290.45C352.385 290.45 352.185 290.467 351.985 290.5C351.085 290.5 350.352 290.217 349.785 289.65L348.885 288.75Z" fill="#1C9812"/>
<path d="M372.015 261.25C373.882 258.55 376.432 257.2 379.665 257.2C381.265 257.2 382.865 257.633 384.465 258.5C386.065 259.367 387.365 260.9 388.365 263.1C389.598 265.867 390.215 269.667 390.215 274.5C390.215 279.667 389.498 283.617 388.065 286.35C387.398 287.75 386.482 288.867 385.315 289.7C384.148 290.533 383.132 291.05 382.265 291.25C381.398 291.45 380.548 291.567 379.715 291.6C378.848 291.6 377.982 291.5 377.115 291.3C376.248 291.1 375.232 290.567 374.065 289.7C372.898 288.833 371.982 287.717 371.315 286.35C369.882 283.617 369.165 279.667 369.165 274.5C369.165 268.7 370.115 264.283 372.015 261.25ZM383.265 260.65C382.265 259.583 381.082 259.05 379.715 259.05C378.315 259.05 377.115 259.583 376.115 260.65C375.282 261.517 374.732 262.717 374.465 264.25C374.198 265.783 374.065 268.983 374.065 273.85C374.065 279.117 374.198 282.583 374.465 284.25C374.732 285.917 375.332 287.233 376.265 288.2C377.198 289.2 378.348 289.7 379.715 289.7C381.048 289.7 382.182 289.2 383.115 288.2C384.082 287.2 384.682 285.8 384.915 284C385.148 282.2 385.282 278.817 385.315 273.85C385.315 269.017 385.182 265.833 384.915 264.3C384.648 262.767 384.098 261.55 383.265 260.65Z" fill="#1C9812"/>
<path d="M395.215 253.05L395.415 253C395.582 253 395.749 253 395.915 253H396.515L397.915 254.2C401.049 257.033 403.332 260.567 404.765 264.8C406.199 269.033 406.915 273.433 406.915 278C406.915 280.267 406.749 282.45 406.415 284.55C406.082 286.65 405.699 288.433 405.265 289.9C404.832 291.367 404.215 292.833 403.415 294.3C402.615 295.767 401.982 296.883 401.515 297.65C401.049 298.417 400.365 299.267 399.465 300.2C398.565 301.133 398.032 301.683 397.865 301.85C397.699 302.017 397.315 302.333 396.715 302.8C396.615 302.9 396.549 302.967 396.515 303H395.915C395.649 303 395.465 303 395.365 303C395.265 303 395.182 302.95 395.115 302.85C395.049 302.75 394.999 302.6 394.965 302.4C394.999 302.367 395.182 302.15 395.515 301.75C400.682 296.383 403.265 288.467 403.265 278C403.265 267.533 400.682 259.617 395.515 254.25C395.182 253.85 394.999 253.633 394.965 253.6C394.965 253.333 395.049 253.15 395.215 253.05Z" fill="#1C9812"/>
<path d="M941 364C941 362.16 941.133 360.413 941.4 358.76C941.667 357.107 941.973 355.68 942.32 354.48C942.667 353.28 943.16 352.107 943.8 350.96C944.44 349.813 944.947 348.92 945.32 348.28C945.693 347.64 946.253 346.947 947 346.2C947.747 345.453 948.187 345 948.32 344.84C948.453 344.68 948.787 344.4 949.32 344H949.84H950C950.373 344 950.56 344.12 950.56 344.36C950.56 344.44 950.333 344.72 949.88 345.2C949.427 345.68 948.88 346.387 948.24 347.32C947.6 348.253 946.947 349.4 946.28 350.76C945.613 352.12 945.053 353.96 944.6 356.28C944.147 358.6 943.92 361.173 943.92 364C943.92 366.827 944.147 369.387 944.6 371.68C945.053 373.973 945.6 375.827 946.24 377.24C946.88 378.653 947.533 379.8 948.2 380.68C948.867 381.56 949.427 382.267 949.88 382.8C950.333 383.333 950.56 383.613 950.56 383.64C950.56 383.88 950.36 384 949.96 384H949.84H949.32L948.2 383.04C945.693 380.773 943.867 377.947 942.72 374.56C941.573 371.173 941 367.653 941 364Z" fill="#1C9812"/>
<path d="M956.64 350.6C958.133 348.44 960.173 347.36 962.76 347.36C964.04 347.36 965.32 347.707 966.6 348.4C967.88 349.093 968.92 350.32 969.72 352.08C970.707 354.293 971.2 357.333 971.2 361.2C971.2 365.333 970.627 368.493 969.48 370.68C968.947 371.8 968.213 372.693 967.28 373.36C966.347 374.027 965.533 374.44 964.84 374.6C964.147 374.76 963.467 374.853 962.8 374.88C962.107 374.88 961.413 374.8 960.72 374.64C960.027 374.48 959.213 374.053 958.28 373.36C957.347 372.667 956.613 371.773 956.08 370.68C954.933 368.493 954.36 365.333 954.36 361.2C954.36 356.56 955.12 353.027 956.64 350.6ZM965.64 350.12C964.84 349.267 963.893 348.84 962.8 348.84C961.68 348.84 960.72 349.267 959.92 350.12C959.253 350.813 958.813 351.773 958.6 353C958.387 354.227 958.28 356.787 958.28 360.68C958.28 364.893 958.387 367.667 958.6 369C958.813 370.333 959.293 371.387 960.04 372.16C960.787 372.96 961.707 373.36 962.8 373.36C963.867 373.36 964.773 372.96 965.52 372.16C966.293 371.36 966.773 370.24 966.96 368.8C967.147 367.36 967.253 364.653 967.28 360.68C967.28 356.813 967.173 354.267 966.96 353.04C966.747 351.813 966.307 350.84 965.64 350.12Z" fill="#1C9812"/>
<path d="M975.92 372.6C975.92 372.6 975.92 372.267 975.92 371.6C975.92 370.933 976.133 370.36 976.56 369.88C976.987 369.4 977.56 369.16 978.28 369.16C979.027 369.16 979.693 369.493 980.28 370.16C980.867 370.827 981.173 372 981.2 373.68C981.2 374.613 981.08 375.52 980.84 376.4C980.6 377.28 980.32 378.04 980 378.68C979.68 379.32 979.333 379.867 978.96 380.32C978.587 380.773 978.267 381.133 978 381.4C977.733 381.667 977.56 381.787 977.48 381.76C977.373 381.76 977.2 381.64 976.96 381.4C976.72 381.16 976.6 380.987 976.6 380.88C976.6 380.773 976.747 380.56 977.04 380.24C977.333 379.92 977.667 379.52 978.04 379.04C978.413 378.56 978.76 377.893 979.08 377.04C979.4 376.187 979.613 375.213 979.72 374.12V373.64L979.68 373.68C979.627 373.707 979.56 373.733 979.48 373.76C979.4 373.787 979.32 373.827 979.24 373.88C979.16 373.933 979.04 373.96 978.88 373.96C978.72 373.96 978.56 373.973 978.4 374C977.68 374 977.093 373.773 976.64 373.32L975.92 372.6Z" fill="#1C9812"/>
<path d="M994.428 350.6C995.921 348.44 997.961 347.36 1000.55 347.36C1001.83 347.36 1003.11 347.707 1004.39 348.4C1005.67 349.093 1006.71 350.32 1007.51 352.08C1008.49 354.293 1008.99 357.333 1008.99 361.2C1008.99 365.333 1008.41 368.493 1007.27 370.68C1006.73 371.8 1006 372.693 1005.07 373.36C1004.13 374.027 1003.32 374.44 1002.63 374.6C1001.93 374.76 1001.25 374.853 1000.59 374.88C999.895 374.88 999.201 374.8 998.508 374.64C997.815 374.48 997.001 374.053 996.068 373.36C995.135 372.667 994.401 371.773 993.868 370.68C992.721 368.493 992.148 365.333 992.148 361.2C992.148 356.56 992.908 353.027 994.428 350.6ZM1003.43 350.12C1002.63 349.267 1001.68 348.84 1000.59 348.84C999.468 348.84 998.508 349.267 997.708 350.12C997.041 350.813 996.601 351.773 996.388 353C996.175 354.227 996.068 356.787 996.068 360.68C996.068 364.893 996.175 367.667 996.388 369C996.601 370.333 997.081 371.387 997.828 372.16C998.575 372.96 999.495 373.36 1000.59 373.36C1001.65 373.36 1002.56 372.96 1003.31 372.16C1004.08 371.36 1004.56 370.24 1004.75 368.8C1004.93 367.36 1005.04 364.653 1005.07 360.68C1005.07 356.813 1004.96 354.267 1004.75 353.04C1004.53 351.813 1004.09 350.84 1003.43 350.12Z" fill="#1C9812"/>
<path d="M1013.71 372.6C1013.71 372.6 1013.71 372.267 1013.71 371.6C1013.71 370.933 1013.92 370.36 1014.35 369.88C1014.77 369.4 1015.35 369.16 1016.07 369.16C1016.81 369.16 1017.48 369.493 1018.07 370.16C1018.65 370.827 1018.96 372 1018.99 373.68C1018.99 374.613 1018.87 375.52 1018.63 376.4C1018.39 377.28 1018.11 378.04 1017.79 378.68C1017.47 379.32 1017.12 379.867 1016.75 380.32C1016.37 380.773 1016.05 381.133 1015.79 381.4C1015.52 381.667 1015.35 381.787 1015.27 381.76C1015.16 381.76 1014.99 381.64 1014.75 381.4C1014.51 381.16 1014.39 380.987 1014.39 380.88C1014.39 380.773 1014.53 380.56 1014.83 380.24C1015.12 379.92 1015.45 379.52 1015.83 379.04C1016.2 378.56 1016.55 377.893 1016.87 377.04C1017.19 376.187 1017.4 375.213 1017.51 374.12V373.64L1017.47 373.68C1017.41 373.707 1017.35 373.733 1017.27 373.76C1017.19 373.787 1017.11 373.827 1017.03 373.88C1016.95 373.933 1016.83 373.96 1016.67 373.96C1016.51 373.96 1016.35 373.973 1016.19 374C1015.47 374 1014.88 373.773 1014.43 373.32L1013.71 372.6Z" fill="#1C9812"/>
<path d="M1031.73 364.52C1031.73 364.52 1031.73 364.346 1031.73 364C1031.73 363.653 1031.92 363.386 1032.29 363.2H1055.53C1055.93 363.413 1056.13 363.68 1056.13 364C1056.13 364.32 1055.93 364.586 1055.53 364.8H1032.29C1031.92 364.613 1031.73 364.346 1031.73 364V364.52Z" fill="#1C9812"/>
<path d="M1068.01 350.88L1067.49 351.08C1067.12 351.213 1066.59 351.347 1065.89 351.48C1065.2 351.613 1064.43 351.707 1063.57 351.76H1062.81V349.92H1063.57C1064.83 349.867 1065.99 349.667 1067.05 349.32C1068.12 348.973 1068.87 348.653 1069.29 348.36C1069.72 348.067 1070.09 347.773 1070.41 347.48C1070.47 347.4 1070.63 347.36 1070.89 347.36C1071.13 347.36 1071.36 347.44 1071.57 347.6V359.56L1071.61 371.56C1071.8 371.747 1071.96 371.867 1072.09 371.92C1072.23 371.973 1072.55 372.027 1073.05 372.08C1073.56 372.133 1074.39 372.16 1075.53 372.16H1076.57V374H1076.13C1075.57 373.92 1073.45 373.88 1069.77 373.88C1066.15 373.88 1064.05 373.92 1063.49 374H1063.01V372.16H1064.05C1064.64 372.16 1065.15 372.16 1065.57 372.16C1066 372.16 1066.33 372.147 1066.57 372.12C1066.81 372.093 1067.03 372.053 1067.21 372C1067.4 371.947 1067.51 371.92 1067.53 371.92C1067.56 371.92 1067.64 371.853 1067.77 371.72C1067.91 371.587 1067.99 371.533 1068.01 371.56V350.88Z" fill="#1C9812"/>
<path d="M1081.89 344.04L1082.05 344C1082.19 344 1082.32 344 1082.45 344H1082.93L1084.05 344.96C1086.56 347.227 1088.39 350.053 1089.53 353.44C1090.68 356.827 1091.25 360.347 1091.25 364C1091.25 365.813 1091.12 367.56 1090.85 369.24C1090.59 370.92 1090.28 372.347 1089.93 373.52C1089.59 374.693 1089.09 375.867 1088.45 377.04C1087.81 378.213 1087.31 379.107 1086.93 379.72C1086.56 380.333 1086.01 381.013 1085.29 381.76C1084.57 382.507 1084.15 382.947 1084.01 383.08C1083.88 383.213 1083.57 383.467 1083.09 383.84C1083.01 383.92 1082.96 383.973 1082.93 384H1082.45C1082.24 384 1082.09 384 1082.01 384C1081.93 384 1081.87 383.96 1081.81 383.88C1081.76 383.8 1081.72 383.68 1081.69 383.52C1081.72 383.493 1081.87 383.32 1082.13 383C1086.27 378.707 1088.33 372.373 1088.33 364C1088.33 355.627 1086.27 349.293 1082.13 345C1081.87 344.68 1081.72 344.507 1081.69 344.48C1081.69 344.267 1081.76 344.12 1081.89 344.04Z" fill="#1C9812"/>
<path d="M944 122.265C944 121.912 944.199 121.227 944.596 120.212C944.993 119.196 945.545 118.049 946.252 116.768C946.958 115.488 947.929 114.384 949.166 113.457C950.402 112.53 951.704 112.044 953.073 112C955.104 112 956.627 112.552 957.642 113.656C958.658 114.759 959.166 116.062 959.166 117.563C959.166 118.358 958.415 120.83 956.914 124.98C955.413 129.13 954.662 132.243 954.662 134.318C954.662 136.216 954.971 137.541 955.589 138.291C956.208 139.042 957.135 139.439 958.371 139.483C959.607 139.528 960.777 139.152 961.881 138.358C962.985 137.563 963.801 136.812 964.331 136.106L965.06 134.98C965.148 134.804 965.987 131.448 967.576 124.914C968.901 119.616 969.695 116.525 969.96 115.642C970.225 114.759 970.534 114.119 970.887 113.722C971.638 113.06 972.433 112.728 973.272 112.728C974.022 112.728 974.574 112.949 974.927 113.391C975.28 113.832 975.457 114.252 975.457 114.649L970.424 135.709C970.38 135.929 970.358 136.283 970.358 136.768C970.358 137.872 970.512 138.6 970.821 138.954C971.13 139.307 971.594 139.506 972.212 139.55C973.183 139.417 973.956 138.733 974.53 137.497C975.104 136.26 975.766 134.318 976.517 131.669C976.605 131.316 977.046 131.139 977.841 131.139C978.68 131.139 979.099 131.338 979.099 131.735C979.055 131.956 979.011 132.265 978.967 132.662C978.923 133.06 978.724 133.766 978.371 134.781C978.018 135.797 977.642 136.746 977.245 137.629C976.848 138.512 976.296 139.351 975.589 140.146C974.883 140.94 974.088 141.492 973.205 141.801C972.852 141.89 972.322 141.934 971.616 141.934C968.702 141.934 966.693 140.698 965.589 138.225C965.501 138.269 965.258 138.49 964.861 138.887C964.464 139.285 964.066 139.616 963.669 139.881C963.272 140.146 962.786 140.477 962.212 140.874C961.638 141.272 960.998 141.536 960.291 141.669C959.585 141.801 958.834 141.912 958.04 142C956.097 142 954.375 141.603 952.874 140.808C950.578 139.439 949.43 137.099 949.43 133.788C949.43 131.272 950.203 127.982 951.748 123.921C953.294 119.859 954.066 117.276 954.066 116.172C954.066 116.128 954.066 116.084 954.066 116.04C954.066 115.642 954.066 115.377 954.066 115.245C954.066 115.113 953.978 114.958 953.801 114.781C953.625 114.605 953.382 114.517 953.073 114.517H952.808C951.792 114.517 950.865 114.936 950.026 115.775C949.188 116.614 948.525 117.519 948.04 118.49C947.554 119.461 947.179 120.389 946.914 121.272C946.649 122.155 946.472 122.64 946.384 122.728C946.296 122.817 945.943 122.861 945.325 122.861H944.397C944.132 122.596 944 122.397 944 122.265Z" fill="#AD1E1E"/>
<path d="M1172.04 303.163C1172.04 302.062 1171.63 301.511 1170.79 301.511C1169.73 301.511 1168.63 302.15 1167.48 303.427C1166.34 304.705 1165.39 306.665 1164.64 309.308C1164.6 309.352 1164.56 309.419 1164.51 309.507C1164.47 309.595 1164.44 309.661 1164.44 309.705C1164.44 309.749 1164.4 309.793 1164.31 309.837C1164.22 309.881 1164.16 309.903 1164.11 309.903C1164.07 309.903 1163.98 309.903 1163.85 309.903C1163.72 309.903 1163.54 309.903 1163.32 309.903H1162.4C1162.13 309.639 1162 309.441 1162 309.308C1162 309 1162.18 308.361 1162.53 307.392C1162.88 306.423 1163.41 305.278 1164.11 303.956C1164.82 302.634 1165.79 301.511 1167.02 300.586C1168.26 299.661 1169.64 299.176 1171.19 299.132C1173.04 299.132 1174.47 299.661 1175.48 300.718C1176.49 301.775 1177.02 303.009 1177.07 304.419C1177.07 305.167 1177 305.74 1176.87 306.137C1176.87 306.401 1176.54 307.37 1175.88 309.044C1175.22 310.718 1174.53 312.678 1173.83 314.925C1173.12 317.172 1172.73 319.132 1172.64 320.806C1172.64 321.996 1172.75 322.965 1172.97 323.714C1173.54 325.608 1174.93 326.555 1177.13 326.555C1178.76 326.555 1180.28 325.806 1181.69 324.308C1183.1 322.811 1184.2 321.07 1185 319.088C1185.79 317.106 1186.43 315.278 1186.91 313.604C1187.4 311.93 1187.64 310.718 1187.64 309.969C1187.64 308.956 1187.46 308.075 1187.11 307.326C1186.76 306.577 1186.36 306.004 1185.92 305.608C1185.48 305.211 1185.08 304.815 1184.73 304.419C1184.38 304.022 1184.2 303.537 1184.2 302.965C1184.2 301.996 1184.62 301.093 1185.46 300.256C1186.3 299.419 1187.2 299 1188.17 299C1189 299 1189.75 299.396 1190.41 300.189C1191.07 300.982 1191.43 302.26 1191.47 304.022C1191.47 305.211 1191.21 307.04 1190.68 309.507C1190.15 311.974 1189.33 314.727 1188.23 317.767C1187.13 320.806 1185.57 323.427 1183.54 325.63C1181.52 327.833 1179.18 328.956 1176.54 329C1173.72 329 1171.47 328.273 1169.8 326.819C1168.17 325.41 1167.35 323.317 1167.35 320.542C1167.35 319.176 1167.53 317.767 1167.88 316.313C1168.23 314.859 1169.14 312.282 1170.59 308.581C1171.56 305.762 1172.04 303.956 1172.04 303.163Z" fill="#AD1E1E"/>
</svg>
