<svg width="100%" viewBox="0 0 1532 556" fill="none" xmlns="http://www.w3.org/2000/svg">

<circle cx="435" cy="364" r="151" stroke="var(--fg, black)" stroke-width="12"/>
<path d="M533.213 35.2668C534.497 32.1677 533.086 28.6405 530.062 27.3886L480.787 6.9871C477.764 5.73516 474.272 7.2326 472.989 10.3317C471.706 13.4309 473.117 16.9581 476.141 18.21L519.94 36.3446L501.353 81.2363C500.07 84.3354 501.481 87.8626 504.505 89.1146C507.529 90.3665 511.02 88.8691 512.303 85.7699L533.213 35.2668ZM54.2285 242.611L529.967 38.5708L525.51 27.4292L49.7715 231.47L54.2285 242.611Z" fill="#2739DC"/>
<path d="M569.947 146.267C571.231 143.168 569.82 139.64 566.796 138.389L517.521 117.987C514.497 116.735 511.006 118.233 509.723 121.332C508.44 124.431 509.851 127.958 512.874 129.21L556.674 147.345L538.087 192.236C536.804 195.335 538.215 198.863 541.239 200.115C544.263 201.366 547.754 199.869 549.037 196.77L569.947 146.267ZM90.9624 353.611L566.701 149.571L562.244 138.429L86.5054 342.47L90.9624 353.611Z" fill="#2739DC"/>
<path d="M651.072 341.267C652.356 338.168 650.945 334.64 647.921 333.389L598.646 312.987C595.622 311.735 592.131 313.233 590.848 316.332C589.565 319.431 590.976 322.958 593.999 324.21L637.799 342.345L619.212 387.236C617.929 390.335 619.34 393.863 622.364 395.115C625.388 396.366 628.879 394.869 630.162 391.77L651.072 341.267ZM172.087 548.611L647.826 344.571L643.369 333.429L167.63 537.47L172.087 548.611Z" fill="#2739DC"/>
<circle cx="376.5" cy="222.5" r="14.5" fill="#AD1E1E"/>
<circle cx="586.5" cy="363.5" r="14.5" fill="#AD1E1E"/>
<circle cx="330.5" cy="473.5" r="14.5" fill="#AD1E1E"/>
<path d="M556.314 21.7093C558.484 18.5698 561.45 17 565.209 17C567.07 17 568.93 17.5039 570.791 18.5116C572.651 19.5194 574.163 21.3023 575.326 23.8605C576.76 27.0775 577.477 31.4961 577.477 37.1163C577.477 43.124 576.643 47.7171 574.977 50.8953C574.202 52.5233 573.136 53.8217 571.779 54.7907C570.422 55.7597 569.24 56.3605 568.233 56.593C567.225 56.8256 566.236 56.9612 565.267 57C564.26 57 563.252 56.8837 562.244 56.6512C561.236 56.4186 560.054 55.7984 558.698 54.7907C557.341 53.7829 556.275 52.4845 555.5 50.8953C553.833 47.7171 553 43.124 553 37.1163C553 30.3721 554.105 25.2364 556.314 21.7093ZM569.395 21.0116C568.233 19.7713 566.857 19.1512 565.267 19.1512C563.64 19.1512 562.244 19.7713 561.081 21.0116C560.112 22.0194 559.473 23.4147 559.163 25.1977C558.853 26.9806 558.698 30.7015 558.698 36.3605C558.698 42.4845 558.853 46.5155 559.163 48.4535C559.473 50.3915 560.171 51.9225 561.256 53.0465C562.341 54.2093 563.678 54.7907 565.267 54.7907C566.818 54.7907 568.136 54.2093 569.221 53.0465C570.345 51.8837 571.043 50.2558 571.314 48.1628C571.585 46.0698 571.74 42.1357 571.779 36.3605C571.779 30.7403 571.624 27.0388 571.314 25.2558C571.004 23.4729 570.364 22.0581 569.395 21.0116Z" fill="var(--fg, black)"/>
<path d="M596.43 53.0463H597.244C598.756 53.0463 599.667 52.775 599.977 52.2323V51.7672C599.977 51.4184 599.977 50.9726 599.977 50.43C599.977 49.8874 599.996 49.2866 600.035 48.6277C600.074 47.9688 600.074 47.213 600.035 46.3602C599.996 45.5075 599.996 44.6936 600.035 43.9184C600.035 42.7168 600.035 41.4378 600.035 40.0812C600.035 38.7246 600.035 37.5812 600.035 36.6509L599.977 35.3137C599.86 34.5773 599.589 34.0928 599.163 33.8602C598.736 33.6277 597.864 33.4533 596.547 33.337H595.5V31.9998C595.5 31.1083 595.539 30.6626 595.616 30.6626L596.198 30.6044C596.585 30.5657 597.128 30.5269 597.826 30.4881C598.523 30.4494 599.221 30.4106 599.919 30.3719C600.539 30.3331 601.217 30.2943 601.953 30.2556C602.69 30.2168 603.252 30.1587 603.64 30.0812C604.027 30.0037 604.24 29.9843 604.279 30.023H604.453V34.0347C605.965 31.399 607.845 30.0812 610.093 30.0812H610.442C612.186 30.0812 613.465 30.5075 614.279 31.3602C615.093 32.213 615.5 33.1044 615.5 34.0347C615.5 34.8486 615.248 35.5463 614.744 36.1277C614.24 36.7091 613.504 36.9998 612.535 36.9998C611.566 36.9998 610.849 36.6897 610.384 36.0695C609.919 35.4494 609.667 34.7905 609.628 34.0928C609.628 33.744 609.667 33.4339 609.744 33.1626C609.822 32.8912 609.919 32.6587 610.035 32.4649C610.151 32.2711 610.209 32.1742 610.209 32.1742C610.132 32.0967 609.686 32.1742 608.872 32.4067C608.252 32.7168 607.787 33.0075 607.477 33.2788C605.655 35.023 604.744 38.492 604.744 43.6858V46.7672C604.744 47.2711 604.744 47.7943 604.744 48.337C604.744 48.8796 604.744 49.3835 604.744 49.8486C604.744 50.3137 604.764 50.7013 604.802 51.0114C604.841 51.3215 604.841 51.6122 604.802 51.8835V52.1742C604.841 52.2517 604.899 52.3292 604.977 52.4067C605.054 52.4843 605.151 52.5424 605.267 52.5812C605.384 52.6199 605.481 52.6781 605.558 52.7556C605.636 52.8331 605.771 52.8719 605.965 52.8719C606.159 52.8719 606.295 52.8912 606.372 52.93C606.45 52.9688 606.624 52.9881 606.895 52.9881C607.167 52.9881 607.341 52.9881 607.419 52.9881C607.496 52.9881 607.69 53.0075 608 53.0463C608.31 53.085 608.504 53.085 608.581 53.0463H610.384V55.7207H609.86C609.163 55.6044 606.702 55.5463 602.477 55.5463C598.484 55.5463 596.314 55.6044 595.965 55.7207H595.5V53.0463H596.43Z" fill="var(--fg, black)"/>
<path d="M618.756 43.279C618.756 39.5968 620.015 36.4185 622.535 33.7441C625.054 31.0697 628.097 29.7131 631.663 29.6743C635.151 29.6743 638.155 30.9922 640.674 33.6278C643.194 36.2635 644.473 39.4612 644.511 43.2209C644.511 46.903 643.271 50.0038 640.79 52.5232C638.31 55.0426 635.267 56.3022 631.663 56.3022C627.903 56.3022 624.822 55.0038 622.418 52.4069C620.015 49.81 618.794 46.7674 618.756 43.279ZM631.663 53.9767C636.391 53.9767 638.756 50.8178 638.756 44.4999V42.6395V41.186C638.756 40.3333 638.736 39.5968 638.697 38.9767C638.659 38.3565 638.523 37.6201 638.29 36.7674C638.058 35.9147 637.748 35.217 637.36 34.6743C636.973 34.1317 636.372 33.5891 635.558 33.0464C634.744 32.5038 633.794 32.1162 632.709 31.8836C632.515 31.8449 632.205 31.8255 631.779 31.8255C630.616 31.8255 629.511 32.0581 628.465 32.5232C626.798 33.3759 625.713 34.5581 625.209 36.0697C624.705 37.5813 624.453 39.3643 624.453 41.4185V42.5813C624.453 46.3022 624.822 48.9185 625.558 50.4302C626.798 52.7945 628.833 53.9767 631.663 53.9767Z" fill="var(--fg, black)"/>
<path d="M647.826 43.279C647.826 39.5968 649.085 36.4185 651.605 33.7441C654.124 31.0697 657.167 29.7131 660.733 29.6743C664.221 29.6743 667.225 30.9922 669.744 33.6278C672.264 36.2635 673.543 39.4612 673.581 43.2209C673.581 46.903 672.341 50.0038 669.861 52.5232C667.38 55.0426 664.337 56.3022 660.733 56.3022C656.973 56.3022 653.892 55.0038 651.488 52.4069C649.085 49.81 647.864 46.7674 647.826 43.279ZM660.733 53.9767C665.461 53.9767 667.826 50.8178 667.826 44.4999V42.6395V41.186C667.826 40.3333 667.806 39.5968 667.768 38.9767C667.729 38.3565 667.593 37.6201 667.361 36.7674C667.128 35.9147 666.818 35.217 666.43 34.6743C666.043 34.1317 665.442 33.5891 664.628 33.0464C663.814 32.5038 662.864 32.1162 661.779 31.8836C661.585 31.8449 661.275 31.8255 660.849 31.8255C659.686 31.8255 658.581 32.0581 657.535 32.5232C655.868 33.3759 654.783 34.5581 654.279 36.0697C653.775 37.5813 653.523 39.3643 653.523 41.4185V42.5813C653.523 46.3022 653.892 48.9185 654.628 50.4302C655.868 52.7945 657.903 53.9767 660.733 53.9767Z" fill="var(--fg, black)"/>
<path d="M676.837 31.186C678.891 31.0309 680.48 29.9457 681.604 27.9302C682.728 25.9146 683.349 23.5503 683.465 20.8371V19.965H685.79V30.6627H693.639V33.3371H685.79V41.7092C685.829 46.5542 685.849 49.2867 685.849 49.9069C685.849 50.5271 685.984 51.1472 686.256 51.7674C686.798 53.279 687.748 54.0348 689.104 54.0348C690.81 54.0348 691.856 52.6588 692.244 49.9069C692.283 49.5968 692.302 48.7053 692.302 47.2325V45.1976H694.628V47.2325V47.9302C694.628 50.9146 693.814 53.1821 692.186 54.7325C691.139 55.779 689.783 56.3022 688.116 56.3022C686.798 56.3022 685.655 56.0697 684.686 55.6046C683.717 55.1395 682.98 54.5387 682.477 53.8022C681.973 53.0658 681.604 52.3875 681.372 51.7674C681.139 51.1472 681.004 50.5271 680.965 49.9069C680.926 49.6356 680.907 46.7674 680.907 41.3022V33.3371H676.314V31.186H676.837Z" fill="var(--fg, black)"/>
<path d="M715.035 37.3492C715.035 35.7988 714.512 34.4616 713.465 33.3376C712.419 32.2136 710.907 31.6515 708.93 31.6515C707.535 31.6515 706.333 31.9035 705.326 32.4074C704.163 33.1438 703.582 34.1515 703.582 35.4306C703.543 35.6244 703.543 35.8763 703.582 36.1864C703.62 36.4965 703.93 36.9616 704.512 37.5818C705.093 38.2019 705.927 38.6864 707.012 39.0353C707.709 39.2291 708.562 39.4035 709.57 39.5585C710.578 39.7136 711.43 39.888 712.128 40.0818C712.826 40.2756 713.446 40.5275 713.989 40.8376C714.647 41.1477 715.287 41.5353 715.907 42.0004C716.527 42.4655 717.147 43.2601 717.768 44.3841C718.388 45.5081 718.717 46.7097 718.756 47.9887C718.756 50.3918 718.02 52.3686 716.547 53.919C715.074 55.4694 712.69 56.2639 709.396 56.3027H708.93C706.915 56.3027 705.054 55.605 703.349 54.2097L702.884 54.6167L702.361 55.1399C702.128 55.3725 701.896 55.5856 701.663 55.7794L701.023 56.3608H700.558H700.326C700.209 56.3608 700.035 56.2446 699.802 56.012V51.419V48.0469C699.802 47.2329 699.841 46.7484 699.919 46.5934C699.996 46.4384 700.19 46.3415 700.5 46.3027H701.023C701.489 46.3027 701.799 46.3802 701.954 46.5353C702.109 46.6903 702.206 46.9229 702.244 47.2329C702.283 47.543 702.419 48.0663 702.651 48.8027C702.884 49.5391 703.252 50.3531 703.756 51.2446C705.113 53.2213 706.992 54.2097 709.396 54.2097C713.155 54.2097 715.035 52.698 715.035 49.6748C715.035 48.5508 714.686 47.6399 713.989 46.9422C713.213 46.012 711.605 45.3143 709.163 44.8492C706.721 44.3841 705.113 43.9384 704.337 43.512C702.942 42.8531 701.837 41.9616 701.023 40.8376C700.209 39.7136 699.802 38.512 699.802 37.2329C699.802 35.7213 700.132 34.4422 700.791 33.3957C701.45 32.3492 702.283 31.574 703.291 31.0701C704.299 30.5663 705.268 30.2174 706.198 30.0236C707.128 29.8298 707.981 29.7329 708.756 29.7329H709.396C710.946 29.7329 712.302 30.0236 713.465 30.605L714.337 31.0701L714.861 30.6632C715.248 30.3143 715.675 29.9849 716.14 29.6748H716.605H716.837C716.954 29.6748 717.128 29.7911 717.361 30.0236V37.6981L717.012 38.0469H715.384C715.151 37.8143 715.035 37.5818 715.035 37.3492Z" fill="var(--fg, black)"/>
<path d="M603.692 125.207L602.923 125.503C602.371 125.7 601.582 125.897 600.556 126.095C599.531 126.292 598.387 126.43 597.124 126.509H596V123.787H597.124C598.978 123.708 600.694 123.412 602.272 122.899C603.85 122.387 604.955 121.913 605.586 121.479C606.217 121.045 606.769 120.611 607.243 120.177C607.321 120.059 607.558 120 607.953 120C608.308 120 608.643 120.118 608.959 120.355V138.047L609.018 155.799C609.294 156.075 609.531 156.252 609.728 156.331C609.925 156.41 610.398 156.489 611.148 156.568C611.897 156.647 613.12 156.686 614.817 156.686H616.355V159.408H615.704C614.876 159.29 611.74 159.231 606.296 159.231C600.931 159.231 597.834 159.29 597.006 159.408H596.296V156.686H597.834C598.702 156.686 599.452 156.686 600.083 156.686C600.714 156.686 601.207 156.667 601.562 156.627C601.917 156.588 602.233 156.529 602.509 156.45C602.785 156.371 602.943 156.331 602.982 156.331C603.022 156.331 603.14 156.233 603.337 156.035C603.535 155.838 603.653 155.759 603.692 155.799V125.207Z" fill="var(--fg, black)"/>
<path d="M637.598 156.686H638.426C639.964 156.686 640.892 156.41 641.207 155.858V155.385C641.207 155.03 641.207 154.576 641.207 154.024C641.207 153.471 641.227 152.86 641.266 152.189C641.306 151.519 641.306 150.749 641.266 149.882C641.227 149.014 641.227 148.185 641.266 147.396C641.266 146.173 641.266 144.872 641.266 143.491C641.266 142.11 641.266 140.947 641.266 140L641.207 138.639C641.089 137.889 640.813 137.396 640.379 137.16C639.945 136.923 639.057 136.745 637.716 136.627H636.651V135.266C636.651 134.359 636.69 133.905 636.769 133.905L637.361 133.846C637.755 133.807 638.308 133.767 639.018 133.728C639.728 133.688 640.438 133.649 641.148 133.609C641.779 133.57 642.469 133.53 643.219 133.491C643.968 133.452 644.54 133.392 644.935 133.314C645.329 133.235 645.546 133.215 645.586 133.254H645.763V137.337C647.302 134.655 649.215 133.314 651.503 133.314H651.858C653.633 133.314 654.935 133.747 655.763 134.615C656.592 135.483 657.006 136.39 657.006 137.337C657.006 138.166 656.749 138.876 656.237 139.467C655.724 140.059 654.974 140.355 653.988 140.355C653.002 140.355 652.272 140.039 651.799 139.408C651.325 138.777 651.069 138.106 651.03 137.396C651.03 137.041 651.069 136.726 651.148 136.45C651.227 136.173 651.325 135.937 651.444 135.74C651.562 135.542 651.621 135.444 651.621 135.444C651.542 135.365 651.089 135.444 650.26 135.68C649.629 135.996 649.156 136.292 648.84 136.568C646.986 138.343 646.059 141.874 646.059 147.16V150.296C646.059 150.809 646.059 151.341 646.059 151.893C646.059 152.446 646.059 152.958 646.059 153.432C646.059 153.905 646.079 154.3 646.118 154.615C646.158 154.931 646.158 155.227 646.118 155.503V155.799C646.158 155.878 646.217 155.957 646.296 156.035C646.375 156.114 646.473 156.173 646.592 156.213C646.71 156.252 646.809 156.312 646.888 156.39C646.966 156.469 647.105 156.509 647.302 156.509C647.499 156.509 647.637 156.529 647.716 156.568C647.795 156.607 647.972 156.627 648.249 156.627C648.525 156.627 648.702 156.627 648.781 156.627C648.86 156.627 649.057 156.647 649.373 156.686C649.688 156.726 649.886 156.726 649.964 156.686H651.799V159.408H651.266C650.556 159.29 648.051 159.231 643.751 159.231C639.688 159.231 637.479 159.29 637.124 159.408H636.651V156.686H637.598Z" fill="var(--fg, black)"/>
<path d="M660.32 146.746C660.32 142.998 661.602 139.763 664.166 137.041C666.73 134.32 669.826 132.939 673.456 132.899C677.006 132.899 680.063 134.241 682.627 136.923C685.191 139.606 686.493 142.86 686.533 146.686C686.533 150.434 685.27 153.59 682.746 156.154C680.221 158.718 677.124 160 673.456 160C669.629 160 666.493 158.679 664.047 156.036C661.602 153.393 660.359 150.296 660.32 146.746ZM673.456 157.633C678.268 157.633 680.675 154.418 680.675 147.988V146.095V144.615C680.675 143.748 680.655 142.998 680.615 142.367C680.576 141.736 680.438 140.986 680.201 140.118C679.965 139.25 679.649 138.54 679.254 137.988C678.86 137.436 678.249 136.884 677.42 136.331C676.592 135.779 675.625 135.385 674.521 135.148C674.324 135.108 674.008 135.089 673.574 135.089C672.391 135.089 671.266 135.325 670.201 135.799C668.505 136.667 667.4 137.87 666.888 139.408C666.375 140.947 666.118 142.761 666.118 144.852V146.036C666.118 149.822 666.493 152.485 667.243 154.024C668.505 156.43 670.576 157.633 673.456 157.633Z" fill="var(--fg, black)"/>
<path d="M689.905 146.746C689.905 142.998 691.187 139.763 693.751 137.041C696.316 134.32 699.412 132.939 703.041 132.899C706.592 132.899 709.649 134.241 712.213 136.923C714.777 139.606 716.079 142.86 716.118 146.686C716.118 150.434 714.856 153.59 712.331 156.154C709.807 158.718 706.71 160 703.041 160C699.215 160 696.079 158.679 693.633 156.036C691.187 153.393 689.945 150.296 689.905 146.746ZM703.041 157.633C707.854 157.633 710.26 154.418 710.26 147.988V146.095V144.615C710.26 143.748 710.241 142.998 710.201 142.367C710.162 141.736 710.024 140.986 709.787 140.118C709.55 139.25 709.235 138.54 708.84 137.988C708.446 137.436 707.834 136.884 707.006 136.331C706.177 135.779 705.211 135.385 704.106 135.148C703.909 135.108 703.594 135.089 703.16 135.089C701.976 135.089 700.852 135.325 699.787 135.799C698.091 136.667 696.986 137.87 696.473 139.408C695.961 140.947 695.704 142.761 695.704 144.852V146.036C695.704 149.822 696.079 152.485 696.828 154.024C698.091 156.43 700.162 157.633 703.041 157.633Z" fill="var(--fg, black)"/>
<path d="M719.432 134.438C721.523 134.28 723.14 133.176 724.284 131.124C725.428 129.073 726.059 126.667 726.178 123.905V123.018H728.544V133.905H736.533V136.627H728.544V145.148C728.584 150.079 728.604 152.86 728.604 153.491C728.604 154.122 728.742 154.753 729.018 155.385C729.57 156.923 730.536 157.692 731.917 157.692C733.653 157.692 734.718 156.292 735.112 153.491C735.152 153.176 735.172 152.268 735.172 150.769V148.698H737.538V150.769V151.479C737.538 154.517 736.71 156.824 735.053 158.402C733.988 159.467 732.608 160 730.911 160C729.57 160 728.406 159.763 727.42 159.29C726.434 158.817 725.684 158.205 725.172 157.456C724.659 156.706 724.284 156.016 724.047 155.385C723.811 154.753 723.673 154.122 723.633 153.491C723.594 153.215 723.574 150.296 723.574 144.734V136.627H718.899V134.438H719.432Z" fill="var(--fg, black)"/>
<path d="M677.486 325.003C676.422 325.003 675.576 324.648 674.945 323.939C674.315 323.23 674 322.364 674 321.34C674 318.543 675.044 316.121 677.131 314.072C679.219 312.024 681.819 311 684.931 311C688.515 311 691.509 312.103 693.911 314.309C696.314 316.515 697.535 319.37 697.575 322.876C697.575 324.57 697.181 326.185 696.393 327.721C695.605 329.257 694.66 330.596 693.557 331.739C692.454 332.881 690.878 334.338 688.83 336.111C687.412 337.332 685.443 339.144 682.922 341.547L679.436 344.855L683.926 344.914C690.11 344.914 693.399 344.816 693.793 344.619C694.069 344.54 694.542 342.787 695.211 339.36V339.183H697.575V339.36C697.535 339.479 697.279 341.271 696.806 344.737C696.334 348.203 696.038 350.015 695.92 350.173V350.35H674V349.227V348.518C674 348.243 674.118 347.947 674.355 347.632C674.591 347.317 675.182 346.628 676.127 345.564C677.269 344.304 678.254 343.201 679.081 342.256C679.436 341.862 680.105 341.133 681.09 340.069C682.075 339.006 682.744 338.277 683.099 337.883C683.453 337.489 684.025 336.84 684.812 335.934C685.6 335.028 686.152 334.358 686.467 333.925C686.782 333.491 687.235 332.901 687.826 332.152C688.417 331.404 688.83 330.774 689.066 330.261C689.303 329.749 689.598 329.178 689.953 328.548C690.307 327.918 690.563 327.288 690.721 326.657C690.878 326.027 691.016 325.436 691.134 324.885C691.253 324.333 691.312 323.683 691.312 322.935C691.312 320.453 690.642 318.307 689.303 316.495C687.964 314.683 686.053 313.777 683.572 313.777C682.272 313.777 681.129 314.112 680.145 314.781C679.16 315.451 678.471 316.101 678.077 316.731C677.683 317.361 677.486 317.736 677.486 317.854C677.486 317.893 677.584 317.913 677.781 317.913C678.49 317.913 679.219 318.189 679.968 318.74C680.716 319.292 681.09 320.197 681.09 321.458C681.09 322.443 680.775 323.27 680.145 323.939C679.515 324.609 678.628 324.964 677.486 325.003Z" fill="var(--fg, black)"/>
<path d="M717.486 347.632H718.313C719.849 347.632 720.775 347.356 721.09 346.805V346.332C721.09 345.978 721.09 345.525 721.09 344.973C721.09 344.422 721.11 343.811 721.149 343.142C721.188 342.472 721.188 341.704 721.149 340.838C721.11 339.971 721.11 339.144 721.149 338.356C721.149 337.135 721.149 335.835 721.149 334.456C721.149 333.078 721.149 331.916 721.149 330.97L721.09 329.612C720.972 328.863 720.696 328.371 720.263 328.134C719.83 327.898 718.943 327.721 717.604 327.603H716.541V326.244C716.541 325.338 716.58 324.885 716.659 324.885L717.25 324.826C717.643 324.786 718.195 324.747 718.904 324.708C719.613 324.668 720.322 324.629 721.031 324.589C721.661 324.55 722.35 324.511 723.099 324.471C723.847 324.432 724.418 324.373 724.812 324.294C725.206 324.215 725.423 324.195 725.462 324.235H725.639V328.312C727.176 325.633 729.086 324.294 731.371 324.294H731.725C733.498 324.294 734.798 324.727 735.625 325.594C736.452 326.46 736.865 327.366 736.865 328.312C736.865 329.139 736.609 329.848 736.097 330.439C735.585 331.03 734.837 331.325 733.852 331.325C732.867 331.325 732.139 331.01 731.666 330.38C731.193 329.749 730.937 329.08 730.898 328.371C730.898 328.016 730.937 327.701 731.016 327.425C731.095 327.15 731.193 326.913 731.312 326.716C731.43 326.519 731.489 326.421 731.489 326.421C731.41 326.342 730.957 326.421 730.13 326.657C729.5 326.972 729.027 327.268 728.712 327.544C726.861 329.316 725.935 332.841 725.935 338.12V341.251C725.935 341.763 725.935 342.295 725.935 342.846C725.935 343.398 725.935 343.91 725.935 344.383C725.935 344.855 725.955 345.249 725.994 345.564C726.033 345.879 726.033 346.175 725.994 346.451V346.746C726.033 346.825 726.092 346.904 726.171 346.982C726.25 347.061 726.349 347.12 726.467 347.16C726.585 347.199 726.683 347.258 726.762 347.337C726.841 347.416 726.979 347.455 727.176 347.455C727.373 347.455 727.51 347.475 727.589 347.514C727.668 347.553 727.845 347.573 728.121 347.573C728.397 347.573 728.574 347.573 728.653 347.573C728.732 347.573 728.929 347.593 729.244 347.632C729.559 347.672 729.756 347.672 729.834 347.632H731.666V350.35H731.134C730.425 350.232 727.924 350.173 723.631 350.173C719.574 350.173 717.368 350.232 717.013 350.35H716.541V347.632H717.486Z" fill="var(--fg, black)"/>
<path d="M740.174 337.706C740.174 333.964 741.454 330.734 744.015 328.016C746.575 325.298 749.667 323.92 753.291 323.88C756.836 323.88 759.889 325.22 762.449 327.898C765.009 330.577 766.309 333.826 766.349 337.647C766.349 341.389 765.088 344.54 762.567 347.1C760.046 349.661 756.954 350.941 753.291 350.941C749.47 350.941 746.339 349.621 743.897 346.982C741.454 344.343 740.214 341.251 740.174 337.706ZM753.291 348.578C758.097 348.578 760.499 345.367 760.499 338.947V337.056V335.579C760.499 334.712 760.48 333.964 760.44 333.334C760.401 332.704 760.263 331.955 760.027 331.089C759.79 330.222 759.475 329.513 759.081 328.962C758.687 328.41 758.077 327.859 757.25 327.307C756.422 326.756 755.457 326.362 754.355 326.126C754.158 326.086 753.842 326.066 753.409 326.066C752.227 326.066 751.105 326.303 750.041 326.775C748.348 327.642 747.245 328.843 746.733 330.38C746.221 331.916 745.965 333.728 745.965 335.815V336.997C745.965 340.778 746.339 343.437 747.087 344.973C748.348 347.376 750.416 348.578 753.291 348.578Z" fill="var(--fg, black)"/>
<path d="M769.716 337.706C769.716 333.964 770.996 330.734 773.557 328.016C776.117 325.298 779.209 323.92 782.833 323.88C786.378 323.88 789.431 325.22 791.991 327.898C794.551 330.577 795.851 333.826 795.891 337.647C795.891 341.389 794.63 344.54 792.109 347.1C789.588 349.661 786.496 350.941 782.833 350.941C779.012 350.941 775.881 349.621 773.439 346.982C770.996 344.343 769.756 341.251 769.716 337.706ZM782.833 348.578C787.639 348.578 790.041 345.367 790.041 338.947V337.056V335.579C790.041 334.712 790.022 333.964 789.982 333.334C789.943 332.704 789.805 331.955 789.569 331.089C789.332 330.222 789.017 329.513 788.623 328.962C788.229 328.41 787.619 327.859 786.792 327.307C785.964 326.756 784.999 326.362 783.897 326.126C783.7 326.086 783.384 326.066 782.951 326.066C781.769 326.066 780.647 326.303 779.583 326.775C777.89 327.642 776.787 328.843 776.275 330.38C775.763 331.916 775.507 333.728 775.507 335.815V336.997C775.507 340.778 775.881 343.437 776.629 344.973C777.89 347.376 779.958 348.578 782.833 348.578Z" fill="var(--fg, black)"/>
<path d="M799.199 325.417C801.287 325.259 802.902 324.156 804.044 322.108C805.187 320.06 805.817 317.657 805.935 314.9V314.013H808.298V324.885H816.275V327.603H808.298V336.111C808.338 341.034 808.358 343.811 808.358 344.442C808.358 345.072 808.495 345.702 808.771 346.332C809.323 347.869 810.288 348.637 811.666 348.637C813.399 348.637 814.463 347.238 814.857 344.442C814.896 344.127 814.916 343.221 814.916 341.724V339.656H817.279V341.724V342.433C817.279 345.466 816.452 347.77 814.798 349.346C813.734 350.409 812.356 350.941 810.662 350.941C809.323 350.941 808.161 350.705 807.176 350.232C806.191 349.759 805.443 349.149 804.931 348.4C804.419 347.652 804.044 346.963 803.808 346.332C803.572 345.702 803.434 345.072 803.394 344.442C803.355 344.166 803.335 341.251 803.335 335.697V327.603H798.668V325.417H799.199Z" fill="var(--fg, black)"/>
<path d="M838.018 331.679C838.018 330.104 837.486 328.745 836.422 327.603C835.359 326.46 833.823 325.889 831.814 325.889C830.396 325.889 829.175 326.145 828.151 326.657C826.969 327.406 826.378 328.43 826.378 329.73C826.339 329.927 826.339 330.183 826.378 330.498C826.417 330.813 826.733 331.286 827.323 331.916C827.914 332.546 828.761 333.038 829.864 333.393C830.573 333.59 831.44 333.767 832.464 333.925C833.488 334.082 834.354 334.259 835.063 334.456C835.772 334.653 836.403 334.909 836.954 335.225C837.624 335.54 838.274 335.934 838.904 336.406C839.534 336.879 840.164 337.686 840.795 338.829C841.425 339.971 841.76 341.192 841.799 342.492C841.799 344.934 841.051 346.943 839.554 348.518C838.057 350.094 835.635 350.902 832.286 350.941H831.814C829.766 350.941 827.875 350.232 826.142 348.814L825.669 349.227L825.137 349.759C824.901 349.996 824.665 350.212 824.428 350.409L823.778 351H823.306H823.069C822.951 351 822.774 350.882 822.538 350.645V345.978V342.551C822.538 341.724 822.577 341.231 822.656 341.074C822.735 340.916 822.931 340.818 823.247 340.778H823.778C824.251 340.778 824.566 340.857 824.724 341.015C824.881 341.172 824.98 341.409 825.019 341.724C825.059 342.039 825.196 342.571 825.433 343.319C825.669 344.067 826.043 344.895 826.555 345.801C827.934 347.809 829.844 348.814 832.286 348.814C836.107 348.814 838.018 347.278 838.018 344.205C838.018 343.063 837.663 342.137 836.954 341.428C836.166 340.483 834.532 339.774 832.05 339.301C829.569 338.829 827.934 338.376 827.146 337.942C825.728 337.273 824.606 336.367 823.778 335.225C822.951 334.082 822.538 332.861 822.538 331.561C822.538 330.025 822.872 328.725 823.542 327.662C824.212 326.598 825.059 325.81 826.083 325.298C827.107 324.786 828.092 324.432 829.037 324.235C829.982 324.038 830.849 323.939 831.637 323.939H832.286C833.862 323.939 835.241 324.235 836.422 324.826L837.309 325.298L837.84 324.885C838.234 324.53 838.668 324.195 839.14 323.88H839.613H839.849C839.967 323.88 840.145 323.999 840.381 324.235V332.034L840.027 332.388H838.372C838.136 332.152 838.018 331.916 838.018 331.679Z" fill="var(--fg, black)"/>
</svg>
