<svg width="100%" viewBox="0 0 1533 556" fill="none" xmlns="http://www.w3.org/2000/svg">
<path d="M955.93 49.1315C954.368 47.5694 951.835 47.5694 950.273 49.1315L924.818 74.5874C923.255 76.1495 923.255 78.6821 924.818 80.2442C926.38 81.8063 928.912 81.8063 930.474 80.2442L953.102 57.6168L975.729 80.2442C977.291 81.8063 979.824 81.8063 981.386 80.2442C982.948 78.6821 982.948 76.1495 981.386 74.5874L955.93 49.1315ZM957.102 277.729L957.102 51.9599L949.102 51.9599L949.102 277.729L957.102 277.729Z" fill="#2739DC"/>
<path d="M684.682 140.166C683.12 138.604 680.587 138.604 679.025 140.166L653.569 165.622C652.007 167.184 652.007 169.716 653.569 171.279C655.131 172.841 657.664 172.841 659.226 171.279L681.853 148.651L704.481 171.279C706.043 172.841 708.575 172.841 710.138 171.279C711.7 169.716 711.7 167.184 710.138 165.622L684.682 140.166ZM685.853 277.729L685.853 142.994L677.853 142.994L677.853 277.729L685.853 277.729Z" fill="var(--fg, black)"/>
<line x1="333.861" y1="278.943" x2="1087.1" y2="278.943" stroke="var(--fg, black)" stroke-width="8"/>
<path d="M942.75 512.057C944.954 511.921 946.632 510.024 946.495 507.819L944.277 471.887C944.141 469.682 942.243 468.005 940.038 468.141C937.833 468.277 936.156 470.175 936.292 472.38L938.264 504.319L906.325 506.291C904.12 506.427 902.443 508.325 902.579 510.53C902.715 512.735 904.613 514.412 906.818 514.276L942.75 512.057ZM679.205 280.726L939.854 511.062L945.152 505.068L684.502 274.731L679.205 280.726Z" fill="#1C9812"/>
<path d="M946.493 52.2461C946.651 50.0426 944.993 48.1282 942.789 47.9702L906.881 45.3952C904.678 45.2372 902.763 46.8954 902.605 49.0989C902.447 51.3024 904.106 53.2168 906.309 53.3748L938.227 55.6636L935.938 87.5816C935.78 89.7851 937.438 91.6995 939.642 91.8575C941.845 92.0155 943.76 90.3573 943.918 88.1539L946.493 52.2461ZM684.472 280.752L945.122 54.9834L939.884 48.9365L679.234 274.705L684.472 280.752Z" fill="#AD1E1E"/>
<path d="M955.93 283.364C954.368 281.802 951.835 281.802 950.273 283.364L924.818 308.82C923.255 310.382 923.255 312.915 924.818 314.477C926.38 316.039 928.912 316.039 930.474 314.477L953.102 291.85L975.729 314.477C977.291 316.039 979.824 316.039 981.386 314.477C982.948 312.915 982.948 310.382 981.386 308.82L955.93 283.364ZM957.102 520.861L957.102 286.193L949.102 286.193L949.102 520.861L957.102 520.861Z" fill="#2739DC"/>
<circle cx="681.853" cy="277.729" r="14.5" fill="var(--fg, black)"/>
<circle cx="953.448" cy="37.4609" r="14.5" fill="var(--fg, black)"/>
<circle cx="953.448" cy="518.539" r="14.5" fill="var(--fg, black)"/>
<path d="M677.016 277.022C679.221 276.889 680.9 274.993 680.767 272.788L678.593 236.853C678.46 234.648 676.564 232.969 674.359 233.102C672.154 233.236 670.474 235.131 670.608 237.336L672.54 269.278L640.598 271.21C638.393 271.344 636.714 273.239 636.847 275.444C636.98 277.65 638.876 279.329 641.081 279.196L677.016 277.022ZM407.606 39.912L674.122 276.023L679.426 270.035L412.911 33.9239L407.606 39.912Z" fill="#1C9812"/>
<path d="M782.901 413.618C782.901 412.517 782.483 411.966 781.646 411.966C780.588 411.966 779.487 412.605 778.342 413.882C777.196 415.16 776.249 417.12 775.5 419.763C775.456 419.808 775.412 419.874 775.368 419.962C775.324 420.05 775.302 420.116 775.302 420.16C775.302 420.204 775.258 420.248 775.17 420.292C775.082 420.336 775.016 420.358 774.972 420.358C774.928 420.358 774.84 420.358 774.707 420.358C774.575 420.358 774.399 420.358 774.179 420.358H773.254C772.989 420.094 772.857 419.896 772.857 419.763C772.857 419.455 773.033 418.816 773.386 417.847C773.738 416.878 774.267 415.733 774.972 414.411C775.677 413.089 776.646 411.966 777.879 411.041C779.113 410.116 780.5 409.631 782.042 409.587C783.892 409.587 785.324 410.116 786.337 411.173C787.351 412.23 787.879 413.464 787.923 414.874C787.923 415.622 787.857 416.195 787.725 416.592C787.725 416.856 787.395 417.825 786.734 419.499C786.073 421.173 785.39 423.133 784.685 425.38C783.981 427.627 783.584 429.587 783.496 431.261C783.496 432.451 783.606 433.42 783.826 434.169C784.399 436.063 785.787 437.01 787.989 437.01C789.619 437.01 791.139 436.261 792.549 434.763C793.958 433.266 795.06 431.526 795.853 429.543C796.646 427.561 797.284 425.733 797.769 424.059C798.254 422.385 798.496 421.173 798.496 420.424C798.496 419.411 798.32 418.53 797.967 417.781C797.615 417.032 797.218 416.459 796.778 416.063C796.337 415.667 795.941 415.27 795.588 414.874C795.236 414.477 795.06 413.993 795.06 413.42C795.06 412.451 795.478 411.548 796.315 410.711C797.152 409.874 798.055 409.455 799.025 409.455C799.862 409.455 800.61 409.852 801.271 410.645C801.932 411.437 802.284 412.715 802.329 414.477C802.329 415.667 802.064 417.495 801.536 419.962C801.007 422.429 800.192 425.182 799.091 428.222C797.989 431.261 796.425 433.882 794.399 436.085C792.373 438.288 790.038 439.411 787.395 439.455C784.575 439.455 782.329 438.728 780.655 437.274C779.025 435.865 778.21 433.772 778.21 430.997C778.21 429.631 778.386 428.222 778.738 426.768C779.091 425.314 779.994 422.737 781.447 419.037C782.417 416.217 782.901 414.411 782.901 413.618Z" fill="#1C9812"/>
<path d="M499.568 169.009C499.568 167.907 499.149 167.357 498.312 167.357C497.255 167.357 496.154 167.995 495.008 169.273C493.863 170.551 492.916 172.511 492.167 175.154C492.123 175.198 492.079 175.264 492.035 175.352C491.991 175.44 491.969 175.506 491.969 175.551C491.969 175.595 491.925 175.639 491.836 175.683C491.748 175.727 491.682 175.749 491.638 175.749C491.594 175.749 491.506 175.749 491.374 175.749C491.242 175.749 491.066 175.749 490.845 175.749H489.92C489.656 175.484 489.524 175.286 489.524 175.154C489.524 174.846 489.7 174.207 490.052 173.238C490.405 172.269 490.933 171.123 491.638 169.802C492.343 168.48 493.312 167.357 494.546 166.432C495.779 165.506 497.167 165.022 498.709 164.978C500.559 164.978 501.991 165.506 503.004 166.564C504.017 167.621 504.546 168.855 504.59 170.264C504.59 171.013 504.524 171.586 504.392 171.982C504.392 172.247 504.061 173.216 503.4 174.89C502.74 176.564 502.057 178.524 501.352 180.771C500.647 183.018 500.251 184.978 500.162 186.652C500.162 187.841 500.273 188.81 500.493 189.559C501.066 191.454 502.453 192.401 504.656 192.401C506.286 192.401 507.806 191.652 509.215 190.154C510.625 188.656 511.726 186.916 512.519 184.934C513.312 182.951 513.951 181.123 514.436 179.449C514.92 177.775 515.162 176.564 515.162 175.815C515.162 174.802 514.986 173.921 514.634 173.172C514.281 172.423 513.885 171.85 513.444 171.454C513.004 171.057 512.607 170.661 512.255 170.264C511.903 169.868 511.726 169.383 511.726 168.81C511.726 167.841 512.145 166.938 512.982 166.101C513.819 165.264 514.722 164.846 515.691 164.846C516.528 164.846 517.277 165.242 517.938 166.035C518.599 166.828 518.951 168.106 518.995 169.868C518.995 171.057 518.731 172.885 518.202 175.352C517.673 177.819 516.858 180.573 515.757 183.612C514.656 186.652 513.092 189.273 511.066 191.476C509.039 193.678 506.704 194.802 504.061 194.846C501.242 194.846 498.995 194.119 497.321 192.665C495.691 191.255 494.876 189.163 494.876 186.388C494.876 185.022 495.052 183.612 495.405 182.158C495.757 180.705 496.66 178.128 498.114 174.427C499.083 171.608 499.568 169.802 499.568 169.009Z" fill="#1C9812"/>
<path d="M985.95 147.759C984.91 147.759 984.293 147.74 984.1 147.701C983.907 147.663 983.811 147.451 983.811 147.065C983.811 146.025 984.023 145.389 984.447 145.157C984.486 145.119 986.991 145.1 991.964 145.1C1001.95 145.1 1007.21 145.138 1007.75 145.215C1010.18 145.601 1012.2 146.468 1013.82 147.817C1015.44 149.166 1016.27 150.939 1016.31 153.136C1016.31 155.603 1015.19 157.82 1012.95 159.786C1010.72 161.751 1008.15 163.081 1005.26 163.775L1004.68 163.949C1007.15 164.295 1009.17 165.182 1010.75 166.608C1012.34 168.034 1013.14 169.808 1013.18 171.928C1013.18 174.741 1011.8 177.459 1009.02 180.08C1006.24 182.701 1002.83 184.185 998.786 184.532C998.516 184.571 994.45 184.59 986.586 184.59C978.877 184.59 974.965 184.551 974.849 184.474C974.695 184.359 974.618 184.204 974.618 184.012C974.618 183.742 974.656 183.472 974.734 183.202C974.926 182.47 975.119 182.065 975.312 181.988C975.466 181.949 975.755 181.93 976.179 181.93H976.526C977.567 181.93 978.723 181.872 979.995 181.757C980.535 181.641 980.901 181.41 981.094 181.063C981.209 180.909 982.597 175.551 985.257 164.989C987.916 154.428 989.246 148.858 989.246 148.28C989.246 148.01 988.148 147.836 985.95 147.759ZM1010.12 153.136C1010.12 151.98 1009.83 150.901 1009.25 149.899C1008.67 148.896 1007.73 148.241 1006.42 147.933C1006.15 147.856 1004.38 147.798 1001.1 147.759C1000.33 147.759 999.519 147.759 998.671 147.759C997.823 147.759 997.148 147.779 996.647 147.817H995.895C995.317 147.856 994.951 148.048 994.797 148.395C994.72 148.549 994.103 150.862 992.946 155.334C992.946 155.449 992.927 155.565 992.889 155.68L991.096 162.966H995.78C998.902 162.966 1000.69 162.927 1001.16 162.85C1003.47 162.465 1005.53 161.347 1007.34 159.496C1009.16 157.646 1010.08 155.526 1010.12 153.136ZM1007 171.349C1007 169.653 1006.55 168.246 1005.67 167.129C1004.78 166.011 1003.62 165.355 1002.2 165.163C1001.97 165.124 1000.37 165.105 997.399 165.105C992.85 165.105 990.557 165.124 990.518 165.163C990.518 165.24 990.19 166.647 989.535 169.384C988.88 172.12 988.205 174.838 987.512 177.536L986.471 181.583C986.471 181.737 986.702 181.815 987.165 181.815C987.627 181.815 989.188 181.853 991.848 181.93C995.279 181.93 997.129 181.911 997.399 181.872C999.788 181.603 1001.99 180.485 1003.99 178.519C1005.99 176.553 1007 174.163 1007 171.349Z" fill="#2739DC"/>
<path d="M985.95 381.697C984.91 381.697 984.293 381.678 984.1 381.639C983.907 381.6 983.811 381.388 983.811 381.003C983.811 379.962 984.023 379.326 984.447 379.095C984.486 379.056 986.991 379.037 991.964 379.037C1001.95 379.037 1007.21 379.076 1007.75 379.153C1010.18 379.538 1012.2 380.405 1013.82 381.755C1015.44 383.104 1016.27 384.877 1016.31 387.074C1016.31 389.541 1015.19 391.757 1012.95 393.723C1010.72 395.689 1008.15 397.019 1005.26 397.713L1004.68 397.886C1007.15 398.233 1009.17 399.12 1010.75 400.546C1012.34 401.972 1013.14 403.745 1013.18 405.865C1013.18 408.679 1011.8 411.396 1009.02 414.017C1006.24 416.639 1002.83 418.123 998.786 418.47C998.516 418.508 994.45 418.527 986.586 418.527C978.877 418.527 974.965 418.489 974.849 418.412C974.695 418.296 974.618 418.142 974.618 417.949C974.618 417.679 974.656 417.41 974.734 417.14C974.926 416.407 975.119 416.003 975.312 415.925C975.466 415.887 975.755 415.868 976.179 415.868H976.526C977.567 415.868 978.723 415.81 979.995 415.694C980.535 415.579 980.901 415.347 981.094 415C981.209 414.846 982.597 409.488 985.257 398.927C987.916 388.365 989.246 382.795 989.246 382.217C989.246 381.947 988.148 381.774 985.95 381.697ZM1010.12 387.074C1010.12 385.918 1009.83 384.838 1009.25 383.836C1008.67 382.834 1007.73 382.179 1006.42 381.87C1006.15 381.793 1004.38 381.735 1001.1 381.697C1000.33 381.697 999.519 381.697 998.671 381.697C997.823 381.697 997.148 381.716 996.647 381.755H995.895C995.317 381.793 994.951 381.986 994.797 382.333C994.72 382.487 994.103 384.8 992.946 389.271C992.946 389.387 992.927 389.502 992.889 389.618L991.096 396.903H995.78C998.902 396.903 1000.69 396.865 1001.16 396.787C1003.47 396.402 1005.53 395.284 1007.34 393.434C1009.16 391.584 1010.08 389.464 1010.12 387.074ZM1007 405.287C1007 403.591 1006.55 402.184 1005.67 401.066C1004.78 399.948 1003.62 399.293 1002.2 399.1C1001.97 399.062 1000.37 399.042 997.399 399.042C992.85 399.042 990.557 399.062 990.518 399.1C990.518 399.177 990.19 400.584 989.535 403.321C988.88 406.058 988.205 408.775 987.512 411.473L986.471 415.521C986.471 415.675 986.702 415.752 987.165 415.752C987.627 415.752 989.188 415.791 991.848 415.868C995.279 415.868 997.129 415.848 997.399 415.81C999.788 415.54 1001.99 414.422 1003.99 412.456C1005.99 410.491 1007 408.101 1007 405.287Z" fill="#2739DC"/>
<path d="M839.457 170.134C839.501 170.001 839.545 169.825 839.589 169.604C839.633 169.384 839.744 168.898 839.92 168.148C840.097 167.398 840.317 166.714 840.582 166.097C840.847 165.479 841.177 164.751 841.575 163.913C841.972 163.075 842.413 162.413 842.898 161.927C843.383 161.442 843.957 160.957 844.619 160.471C845.281 159.986 846.009 159.788 846.803 159.876C848.082 159.876 849.207 160.141 850.178 160.67C851.149 161.199 851.832 161.685 852.23 162.126C852.627 162.567 852.869 163.008 852.958 163.45C853.046 163.714 853.112 163.847 853.156 163.847C853.2 163.847 853.377 163.692 853.686 163.383C855.803 161.089 858.252 159.942 861.032 159.942H861.23C863.348 159.942 864.936 160.846 865.995 162.655C866.348 163.494 866.524 164.31 866.524 165.104C866.524 166.428 866.238 167.487 865.664 168.281C865.091 169.075 864.517 169.582 863.943 169.803C863.37 170.023 862.818 170.112 862.289 170.068C861.407 170.068 860.701 169.825 860.171 169.34C859.642 168.854 859.377 168.215 859.377 167.42C859.377 165.303 860.612 163.891 863.083 163.185C862.112 162.611 861.318 162.324 860.701 162.324C858.23 162.324 855.958 163.957 853.884 167.222C853.443 167.928 853.112 168.656 852.891 169.406C852.671 170.156 851.921 173.09 850.641 178.208C849.141 184.385 848.281 187.672 848.06 188.069C847.487 189.26 846.538 189.855 845.214 189.855C844.641 189.855 844.178 189.723 843.825 189.458C843.472 189.194 843.229 188.929 843.097 188.664C842.964 188.4 842.92 188.179 842.964 188.002C842.964 187.429 843.847 183.635 845.612 176.619C847.376 169.604 848.259 165.7 848.259 164.906C848.259 163.185 847.685 162.324 846.538 162.324C845.612 162.324 844.817 162.942 844.156 164.178C843.494 165.413 842.964 166.759 842.567 168.215C842.17 169.671 841.928 170.465 841.839 170.597C841.751 170.685 841.398 170.729 840.78 170.729H839.854C839.589 170.465 839.457 170.266 839.457 170.134Z" fill="#AD1E1E"/>
<path d="M700.616 130.744C700.656 130.501 700.717 130.177 700.798 129.772C700.879 129.366 701.122 128.596 701.528 127.462C701.933 126.327 702.338 125.375 702.743 124.605C703.149 123.835 703.817 123.086 704.749 122.356C705.681 121.627 706.613 121.282 707.545 121.323C709.004 121.323 710.22 121.688 711.192 122.417C712.165 123.146 712.773 123.835 713.016 124.484C713.259 125.132 713.38 125.557 713.38 125.76C713.38 125.841 713.401 125.882 713.441 125.882L714.11 125.213C716.582 122.62 719.398 121.323 722.559 121.323C724.747 121.323 726.509 121.87 727.847 122.964C729.184 124.058 729.873 125.659 729.913 127.766C729.954 129.873 729.184 133.054 727.604 137.309C726.023 141.563 725.253 144.137 725.294 145.028C725.294 146.082 725.638 146.608 726.327 146.608C726.57 146.608 726.753 146.588 726.874 146.548C728.049 146.345 729.103 145.575 730.035 144.238C730.967 142.901 731.676 141.28 732.162 139.375C732.243 139.051 732.648 138.889 733.378 138.889C734.188 138.889 734.594 139.051 734.594 139.375C734.594 139.416 734.512 139.72 734.35 140.287C734.026 141.462 733.58 142.617 733.013 143.752C732.446 144.886 731.514 146.021 730.217 147.156C728.92 148.29 727.522 148.837 726.023 148.797C724.119 148.797 722.741 148.25 721.89 147.156C721.039 146.061 720.613 144.927 720.613 143.752C720.613 142.982 721.343 140.55 722.802 136.458C724.26 132.365 725.01 129.285 725.051 127.219C725.051 124.828 724.159 123.633 722.376 123.633H722.072C718.587 123.633 715.65 125.679 713.259 129.772L712.833 130.501L710.827 138.646C709.49 143.954 708.72 146.811 708.518 147.216C707.991 148.31 707.12 148.857 705.904 148.857C705.377 148.857 704.952 148.736 704.628 148.493C704.303 148.25 704.081 148.006 703.959 147.763C703.837 147.52 703.797 147.318 703.837 147.156C703.837 146.629 704.607 143.326 706.147 137.248C707.687 131.17 708.497 127.867 708.579 127.34C708.619 127.138 708.639 126.672 708.639 125.942C708.639 124.362 708.153 123.572 707.181 123.572C705.641 123.572 704.364 125.598 703.351 129.65C703.108 130.461 702.986 130.886 702.986 130.927C702.905 131.17 702.52 131.291 701.832 131.291H700.981C700.738 131.048 700.616 130.866 700.616 130.744Z" fill="var(--fg, black)"/>
<path d="M725.294 106.856C725.294 106.532 725.395 106.249 725.597 106.005C725.8 105.762 726.104 105.641 726.509 105.641C726.793 105.641 727.036 105.742 727.239 105.945C727.441 106.107 727.644 106.492 727.846 107.1C728.252 108.599 729.082 109.754 730.338 110.564C730.784 110.848 731.007 111.213 731.007 111.658C731.007 112.023 730.946 112.266 730.825 112.388C730.703 112.509 730.42 112.692 729.974 112.935C728.231 113.826 726.712 115.103 725.415 116.764C725.334 116.845 725.233 116.967 725.111 117.129C724.99 117.291 724.888 117.412 724.807 117.493C724.726 117.574 724.625 117.615 724.503 117.615C724.382 117.615 724.24 117.635 724.078 117.676C723.794 117.676 723.531 117.574 723.288 117.372C723.045 117.169 722.903 116.865 722.862 116.46C722.862 115.69 723.814 114.495 725.719 112.874H715.325L704.931 112.813C704.405 112.448 704.141 112.064 704.141 111.658C704.141 111.375 704.405 110.969 704.931 110.443H726.752C725.78 108.903 725.294 107.707 725.294 106.856Z" fill="var(--fg, black)"/>
</svg>
