<svg width="100%" viewBox="0 0 1624 801" fill="none" xmlns="http://www.w3.org/2000/svg">
<path d="M788.722 516.223L788.722 285.882" stroke="#2739DC" stroke-width="13.9164"/>
<path d="M466.329 402.461L866.781 399.388" stroke="var(--fg, black)" stroke-width="6.95819" stroke-linecap="round" stroke-dasharray="27.83 27.83"/>
<path d="M314.943 217.454C314.943 217.454 314.943 217.179 314.943 216.629C314.943 216.079 315.239 215.656 315.832 215.36H334.804V205.843L334.867 196.325C335.29 195.775 335.692 195.5 336.073 195.5C336.623 195.5 337.046 195.817 337.342 196.452V215.36H356.25C356.885 215.699 357.202 216.122 357.202 216.629C357.202 217.137 356.885 217.56 356.25 217.898H337.342V236.807C337.003 237.399 336.623 237.695 336.2 237.695H336.073H335.946C335.438 237.695 335.058 237.399 334.804 236.807V217.898H315.832C315.239 217.602 314.943 217.179 314.943 216.629V217.454Z" fill="var(--fg, black)"/>
<path d="M362.088 214.282C362.088 213.69 362.406 212.674 363.04 211.236C363.675 209.798 364.69 208.296 366.086 206.731C367.482 205.166 369.047 204.404 370.781 204.447C372.516 204.447 373.912 204.933 374.969 205.906C376.027 206.879 376.577 208.233 376.619 209.967C376.534 210.771 376.471 211.215 376.428 211.299C376.428 211.426 376.09 212.399 375.413 214.218C374.736 216.037 374.038 218.089 373.319 220.373C372.6 222.657 372.262 224.476 372.304 225.83C372.304 227.649 372.6 228.918 373.192 229.637C373.785 230.356 374.673 230.737 375.857 230.779C376.83 230.779 377.74 230.547 378.586 230.081C379.432 229.616 380.088 229.129 380.553 228.622C381.018 228.114 381.589 227.416 382.266 226.528C382.266 226.486 382.372 226.063 382.583 225.259C382.795 224.455 383.091 223.207 383.472 221.515C383.852 219.823 384.254 218.258 384.677 216.82C386.285 210.475 387.173 207.154 387.342 206.858C387.892 205.716 388.802 205.145 390.071 205.145C390.621 205.145 391.065 205.293 391.403 205.589C391.742 205.885 391.974 206.139 392.101 206.35C392.228 206.562 392.27 206.752 392.228 206.921C392.228 207.471 391.192 211.913 389.119 220.246C387.046 228.58 385.862 233.148 385.566 233.952C384.381 237.463 382.329 240.255 379.411 242.327C376.492 244.4 373.573 245.458 370.654 245.5C368.751 245.5 367.08 245.035 365.642 244.104C364.203 243.173 363.484 241.777 363.484 239.916C363.484 238.986 363.632 238.203 363.928 237.569C364.225 236.934 364.626 236.469 365.134 236.173C365.642 235.876 366.065 235.665 366.403 235.538C366.742 235.411 367.101 235.348 367.482 235.348C369.343 235.348 370.274 236.236 370.274 238.013C370.274 238.859 370.02 239.599 369.512 240.234C369.005 240.868 368.518 241.291 368.053 241.503C367.588 241.714 367.313 241.82 367.228 241.82L367.038 241.883C367.122 242.095 367.524 242.349 368.243 242.645C368.962 242.941 369.681 243.089 370.401 243.089H370.908C371.627 243.089 372.177 243.047 372.558 242.962C373.954 242.581 375.244 241.777 376.428 240.551C377.613 239.324 378.522 238.013 379.157 236.617C379.791 235.221 380.278 234.036 380.616 233.063C380.955 232.091 381.124 231.456 381.124 231.16L380.743 231.414C380.489 231.583 380.088 231.816 379.538 232.112C378.988 232.408 378.438 232.662 377.888 232.873C377.042 233.085 376.217 233.19 375.413 233.19C373.467 233.19 371.754 232.725 370.274 231.794C368.793 230.864 367.82 229.362 367.355 227.289C367.313 226.993 367.291 226.338 367.291 225.322C367.291 222.911 368.032 219.76 369.512 215.868C370.993 211.976 371.733 209.502 371.733 208.444C371.733 208.402 371.733 208.36 371.733 208.317C371.733 207.937 371.733 207.683 371.733 207.556C371.733 207.429 371.648 207.281 371.479 207.112C371.31 206.942 371.077 206.858 370.781 206.858H370.527C369.555 206.858 368.666 207.26 367.862 208.063C367.059 208.867 366.424 209.734 365.959 210.665C365.494 211.596 365.134 212.484 364.88 213.33C364.626 214.176 364.457 214.641 364.373 214.726C364.288 214.81 363.95 214.853 363.357 214.853H362.469C362.215 214.599 362.088 214.409 362.088 214.282Z" fill="var(--fg, black)"/>
<path d="M72 445.015C72 445.015 72 444.689 72 444.038C72 443.386 72.3509 442.885 73.0526 442.534H95.5338V431.256L95.609 419.977C96.1103 419.326 96.5865 419 97.0376 419C97.6892 419 98.1905 419.376 98.5414 420.128V442.534H120.947C121.699 442.935 122.075 443.436 122.075 444.038C122.075 444.639 121.699 445.14 120.947 445.541H98.5414V467.947C98.1404 468.649 97.6892 469 97.188 469H97.0376H96.8872C96.2857 469 95.8346 468.649 95.5338 467.947V445.541H73.0526C72.3509 445.19 72 444.689 72 444.038V445.015Z" fill="var(--fg, black)"/>
<path d="M152.376 437.421C151.875 437.421 150.546 437.145 148.391 436.594C146.236 436.043 144.657 435.767 143.654 435.767C142.652 435.767 141.799 435.867 141.098 436.068C140.396 436.268 139.819 436.519 139.368 436.82C138.917 437.12 138.616 437.396 138.466 437.647C138.316 437.897 138.14 438.173 137.94 438.474L137.789 438.774C137.639 438.925 137.263 439 136.662 439C135.609 439 135.083 438.799 135.083 438.398C135.083 438.148 135.158 437.797 135.308 437.346C135.96 435.391 137.038 433.712 138.541 432.308C140.045 430.905 141.699 430.053 143.504 429.752C144.105 429.652 144.531 429.601 144.782 429.601C146.035 429.601 147.163 430.028 148.165 430.88C149.168 431.732 150.12 432.559 151.023 433.361C151.925 434.163 152.877 434.589 153.88 434.639C154.982 434.639 156.085 433.812 157.188 432.158C158.291 430.504 158.867 429.677 158.917 429.677C158.967 429.627 159.343 429.601 160.045 429.601H161.023C161.323 429.902 161.474 430.103 161.474 430.203C161.474 430.403 161.348 430.754 161.098 431.256C160.847 431.757 160.496 432.283 160.045 432.835C159.594 433.386 159.168 433.937 158.767 434.489C158.366 435.04 158.015 435.516 157.714 435.917L157.188 436.594C155.033 439.15 151.624 442.534 146.962 446.744C142.301 450.955 139.418 453.662 138.316 454.865L137.413 455.767L138.541 455.842C139.644 455.842 141.248 456.118 143.353 456.669C145.459 457.221 147.038 457.496 148.09 457.496C149.995 457.496 151.749 457.02 153.353 456.068C154.957 455.115 156.01 453.862 156.511 452.308C156.712 451.857 156.887 451.581 157.038 451.481C157.188 451.381 157.564 451.331 158.165 451.331C159.118 451.331 159.594 451.581 159.594 452.083C159.594 452.333 159.569 452.559 159.519 452.759C158.667 455.867 157.012 458.449 154.556 460.504C152.1 462.559 149.644 463.611 147.188 463.662C145.885 463.662 144.732 463.236 143.729 462.383C142.727 461.531 141.749 460.679 140.797 459.827C139.845 458.975 138.892 458.549 137.94 458.549C135.734 458.549 133.754 460.053 132 463.06C131.699 463.461 131.273 463.662 130.722 463.662H130.346H129.368C129.068 463.361 128.917 463.135 128.917 462.985C128.917 462.233 130.371 460.078 133.278 456.519C135.233 454.263 138.541 451.005 143.203 446.744C147.865 442.484 150.747 439.777 151.85 438.624C152.451 437.822 152.627 437.421 152.376 437.421Z" fill="var(--fg, black)"/>
<path d="M1621.28 7.53223L439.224 400.924L1621.28 794.317" stroke="#1C9812" stroke-width="13.9164"/>
<path d="M1108.83 361.35C1110.37 359.61 1110.2 356.958 1108.46 355.425L1080.11 330.448C1078.38 328.916 1075.72 329.083 1074.19 330.823C1072.66 332.562 1072.83 335.214 1074.56 336.747L1099.76 358.949L1077.56 384.144C1076.03 385.883 1076.19 388.536 1077.93 390.068C1079.67 391.601 1082.32 391.433 1083.86 389.694L1108.83 361.35ZM438.962 404.887L1105.95 362.764L1105.42 354.385L438.432 396.508L438.962 404.887Z" fill="#AD1E1E"/>
<path d="M149.743 396.772C147.408 399.124 147.421 402.923 149.772 405.258L188.09 443.307C190.441 445.642 194.24 445.629 196.575 443.277C198.91 440.926 198.897 437.127 196.545 434.792L162.485 400.97L196.307 366.91C198.642 364.559 198.629 360.76 196.277 358.425C193.926 356.09 190.127 356.103 187.792 358.455L149.743 396.772ZM438.979 394L153.979 395L154.021 407L439.021 406L438.979 394Z" fill="var(--fg, black)"/>
<path d="M443.243 137.758C440.899 135.415 437.101 135.415 434.757 137.758L396.574 175.941C394.23 178.285 394.23 182.084 396.574 184.427C398.917 186.77 402.716 186.77 405.059 184.427L439 150.486L472.941 184.427C475.284 186.77 479.083 186.77 481.426 184.427C483.77 182.084 483.77 178.285 481.426 175.941L443.243 137.758ZM445 400L445 142L433 142L433 400L445 400Z" fill="var(--fg, black)"/>
<circle cx="438.095" cy="400" r="14.5" fill="var(--fg, black)"/>
<path d="M787.791 376.383L787.791 521.018" stroke="#AD1E1E" stroke-width="13.9164" stroke-dasharray="17.4 17.4"/>
<path d="M827.956 452.418C827.956 451.434 827.582 450.943 826.835 450.943C825.891 450.943 824.908 451.513 823.885 452.654C822.862 453.794 822.017 455.545 821.348 457.905C821.309 457.944 821.269 458.003 821.23 458.082C821.191 458.161 821.171 458.22 821.171 458.259C821.171 458.298 821.132 458.338 821.053 458.377C820.974 458.416 820.915 458.436 820.876 458.436C820.837 458.436 820.758 458.436 820.64 458.436C820.522 458.436 820.364 458.436 820.168 458.436H819.342C819.106 458.2 818.988 458.023 818.988 457.905C818.988 457.63 819.145 457.059 819.46 456.194C819.774 455.328 820.246 454.306 820.876 453.126C821.505 451.946 822.371 450.943 823.472 450.117C824.573 449.291 825.812 448.858 827.189 448.819C828.841 448.819 830.119 449.291 831.024 450.235C831.929 451.179 832.401 452.28 832.44 453.539C832.44 454.207 832.381 454.719 832.263 455.073C832.263 455.309 831.968 456.174 831.378 457.669C830.788 459.164 830.178 460.914 829.549 462.92C828.92 464.926 828.566 466.676 828.487 468.171C828.487 469.233 828.585 470.098 828.782 470.767C829.293 472.459 830.532 473.304 832.499 473.304C833.955 473.304 835.312 472.636 836.57 471.298C837.829 469.961 838.812 468.407 839.52 466.637C840.228 464.867 840.799 463.235 841.231 461.74C841.664 460.245 841.88 459.164 841.88 458.495C841.88 457.59 841.723 456.803 841.408 456.135C841.094 455.466 840.74 454.955 840.346 454.601C839.953 454.247 839.599 453.893 839.284 453.539C838.97 453.185 838.812 452.752 838.812 452.241C838.812 451.375 839.186 450.569 839.933 449.822C840.681 449.074 841.487 448.701 842.352 448.701C843.1 448.701 843.768 449.055 844.358 449.763C844.948 450.471 845.263 451.611 845.302 453.185C845.302 454.247 845.066 455.879 844.594 458.082C844.122 460.285 843.395 462.743 842.411 465.457C841.428 468.171 840.032 470.512 838.222 472.478C836.413 474.445 834.328 475.448 831.968 475.487C829.451 475.487 827.445 474.838 825.95 473.54C824.495 472.282 823.767 470.413 823.767 467.935C823.767 466.716 823.924 465.457 824.239 464.159C824.554 462.861 825.36 460.56 826.658 457.256C827.523 454.738 827.956 453.126 827.956 452.418Z" fill="#AD1E1E"/>
<circle cx="787.044" cy="518.409" r="17.3955" fill="#2739DC"/>
<circle cx="789.53" cy="284.142" r="17.3955" fill="#2739DC"/>
<circle cx="788.661" cy="377.252" r="17.3955" fill="#AD1E1E"/>
<path d="M678.606 209.597C678.606 207.336 678.77 205.189 679.098 203.156C679.426 201.124 679.803 199.37 680.229 197.895C680.655 196.42 681.262 194.978 682.048 193.569C682.835 192.159 683.458 191.061 683.917 190.274C684.376 189.488 685.064 188.635 685.982 187.717C686.9 186.8 687.44 186.242 687.604 186.046C687.768 185.849 688.178 185.505 688.833 185.013H689.473H689.669C690.128 185.013 690.358 185.161 690.358 185.456C690.358 185.554 690.079 185.898 689.522 186.488C688.965 187.078 688.293 187.947 687.506 189.094C686.719 190.241 685.916 191.651 685.097 193.323C684.277 194.994 683.589 197.256 683.032 200.108C682.474 202.96 682.196 206.123 682.196 209.597C682.196 213.072 682.474 216.219 683.032 219.038C683.589 221.857 684.261 224.135 685.048 225.872C685.834 227.609 686.637 229.019 687.457 230.101C688.276 231.182 688.965 232.051 689.522 232.707C690.079 233.362 690.358 233.706 690.358 233.739C690.358 234.034 690.112 234.182 689.62 234.182H689.473H688.833L687.457 233.002C684.376 230.215 682.13 226.741 680.721 222.578C679.311 218.415 678.606 214.088 678.606 209.597Z" fill="#2739DC"/>
<path d="M716.068 209.597C716.068 208.81 716.346 208.122 716.904 207.532C717.461 206.942 718.166 206.647 719.018 206.647C719.805 206.647 720.493 206.909 721.083 207.433C721.673 207.958 721.984 208.663 722.017 209.548C722.017 210.367 721.739 211.072 721.181 211.662C720.624 212.252 719.919 212.547 719.067 212.547C718.215 212.547 717.51 212.268 716.953 211.711C716.396 211.154 716.101 210.449 716.068 209.597Z" fill="#2739DC"/>
<path d="M748.858 220.168C748.858 220.168 748.858 219.758 748.858 218.939C748.858 218.119 749.12 217.415 749.645 216.825C750.169 216.235 750.874 215.94 751.759 215.94C752.677 215.94 753.496 216.349 754.218 217.169C754.939 217.988 755.316 219.431 755.348 221.496C755.348 222.643 755.201 223.757 754.906 224.839C754.611 225.921 754.267 226.855 753.873 227.642C753.48 228.428 753.054 229.1 752.595 229.658C752.136 230.215 751.743 230.657 751.415 230.985C751.087 231.313 750.874 231.46 750.776 231.428C750.645 231.428 750.432 231.28 750.137 230.985C749.842 230.69 749.694 230.477 749.694 230.346C749.694 230.215 749.874 229.953 750.235 229.559C750.595 229.166 751.005 228.674 751.464 228.084C751.923 227.494 752.349 226.675 752.742 225.626C753.136 224.577 753.398 223.38 753.529 222.036V221.446L753.48 221.496C753.414 221.528 753.332 221.561 753.234 221.594C753.136 221.627 753.037 221.676 752.939 221.741C752.841 221.807 752.693 221.84 752.497 221.84C752.3 221.84 752.103 221.856 751.907 221.889C751.022 221.889 750.3 221.61 749.743 221.053L748.858 220.168Z" fill="#2739DC"/>
<path d="M777.356 193.47L776.717 193.716C776.258 193.88 775.603 194.044 774.75 194.208C773.898 194.372 772.947 194.486 771.899 194.552H770.964V192.29H771.899C773.439 192.225 774.865 191.979 776.176 191.553C777.487 191.127 778.405 190.733 778.93 190.373C779.454 190.012 779.913 189.652 780.306 189.291C780.372 189.193 780.569 189.143 780.896 189.143C781.191 189.143 781.47 189.242 781.732 189.438V204.14L781.781 218.89C782.011 219.12 782.208 219.267 782.371 219.333C782.535 219.398 782.929 219.464 783.551 219.53C784.174 219.595 785.19 219.628 786.6 219.628H787.878V221.89H787.337C786.649 221.791 784.043 221.742 779.52 221.742C775.062 221.742 772.489 221.791 771.8 221.89H771.21V219.628H772.489C773.21 219.628 773.833 219.628 774.357 219.628C774.881 219.628 775.291 219.612 775.586 219.579C775.881 219.546 776.143 219.497 776.373 219.431C776.602 219.366 776.733 219.333 776.766 219.333C776.799 219.333 776.897 219.251 777.061 219.087C777.225 218.923 777.323 218.858 777.356 218.89V193.47Z" fill="#2739DC"/>
<path d="M795.303 220.168C795.303 220.168 795.303 219.758 795.303 218.939C795.303 218.119 795.565 217.415 796.089 216.825C796.614 216.235 797.319 215.94 798.204 215.94C799.121 215.94 799.941 216.349 800.662 217.169C801.383 217.988 801.76 219.431 801.793 221.496C801.793 222.643 801.645 223.757 801.35 224.839C801.055 225.921 800.711 226.855 800.318 227.642C799.925 228.428 799.498 229.1 799.04 229.658C798.581 230.215 798.187 230.657 797.859 230.985C797.532 231.313 797.319 231.46 797.22 231.428C797.089 231.428 796.876 231.28 796.581 230.985C796.286 230.69 796.139 230.477 796.139 230.346C796.139 230.215 796.319 229.953 796.679 229.559C797.04 229.166 797.45 228.674 797.909 228.084C798.368 227.494 798.794 226.675 799.187 225.626C799.58 224.577 799.843 223.38 799.974 222.036V221.446L799.925 221.496C799.859 221.528 799.777 221.561 799.679 221.594C799.58 221.627 799.482 221.676 799.384 221.741C799.285 221.807 799.138 221.84 798.941 221.84C798.745 221.84 798.548 221.856 798.351 221.889C797.466 221.889 796.745 221.61 796.188 221.053L795.303 220.168Z" fill="#2739DC"/>
<path d="M817.463 210.236C817.463 210.236 817.463 210.023 817.463 209.597C817.463 209.171 817.692 208.843 818.151 208.614H846.718C847.21 208.876 847.456 209.204 847.456 209.597C847.456 209.991 847.21 210.318 846.718 210.581H818.151C817.692 210.351 817.463 210.023 817.463 209.597V210.236Z" fill="#2739DC"/>
<path d="M862.059 193.47L861.42 193.716C860.961 193.88 860.305 194.044 859.453 194.208C858.601 194.372 857.65 194.486 856.601 194.552H855.667V192.29H856.601C858.142 192.225 859.568 191.979 860.879 191.553C862.19 191.127 863.108 190.733 863.632 190.373C864.157 190.012 864.616 189.652 865.009 189.291C865.075 189.193 865.271 189.143 865.599 189.143C865.894 189.143 866.173 189.242 866.435 189.438V204.14L866.484 218.89C866.713 219.12 866.91 219.267 867.074 219.333C867.238 219.398 867.631 219.464 868.254 219.53C868.877 219.595 869.893 219.628 871.303 219.628H872.581V221.89H872.04C871.352 221.791 868.746 221.742 864.222 221.742C859.764 221.742 857.191 221.791 856.503 221.89H855.913V219.628H857.191C857.912 219.628 858.535 219.628 859.06 219.628C859.584 219.628 859.994 219.612 860.289 219.579C860.584 219.546 860.846 219.497 861.076 219.431C861.305 219.366 861.436 219.333 861.469 219.333C861.502 219.333 861.6 219.251 861.764 219.087C861.928 218.923 862.026 218.858 862.059 218.89V193.47Z" fill="#2739DC"/>
<path d="M879.12 185.062L879.317 185.013C879.481 185.013 879.645 185.013 879.808 185.013H880.398L881.775 186.193C884.856 188.979 887.102 192.454 888.511 196.617C889.921 200.78 890.626 205.107 890.626 209.597C890.626 211.826 890.462 213.973 890.134 216.038C889.806 218.104 889.429 219.857 889.003 221.3C888.577 222.742 887.97 224.184 887.184 225.626C886.397 227.069 885.774 228.167 885.315 228.921C884.856 229.675 884.184 230.51 883.299 231.428C882.414 232.346 881.89 232.887 881.726 233.051C881.562 233.215 881.185 233.526 880.595 233.985C880.497 234.083 880.431 234.149 880.398 234.182H879.808C879.546 234.182 879.366 234.182 879.268 234.182C879.169 234.182 879.087 234.132 879.022 234.034C878.956 233.936 878.907 233.788 878.874 233.592C878.907 233.559 879.087 233.346 879.415 232.952C884.496 227.675 887.036 219.89 887.036 209.597C887.036 199.305 884.496 191.52 879.415 186.242C879.087 185.849 878.907 185.636 878.874 185.603C878.874 185.341 878.956 185.161 879.12 185.062Z" fill="#2739DC"/>
<path d="M652.105 602.162C652.105 599.9 652.269 597.753 652.597 595.721C652.924 593.689 653.301 591.935 653.728 590.46C654.154 588.985 654.76 587.542 655.547 586.133C656.333 584.723 656.956 583.625 657.415 582.839C657.874 582.052 658.562 581.2 659.48 580.282C660.398 579.364 660.939 578.807 661.103 578.61C661.267 578.414 661.676 578.069 662.332 577.578H662.971H663.168C663.627 577.578 663.856 577.725 663.856 578.02C663.856 578.119 663.578 578.463 663.02 579.053C662.463 579.643 661.791 580.511 661.004 581.659C660.218 582.806 659.415 584.215 658.595 585.887C657.776 587.559 657.087 589.821 656.53 592.672C655.973 595.524 655.694 598.687 655.694 602.162C655.694 605.636 655.973 608.783 656.53 611.602C657.087 614.421 657.759 616.699 658.546 618.437C659.333 620.174 660.136 621.583 660.955 622.665C661.775 623.747 662.463 624.615 663.02 625.271C663.578 625.927 663.856 626.271 663.856 626.304C663.856 626.599 663.61 626.746 663.119 626.746H662.971H662.332L660.955 625.566C657.874 622.78 655.629 619.305 654.219 615.142C652.81 610.979 652.105 606.653 652.105 602.162Z" fill="#2739DC"/>
<path d="M689.566 602.161C689.566 601.375 689.845 600.686 690.402 600.096C690.96 599.506 691.664 599.211 692.517 599.211C693.303 599.211 693.992 599.473 694.582 599.998C695.172 600.522 695.483 601.227 695.516 602.112C695.516 602.932 695.237 603.636 694.68 604.226C694.123 604.816 693.418 605.111 692.566 605.111C691.713 605.111 691.009 604.833 690.451 604.275C689.894 603.718 689.599 603.013 689.566 602.161Z" fill="#2739DC"/>
<path d="M722.357 612.733C722.357 612.733 722.357 612.323 722.357 611.503C722.357 610.684 722.619 609.979 723.143 609.389C723.668 608.799 724.373 608.504 725.258 608.504C726.175 608.504 726.995 608.914 727.716 609.733C728.437 610.553 728.814 611.995 728.847 614.06C728.847 615.207 728.699 616.322 728.404 617.404C728.109 618.485 727.765 619.419 727.372 620.206C726.979 620.993 726.552 621.665 726.093 622.222C725.635 622.779 725.241 623.222 724.913 623.55C724.586 623.877 724.373 624.025 724.274 623.992C724.143 623.992 723.93 623.845 723.635 623.55C723.34 623.255 723.193 623.042 723.193 622.91C723.193 622.779 723.373 622.517 723.733 622.124C724.094 621.73 724.504 621.239 724.963 620.649C725.422 620.059 725.848 619.239 726.241 618.19C726.634 617.141 726.897 615.945 727.028 614.601V614.011L726.979 614.06C726.913 614.093 726.831 614.126 726.733 614.158C726.634 614.191 726.536 614.24 726.438 614.306C726.339 614.371 726.192 614.404 725.995 614.404C725.798 614.404 725.602 614.421 725.405 614.453C724.52 614.453 723.799 614.175 723.242 613.618L722.357 612.733Z" fill="#2739DC"/>
<path d="M744.512 602.801C744.512 602.801 744.512 602.588 744.512 602.162C744.512 601.736 744.742 601.408 745.201 601.178H773.768C774.259 601.441 774.505 601.768 774.505 602.162C774.505 602.555 774.259 602.883 773.768 603.145H745.201C744.742 602.916 744.512 602.588 744.512 602.162V602.801Z" fill="#2739DC"/>
<path d="M789.108 586.035L788.469 586.281C788.01 586.444 787.354 586.608 786.502 586.772C785.65 586.936 784.699 587.051 783.65 587.116H782.716V584.855H783.65C785.191 584.789 786.617 584.543 787.928 584.117C789.239 583.691 790.157 583.298 790.681 582.937C791.206 582.577 791.664 582.216 792.058 581.855C792.123 581.757 792.32 581.708 792.648 581.708C792.943 581.708 793.221 581.806 793.484 582.003V596.704L793.533 611.455C793.762 611.684 793.959 611.832 794.123 611.897C794.287 611.963 794.68 612.028 795.303 612.094C795.926 612.16 796.942 612.192 798.351 612.192H799.63V614.454H799.089C798.401 614.356 795.795 614.307 791.271 614.307C786.813 614.307 784.24 614.356 783.552 614.454H782.962V612.192H784.24C784.961 612.192 785.584 612.192 786.108 612.192C786.633 612.192 787.043 612.176 787.338 612.143C787.633 612.11 787.895 612.061 788.124 611.996C788.354 611.93 788.485 611.897 788.518 611.897C788.55 611.897 788.649 611.815 788.813 611.652C788.977 611.488 789.075 611.422 789.108 611.455V586.035Z" fill="#2739DC"/>
<path d="M807.054 612.733C807.054 612.733 807.054 612.323 807.054 611.503C807.054 610.684 807.316 609.979 807.841 609.389C808.365 608.799 809.07 608.504 809.955 608.504C810.873 608.504 811.692 608.914 812.414 609.733C813.135 610.553 813.512 611.995 813.544 614.06C813.544 615.207 813.397 616.322 813.102 617.404C812.807 618.485 812.463 619.419 812.069 620.206C811.676 620.993 811.25 621.665 810.791 622.222C810.332 622.779 809.939 623.222 809.611 623.55C809.283 623.877 809.07 624.025 808.972 623.992C808.841 623.992 808.628 623.845 808.333 623.55C808.038 623.255 807.89 623.042 807.89 622.91C807.89 622.779 808.07 622.517 808.431 622.124C808.791 621.73 809.201 621.239 809.66 620.649C810.119 620.059 810.545 619.239 810.939 618.19C811.332 617.141 811.594 615.945 811.725 614.601V614.011L811.676 614.06C811.61 614.093 811.529 614.126 811.43 614.158C811.332 614.191 811.234 614.24 811.135 614.306C811.037 614.371 810.889 614.404 810.693 614.404C810.496 614.404 810.299 614.421 810.103 614.453C809.218 614.453 808.496 614.175 807.939 613.618L807.054 612.733Z" fill="#2739DC"/>
<path d="M829.214 602.801C829.214 602.801 829.214 602.588 829.214 602.162C829.214 601.736 829.444 601.408 829.903 601.178H858.47C858.961 601.441 859.207 601.768 859.207 602.162C859.207 602.555 858.961 602.883 858.47 603.145H829.903C829.444 602.916 829.214 602.588 829.214 602.162V602.801Z" fill="#2739DC"/>
<path d="M873.81 586.035L873.171 586.281C872.712 586.444 872.057 586.608 871.204 586.772C870.352 586.936 869.401 587.051 868.353 587.116H867.418V584.855H868.353C869.893 584.789 871.319 584.543 872.63 584.117C873.941 583.691 874.859 583.298 875.384 582.937C875.908 582.577 876.367 582.216 876.76 581.855C876.826 581.757 877.023 581.708 877.35 581.708C877.645 581.708 877.924 581.806 878.186 582.003V596.704L878.235 611.455C878.465 611.684 878.662 611.832 878.825 611.897C878.989 611.963 879.383 612.028 880.005 612.094C880.628 612.16 881.644 612.192 883.054 612.192H884.332V614.454H883.791C883.103 614.356 880.497 614.307 875.974 614.307C871.516 614.307 868.943 614.356 868.254 614.454H867.664V612.192H868.943C869.664 612.192 870.286 612.192 870.811 612.192C871.335 612.192 871.745 612.176 872.04 612.143C872.335 612.11 872.597 612.061 872.827 611.996C873.056 611.93 873.187 611.897 873.22 611.897C873.253 611.897 873.351 611.815 873.515 611.652C873.679 611.488 873.777 611.422 873.81 611.455V586.035Z" fill="#2739DC"/>
<path d="M890.872 577.627L891.068 577.578C891.232 577.578 891.396 577.578 891.56 577.578H892.15L893.527 578.758C896.608 581.544 898.853 585.018 900.263 589.181C901.672 593.344 902.377 597.671 902.377 602.162C902.377 604.391 902.213 606.538 901.885 608.603C901.558 610.668 901.181 612.422 900.754 613.864C900.328 615.306 899.722 616.749 898.935 618.191C898.148 619.633 897.526 620.731 897.067 621.485C896.608 622.239 895.936 623.075 895.051 623.993C894.166 624.91 893.641 625.451 893.478 625.615C893.314 625.779 892.937 626.091 892.347 626.549C892.248 626.648 892.183 626.713 892.15 626.746H891.56C891.298 626.746 891.117 626.746 891.019 626.746C890.921 626.746 890.839 626.697 890.773 626.599C890.708 626.5 890.659 626.353 890.626 626.156C890.659 626.123 890.839 625.91 891.167 625.517C896.247 620.239 898.788 612.454 898.788 602.162C898.788 591.869 896.247 584.084 891.167 578.807C890.839 578.414 890.659 578.2 890.626 578.168C890.626 577.905 890.708 577.725 890.872 577.627Z" fill="#2739DC"/>
</svg>
