<svg width="100%" viewBox="0 0 1532 595" fill="none" xmlns="http://www.w3.org/2000/svg">

<path d="M105.757 312.757C103.414 315.101 103.414 318.899 105.757 321.243L143.941 359.426C146.284 361.77 150.083 361.77 152.426 359.426C154.77 357.083 154.77 353.284 152.426 350.941L118.485 317L152.426 283.059C154.77 280.716 154.77 276.917 152.426 274.574C150.083 272.23 146.284 272.23 143.941 274.574L105.757 312.757ZM1462.24 321.243C1464.59 318.9 1464.59 315.101 1462.24 312.757L1424.06 274.574C1421.72 272.231 1417.92 272.231 1415.57 274.574C1413.23 276.917 1413.23 280.716 1415.57 283.059L1449.51 317L1415.57 350.941C1413.23 353.284 1413.23 357.083 1415.57 359.427C1417.92 361.77 1421.72 361.77 1424.06 359.427L1462.24 321.243ZM110 323L1458 323L1458 311L110 311L110 323Z" fill="var(--fg, black)"/>
<line x1="1356" y1="276" x2="1356" y2="357" stroke="#1C9812" stroke-width="12" stroke-linecap="round"/>
<line x1="1356" y1="276" x2="1356" y2="357" stroke="#1C9812" stroke-width="12" stroke-linecap="round"/>
<line x1="1356" y1="276" x2="1356" y2="357" stroke="#1C9812" stroke-width="12" stroke-linecap="round"/>
<line x1="1356" y1="276" x2="1356" y2="357" stroke="#1C9812" stroke-width="12" stroke-linecap="round"/>
<line x1="219" y1="276" x2="219" y2="357" stroke="#1C9812" stroke-width="12" stroke-linecap="round"/>
<line x1="219" y1="276" x2="219" y2="357" stroke="#1C9812" stroke-width="12" stroke-linecap="round"/>
<line x1="219" y1="276" x2="219" y2="357" stroke="#1C9812" stroke-width="12" stroke-linecap="round"/>
<line x1="219" y1="276" x2="219" y2="357" stroke="#1C9812" stroke-width="12" stroke-linecap="round"/>
<line x1="598" y1="276" x2="598" y2="357" stroke="#1C9812" stroke-width="12" stroke-linecap="round"/>
<line x1="598" y1="276" x2="598" y2="357" stroke="#1C9812" stroke-width="12" stroke-linecap="round"/>
<line x1="598" y1="276" x2="598" y2="357" stroke="#1C9812" stroke-width="12" stroke-linecap="round"/>
<line x1="598" y1="276" x2="598" y2="357" stroke="#1C9812" stroke-width="12" stroke-linecap="round"/>
<line x1="977" y1="276" x2="977" y2="357" stroke="#1C9812" stroke-width="12" stroke-linecap="round"/>
<line x1="977" y1="276" x2="977" y2="357" stroke="#1C9812" stroke-width="12" stroke-linecap="round"/>
<line x1="977" y1="276" x2="977" y2="357" stroke="#1C9812" stroke-width="12" stroke-linecap="round"/>
<line x1="977" y1="276" x2="977" y2="357" stroke="#1C9812" stroke-width="12" stroke-linecap="round"/>
<path d="M601 305C594.373 305 589 310.373 589 317C589 323.627 594.373 329 601 329L601 305ZM984.485 325.485C989.172 320.799 989.172 313.201 984.485 308.515L908.118 232.147C903.431 227.461 895.833 227.461 891.147 232.147C886.461 236.833 886.461 244.431 891.147 249.118L959.029 317L891.147 384.882C886.461 389.569 886.461 397.166 891.147 401.853C895.834 406.539 903.431 406.539 908.118 401.853L984.485 325.485ZM601 329L976 329L976 305L601 305L601 329Z" fill="var(--fg, black)"/>
<circle cx="600.5" cy="316.5" r="21.5" fill="var(--fg, black)"/>
<path d="M148.942 233.302C148.733 233.093 148.629 232.944 148.629 232.855C148.629 232.736 148.674 232.497 148.763 232.14C148.852 231.782 148.927 231.574 148.986 231.514C149.046 231.365 149.18 231.291 149.389 231.291C149.597 231.291 150.357 231.276 151.668 231.246H154.037L154.886 227.67C154.975 227.343 155.08 226.911 155.199 226.374C155.318 225.838 155.422 225.451 155.512 225.212C155.601 224.974 155.69 224.676 155.78 224.318C155.869 223.961 155.988 223.708 156.137 223.559C156.286 223.41 156.435 223.231 156.584 223.022C156.733 222.814 156.942 222.68 157.21 222.62C157.478 222.561 157.746 222.531 158.014 222.531C158.551 222.561 158.923 222.724 159.132 223.022C159.34 223.32 159.445 223.603 159.445 223.872C159.445 224.08 159.31 224.78 159.042 225.972C158.774 227.164 158.476 228.341 158.148 229.503L157.702 231.156C157.702 231.216 158.446 231.246 159.936 231.246H162.215C162.424 231.454 162.528 231.618 162.528 231.737C162.528 232.393 162.335 232.914 161.947 233.302H157.165L155.556 239.782C154.394 244.549 153.813 247.112 153.813 247.469C153.813 248.721 154.215 249.346 155.02 249.346C156.063 249.346 157.076 248.84 158.059 247.827C159.042 246.814 159.832 245.562 160.428 244.073C160.487 243.894 160.562 243.79 160.651 243.76C160.741 243.73 160.964 243.7 161.322 243.67H161.5C161.947 243.67 162.171 243.79 162.171 244.028C162.171 244.117 162.126 244.296 162.037 244.564C161.888 245.041 161.62 245.607 161.232 246.263C160.845 246.918 160.338 247.618 159.713 248.363C159.087 249.108 158.327 249.734 157.433 250.24C156.54 250.747 155.631 251 154.707 251C153.813 251 152.964 250.777 152.16 250.33C151.355 249.883 150.774 249.108 150.417 248.006C150.357 247.767 150.327 247.365 150.327 246.799V245.994L151.891 239.737C152.934 235.536 153.471 233.421 153.5 233.391C153.5 233.331 152.741 233.302 151.221 233.302H148.942Z" fill="var(--fg, black)"/>
<path d="M178.833 234.999C178.833 234.612 179.042 234.314 179.459 234.106H207.928C208.375 234.344 208.598 234.642 208.598 234.999C208.598 235.327 208.39 235.61 207.973 235.849L193.76 235.893H179.548C179.071 235.744 178.833 235.446 178.833 234.999ZM178.833 243.67C178.833 243.223 179.071 242.925 179.548 242.776H207.973C208.39 243.074 208.598 243.372 208.598 243.67C208.598 244.057 208.375 244.355 207.928 244.564H179.459C179.042 244.355 178.833 244.057 178.833 243.67Z" fill="var(--fg, black)"/>
<path d="M227.271 239.916C227.271 239.916 227.271 239.722 227.271 239.335C227.271 238.948 227.479 238.65 227.896 238.441H253.863C254.31 238.679 254.533 238.977 254.533 239.335C254.533 239.692 254.31 239.99 253.863 240.229H227.896C227.479 240.02 227.271 239.722 227.271 239.335V239.916Z" fill="var(--fg, black)"/>
<path d="M267.807 224.675L267.226 224.899C266.809 225.048 266.213 225.197 265.438 225.346C264.664 225.495 263.8 225.599 262.846 225.659H261.997V223.603H262.846C264.247 223.543 265.543 223.32 266.735 222.932C267.926 222.545 268.761 222.188 269.237 221.86C269.714 221.532 270.131 221.204 270.489 220.877C270.548 220.787 270.727 220.742 271.025 220.742C271.293 220.742 271.546 220.832 271.785 221.011V234.374L271.829 247.782C272.038 247.99 272.217 248.124 272.366 248.184C272.515 248.243 272.872 248.303 273.438 248.363C274.005 248.422 274.928 248.452 276.209 248.452H277.371V250.508H276.88C276.254 250.418 273.885 250.374 269.774 250.374C265.721 250.374 263.383 250.418 262.757 250.508H262.221V248.452H263.383C264.038 248.452 264.604 248.452 265.081 248.452C265.558 248.452 265.93 248.437 266.198 248.407C266.466 248.377 266.705 248.333 266.913 248.273C267.122 248.214 267.241 248.184 267.271 248.184C267.301 248.184 267.39 248.109 267.539 247.96C267.688 247.811 267.777 247.752 267.807 247.782V224.675Z" fill="var(--fg, black)"/>
<path d="M553.092 233.95C552.883 233.741 552.779 233.592 552.779 233.503C552.779 233.384 552.824 233.145 552.913 232.788C553.003 232.43 553.077 232.222 553.137 232.162C553.196 232.013 553.33 231.939 553.539 231.939C553.747 231.939 554.507 231.924 555.818 231.894H558.187L559.036 228.319C559.125 227.991 559.23 227.559 559.349 227.022C559.468 226.486 559.572 226.099 559.662 225.86C559.751 225.622 559.841 225.324 559.93 224.967C560.019 224.609 560.138 224.356 560.287 224.207C560.436 224.058 560.585 223.879 560.734 223.671C560.883 223.462 561.092 223.328 561.36 223.268C561.628 223.209 561.896 223.179 562.165 223.179C562.701 223.209 563.073 223.373 563.282 223.671C563.49 223.968 563.595 224.252 563.595 224.52C563.595 224.728 563.461 225.428 563.192 226.62C562.924 227.812 562.626 228.989 562.299 230.151L561.852 231.805C561.852 231.864 562.597 231.894 564.086 231.894H566.366C566.574 232.103 566.678 232.266 566.678 232.386C566.678 233.041 566.485 233.563 566.097 233.95H561.315L559.706 240.43C558.544 245.198 557.963 247.76 557.963 248.117C557.963 249.369 558.366 249.995 559.17 249.995C560.213 249.995 561.226 249.488 562.209 248.475C563.192 247.462 563.982 246.211 564.578 244.721C564.638 244.542 564.712 244.438 564.801 244.408C564.891 244.378 565.114 244.348 565.472 244.319H565.651C566.097 244.319 566.321 244.438 566.321 244.676C566.321 244.766 566.276 244.944 566.187 245.212C566.038 245.689 565.77 246.255 565.382 246.911C564.995 247.566 564.489 248.266 563.863 249.011C563.237 249.756 562.477 250.382 561.584 250.888C560.69 251.395 559.781 251.648 558.857 251.648C557.963 251.648 557.114 251.425 556.31 250.978C555.505 250.531 554.924 249.756 554.567 248.654C554.507 248.415 554.477 248.013 554.477 247.447V246.643L556.042 240.386C557.084 236.185 557.621 234.069 557.651 234.039C557.651 233.98 556.891 233.95 555.371 233.95H553.092Z" fill="var(--fg, black)"/>
<path d="M582.979 235.648C582.979 235.26 583.187 234.962 583.604 234.754H612.073C612.52 234.992 612.744 235.29 612.744 235.648C612.744 235.975 612.535 236.258 612.118 236.497L597.906 236.542H583.694C583.217 236.393 582.979 236.095 582.979 235.648ZM582.979 244.318C582.979 243.871 583.217 243.573 583.694 243.424H612.118C612.535 243.722 612.744 244.02 612.744 244.318C612.744 244.705 612.52 245.003 612.073 245.212H583.604C583.187 245.003 582.979 244.705 582.979 244.318Z" fill="var(--fg, black)"/>
<path d="M631.953 225.011C633.621 222.598 635.901 221.391 638.791 221.391C640.221 221.391 641.651 221.778 643.081 222.553C644.511 223.328 645.673 224.698 646.567 226.665C647.67 229.138 648.221 232.534 648.221 236.855C648.221 241.473 647.58 245.004 646.299 247.447C645.703 248.698 644.884 249.696 643.841 250.441C642.798 251.186 641.889 251.648 641.115 251.827C640.34 252.006 639.58 252.11 638.835 252.14C638.061 252.14 637.286 252.05 636.511 251.871C635.737 251.693 634.828 251.216 633.785 250.441C632.742 249.667 631.923 248.669 631.327 247.447C630.046 245.004 629.405 241.473 629.405 236.855C629.405 231.67 630.254 227.723 631.953 225.011ZM642.009 224.475C641.115 223.521 640.057 223.045 638.835 223.045C637.584 223.045 636.511 223.521 635.618 224.475C634.873 225.25 634.381 226.322 634.143 227.693C633.904 229.063 633.785 231.924 633.785 236.274C633.785 240.981 633.904 244.08 634.143 245.57C634.381 247.06 634.917 248.236 635.752 249.101C636.586 249.994 637.614 250.441 638.835 250.441C640.027 250.441 641.04 249.994 641.875 249.101C642.739 248.207 643.275 246.955 643.483 245.346C643.692 243.737 643.811 240.713 643.841 236.274C643.841 231.953 643.722 229.108 643.483 227.737C643.245 226.367 642.754 225.279 642.009 224.475Z" fill="var(--fg, black)"/>
<path d="M929.327 222.53C929.119 222.322 929.015 222.173 929.015 222.084C929.015 221.964 929.059 221.726 929.149 221.368C929.238 221.011 929.313 220.802 929.372 220.743C929.432 220.594 929.566 220.519 929.774 220.519C929.983 220.519 930.743 220.504 932.054 220.475H934.422L935.272 216.899C935.361 216.571 935.465 216.139 935.584 215.603C935.704 215.067 935.808 214.679 935.897 214.441C935.987 214.203 936.076 213.905 936.165 213.547C936.255 213.19 936.374 212.936 936.523 212.787C936.672 212.638 936.821 212.46 936.97 212.251C937.119 212.043 937.327 211.908 937.596 211.849C937.864 211.789 938.132 211.759 938.4 211.759C938.936 211.789 939.309 211.953 939.517 212.251C939.726 212.549 939.83 212.832 939.83 213.1C939.83 213.309 939.696 214.009 939.428 215.201C939.16 216.393 938.862 217.57 938.534 218.732L938.087 220.385C938.087 220.445 938.832 220.475 940.322 220.475H942.601C942.81 220.683 942.914 220.847 942.914 220.966C942.914 221.622 942.72 222.143 942.333 222.53H937.551L935.942 229.011C934.78 233.778 934.199 236.34 934.199 236.698C934.199 237.949 934.601 238.575 935.406 238.575C936.449 238.575 937.462 238.069 938.445 237.056C939.428 236.043 940.218 234.791 940.814 233.301C940.873 233.123 940.948 233.018 941.037 232.989C941.126 232.959 941.35 232.929 941.707 232.899H941.886C942.333 232.899 942.557 233.018 942.557 233.257C942.557 233.346 942.512 233.525 942.422 233.793C942.273 234.27 942.005 234.836 941.618 235.491C941.231 236.147 940.724 236.847 940.098 237.592C939.473 238.337 938.713 238.962 937.819 239.469C936.925 239.976 936.017 240.229 935.093 240.229C934.199 240.229 933.35 240.005 932.545 239.558C931.741 239.111 931.16 238.337 930.802 237.234C930.743 236.996 930.713 236.594 930.713 236.028V235.223L932.277 228.966C933.32 224.765 933.856 222.65 933.886 222.62C933.886 222.56 933.126 222.53 931.607 222.53H929.327Z" fill="var(--fg, black)"/>
<path d="M959.218 224.228C959.218 223.841 959.426 223.543 959.843 223.334H988.312C988.759 223.573 988.983 223.871 988.983 224.228C988.983 224.556 988.774 224.839 988.357 225.077L974.145 225.122H959.933C959.456 224.973 959.218 224.675 959.218 224.228ZM959.218 232.899C959.218 232.452 959.456 232.154 959.933 232.005H988.357C988.774 232.303 988.983 232.601 988.983 232.899C988.983 233.286 988.759 233.584 988.312 233.792H959.843C959.426 233.584 959.218 233.286 959.218 232.899Z" fill="var(--fg, black)"/>
<path d="M1013.42 213.904L1012.84 214.128C1012.42 214.277 1011.83 214.426 1011.05 214.575C1010.28 214.724 1009.41 214.828 1008.46 214.887H1007.61V212.832H1008.46C1009.86 212.772 1011.16 212.548 1012.35 212.161C1013.54 211.774 1014.37 211.416 1014.85 211.089C1015.33 210.761 1015.74 210.433 1016.1 210.105C1016.16 210.016 1016.34 209.971 1016.64 209.971C1016.91 209.971 1017.16 210.061 1017.4 210.239V223.602L1017.44 237.01C1017.65 237.219 1017.83 237.353 1017.98 237.413C1018.13 237.472 1018.49 237.532 1019.05 237.591C1019.62 237.651 1020.54 237.681 1021.82 237.681H1022.99V239.737H1022.49C1021.87 239.647 1019.5 239.602 1015.39 239.602C1011.34 239.602 1009 239.647 1008.37 239.737H1007.83V237.681H1009C1009.65 237.681 1010.22 237.681 1010.69 237.681C1011.17 237.681 1011.54 237.666 1011.81 237.636C1012.08 237.606 1012.32 237.562 1012.53 237.502C1012.74 237.442 1012.85 237.413 1012.88 237.413C1012.91 237.413 1013 237.338 1013.15 237.189C1013.3 237.04 1013.39 236.981 1013.42 237.01V213.904Z" fill="var(--fg, black)"/>
<path d="M1304.09 220.765C1303.88 220.556 1303.78 220.408 1303.78 220.318C1303.78 220.199 1303.82 219.961 1303.91 219.603C1304 219.246 1304.08 219.037 1304.14 218.977C1304.2 218.828 1304.33 218.754 1304.54 218.754C1304.75 218.754 1305.51 218.739 1306.82 218.709H1309.19L1310.04 215.134C1310.13 214.806 1310.23 214.374 1310.35 213.838C1310.47 213.301 1310.57 212.914 1310.66 212.676C1310.75 212.437 1310.84 212.139 1310.93 211.782C1311.02 211.424 1311.14 211.171 1311.29 211.022C1311.44 210.873 1311.59 210.694 1311.73 210.486C1311.88 210.277 1312.09 210.143 1312.36 210.083C1312.63 210.024 1312.9 209.994 1313.16 209.994C1313.7 210.024 1314.07 210.188 1314.28 210.486C1314.49 210.784 1314.59 211.067 1314.59 211.335C1314.59 211.543 1314.46 212.244 1314.19 213.435C1313.92 214.627 1313.63 215.804 1313.3 216.966L1312.85 218.62C1312.85 218.679 1313.6 218.709 1315.09 218.709H1317.37C1317.57 218.918 1317.68 219.082 1317.68 219.201C1317.68 219.856 1317.48 220.378 1317.1 220.765H1312.32L1310.71 227.246C1309.54 232.013 1308.96 234.575 1308.96 234.933C1308.96 236.184 1309.37 236.81 1310.17 236.81C1311.21 236.81 1312.23 236.303 1313.21 235.29C1314.19 234.277 1314.98 233.026 1315.58 231.536C1315.64 231.357 1315.71 231.253 1315.8 231.223C1315.89 231.193 1316.11 231.164 1316.47 231.134H1316.65C1317.1 231.134 1317.32 231.253 1317.32 231.491C1317.32 231.581 1317.28 231.759 1317.19 232.028C1317.04 232.504 1316.77 233.07 1316.38 233.726C1316 234.381 1315.49 235.082 1314.86 235.827C1314.24 236.571 1313.48 237.197 1312.58 237.704C1311.69 238.21 1310.78 238.463 1309.86 238.463C1308.96 238.463 1308.11 238.24 1307.31 237.793C1306.51 237.346 1305.92 236.571 1305.57 235.469C1305.51 235.231 1305.48 234.828 1305.48 234.262V233.458L1307.04 227.201C1308.08 223 1308.62 220.884 1308.65 220.854C1308.65 220.795 1307.89 220.765 1306.37 220.765H1304.09Z" fill="var(--fg, black)"/>
<path d="M1333.98 222.463C1333.98 222.076 1334.19 221.778 1334.6 221.569H1363.07C1363.52 221.807 1363.74 222.105 1363.74 222.463C1363.74 222.791 1363.54 223.074 1363.12 223.312L1348.91 223.357H1334.69C1334.22 223.208 1333.98 222.91 1333.98 222.463ZM1333.98 231.133C1333.98 230.686 1334.22 230.388 1334.69 230.239H1363.12C1363.54 230.537 1363.74 230.835 1363.74 231.133C1363.74 231.521 1363.52 231.819 1363.07 232.027H1334.6C1334.19 231.819 1333.98 231.521 1333.98 231.133Z" fill="var(--fg, black)"/>
<path d="M1383.53 218.798C1382.73 218.798 1382.09 218.53 1381.61 217.994C1381.14 217.457 1380.9 216.802 1380.9 216.027C1380.9 213.912 1381.69 212.079 1383.27 210.53C1384.84 208.981 1386.81 208.206 1389.16 208.206C1391.88 208.206 1394.14 209.04 1395.96 210.709C1397.78 212.377 1398.7 214.537 1398.73 217.189C1398.73 218.47 1398.43 219.692 1397.84 220.854C1397.24 222.016 1396.52 223.029 1395.69 223.893C1394.86 224.757 1393.66 225.859 1392.11 227.2C1391.04 228.124 1389.55 229.494 1387.65 231.312L1385.01 233.815L1388.41 233.859C1393.08 233.859 1395.57 233.785 1395.87 233.636C1396.08 233.576 1396.43 232.251 1396.94 229.658V229.524H1398.73V229.658C1398.7 229.748 1398.51 231.103 1398.15 233.725C1397.79 236.347 1397.57 237.718 1397.48 237.837V237.971H1380.9V237.122V236.586C1380.9 236.377 1380.99 236.154 1381.16 235.915C1381.34 235.677 1381.79 235.156 1382.51 234.351C1383.37 233.398 1384.11 232.563 1384.74 231.848C1385.01 231.55 1385.51 230.999 1386.26 230.195C1387 229.39 1387.51 228.839 1387.78 228.541C1388.05 228.243 1388.48 227.751 1389.08 227.066C1389.67 226.381 1390.09 225.874 1390.33 225.547C1390.57 225.219 1390.91 224.772 1391.35 224.206C1391.8 223.64 1392.11 223.163 1392.29 222.776C1392.47 222.388 1392.7 221.956 1392.96 221.48C1393.23 221.003 1393.43 220.526 1393.54 220.049C1393.66 219.573 1393.77 219.126 1393.86 218.709C1393.95 218.291 1393.99 217.8 1393.99 217.234C1393.99 215.357 1393.49 213.733 1392.47 212.362C1391.46 210.992 1390.01 210.306 1388.14 210.306C1387.15 210.306 1386.29 210.56 1385.54 211.066C1384.8 211.573 1384.28 212.064 1383.98 212.541C1383.68 213.018 1383.53 213.301 1383.53 213.39C1383.53 213.42 1383.61 213.435 1383.76 213.435C1384.29 213.435 1384.84 213.643 1385.41 214.061C1385.98 214.478 1386.26 215.163 1386.26 216.116C1386.26 216.861 1386.02 217.487 1385.54 217.994C1385.07 218.5 1384.4 218.768 1383.53 218.798Z" fill="var(--fg, black)"/>
<path d="M565.943 405.623C566.017 405.403 566.09 405.11 566.163 404.743C566.237 404.377 566.42 403.57 566.713 402.323C567.007 401.076 567.374 399.94 567.814 398.913C568.254 397.886 568.804 396.676 569.464 395.283C570.124 393.889 570.857 392.789 571.664 391.982C572.471 391.175 573.424 390.369 574.524 389.562C575.624 388.755 576.834 388.425 578.154 388.572C583.655 388.572 587.175 390.919 588.715 395.613L589.816 394.622C594.363 390.589 598.69 388.572 602.797 388.572C607.564 388.572 611.304 390.295 614.018 393.742C616.731 397.189 618.088 401.37 618.088 406.283C618.088 414.204 615.301 421.501 609.727 428.175C604.153 434.849 597.846 438.223 590.806 438.296C589.192 438.296 587.762 438.076 586.515 437.636C585.708 437.27 584.865 436.72 583.985 435.986C583.105 435.253 582.408 434.629 581.895 434.116L581.125 433.236C581.051 433.309 580.245 436.499 578.705 442.807C577.164 449.114 576.394 452.304 576.394 452.378C576.394 452.818 576.688 453.074 577.274 453.148C577.861 453.221 579.218 453.331 581.345 453.478H584.095C584.535 453.991 584.755 454.321 584.755 454.468C584.755 454.614 584.645 455.274 584.425 456.448C584.205 457.328 583.985 457.878 583.765 458.098C583.545 458.318 583.068 458.465 582.335 458.538C582.188 458.538 581.785 458.538 581.125 458.538C580.465 458.538 579.218 458.501 577.384 458.428C575.551 458.355 573.277 458.318 570.564 458.318C565.43 458.318 562.166 458.391 560.773 458.538H559.893C559.379 458.025 559.123 457.621 559.123 457.328C559.269 455.348 559.746 454.064 560.553 453.478H562.753C565.247 453.404 566.677 452.964 567.043 452.158C567.264 451.717 569.5 442.953 573.754 425.865C578.008 408.777 580.245 399.72 580.465 398.693C580.538 398.326 580.575 397.813 580.575 397.153C580.575 394.146 579.658 392.642 577.824 392.642C576.211 392.642 574.854 393.669 573.754 395.723C572.654 397.776 571.811 400.013 571.224 402.433C570.637 404.853 570.197 406.173 569.904 406.394C569.757 406.54 569.17 406.614 568.144 406.614H566.603C566.163 406.173 565.943 405.843 565.943 405.623ZM582.995 425.975C584.608 431.549 587.322 434.336 591.136 434.336C593.336 434.336 595.463 433.493 597.516 431.806C599.57 430.119 601.257 427.992 602.577 425.425C603.897 422.932 605.217 418.971 606.537 413.544C607.857 408.117 608.554 404.083 608.627 401.443V400.783C608.627 395.356 606.39 392.642 601.917 392.642C601.11 392.642 600.303 392.752 599.496 392.972C598.69 393.192 597.883 393.522 597.076 393.962C596.269 394.402 595.536 394.879 594.876 395.393C594.216 395.906 593.593 396.456 593.006 397.043C592.419 397.629 591.869 398.179 591.356 398.693C590.842 399.206 590.439 399.72 590.146 400.233C589.852 400.746 589.559 401.113 589.265 401.333L588.935 401.773C588.935 401.846 588.825 402.36 588.605 403.313C588.385 404.267 587.982 405.88 587.395 408.154C586.809 410.427 586.295 412.334 585.855 413.874C583.948 421.648 582.995 425.682 582.995 425.975Z" fill="var(--fg, black)"/>
<path d="M626.214 408.198C629.118 403.998 633.084 401.898 638.114 401.898C640.603 401.898 643.092 402.572 645.58 403.92C648.069 405.268 650.092 407.653 651.647 411.075C653.566 415.379 654.525 421.29 654.525 428.809C654.525 436.845 653.41 442.99 651.18 447.242C650.143 449.419 648.717 451.156 646.903 452.453C645.088 453.749 643.506 454.553 642.158 454.864C640.81 455.175 639.488 455.356 638.192 455.408C636.844 455.408 635.495 455.253 634.147 454.942C632.799 454.63 631.218 453.801 629.403 452.453C627.588 451.105 626.162 449.368 625.125 447.242C622.896 442.99 621.781 436.845 621.781 428.809C621.781 419.786 623.259 412.916 626.214 408.198ZM643.714 407.264C642.158 405.605 640.318 404.775 638.192 404.775C636.014 404.775 634.147 405.605 632.592 407.264C631.295 408.612 630.44 410.479 630.025 412.864C629.61 415.249 629.403 420.227 629.403 427.797C629.403 435.99 629.61 441.382 630.025 443.975C630.44 446.568 631.373 448.616 632.825 450.119C634.277 451.675 636.066 452.453 638.192 452.453C640.266 452.453 642.029 451.675 643.481 450.119C644.984 448.564 645.918 446.386 646.28 443.586C646.643 440.786 646.851 435.523 646.903 427.797C646.903 420.279 646.695 415.327 646.28 412.942C645.866 410.557 645.01 408.664 643.714 407.264Z" fill="var(--fg, black)"/>
<path d="M825.943 411.476C825.943 409.603 825.231 408.667 823.808 408.667C822.01 408.667 820.138 409.753 818.19 411.925C816.243 414.098 814.632 417.431 813.359 421.925C813.284 422 813.209 422.113 813.134 422.262C813.059 422.412 813.022 422.525 813.022 422.599C813.022 422.674 812.947 422.749 812.797 422.824C812.647 422.899 812.535 422.937 812.46 422.937C812.385 422.937 812.235 422.937 812.011 422.937C811.786 422.937 811.486 422.937 811.112 422.937H809.539C809.089 422.487 808.865 422.15 808.865 421.925C808.865 421.401 809.164 420.315 809.763 418.667C810.363 417.019 811.261 415.071 812.46 412.824C813.658 410.577 815.306 408.667 817.404 407.094C819.501 405.521 821.861 404.697 824.482 404.622C827.628 404.622 830.063 405.521 831.786 407.319C833.509 409.116 834.407 411.214 834.482 413.611C834.482 414.884 834.37 415.858 834.145 416.532C834.145 416.982 833.583 418.629 832.46 421.476C831.336 424.322 830.175 427.656 828.977 431.476C827.778 435.296 827.104 438.629 826.954 441.476C826.954 443.498 827.142 445.146 827.516 446.42C828.49 449.64 830.849 451.251 834.595 451.251C837.366 451.251 839.95 449.978 842.347 447.431C844.744 444.884 846.617 441.925 847.965 438.554C849.314 435.184 850.4 432.075 851.224 429.229C852.048 426.382 852.46 424.322 852.46 423.049C852.46 421.326 852.16 419.828 851.561 418.555C850.962 417.281 850.287 416.307 849.538 415.633C848.789 414.959 848.115 414.285 847.516 413.611C846.917 412.937 846.617 412.113 846.617 411.139C846.617 409.491 847.329 407.955 848.752 406.532C850.175 405.109 851.711 404.397 853.359 404.397C854.782 404.397 856.055 405.071 857.179 406.42C858.302 407.768 858.902 409.94 858.976 412.937C858.976 414.959 858.527 418.068 857.628 422.262C856.729 426.457 855.344 431.139 853.471 436.307C851.598 441.476 848.939 445.933 845.493 449.678C842.048 453.423 838.078 455.333 833.583 455.408C828.789 455.408 824.969 454.172 822.123 451.7C819.351 449.303 817.966 445.745 817.966 441.026C817.966 438.704 818.265 436.307 818.864 433.835C819.464 431.363 820.999 426.981 823.471 420.689C825.119 415.895 825.943 412.824 825.943 411.476Z" fill="var(--fg, black)"/>
<path d="M851.145 377.656C851.145 377.056 851.332 376.532 851.707 376.083C852.081 375.633 852.643 375.408 853.392 375.408C853.916 375.408 854.366 375.596 854.74 375.97C855.115 376.27 855.489 376.982 855.864 378.105C856.613 380.877 858.148 383.011 860.471 384.51C861.295 385.034 861.707 385.708 861.707 386.532C861.707 387.206 861.594 387.656 861.369 387.88C861.145 388.105 860.62 388.442 859.796 388.892C856.575 390.539 853.766 392.899 851.37 395.97C851.22 396.12 851.032 396.345 850.808 396.644C850.583 396.944 850.396 397.169 850.246 397.318C850.096 397.468 849.909 397.543 849.684 397.543C849.459 397.543 849.197 397.581 848.898 397.656C848.373 397.656 847.886 397.468 847.437 397.094C846.988 396.719 846.725 396.157 846.65 395.408C846.65 393.985 848.411 391.775 851.931 388.779H832.718L813.505 388.667C812.531 387.993 812.044 387.281 812.044 386.532C812.044 386.008 812.531 385.259 813.505 384.285H853.841C852.044 381.438 851.145 379.229 851.145 377.656Z" fill="var(--fg, black)"/>
</svg>
