<svg width="100%" viewBox="0 0 1532 556" fill="none" xmlns="http://www.w3.org/2000/svg">
<g clip-path="url(#clip0_4319_64522)">
<path d="M431.107 147.534L767.555 147.534" stroke="#1C9812" stroke-width="8"/>
<path d="M612.071 150.363C613.633 148.801 613.633 146.268 612.071 144.706L586.615 119.25C585.053 117.688 582.521 117.688 580.959 119.25C579.396 120.812 579.396 123.345 580.959 124.907L603.586 147.534L580.959 170.162C579.396 171.724 579.396 174.256 580.959 175.818C582.521 177.381 585.053 177.381 586.615 175.818L612.071 150.363ZM431.107 151.534L609.243 151.534L609.243 143.534L431.107 143.534L431.107 151.534Z" fill="#1C9812"/>
<line x1="-51.9233" y1="451.958" x2="1583.92" y2="451.958" stroke="var(--fg, black)" stroke-width="8"/>
<path d="M430.816 147.797L758.324 437.942" stroke="#AD1E1E" stroke-width="8"/>
<path d="M598.634 300.249C600.839 300.116 602.519 298.22 602.386 296.015L600.212 260.081C600.078 257.876 598.183 256.196 595.978 256.329C593.773 256.463 592.093 258.359 592.226 260.564L594.159 292.505L562.217 294.437C560.012 294.571 558.332 296.467 558.466 298.672C558.599 300.877 560.495 302.556 562.7 302.423L598.634 300.249ZM428.163 150.791L595.74 299.251L601.045 293.262L433.468 144.803L428.163 150.791Z" fill="#AD1E1E"/>
<path d="M767.555 278.233C717.797 278.233 673.183 300.253 642.924 335.08" stroke="#AD1E1E" stroke-width="8"/>
<path d="M767.555 449.148L767.555 19.8246" stroke="var(--fg, black)" stroke-width="6" stroke-dasharray="40 40"/>
<path d="M139.806 412.196C139.841 412.078 139.877 411.921 139.913 411.724C139.949 411.528 140.038 411.095 140.181 410.427C140.325 409.759 140.503 409.15 140.718 408.6C140.933 408.05 141.201 407.402 141.523 406.655C141.845 405.908 142.203 405.319 142.597 404.887C142.99 404.454 143.456 404.022 143.992 403.59C144.529 403.158 145.12 402.981 145.764 403.059C146.622 403.059 147.392 403.197 148.072 403.472C148.752 403.747 149.288 404.101 149.682 404.533C150.076 404.965 150.362 405.397 150.541 405.83C150.72 406.262 150.863 406.635 150.97 406.95L151.078 407.362C151.078 407.441 151.095 407.48 151.131 407.48L151.722 406.832C153.904 404.317 156.391 403.059 159.182 403.059C161.115 403.059 162.671 403.59 163.852 404.651C165.033 405.712 165.641 407.264 165.677 409.307V409.897C165.677 410.84 164.532 416.204 162.242 425.989C160.167 435.223 159.057 439.978 158.914 440.253C158.449 441.314 157.644 441.845 156.499 441.845C156.034 441.845 155.64 441.688 155.318 441.373C154.996 441.059 154.799 440.627 154.727 440.076C154.727 439.723 155.783 434.948 157.894 425.753L161.222 411.017C161.33 410.427 161.383 409.681 161.383 408.777C161.383 406.458 160.596 405.299 159.021 405.299H158.753C155.676 405.299 153.081 407.284 150.97 411.253L150.594 411.96L148.823 419.858C147.642 425.006 146.962 427.777 146.783 428.17C146.318 429.231 145.549 429.761 144.475 429.761C144.01 429.761 143.635 429.643 143.348 429.407C143.062 429.172 142.865 428.936 142.758 428.7C142.65 428.464 142.615 428.268 142.65 428.111C142.65 427.6 143.366 424.22 144.797 417.972C146.229 411.724 146.944 408.246 146.944 407.539C146.944 406.007 146.479 405.24 145.549 405.24C144.797 405.24 144.153 405.79 143.617 406.891C143.08 407.991 142.65 409.19 142.328 410.486C142.006 411.783 141.81 412.49 141.738 412.608C141.666 412.687 141.38 412.726 140.879 412.726H140.128C139.913 412.49 139.806 412.314 139.806 412.196Z" fill="var(--fg, black)"/>
<path d="M134.587 497.604C134.623 497.486 134.659 497.329 134.695 497.132C134.731 496.936 134.82 496.504 134.963 495.836C135.106 495.168 135.285 494.558 135.5 494.008C135.715 493.458 135.983 492.81 136.305 492.063C136.627 491.317 136.985 490.727 137.379 490.295C137.772 489.863 138.237 489.43 138.774 488.998C139.311 488.566 139.901 488.389 140.545 488.468C141.404 488.468 142.174 488.605 142.853 488.88C143.533 489.155 144.07 489.509 144.464 489.941C144.857 490.373 145.144 490.806 145.322 491.238C145.501 491.67 145.645 492.044 145.752 492.358L145.859 492.771C145.859 492.849 145.877 492.888 145.913 492.888L146.503 492.24C148.686 489.725 151.173 488.468 153.964 488.468C155.897 488.468 157.453 488.998 158.634 490.059C159.815 491.12 160.423 492.672 160.459 494.716V495.305C160.459 496.248 159.314 501.612 157.024 511.397C154.948 520.632 153.839 525.386 153.696 525.661C153.231 526.722 152.426 527.253 151.28 527.253C150.815 527.253 150.422 527.096 150.1 526.781C149.778 526.467 149.581 526.035 149.509 525.485C149.509 525.131 150.565 520.356 152.676 511.161L156.004 496.425C156.111 495.836 156.165 495.089 156.165 494.185C156.165 491.867 155.378 490.707 153.803 490.707H153.535C150.457 490.707 147.863 492.692 145.752 496.661L145.376 497.368L143.605 505.267C142.424 510.415 141.744 513.185 141.565 513.578C141.1 514.639 140.331 515.169 139.257 515.169C138.792 515.169 138.416 515.051 138.13 514.816C137.844 514.58 137.647 514.344 137.54 514.108C137.432 513.873 137.396 513.676 137.432 513.519C137.432 513.008 138.148 509.629 139.579 503.38C141.011 497.132 141.726 493.655 141.726 492.947C141.726 491.415 141.261 490.649 140.331 490.649C139.579 490.649 138.935 491.199 138.398 492.299C137.862 493.399 137.432 494.598 137.11 495.895C136.788 497.191 136.591 497.899 136.52 498.017C136.448 498.095 136.162 498.134 135.661 498.134H134.909C134.695 497.899 134.587 497.722 134.587 497.604Z" fill="var(--fg, black)"/>
<path d="M163.134 488.39C162.982 488.39 162.641 488.306 162.109 488.14C161.578 487.973 161.3 487.806 161.274 487.64C161.274 487.445 161.97 484.222 163.362 477.971C164.753 471.72 165.525 468.456 165.676 468.178C166.056 467.289 166.714 466.844 167.65 466.844C168.156 466.844 168.687 467.053 169.244 467.469C169.8 467.886 170.078 468.497 170.078 469.303C170.078 469.442 170.053 469.65 170.003 469.928C169.977 470.123 168.877 473.22 166.701 479.221C164.525 485.222 163.4 488.251 163.324 488.306C163.248 488.362 163.184 488.39 163.134 488.39Z" fill="var(--fg, black)"/>
<path d="M665.469 265.838C665.469 261.829 666.167 257.605 667.562 253.164C668.958 248.724 670.854 244.893 673.252 241.67C675.649 238.448 678.136 236.601 680.713 236.13C680.748 236.13 680.891 236.13 681.142 236.13C681.392 236.13 681.607 236.11 681.786 236.071C683.718 236.228 685.221 237.191 686.295 238.959C687.69 241.317 688.388 244.48 688.388 248.449C688.388 252.968 687.583 257.566 685.973 262.242C684.362 266.918 682.305 270.75 679.8 273.736C677.295 276.723 674.898 278.216 672.608 278.216H672.232C670.944 278.216 669.834 277.823 668.904 277.037C667.974 276.251 667.276 275.21 666.811 273.913C666.345 272.616 666.006 271.3 665.791 269.964C665.576 268.628 665.469 267.252 665.469 265.838ZM684.148 244.264C684.148 240.256 683.2 238.252 681.303 238.252C680.015 238.252 678.762 239.136 677.546 240.904C676.329 242.672 675.327 244.677 674.54 246.916C673.753 249.156 673.144 251.121 672.715 252.811C672.286 254.501 672.053 255.483 672.017 255.758C673.771 255.797 675.506 255.817 677.224 255.817L682.43 255.758C682.466 255.719 682.609 255.07 682.86 253.813C683.11 252.555 683.396 250.984 683.718 249.097C684.04 247.211 684.184 245.6 684.148 244.264ZM669.655 269.846C669.655 274.011 670.604 276.094 672.5 276.094C673.037 276.094 673.61 275.897 674.218 275.504C674.826 275.111 675.56 274.365 676.419 273.264C677.277 272.164 678.136 270.455 678.995 268.136C679.854 265.818 680.713 262.949 681.571 259.53L681.84 258.528H671.373C671.373 258.646 671.212 259.393 670.89 260.768C670.568 262.144 670.282 263.676 670.031 265.366C669.781 267.056 669.655 268.549 669.655 269.846Z" fill="#AD1E1E"/>
<path d="M954.406 454.518C955.968 452.956 955.968 450.423 954.406 448.861L928.95 423.405C927.388 421.843 924.856 421.843 923.294 423.405C921.732 424.967 921.732 427.5 923.294 429.062L945.921 451.689L923.294 474.317C921.732 475.879 921.732 478.412 923.294 479.974C924.856 481.536 927.388 481.536 928.95 479.974L954.406 454.518ZM951.578 447.689H767.817V455.689H951.578V447.689Z" fill="#1C9812"/>
<path d="M852.339 405.918C851.62 405.918 851.195 405.905 851.061 405.878C850.928 405.851 850.862 405.705 850.862 405.439C850.862 404.72 851.008 404.281 851.301 404.122C851.354 404.095 853.669 404.082 858.247 404.082C862.824 404.108 865.299 404.148 865.671 404.202C867.161 404.414 868.412 404.787 869.423 405.319C870.435 405.851 871.153 406.464 871.579 407.155C872.005 407.847 872.284 408.419 872.417 408.872C872.55 409.324 872.63 409.777 872.657 410.229C872.657 411.427 872.271 412.544 871.499 413.582C870.727 414.62 869.836 415.418 868.825 415.977C867.813 416.536 866.922 416.988 866.15 417.334C865.378 417.68 864.873 417.853 864.633 417.853L864.913 418.053C866.696 419.064 867.587 420.528 867.587 422.444C867.587 422.736 867.521 423.548 867.388 424.879C867.255 426.209 867.188 427.3 867.188 428.152V428.511C867.188 428.99 867.201 429.363 867.228 429.629C867.255 429.895 867.401 430.135 867.667 430.347C867.933 430.56 868.279 430.68 868.705 430.707C869.45 430.707 870.062 430.414 870.541 429.828C871.02 429.243 871.366 428.618 871.579 427.952C871.712 427.58 871.818 427.354 871.898 427.274C871.978 427.194 872.178 427.154 872.497 427.154C873.029 427.154 873.295 427.314 873.295 427.633C873.295 428.112 872.976 428.87 872.337 429.908C871.326 431.425 870.129 432.184 868.745 432.184H868.386C866.762 432.184 865.418 431.851 864.354 431.186C863.289 430.52 862.704 429.483 862.598 428.072C862.598 427.354 862.797 426.236 863.196 424.719C863.595 423.202 863.795 422.231 863.795 421.805C863.795 420.448 863.223 419.463 862.079 418.851C861.679 418.665 861.347 418.558 861.081 418.532C860.815 418.505 859.87 418.479 858.247 418.452H855.492L854.215 423.641C853.337 427.154 852.898 428.937 852.898 428.99C852.898 429.097 852.911 429.163 852.938 429.19C852.964 429.216 853.057 429.27 853.217 429.349C853.377 429.429 853.603 429.456 853.896 429.429C854.188 429.403 854.627 429.429 855.213 429.509H856.45C856.61 429.722 856.69 429.842 856.69 429.868C856.69 429.895 856.65 430.135 856.57 430.587C856.464 430.933 856.331 431.186 856.171 431.345H855.572C854.614 431.292 852.871 431.265 850.343 431.265C849.438 431.265 848.6 431.265 847.828 431.265C847.056 431.265 846.444 431.265 845.992 431.265C845.54 431.265 845.26 431.279 845.154 431.305C844.701 431.305 844.475 431.186 844.475 430.946C844.475 430.893 844.515 430.707 844.595 430.387C844.728 429.882 844.861 429.602 844.994 429.549C845.1 429.522 845.3 429.509 845.593 429.509H845.832C846.551 429.509 847.349 429.469 848.227 429.389C848.6 429.31 848.853 429.15 848.986 428.91C849.066 428.804 850.024 425.105 851.86 417.813C853.696 410.522 854.614 406.676 854.614 406.277C854.614 406.091 853.856 405.971 852.339 405.918ZM868.306 409.231C868.306 408.38 868.026 407.661 867.467 407.076C866.909 406.49 865.764 406.118 864.035 405.958C863.981 405.958 863.675 405.958 863.116 405.958C862.558 405.958 862.052 405.945 861.6 405.918H860.721C859.471 405.918 858.752 406.051 858.566 406.317C858.539 406.397 858.087 408.167 857.209 411.626C856.331 415.086 855.891 416.855 855.891 416.935C855.891 416.962 856.81 416.975 858.646 416.975C860.721 416.948 862.105 416.855 862.797 416.696C864.5 416.43 865.831 415.645 866.789 414.341C867.215 413.728 867.574 412.93 867.867 411.946C868.159 410.961 868.306 410.056 868.306 409.231Z" fill="#1C9812"/>
<path d="M875.685 413.648C875.572 413.648 875.318 413.592 874.923 413.479C874.528 413.366 874.321 413.253 874.302 413.14C874.302 413.009 874.819 410.826 875.854 406.593C876.889 402.36 877.463 400.149 877.576 399.961C877.858 399.359 878.347 399.058 879.043 399.058C879.419 399.058 879.814 399.199 880.228 399.481C880.642 399.763 880.849 400.177 880.849 400.723C880.849 400.817 880.83 400.958 880.793 401.146C880.774 401.278 879.956 403.376 878.338 407.44C876.72 411.504 875.882 413.554 875.826 413.592C875.769 413.63 875.722 413.648 875.685 413.648Z" fill="#1C9812"/>
<path d="M883.869 422.805C883.869 422.786 883.878 422.758 883.897 422.72C883.916 422.682 883.935 422.654 883.953 422.635C883.972 422.616 884.001 422.579 884.038 422.522C884.076 422.466 884.113 422.438 884.151 422.438C884.189 422.438 884.236 422.419 884.292 422.381C884.349 422.344 884.414 422.334 884.49 422.353C884.697 422.391 884.866 422.532 884.998 422.776V440.076H893.436C893.718 440.227 893.859 440.415 893.859 440.641C893.859 440.866 893.718 441.055 893.436 441.205H875.459C875.44 441.205 875.402 441.186 875.346 441.149C875.289 441.111 875.214 441.045 875.12 440.951C875.026 440.857 874.988 440.754 875.007 440.641C875.026 440.528 875.064 440.424 875.12 440.33C875.177 440.236 875.242 440.17 875.318 440.133C875.393 440.095 875.44 440.076 875.459 440.076H883.869V422.805Z" fill="#1C9812"/>
<path d="M641.63 82.1524C640.911 82.1524 640.486 82.1391 640.352 82.1125C640.219 82.0858 640.153 81.9395 640.153 81.6734C640.153 80.9549 640.299 80.5158 640.592 80.3561C640.645 80.3295 642.96 80.3162 647.538 80.3162C652.115 80.3428 654.59 80.3827 654.962 80.4359C656.452 80.6488 657.703 81.0214 658.714 81.5536C659.726 82.0858 660.444 82.6979 660.87 83.3898C661.296 84.0817 661.575 84.6539 661.708 85.1063C661.841 85.5586 661.921 86.011 661.948 86.4634C661.948 87.661 661.562 88.7786 660.79 89.8165C660.018 90.8543 659.127 91.6527 658.116 92.2115C657.104 92.7704 656.213 93.2228 655.441 93.5687C654.669 93.9147 654.164 94.0876 653.924 94.0876L654.204 94.2872C655.987 95.2985 656.878 96.7621 656.878 98.6781C656.878 98.9709 656.812 99.7825 656.679 101.113C656.546 102.444 656.479 103.535 656.479 104.386V104.746C656.479 105.225 656.492 105.597 656.519 105.863C656.546 106.129 656.692 106.369 656.958 106.582C657.224 106.795 657.57 106.914 657.996 106.941C658.741 106.941 659.353 106.648 659.832 106.063C660.311 105.477 660.657 104.852 660.87 104.187C661.003 103.814 661.109 103.588 661.189 103.508C661.269 103.428 661.469 103.388 661.788 103.388C662.32 103.388 662.586 103.548 662.586 103.867C662.586 104.346 662.267 105.105 661.628 106.143C660.617 107.66 659.42 108.418 658.036 108.418H657.677C656.053 108.418 654.709 108.085 653.645 107.42C652.58 106.755 651.995 105.717 651.889 104.306C651.889 103.588 652.088 102.47 652.487 100.953C652.887 99.4366 653.086 98.4652 653.086 98.0395C653.086 96.6823 652.514 95.6976 651.37 95.0856C650.97 94.8993 650.638 94.7929 650.372 94.7662C650.106 94.7396 649.161 94.713 647.538 94.6864H644.783L643.506 99.8757C642.628 103.388 642.189 105.171 642.189 105.225C642.189 105.331 642.202 105.398 642.229 105.424C642.255 105.451 642.348 105.504 642.508 105.584C642.668 105.664 642.894 105.69 643.187 105.664C643.479 105.637 643.918 105.664 644.504 105.744H645.741C645.901 105.956 645.981 106.076 645.981 106.103C645.981 106.129 645.941 106.369 645.861 106.821C645.755 107.167 645.622 107.42 645.462 107.58H644.863C643.905 107.526 642.162 107.5 639.634 107.5C638.729 107.5 637.891 107.5 637.119 107.5C636.347 107.5 635.735 107.5 635.283 107.5C634.831 107.5 634.551 107.513 634.445 107.54C633.992 107.54 633.766 107.42 633.766 107.181C633.766 107.127 633.806 106.941 633.886 106.622C634.019 106.116 634.152 105.837 634.285 105.783C634.391 105.757 634.591 105.744 634.884 105.744H635.123C635.842 105.744 636.64 105.704 637.518 105.624C637.891 105.544 638.144 105.384 638.277 105.145C638.357 105.038 639.315 101.339 641.151 94.0477C642.987 86.7562 643.905 82.9108 643.905 82.5116C643.905 82.3253 643.147 82.2056 641.63 82.1524ZM657.597 85.4655C657.597 84.6139 657.317 83.8954 656.758 83.31C656.2 82.7245 655.055 82.352 653.326 82.1923C653.272 82.1923 652.966 82.1923 652.408 82.1923C651.849 82.1923 651.343 82.179 650.891 82.1524H650.012C648.762 82.1524 648.043 82.2854 647.857 82.5515C647.83 82.6314 647.378 84.401 646.5 87.8605C645.622 91.32 645.182 93.0897 645.182 93.1696C645.182 93.1962 646.101 93.2095 647.937 93.2095C650.012 93.1829 651.396 93.0897 652.088 92.93C653.791 92.6639 655.122 91.8789 656.08 90.5749C656.506 89.9629 656.865 89.1645 657.158 88.1799C657.45 87.1953 657.597 86.2905 657.597 85.4655Z" fill="#1C9812"/>
<path d="M664.976 89.8828C664.863 89.8828 664.609 89.8264 664.214 89.7135C663.819 89.6006 663.612 89.4877 663.593 89.3748C663.593 89.2431 664.11 87.0607 665.145 82.8274C666.18 78.5942 666.754 76.3835 666.866 76.1954C667.149 75.5933 667.638 75.2923 668.334 75.2923C668.71 75.2923 669.105 75.4334 669.519 75.7156C669.933 75.9978 670.14 76.4117 670.14 76.9573C670.14 77.0514 670.121 77.1925 670.084 77.3807C670.065 77.5124 669.246 79.6102 667.628 83.6741C666.01 87.738 665.173 89.7887 665.117 89.8264C665.06 89.864 665.013 89.8828 664.976 89.8828Z" fill="#1C9812"/>
<path d="M673.16 99.039C673.16 99.0202 673.169 98.992 673.188 98.9543C673.207 98.9167 673.226 98.8885 673.244 98.8697C673.263 98.8509 673.291 98.8132 673.329 98.7568C673.367 98.7003 673.404 98.6721 673.442 98.6721C673.48 98.6721 673.527 98.6533 673.583 98.6157C673.639 98.5781 673.705 98.5686 673.781 98.5875C673.988 98.6251 674.157 98.7662 674.289 99.0108V116.311H682.727C683.009 116.461 683.15 116.649 683.15 116.875C683.15 117.101 683.009 117.289 682.727 117.439H664.75C664.731 117.439 664.693 117.421 664.637 117.383C664.58 117.345 664.505 117.28 664.411 117.185C664.317 117.091 664.279 116.988 664.298 116.875C664.317 116.762 664.355 116.659 664.411 116.565C664.467 116.471 664.533 116.405 664.609 116.367C664.684 116.329 664.731 116.311 664.75 116.311H673.16V99.039Z" fill="#1C9812"/>
<circle cx="423.973" cy="147.469" r="26.3515" fill="var(--fg, black)"/>
<path d="M540.004 92.7664C540.004 91.4318 539.553 90.2806 538.652 89.313C537.751 88.3454 536.45 87.8615 534.748 87.8615C533.547 87.8615 532.513 88.0784 531.645 88.5122C530.644 89.1462 530.144 90.0137 530.144 91.1148C530.111 91.2816 530.111 91.4985 530.144 91.7654C530.177 92.0324 530.444 92.4328 530.945 92.9666C531.445 93.5005 532.163 93.9176 533.097 94.2179C533.697 94.3847 534.431 94.5349 535.299 94.6683C536.167 94.8018 536.901 94.952 537.501 95.1188C538.102 95.2856 538.636 95.5025 539.103 95.7694C539.67 96.0364 540.221 96.37 540.754 96.7705C541.288 97.1709 541.822 97.8549 542.356 98.8225C542.89 99.7901 543.174 100.825 543.207 101.926C543.207 103.994 542.573 105.696 541.305 107.031C540.037 108.365 537.985 109.049 535.149 109.083H534.748C533.013 109.083 531.412 108.482 529.944 107.281L529.543 107.631L529.093 108.082C528.893 108.282 528.692 108.465 528.492 108.632L527.942 109.133H527.541H527.341C527.241 109.133 527.091 109.033 526.891 108.833V104.879V101.976C526.891 101.275 526.924 100.858 526.991 100.724C527.057 100.591 527.224 100.508 527.491 100.474H527.942C528.342 100.474 528.609 100.541 528.742 100.674C528.876 100.808 528.959 101.008 528.993 101.275C529.026 101.542 529.143 101.992 529.343 102.626C529.543 103.26 529.86 103.961 530.294 104.728C531.462 106.43 533.08 107.281 535.149 107.281C538.385 107.281 540.004 105.98 540.004 103.377C540.004 102.409 539.703 101.625 539.103 101.025C538.436 100.224 537.051 99.6233 534.949 99.2229C532.847 98.8225 531.462 98.4388 530.795 98.0718C529.593 97.5045 528.642 96.7371 527.942 95.7694C527.241 94.8018 526.891 93.7674 526.891 92.6663C526.891 91.365 527.174 90.2639 527.741 89.363C528.309 88.4621 529.026 87.7948 529.894 87.361C530.761 86.9273 531.595 86.627 532.396 86.4601C533.197 86.2933 533.931 86.2099 534.598 86.2099H535.149C536.484 86.2099 537.651 86.4601 538.652 86.9606L539.403 87.361L539.854 87.0107C540.187 86.7104 540.554 86.4268 540.955 86.1598H541.355H541.555C541.655 86.1598 541.806 86.2599 542.006 86.4601V93.0667L541.705 93.367H540.304C540.104 93.1668 540.004 92.9666 540.004 92.7664Z" fill="#1C9812"/>
<path d="M548.412 78.1016C548.412 77.1673 548.713 76.4332 549.313 75.8993C549.914 75.3655 550.648 75.0985 551.516 75.0985C552.283 75.1653 552.95 75.4489 553.518 75.9494C554.085 76.4499 554.368 77.1673 554.368 78.1016C554.368 79.1026 554.085 79.8533 553.518 80.3538C552.95 80.8543 552.25 81.1046 551.415 81.1046C550.581 81.1046 549.881 80.8543 549.313 80.3538C548.746 79.8533 548.446 79.1026 548.412 78.1016ZM557.321 108.582C556.821 108.482 555.086 108.432 552.116 108.432C551.749 108.432 551.132 108.432 550.264 108.432C549.397 108.432 548.563 108.465 547.762 108.532L546.661 108.582H546.26V106.28H547.061C547.995 106.28 548.813 106.23 549.514 106.13C549.814 105.996 549.997 105.813 550.064 105.579C550.131 105.345 550.164 104.645 550.164 103.477V98.3218V93.9174C550.164 92.1823 550.131 91.0812 550.064 90.6141C549.997 90.1469 549.764 89.8299 549.363 89.6631C548.896 89.4295 548.112 89.3128 547.011 89.3128H546.46V88.1616C546.46 87.3942 546.494 87.0105 546.561 87.0105L547.061 86.9604C547.395 86.927 547.862 86.8937 548.462 86.8603C549.063 86.8269 549.664 86.7936 550.264 86.7602C550.831 86.7268 551.432 86.6935 552.066 86.6601C552.7 86.6267 553.184 86.5767 553.518 86.51C553.851 86.4432 554.035 86.4265 554.068 86.4599H554.218V105.479C554.385 105.813 554.585 106.013 554.819 106.08C555.052 106.146 555.636 106.213 556.571 106.28H557.722V108.582H557.321Z" fill="#1C9812"/>
<path d="M560.924 106.28H561.625C562.926 106.28 563.71 106.046 563.977 105.579V105.179C563.977 104.878 563.977 104.495 563.977 104.027C563.977 103.56 563.977 103.043 563.977 102.476C563.977 101.909 563.994 101.258 564.027 100.524C564.061 99.7899 564.061 99.0892 564.027 98.4219C564.027 97.3875 564.027 96.2864 564.027 95.1186C564.027 93.9507 564.011 92.9664 563.977 92.1656V91.0145C563.877 90.3805 563.644 89.9634 563.277 89.7632C562.91 89.563 562.159 89.4129 561.024 89.3128H560.124V88.1616C560.124 87.3942 560.157 87.0105 560.224 87.0105L560.724 86.9604C561.058 86.927 561.525 86.8937 562.126 86.8603C562.726 86.8269 563.343 86.7936 563.977 86.7602C564.545 86.7268 565.145 86.6935 565.779 86.6601C566.413 86.6267 566.897 86.5767 567.231 86.51C567.564 86.4432 567.748 86.4265 567.781 86.4599H567.931V88.4619C567.931 89.7298 567.948 90.3638 567.981 90.3638C568.015 90.3638 568.098 90.2804 568.232 90.1136C568.365 89.9467 568.565 89.6965 568.832 89.3628C569.099 89.0291 569.416 88.7288 569.783 88.4619C570.15 88.195 570.634 87.878 571.235 87.511C571.835 87.1439 572.469 86.877 573.137 86.7102C573.804 86.5433 574.655 86.4599 575.689 86.4599C579.493 86.5934 581.612 88.4786 582.045 92.1156C582.079 92.3491 582.096 94.6681 582.096 99.0725V103.377C582.096 104.645 582.129 105.396 582.196 105.629C582.262 105.863 582.446 106.029 582.746 106.13C583.447 106.23 584.264 106.28 585.199 106.28H585.999V108.582H585.599L584.398 108.532C583.63 108.499 582.796 108.482 581.895 108.482C580.994 108.482 580.36 108.465 579.993 108.432C576.557 108.432 574.688 108.482 574.388 108.582H573.987V106.28H574.788C576.824 106.28 577.841 106.013 577.841 105.479C577.875 105.412 577.891 103.11 577.891 98.572C577.858 94.0675 577.825 91.6818 577.791 91.4149C577.591 90.4806 577.257 89.7799 576.79 89.3128C576.323 88.8456 575.923 88.562 575.589 88.4619C575.255 88.3618 574.822 88.3284 574.288 88.3618C572.786 88.3618 571.468 88.929 570.334 90.0635C569.433 90.9644 568.866 91.882 568.632 92.8163C568.398 93.7505 568.265 95.1353 568.232 96.9704V100.174V103.177C568.232 104.178 568.248 104.845 568.282 105.179C568.315 105.512 568.365 105.729 568.432 105.829C568.499 105.929 568.649 106.029 568.882 106.13C569.583 106.23 570.4 106.28 571.335 106.28H572.136V108.582H571.735L570.584 108.532C569.783 108.499 568.932 108.482 568.031 108.482C567.131 108.482 566.497 108.465 566.13 108.432C562.693 108.432 560.824 108.482 560.524 108.582H560.124V106.28H560.924Z" fill="#1C9812"/>
<path d="M596.796 98.5715C596.796 95.1681 597.446 91.5812 598.748 87.8108C600.049 84.0403 601.817 80.7871 604.053 78.051C606.288 75.3149 608.607 73.7467 611.01 73.3463C611.043 73.3463 611.177 73.3463 611.41 73.3463C611.644 73.3463 611.844 73.3296 612.011 73.2962C613.813 73.4297 615.214 74.2472 616.215 75.7487C617.516 77.7507 618.167 80.4367 618.167 83.8068C618.167 87.6439 617.416 91.5478 615.915 95.5185C614.413 99.4891 612.495 102.742 610.159 105.278C607.823 107.814 605.588 109.082 603.452 109.082H603.102C601.901 109.082 600.866 108.748 599.999 108.081C599.131 107.414 598.481 106.529 598.047 105.428C597.613 104.327 597.296 103.209 597.096 102.075C596.896 100.941 596.796 99.7727 596.796 98.5715ZM614.213 80.2532C614.213 76.8498 613.329 75.1481 611.56 75.1481C610.359 75.1481 609.191 75.8989 608.057 77.4004C606.922 78.9019 605.988 80.6036 605.254 82.5055C604.52 84.4074 603.953 86.0757 603.552 87.5105C603.152 88.9452 602.935 89.7794 602.902 90.013C604.537 90.0463 606.155 90.063 607.757 90.063L612.611 90.013C612.645 89.9796 612.778 89.429 613.012 88.3613C613.245 87.2936 613.512 85.9589 613.813 84.3573C614.113 82.7557 614.246 81.3877 614.213 80.2532ZM600.7 101.975C600.7 105.512 601.584 107.28 603.352 107.28C603.853 107.28 604.387 107.113 604.954 106.78C605.521 106.446 606.205 105.812 607.006 104.878C607.807 103.944 608.607 102.492 609.408 100.523C610.209 98.5548 611.01 96.1191 611.811 93.2162L612.061 92.3653H602.301C602.301 92.4654 602.151 93.0994 601.851 94.2672C601.55 95.4351 601.283 96.7364 601.05 98.1711C600.816 99.6059 600.7 100.874 600.7 101.975Z" fill="#1C9812"/>
<path d="M451.325 360.08H451.225C450.825 360.08 450.524 359.847 450.324 359.379V335.055L450.374 310.731C450.708 310.297 451.025 310.08 451.325 310.08C451.759 310.08 452.093 310.33 452.326 310.831V359.379C452.059 359.847 451.759 360.08 451.425 360.08H451.325Z" fill="#AD1E1E"/>
<path d="M469.794 315.735C468.893 315.735 468.359 315.718 468.192 315.685C468.026 315.652 467.942 315.468 467.942 315.134C467.942 314.234 468.126 313.683 468.493 313.483C468.559 313.449 471.462 313.433 477.201 313.433C482.94 313.466 486.044 313.516 486.511 313.583C488.379 313.85 489.947 314.317 491.215 314.984C492.483 315.652 493.384 316.419 493.918 317.287C494.452 318.154 494.802 318.872 494.969 319.439C495.136 320.006 495.236 320.573 495.269 321.14C495.269 322.642 494.786 324.043 493.818 325.345C492.85 326.646 491.733 327.647 490.465 328.348C489.197 329.048 488.079 329.616 487.111 330.049C486.144 330.483 485.51 330.7 485.209 330.7L485.56 330.95C487.795 332.218 488.913 334.053 488.913 336.456C488.913 336.823 488.83 337.84 488.663 339.509C488.496 341.177 488.413 342.545 488.413 343.613V344.063C488.413 344.664 488.429 345.131 488.463 345.465C488.496 345.798 488.679 346.099 489.013 346.366C489.347 346.633 489.781 346.783 490.314 346.816C491.249 346.816 492.016 346.449 492.617 345.715C493.217 344.981 493.651 344.197 493.918 343.363C494.085 342.896 494.218 342.612 494.318 342.512C494.419 342.412 494.669 342.362 495.069 342.362C495.737 342.362 496.07 342.562 496.07 342.962C496.07 343.563 495.67 344.514 494.869 345.815C493.601 347.717 492.1 348.668 490.365 348.668H489.914C487.879 348.668 486.194 348.251 484.859 347.417C483.524 346.583 482.79 345.281 482.657 343.513C482.657 342.612 482.907 341.211 483.408 339.309C483.908 337.407 484.158 336.189 484.158 335.655C484.158 333.953 483.441 332.719 482.006 331.951C481.506 331.718 481.089 331.584 480.755 331.551C480.421 331.517 479.237 331.484 477.201 331.451H473.748L472.146 337.957C471.045 342.362 470.495 344.597 470.495 344.664C470.495 344.797 470.511 344.881 470.545 344.914C470.578 344.948 470.695 345.014 470.895 345.114C471.095 345.215 471.379 345.248 471.746 345.215C472.113 345.181 472.663 345.215 473.398 345.315H474.949C475.149 345.582 475.249 345.732 475.249 345.765C475.249 345.798 475.199 346.099 475.099 346.666C474.966 347.1 474.799 347.417 474.599 347.617H473.848C472.647 347.55 470.461 347.517 467.291 347.517C466.157 347.517 465.106 347.517 464.138 347.517C463.171 347.517 462.403 347.517 461.836 347.517C461.269 347.517 460.918 347.534 460.785 347.567C460.218 347.567 459.934 347.417 459.934 347.116C459.934 347.05 459.984 346.816 460.084 346.416C460.251 345.782 460.418 345.431 460.585 345.365C460.718 345.331 460.968 345.315 461.335 345.315H461.636C462.537 345.315 463.538 345.265 464.639 345.164C465.106 345.064 465.423 344.864 465.59 344.564C465.69 344.43 466.891 339.792 469.193 330.65C471.496 321.507 472.647 316.686 472.647 316.185C472.647 315.952 471.696 315.802 469.794 315.735ZM489.814 319.889C489.814 318.821 489.464 317.921 488.763 317.186C488.062 316.452 486.627 315.985 484.459 315.785C484.392 315.785 484.008 315.785 483.307 315.785C482.607 315.785 481.973 315.768 481.406 315.735H480.304C478.736 315.735 477.835 315.902 477.602 316.236C477.568 316.336 477.001 318.555 475.9 322.892C474.799 327.23 474.248 329.449 474.248 329.549C474.248 329.582 475.4 329.599 477.702 329.599C480.304 329.566 482.04 329.449 482.907 329.249C485.043 328.915 486.711 327.931 487.912 326.296C488.446 325.528 488.896 324.527 489.263 323.293C489.63 322.058 489.814 320.924 489.814 319.889Z" fill="#AD1E1E"/>
<path d="M503.227 360.08H503.127C502.727 360.08 502.426 359.847 502.226 359.379V335.055L502.276 310.731C502.61 310.297 502.927 310.08 503.227 310.08C503.661 310.08 503.995 310.33 504.228 310.831V359.379C503.961 359.847 503.661 360.08 503.327 360.08H503.227Z" fill="#AD1E1E"/>
<path d="M526.891 330.25C526.891 329.816 527.124 329.483 527.592 329.249H559.473C559.974 329.516 560.224 329.85 560.224 330.25C560.224 330.617 559.991 330.934 559.524 331.201L543.608 331.251H527.692C527.158 331.084 526.891 330.751 526.891 330.25ZM526.891 339.96C526.891 339.459 527.158 339.126 527.692 338.959H559.524C559.991 339.293 560.224 339.626 560.224 339.96C560.224 340.394 559.974 340.727 559.473 340.961H527.592C527.124 340.727 526.891 340.394 526.891 339.96Z" fill="#AD1E1E"/>
<path d="M587.591 318.688L586.941 318.939C586.474 319.105 585.806 319.272 584.939 319.439C584.071 319.606 583.104 319.723 582.036 319.789H581.085V317.487H582.036C583.604 317.42 585.056 317.17 586.39 316.736C587.725 316.303 588.659 315.902 589.193 315.535C589.727 315.168 590.194 314.801 590.594 314.434C590.661 314.334 590.861 314.284 591.195 314.284C591.495 314.284 591.779 314.384 592.046 314.584V329.549L592.096 344.564C592.33 344.798 592.53 344.948 592.697 345.015C592.863 345.081 593.264 345.148 593.898 345.215C594.532 345.282 595.566 345.315 597.001 345.315H598.302V347.617H597.752C597.051 347.517 594.398 347.467 589.794 347.467C585.256 347.467 582.637 347.517 581.936 347.617H581.335V345.315H582.637C583.371 345.315 584.005 345.315 584.538 345.315C585.072 345.315 585.489 345.298 585.79 345.265C586.09 345.231 586.357 345.181 586.59 345.115C586.824 345.048 586.957 345.015 586.991 345.015C587.024 345.015 587.124 344.931 587.291 344.764C587.458 344.598 587.558 344.531 587.591 344.564V318.688Z" fill="#AD1E1E"/>
<path d="M914.181 268.815C914.215 268.614 914.265 268.347 914.331 268.014C914.398 267.68 914.598 267.046 914.932 266.112C915.266 265.178 915.599 264.393 915.933 263.76C916.267 263.126 916.817 262.508 917.585 261.908C918.352 261.307 919.119 261.023 919.887 261.057C921.088 261.057 922.089 261.357 922.89 261.958C923.691 262.558 924.191 263.126 924.391 263.659C924.592 264.193 924.692 264.544 924.692 264.71C924.692 264.777 924.708 264.811 924.742 264.811L925.292 264.26C927.328 262.125 929.647 261.057 932.249 261.057C934.051 261.057 935.502 261.507 936.604 262.408C937.705 263.309 938.272 264.627 938.305 266.362C938.339 268.097 937.705 270.716 936.403 274.22C935.102 277.723 934.468 279.842 934.501 280.576C934.501 281.444 934.785 281.878 935.352 281.878C935.553 281.878 935.703 281.861 935.803 281.828C936.77 281.661 937.638 281.027 938.405 279.926C939.173 278.825 939.757 277.49 940.157 275.922C940.224 275.655 940.558 275.521 941.158 275.521C941.825 275.521 942.159 275.655 942.159 275.922C942.159 275.955 942.092 276.205 941.959 276.672C941.692 277.64 941.325 278.591 940.858 279.525C940.391 280.46 939.623 281.394 938.556 282.328C937.488 283.262 936.337 283.713 935.102 283.679C933.534 283.679 932.399 283.229 931.699 282.328C930.998 281.427 930.648 280.493 930.648 279.525C930.648 278.891 931.248 276.889 932.449 273.519C933.651 270.149 934.268 267.613 934.301 265.912C934.301 263.943 933.567 262.959 932.099 262.959H931.849C928.979 262.959 926.56 264.644 924.592 268.014L924.241 268.614L922.59 275.321C921.488 279.692 920.854 282.044 920.688 282.378C920.254 283.279 919.537 283.729 918.536 283.729C918.102 283.729 917.751 283.629 917.484 283.429C917.218 283.229 917.034 283.029 916.934 282.829C916.834 282.628 916.8 282.462 916.834 282.328C916.834 281.894 917.468 279.175 918.736 274.17C920.004 269.165 920.671 266.446 920.738 266.012C920.771 265.845 920.788 265.461 920.788 264.861C920.788 263.559 920.387 262.909 919.587 262.909C918.319 262.909 917.268 264.577 916.433 267.914C916.233 268.581 916.133 268.931 916.133 268.965C916.066 269.165 915.749 269.265 915.182 269.265H914.481C914.281 269.065 914.181 268.915 914.181 268.815Z" fill="#2739DC"/>
<path d="M934.501 249.144C934.501 248.877 934.585 248.643 934.752 248.443C934.918 248.243 935.169 248.143 935.502 248.143C935.736 248.143 935.936 248.226 936.103 248.393C936.27 248.527 936.437 248.844 936.604 249.344C936.937 250.579 937.621 251.53 938.656 252.197C939.023 252.43 939.206 252.731 939.206 253.098C939.206 253.398 939.156 253.598 939.056 253.698C938.956 253.798 938.722 253.949 938.355 254.149C936.92 254.883 935.669 255.934 934.602 257.302C934.535 257.369 934.451 257.469 934.351 257.602C934.251 257.736 934.168 257.836 934.101 257.903C934.034 257.969 933.951 258.003 933.851 258.003C933.751 258.003 933.634 258.019 933.5 258.053C933.267 258.053 933.05 257.969 932.85 257.802C932.65 257.636 932.533 257.385 932.499 257.052C932.499 256.418 933.284 255.433 934.852 254.099H926.293L917.735 254.049C917.301 253.748 917.084 253.431 917.084 253.098C917.084 252.864 917.301 252.531 917.735 252.097H935.703C934.902 250.829 934.501 249.845 934.501 249.144Z" fill="#2739DC"/>
<path d="M822.47 267.91C822.47 267.91 822.12 267.91 821.419 267.91C820.719 267.91 820.118 267.66 819.618 267.16C819.117 266.659 818.85 266.025 818.817 265.258C818.817 264.49 819.067 263.856 819.567 263.356C819.734 263.189 819.818 263.089 819.818 263.055C819.818 263.022 819.651 262.989 819.317 262.955C818.45 262.822 817.632 262.755 816.865 262.755C815.23 262.755 813.895 263.289 812.861 264.357C811.293 265.925 810.508 268.544 810.508 272.215C810.508 274.951 811.026 277.103 812.06 278.671C813.428 280.706 815.263 281.724 817.565 281.724C818.934 281.724 820.035 281.29 820.869 280.423C821.703 279.555 822.304 278.521 822.671 277.32C822.737 277.053 822.821 276.886 822.921 276.819C823.021 276.753 823.288 276.719 823.722 276.719H824.422C824.623 276.919 824.723 277.069 824.723 277.17C824.723 277.303 824.656 277.57 824.522 277.97C824.389 278.371 824.122 278.921 823.722 279.622C823.321 280.323 822.837 280.957 822.27 281.524C821.703 282.091 820.902 282.608 819.868 283.076C818.833 283.543 817.682 283.76 816.414 283.726C813.545 283.726 811.042 282.658 808.907 280.523C806.771 278.387 805.687 275.701 805.654 272.465C805.654 268.995 806.738 266.175 808.907 264.006C811.076 261.838 813.595 260.753 816.464 260.753C819.334 260.753 821.336 261.204 822.47 262.105C823.605 263.005 824.172 264.073 824.172 265.308C824.172 266.075 823.888 266.692 823.321 267.16L822.47 267.91Z" fill="#2739DC"/>
<path d="M827.576 272.466C827.576 269.296 828.66 266.56 830.829 264.257C832.998 261.955 835.617 260.787 838.687 260.754C841.69 260.754 844.276 261.888 846.445 264.157C848.613 266.426 849.714 269.179 849.748 272.415C849.748 275.585 848.68 278.255 846.545 280.424C844.409 282.592 841.79 283.677 838.687 283.677C835.45 283.677 832.798 282.559 830.729 280.323C828.66 278.088 827.609 275.469 827.576 272.466ZM838.687 281.675C842.758 281.675 844.793 278.955 844.793 273.517V271.915V270.664C844.793 269.93 844.776 269.296 844.743 268.762C844.709 268.228 844.593 267.594 844.393 266.86C844.192 266.126 843.925 265.525 843.592 265.058C843.258 264.591 842.741 264.124 842.04 263.657C841.339 263.19 840.522 262.856 839.588 262.656C839.421 262.622 839.154 262.606 838.787 262.606C837.786 262.606 836.835 262.806 835.934 263.206C834.499 263.94 833.565 264.958 833.131 266.259C832.697 267.561 832.481 269.096 832.481 270.864V271.865C832.481 275.068 832.798 277.32 833.432 278.622C834.499 280.657 836.251 281.675 838.687 281.675Z" fill="#2739DC"/>
<path d="M865.964 267.359C865.964 266.025 865.513 264.873 864.613 263.906C863.712 262.938 862.41 262.454 860.709 262.454C859.507 262.454 858.473 262.671 857.606 263.105C856.605 263.739 856.104 264.606 856.104 265.708C856.071 265.874 856.071 266.091 856.104 266.358C856.137 266.625 856.404 267.026 856.905 267.559C857.405 268.093 858.123 268.51 859.057 268.811C859.658 268.978 860.392 269.128 861.259 269.261C862.127 269.395 862.861 269.545 863.461 269.712C864.062 269.878 864.596 270.095 865.063 270.362C865.63 270.629 866.181 270.963 866.715 271.363C867.249 271.764 867.782 272.448 868.316 273.415C868.85 274.383 869.134 275.417 869.167 276.518C869.167 278.587 868.533 280.289 867.265 281.623C865.997 282.958 863.945 283.642 861.109 283.676H860.709C858.974 283.676 857.372 283.075 855.904 281.874L855.503 282.224L855.053 282.675C854.853 282.875 854.653 283.058 854.452 283.225L853.902 283.726H853.501H853.301C853.201 283.726 853.051 283.625 852.851 283.425V279.471V276.568C852.851 275.868 852.884 275.451 852.951 275.317C853.018 275.184 853.184 275.1 853.451 275.067H853.902C854.302 275.067 854.569 275.134 854.703 275.267C854.836 275.401 854.92 275.601 854.953 275.868C854.986 276.135 855.103 276.585 855.303 277.219C855.503 277.853 855.82 278.554 856.254 279.321C857.422 281.023 859.04 281.874 861.109 281.874C864.346 281.874 865.964 280.572 865.964 277.97C865.964 277.002 865.664 276.218 865.063 275.617C864.396 274.817 863.011 274.216 860.909 273.816C858.807 273.415 857.422 273.032 856.755 272.665C855.554 272.097 854.603 271.33 853.902 270.362C853.201 269.395 852.851 268.36 852.851 267.259C852.851 265.958 853.134 264.857 853.702 263.956C854.269 263.055 854.986 262.388 855.854 261.954C856.721 261.52 857.556 261.22 858.356 261.053C859.157 260.886 859.891 260.803 860.559 260.803H861.109C862.444 260.803 863.612 261.053 864.613 261.553L865.363 261.954L865.814 261.603C866.147 261.303 866.514 261.02 866.915 260.753H867.315H867.515C867.616 260.753 867.766 260.853 867.966 261.053V267.66L867.666 267.96H866.264C866.064 267.76 865.964 267.559 865.964 267.359Z" fill="#2739DC"/>
<path d="M881.014 273.165C881.014 269.762 881.665 266.175 882.966 262.405C884.267 258.634 886.036 255.381 888.271 252.645C890.507 249.909 892.826 248.34 895.228 247.94C895.262 247.94 895.395 247.94 895.629 247.94C895.862 247.94 896.062 247.923 896.229 247.89C898.031 248.023 899.432 248.841 900.433 250.342C901.735 252.344 902.385 255.03 902.385 258.401C902.385 262.238 901.635 266.142 900.133 270.112C898.632 274.083 896.713 277.336 894.377 279.872C892.042 282.408 889.806 283.676 887.671 283.676H887.32C886.119 283.676 885.085 283.342 884.217 282.675C883.35 282.007 882.699 281.123 882.265 280.022C881.832 278.921 881.515 277.803 881.314 276.669C881.114 275.534 881.014 274.366 881.014 273.165ZM898.431 254.847C898.431 251.444 897.547 249.742 895.779 249.742C894.578 249.742 893.41 250.493 892.275 251.994C891.141 253.496 890.207 255.197 889.472 257.099C888.738 259.001 888.171 260.669 887.771 262.104C887.37 263.539 887.154 264.373 887.12 264.607C888.755 264.64 890.373 264.657 891.975 264.657L896.83 264.607C896.863 264.573 896.997 264.023 897.23 262.955C897.464 261.887 897.731 260.553 898.031 258.951C898.331 257.349 898.465 255.981 898.431 254.847ZM884.918 276.569C884.918 280.106 885.802 281.874 887.571 281.874C888.071 281.874 888.605 281.707 889.172 281.373C889.739 281.04 890.423 280.406 891.224 279.472C892.025 278.537 892.826 277.086 893.627 275.117C894.427 273.149 895.228 270.713 896.029 267.81L896.279 266.959H886.52C886.52 267.059 886.369 267.693 886.069 268.861C885.769 270.029 885.502 271.33 885.268 272.765C885.035 274.2 884.918 275.468 884.918 276.569Z" fill="#2739DC"/>
<path d="M770.383 268.184C768.821 266.622 766.288 266.622 764.726 268.184L739.27 293.64C737.708 295.202 737.708 297.735 739.27 299.297C740.833 300.859 743.365 300.859 744.927 299.297L767.555 276.669L790.182 299.297C791.744 300.859 794.277 300.859 795.839 299.297C797.401 297.735 797.401 295.202 795.839 293.64L770.383 268.184ZM771.555 449.148V271.013H763.555V449.148H771.555Z" fill="#2739DC"/>
<path d="M767.555 449.148V147.797" stroke="#2739DC" stroke-width="8"/>
<circle cx="767.555" cy="446.483" r="26.3515" fill="var(--fg, black)"/>
</g>
<defs>
<clipPath id="clip0_4319_64522">
<rect width="1532" height="556" fill="white"/>
</clipPath>
</defs>
</svg>
