<svg width="100%" viewBox="0 0 1532 556" fill="none" xmlns="http://www.w3.org/2000/svg">

<path d="M894.12 514.497L894.12 279.769" stroke="#1C9812" stroke-width="3" stroke-dasharray="30 30"/>
<path d="M889.701 529.299L761.187 529.299" stroke="#1C9812" stroke-width="3" stroke-dasharray="30 30"/>
<line x1="308.456" y1="280.982" x2="1208.59" y2="280.983" stroke="var(--fg, black)" stroke-width="8"/>
<path d="M888.504 533.115C890.611 533.777 892.856 532.604 893.518 530.497L904.297 496.148C904.958 494.041 903.786 491.796 901.678 491.134C899.57 490.473 897.325 491.645 896.664 493.753L887.082 524.285L856.551 514.703C854.443 514.042 852.198 515.214 851.536 517.322C850.875 519.43 852.047 521.675 854.155 522.336L888.504 533.115ZM755.831 281.62L886.156 531.151L893.247 527.447L762.922 277.917L755.831 281.62Z" fill="#1C9812"/>
<path d="M754.539 279.062C756.744 278.929 758.423 277.033 758.29 274.828L756.116 238.893C755.983 236.688 754.087 235.009 751.882 235.142C749.677 235.276 747.997 237.171 748.131 239.377L750.063 271.318L718.121 273.25C715.916 273.384 714.237 275.279 714.37 277.485C714.504 279.69 716.399 281.369 718.604 281.236L754.539 279.062ZM485.129 41.9521L751.645 278.063L756.95 272.075L490.434 35.964L485.129 41.9521Z" fill="#AD1E1E"/>
<path d="M759.376 187.188C731.997 187.188 707.448 199.305 690.798 218.468" stroke="#AD1E1E" stroke-width="8"/>
<path d="M759.376 368.812C774.161 368.812 788.121 365.279 800.457 359.011" stroke="#1C9812" stroke-width="8"/>
<path d="M759.376 535.079L759.376 44.9982" stroke="var(--fg, black)" stroke-width="6" stroke-dasharray="40 40"/>
<circle cx="759.376" cy="279.769" r="14.5" fill="var(--fg, black)"/>
<path d="M347.299 239.62C347.335 239.502 347.371 239.344 347.407 239.148C347.442 238.952 347.532 238.519 347.675 237.851C347.818 237.183 347.997 236.574 348.212 236.024C348.427 235.474 348.695 234.825 349.017 234.079C349.339 233.332 349.697 232.743 350.09 232.31C350.484 231.878 350.949 231.446 351.486 231.014C352.023 230.581 352.613 230.405 353.257 230.483C354.116 230.483 354.885 230.621 355.565 230.896C356.245 231.171 356.782 231.525 357.176 231.957C357.569 232.389 357.855 232.821 358.034 233.254C358.213 233.686 358.356 234.059 358.464 234.374L358.571 234.786C358.571 234.865 358.589 234.904 358.625 234.904L359.215 234.256C361.398 231.741 363.885 230.483 366.676 230.483C368.608 230.483 370.165 231.014 371.346 232.075C372.527 233.136 373.135 234.688 373.171 236.731V237.321C373.171 238.264 372.026 243.628 369.736 253.413C367.66 262.647 366.551 267.402 366.408 267.677C365.943 268.738 365.137 269.269 363.992 269.269C363.527 269.269 363.134 269.111 362.812 268.797C362.489 268.483 362.293 268.05 362.221 267.5C362.221 267.147 363.277 262.372 365.388 253.177L368.716 238.441C368.823 237.851 368.877 237.105 368.877 236.201C368.877 233.882 368.09 232.723 366.515 232.723H366.247C363.169 232.723 360.575 234.708 358.464 238.676L358.088 239.384L356.317 247.282C355.136 252.43 354.456 255.201 354.277 255.593C353.812 256.654 353.043 257.185 351.969 257.185C351.504 257.185 351.128 257.067 350.842 256.831C350.556 256.596 350.359 256.36 350.251 256.124C350.144 255.888 350.108 255.692 350.144 255.535C350.144 255.024 350.86 251.644 352.291 245.396C353.722 239.148 354.438 235.67 354.438 234.963C354.438 233.43 353.973 232.664 353.043 232.664C352.291 232.664 351.647 233.214 351.11 234.315C350.574 235.415 350.144 236.613 349.822 237.91C349.5 239.207 349.303 239.914 349.232 240.032C349.16 240.111 348.874 240.15 348.373 240.15H347.621C347.407 239.914 347.299 239.737 347.299 239.62Z" fill="var(--fg, black)"/>
<path d="M342.082 325.029C342.117 324.911 342.153 324.754 342.189 324.557C342.225 324.361 342.314 323.928 342.457 323.26C342.6 322.592 342.779 321.983 342.994 321.433C343.209 320.883 343.477 320.235 343.799 319.488C344.121 318.741 344.479 318.152 344.873 317.72C345.266 317.287 345.731 316.855 346.268 316.423C346.805 315.991 347.395 315.814 348.04 315.892C348.898 315.892 349.668 316.03 350.348 316.305C351.027 316.58 351.564 316.934 351.958 317.366C352.351 317.798 352.638 318.231 352.817 318.663C352.996 319.095 353.139 319.468 353.246 319.783L353.353 320.195C353.353 320.274 353.371 320.313 353.407 320.313L353.997 319.665C356.18 317.15 358.667 315.892 361.458 315.892C363.391 315.892 364.947 316.423 366.128 317.484C367.309 318.545 367.917 320.097 367.953 322.14V322.73C367.953 323.673 366.808 329.037 364.518 338.822C362.442 348.056 361.333 352.811 361.19 353.086C360.725 354.147 359.92 354.678 358.775 354.678C358.309 354.678 357.916 354.521 357.594 354.206C357.272 353.892 357.075 353.46 357.003 352.909C357.003 352.556 358.059 347.781 360.17 338.586L363.498 323.85C363.605 323.26 363.659 322.514 363.659 321.61C363.659 319.292 362.872 318.132 361.297 318.132H361.029C357.952 318.132 355.357 320.117 353.246 324.086L352.87 324.793L351.099 332.692C349.918 337.839 349.238 340.61 349.059 341.003C348.594 342.064 347.825 342.594 346.751 342.594C346.286 342.594 345.91 342.476 345.624 342.24C345.338 342.005 345.141 341.769 345.034 341.533C344.926 341.297 344.891 341.101 344.926 340.944C344.926 340.433 345.642 337.053 347.073 330.805C348.505 324.557 349.22 321.079 349.22 320.372C349.22 318.84 348.755 318.073 347.825 318.073C347.073 318.073 346.429 318.623 345.892 319.724C345.356 320.824 344.926 322.023 344.604 323.319C344.282 324.616 344.085 325.323 344.014 325.441C343.942 325.52 343.656 325.559 343.155 325.559H342.404C342.189 325.323 342.082 325.147 342.082 325.029Z" fill="var(--fg, black)"/>
<path d="M370.628 315.814C370.476 315.814 370.135 315.731 369.603 315.564C369.072 315.398 368.794 315.231 368.769 315.064C368.769 314.87 369.464 311.647 370.856 305.396C372.247 299.145 373.019 295.881 373.171 295.603C373.55 294.714 374.208 294.269 375.144 294.269C375.65 294.269 376.181 294.478 376.738 294.894C377.294 295.311 377.573 295.922 377.573 296.728C377.573 296.867 377.547 297.075 377.497 297.353C377.471 297.548 376.371 300.645 374.195 306.646C372.019 312.647 370.894 315.676 370.818 315.731C370.742 315.787 370.679 315.814 370.628 315.814Z" fill="var(--fg, black)"/>
<path d="M702.168 165.383C702.168 161.375 702.866 157.151 704.261 152.71C705.657 148.27 707.553 144.439 709.951 141.216C712.348 137.994 714.835 136.147 717.412 135.675C717.448 135.675 717.591 135.675 717.841 135.675C718.092 135.675 718.306 135.656 718.485 135.617C720.418 135.774 721.921 136.736 722.994 138.505C724.39 140.863 725.087 144.026 725.087 147.995C725.087 152.514 724.282 157.112 722.672 161.788C721.062 166.464 719.004 170.295 716.499 173.282C713.994 176.268 711.597 177.762 709.307 177.762H708.931C707.643 177.762 706.534 177.369 705.603 176.583C704.673 175.797 703.975 174.756 703.51 173.459C703.045 172.162 702.705 170.846 702.49 169.51C702.275 168.173 702.168 166.798 702.168 165.383ZM720.847 143.81C720.847 139.802 719.899 137.797 718.002 137.797C716.714 137.797 715.462 138.682 714.245 140.45C713.028 142.218 712.026 144.222 711.239 146.462C710.452 148.702 709.844 150.667 709.414 152.357C708.985 154.046 708.752 155.029 708.716 155.304C710.47 155.343 712.205 155.363 713.923 155.363L719.129 155.304C719.165 155.265 719.308 154.616 719.559 153.359C719.809 152.101 720.096 150.529 720.418 148.643C720.74 146.757 720.883 145.146 720.847 143.81ZM706.355 169.392C706.355 173.557 707.303 175.64 709.199 175.64C709.736 175.64 710.309 175.443 710.917 175.05C711.525 174.657 712.259 173.911 713.118 172.81C713.977 171.71 714.835 170.001 715.694 167.682C716.553 165.364 717.412 162.495 718.271 159.076L718.539 158.074H708.072C708.072 158.192 707.911 158.939 707.589 160.314C707.267 161.69 706.981 163.222 706.73 164.912C706.48 166.602 706.355 168.095 706.355 169.392Z" fill="#AD1E1E"/>
<path d="M767.22 416.29C767.22 412.281 767.918 408.057 769.313 403.617C770.709 399.176 772.605 395.345 775.003 392.123C777.4 388.9 779.887 387.053 782.464 386.582C782.499 386.582 782.642 386.582 782.893 386.582C783.143 386.582 783.358 386.562 783.537 386.523C785.469 386.68 786.972 387.643 788.046 389.411C789.441 391.769 790.139 394.932 790.139 398.901C790.139 403.42 789.334 408.018 787.724 412.694C786.113 417.37 784.056 421.202 781.551 424.188C779.046 427.175 776.649 428.668 774.359 428.668H773.983C772.695 428.668 771.585 428.275 770.655 427.489C769.725 426.703 769.027 425.662 768.562 424.365C768.096 423.068 767.756 421.752 767.542 420.416C767.327 419.08 767.22 417.704 767.22 416.29ZM785.899 394.716C785.899 390.708 784.951 388.704 783.054 388.704C781.766 388.704 780.513 389.588 779.297 391.356C778.08 393.125 777.078 395.129 776.291 397.369C775.504 399.608 774.895 401.573 774.466 403.263C774.037 404.953 773.804 405.935 773.768 406.21C775.522 406.249 777.257 406.269 778.975 406.269L784.181 406.21C784.217 406.171 784.36 405.523 784.611 404.265C784.861 403.008 785.147 401.436 785.469 399.549C785.791 397.663 785.935 396.052 785.899 394.716ZM771.406 420.298C771.406 424.463 772.355 426.546 774.251 426.546C774.788 426.546 775.36 426.349 775.969 425.957C776.577 425.564 777.311 424.817 778.17 423.717C779.028 422.616 779.887 420.907 780.746 418.588C781.605 416.27 782.464 413.401 783.322 409.983L783.591 408.981H773.124C773.124 409.098 772.963 409.845 772.641 411.22C772.319 412.596 772.033 414.128 771.782 415.818C771.532 417.508 771.406 419.001 771.406 420.298Z" fill="#1C9812"/>
<path d="M793.513 401.945C793.361 401.945 793.019 401.862 792.488 401.695C791.957 401.529 791.678 401.362 791.653 401.195C791.653 401.001 792.349 397.778 793.74 391.527C795.132 385.276 795.903 382.011 796.055 381.734C796.435 380.845 797.092 380.4 798.028 380.4C798.534 380.4 799.066 380.608 799.622 381.025C800.179 381.442 800.457 382.053 800.457 382.859C800.457 382.998 800.432 383.206 800.381 383.484C800.356 383.678 799.255 386.776 797.08 392.777C794.904 398.778 793.778 401.806 793.702 401.862C793.626 401.918 793.563 401.945 793.513 401.945Z" fill="#1C9812"/>
<path d="M574.329 159.725C573.363 159.725 572.791 159.706 572.612 159.666C572.433 159.627 572.343 159.411 572.343 159.018C572.343 157.957 572.54 157.309 572.934 157.073C573.005 157.034 576.119 157.014 582.273 157.014C588.428 157.053 591.756 157.112 592.257 157.191C594.261 157.505 595.943 158.055 597.302 158.841C598.662 159.627 599.628 160.531 600.201 161.553C600.774 162.574 601.149 163.419 601.328 164.087C601.507 164.755 601.614 165.423 601.65 166.091C601.65 167.86 601.131 169.51 600.094 171.043C599.056 172.575 597.857 173.754 596.497 174.579C595.138 175.405 593.939 176.073 592.901 176.583C591.863 177.094 591.184 177.35 590.861 177.35L591.237 177.644C593.635 179.138 594.833 181.299 594.833 184.128C594.833 184.561 594.744 185.759 594.565 187.724C594.386 189.689 594.297 191.3 594.297 192.557V193.088C594.297 193.795 594.315 194.345 594.35 194.738C594.386 195.131 594.583 195.485 594.941 195.799C595.299 196.114 595.764 196.291 596.336 196.33C597.338 196.33 598.161 195.898 598.805 195.033C599.45 194.169 599.915 193.245 600.201 192.263C600.38 191.712 600.523 191.378 600.63 191.261C600.738 191.143 601.006 191.084 601.436 191.084C602.151 191.084 602.509 191.32 602.509 191.791C602.509 192.498 602.08 193.618 601.221 195.151C599.861 197.391 598.251 198.511 596.39 198.511H595.907C593.724 198.511 591.917 198.02 590.486 197.037C589.054 196.055 588.267 194.522 588.124 192.439C588.124 191.378 588.392 189.728 588.929 187.488C589.466 185.248 589.734 183.814 589.734 183.185C589.734 181.181 588.965 179.727 587.426 178.823C586.889 178.548 586.442 178.391 586.084 178.352C585.727 178.312 584.456 178.273 582.273 178.234H578.57L576.852 185.897C575.671 191.084 575.081 193.717 575.081 193.795C575.081 193.952 575.099 194.051 575.135 194.09C575.17 194.129 575.296 194.208 575.51 194.326C575.725 194.444 576.029 194.483 576.423 194.444C576.816 194.404 577.407 194.444 578.194 194.561H579.858C580.073 194.876 580.18 195.053 580.18 195.092C580.18 195.131 580.126 195.485 580.019 196.153C579.876 196.664 579.697 197.037 579.482 197.273H578.677C577.389 197.194 575.045 197.155 571.646 197.155C570.429 197.155 569.302 197.155 568.264 197.155C567.226 197.155 566.403 197.155 565.795 197.155C565.187 197.155 564.811 197.175 564.668 197.214C564.06 197.214 563.755 197.037 563.755 196.683C563.755 196.605 563.809 196.33 563.916 195.858C564.095 195.112 564.274 194.699 564.453 194.62C564.596 194.581 564.865 194.561 565.258 194.561H565.58C566.546 194.561 567.62 194.503 568.801 194.385C569.302 194.267 569.642 194.031 569.821 193.677C569.928 193.52 571.216 188.058 573.685 177.291C576.154 166.524 577.389 160.845 577.389 160.256C577.389 159.981 576.369 159.804 574.329 159.725ZM595.8 164.618C595.8 163.36 595.424 162.299 594.672 161.435C593.921 160.57 592.382 160.02 590.056 159.784C589.985 159.784 589.573 159.784 588.822 159.784C588.07 159.784 587.39 159.765 586.782 159.725H585.601C583.919 159.725 582.953 159.922 582.703 160.315C582.667 160.433 582.059 163.046 580.878 168.154C579.697 173.263 579.107 175.876 579.107 175.994C579.107 176.033 580.341 176.053 582.81 176.053C585.601 176.014 587.462 175.876 588.392 175.64C590.683 175.247 592.472 174.088 593.76 172.163C594.332 171.259 594.816 170.08 595.209 168.626C595.603 167.172 595.8 165.836 595.8 164.618Z" fill="#AD1E1E"/>
<path d="M843.313 358.347C842.347 358.347 841.774 358.328 841.595 358.289C841.417 358.249 841.327 358.033 841.327 357.64C841.327 356.579 841.524 355.931 841.918 355.695C841.989 355.656 845.102 355.636 851.257 355.636C857.412 355.675 860.74 355.734 861.241 355.813C863.245 356.127 864.926 356.677 866.286 357.463C867.646 358.249 868.612 359.153 869.185 360.175C869.757 361.196 870.133 362.041 870.312 362.709C870.491 363.377 870.598 364.045 870.634 364.713C870.634 366.482 870.115 368.132 869.077 369.665C868.04 371.197 866.841 372.376 865.481 373.201C864.121 374.027 862.922 374.695 861.885 375.206C860.847 375.716 860.167 375.972 859.845 375.972L860.221 376.267C862.618 377.76 863.817 379.921 863.817 382.75C863.817 383.183 863.728 384.381 863.549 386.346C863.37 388.311 863.28 389.922 863.28 391.179V391.71C863.28 392.417 863.298 392.967 863.334 393.36C863.37 393.753 863.567 394.107 863.924 394.421C864.282 394.736 864.747 394.913 865.32 394.952C866.322 394.952 867.145 394.52 867.789 393.655C868.433 392.791 868.898 391.867 869.185 390.885C869.364 390.335 869.507 390.001 869.614 389.883C869.721 389.765 869.99 389.706 870.419 389.706C871.135 389.706 871.493 389.942 871.493 390.413C871.493 391.12 871.063 392.24 870.204 393.773C868.845 396.013 867.234 397.133 865.374 397.133H864.891C862.708 397.133 860.901 396.642 859.469 395.659C858.038 394.677 857.251 393.144 857.108 391.062C857.108 390.001 857.376 388.35 857.913 386.11C858.45 383.87 858.718 382.436 858.718 381.807C858.718 379.803 857.949 378.349 856.41 377.445C855.873 377.17 855.426 377.013 855.068 376.974C854.71 376.935 853.44 376.895 851.257 376.856H847.553L845.836 384.519C844.655 389.706 844.065 392.339 844.065 392.417C844.065 392.574 844.082 392.673 844.118 392.712C844.154 392.751 844.279 392.83 844.494 392.948C844.709 393.066 845.013 393.105 845.406 393.066C845.8 393.026 846.39 393.066 847.178 393.184H848.842C849.056 393.498 849.164 393.675 849.164 393.714C849.164 393.753 849.11 394.107 849.003 394.775C848.86 395.286 848.681 395.659 848.466 395.895H847.661C846.373 395.816 844.029 395.777 840.629 395.777C839.413 395.777 838.285 395.777 837.248 395.777C836.21 395.777 835.387 395.777 834.779 395.777C834.17 395.777 833.795 395.797 833.651 395.836C833.043 395.836 832.739 395.659 832.739 395.306C832.739 395.227 832.793 394.952 832.9 394.48C833.079 393.734 833.258 393.321 833.437 393.242C833.58 393.203 833.848 393.184 834.242 393.184H834.564C835.53 393.184 836.604 393.125 837.785 393.007C838.285 392.889 838.625 392.653 838.804 392.299C838.912 392.142 840.2 386.68 842.669 375.913C845.138 365.146 846.373 359.467 846.373 358.878C846.373 358.603 845.353 358.426 843.313 358.347ZM864.783 363.24C864.783 361.982 864.408 360.921 863.656 360.057C862.905 359.192 861.366 358.642 859.04 358.406C858.968 358.406 858.557 358.406 857.805 358.406C857.054 358.406 856.374 358.387 855.766 358.347H854.585C852.903 358.347 851.937 358.544 851.686 358.937C851.651 359.055 851.042 361.668 849.861 366.776C848.681 371.885 848.09 374.498 848.09 374.616C848.09 374.655 849.325 374.675 851.794 374.675C854.585 374.636 856.446 374.498 857.376 374.262C859.666 373.869 861.455 372.71 862.744 370.785C863.316 369.881 863.799 368.702 864.193 367.248C864.586 365.794 864.783 364.458 864.783 363.24Z" fill="#1C9812"/>
<path d="M874.697 369.759C874.545 369.759 874.204 369.675 873.673 369.509C873.141 369.342 872.863 369.175 872.838 369.009C872.838 368.814 873.533 365.591 874.925 359.34C876.316 353.089 877.088 349.825 877.24 349.547C877.619 348.658 878.277 348.214 879.213 348.214C879.719 348.214 880.25 348.422 880.807 348.839C881.363 349.255 881.642 349.867 881.642 350.672C881.642 350.811 881.616 351.02 881.566 351.297C881.541 351.492 880.44 354.59 878.264 360.591C876.089 366.592 874.963 369.62 874.887 369.675C874.811 369.731 874.748 369.759 874.697 369.759Z" fill="#1C9812"/>
<path d="M918.345 395.052C917.627 395.052 917.201 395.038 917.068 395.012C916.935 394.985 916.868 394.839 916.868 394.573C916.868 393.854 917.015 393.415 917.308 393.256C917.361 393.229 919.676 393.216 924.253 393.216C928.83 393.242 931.305 393.282 931.678 393.335C933.168 393.548 934.419 393.921 935.43 394.453C936.441 394.985 937.16 395.597 937.586 396.289C938.011 396.981 938.291 397.553 938.424 398.006C938.557 398.458 938.637 398.91 938.663 399.363C938.663 400.56 938.277 401.678 937.506 402.716C936.734 403.754 935.842 404.552 934.831 405.111C933.82 405.67 932.929 406.122 932.157 406.468C931.385 406.814 930.879 406.987 930.64 406.987L930.919 407.187C932.702 408.198 933.594 409.662 933.594 411.578C933.594 411.87 933.527 412.682 933.394 414.013C933.261 415.343 933.195 416.434 933.195 417.286V417.645C933.195 418.124 933.208 418.497 933.235 418.763C933.261 419.029 933.408 419.268 933.674 419.481C933.94 419.694 934.286 419.814 934.712 419.84C935.457 419.84 936.069 419.548 936.548 418.962C937.027 418.377 937.373 417.751 937.586 417.086C937.719 416.714 937.825 416.487 937.905 416.408C937.985 416.328 938.184 416.288 938.504 416.288C939.036 416.288 939.302 416.447 939.302 416.767C939.302 417.246 938.983 418.004 938.344 419.042C937.333 420.559 936.135 421.317 934.751 421.317H934.392C932.769 421.317 931.425 420.985 930.361 420.319C929.296 419.654 928.711 418.616 928.604 417.206C928.604 416.487 928.804 415.37 929.203 413.853C929.602 412.336 929.802 411.365 929.802 410.939C929.802 409.582 929.23 408.597 928.085 407.985C927.686 407.799 927.353 407.692 927.087 407.666C926.821 407.639 925.876 407.612 924.253 407.586H921.499L920.222 412.775C919.343 416.288 918.904 418.071 918.904 418.124C918.904 418.23 918.918 418.297 918.944 418.324C918.971 418.35 919.064 418.403 919.224 418.483C919.383 418.563 919.609 418.59 919.902 418.563C920.195 418.536 920.634 418.563 921.219 418.643H922.457C922.617 418.856 922.696 418.976 922.696 419.002C922.696 419.029 922.656 419.268 922.577 419.721C922.47 420.067 922.337 420.319 922.177 420.479H921.579C920.621 420.426 918.878 420.399 916.35 420.399C915.445 420.399 914.606 420.399 913.835 420.399C913.063 420.399 912.451 420.399 911.999 420.399C911.546 420.399 911.267 420.413 911.16 420.439C910.708 420.439 910.482 420.319 910.482 420.08C910.482 420.027 910.522 419.84 910.601 419.521C910.734 419.015 910.868 418.736 911.001 418.683C911.107 418.656 911.307 418.643 911.599 418.643H911.839C912.557 418.643 913.356 418.603 914.234 418.523C914.606 418.443 914.859 418.284 914.992 418.044C915.072 417.938 916.03 414.239 917.866 406.947C919.703 399.656 920.621 395.81 920.621 395.411C920.621 395.225 919.862 395.105 918.345 395.052ZM934.312 398.365C934.312 397.513 934.033 396.795 933.474 396.209C932.915 395.624 931.771 395.251 930.041 395.092C929.988 395.092 929.682 395.092 929.123 395.092C928.564 395.092 928.059 395.078 927.606 395.052H926.728C925.477 395.052 924.759 395.185 924.573 395.451C924.546 395.531 924.093 397.3 923.215 400.76C922.337 404.219 921.898 405.989 921.898 406.069C921.898 406.096 922.816 406.109 924.652 406.109C926.728 406.082 928.112 405.989 928.804 405.829C930.507 405.563 931.837 404.778 932.795 403.474C933.221 402.862 933.581 402.064 933.873 401.079C934.166 400.095 934.312 399.19 934.312 398.365Z" fill="#1C9812"/>
<path d="M941.691 402.78C941.578 402.78 941.324 402.724 940.929 402.611C940.534 402.498 940.327 402.385 940.308 402.272C940.308 402.141 940.826 399.958 941.861 395.725C942.895 391.492 943.469 389.281 943.582 389.093C943.864 388.491 944.353 388.19 945.05 388.19C945.426 388.19 945.821 388.331 946.235 388.613C946.649 388.895 946.856 389.309 946.856 389.855C946.856 389.949 946.837 390.09 946.799 390.278C946.78 390.41 945.962 392.508 944.344 396.572C942.726 400.635 941.889 402.686 941.832 402.724C941.776 402.761 941.729 402.78 941.691 402.78Z" fill="#1C9812"/>
<path d="M943.215 410.362C943.309 410.099 943.497 409.967 943.779 409.967C943.986 409.967 944.146 410.07 944.259 410.277C944.297 410.353 944.315 414.953 944.315 424.078C944.315 433.203 944.297 437.803 944.259 437.878C944.146 438.085 943.977 438.188 943.751 438.188C943.6 438.188 943.469 438.132 943.356 438.019L943.328 437.991C943.252 437.953 943.215 437.351 943.215 436.185C943.215 435.018 943.205 430.983 943.187 424.078C943.187 415.028 943.196 410.456 943.215 410.362ZM948.746 410.277C948.84 410.07 949 409.967 949.226 409.967C949.358 409.967 949.499 410.023 949.649 410.136L949.677 410.164C949.753 410.202 949.79 410.804 949.79 411.971C949.79 413.137 949.8 417.173 949.819 424.078C949.837 430.983 949.837 435.009 949.819 436.157C949.8 437.304 949.753 437.916 949.677 437.991L949.649 438.019C949.536 438.132 949.405 438.188 949.254 438.188C949.028 438.188 948.859 438.085 948.746 437.878C948.709 437.803 948.69 433.203 948.69 424.078C948.69 414.953 948.709 410.353 948.746 410.277Z" fill="#1C9812"/>
<path d="M800.647 479.21C799.929 479.21 799.503 479.197 799.37 479.17C799.237 479.143 799.17 478.997 799.17 478.731C799.17 478.012 799.317 477.573 799.609 477.414C799.663 477.387 801.978 477.374 806.555 477.374C811.132 477.4 813.607 477.44 813.98 477.494C815.47 477.706 816.721 478.079 817.732 478.611C818.743 479.143 819.462 479.756 819.887 480.447C820.313 481.139 820.593 481.711 820.726 482.164C820.859 482.616 820.938 483.069 820.965 483.521C820.965 484.719 820.579 485.836 819.807 486.874C819.036 487.912 818.144 488.71 817.133 489.269C816.122 489.828 815.23 490.28 814.459 490.626C813.687 490.972 813.181 491.145 812.942 491.145L813.221 491.345C815.004 492.356 815.896 493.82 815.896 495.736C815.896 496.028 815.829 496.84 815.696 498.171C815.563 499.501 815.496 500.592 815.496 501.444V501.803C815.496 502.282 815.51 502.655 815.536 502.921C815.563 503.187 815.709 503.426 815.975 503.639C816.242 503.852 816.587 503.972 817.013 503.999C817.758 503.999 818.37 503.706 818.849 503.12C819.328 502.535 819.674 501.91 819.887 501.244C820.02 500.872 820.127 500.646 820.207 500.566C820.286 500.486 820.486 500.446 820.805 500.446C821.338 500.446 821.604 500.606 821.604 500.925C821.604 501.404 821.284 502.162 820.646 503.2C819.635 504.717 818.437 505.476 817.053 505.476H816.694C815.071 505.476 813.727 505.143 812.662 504.478C811.598 503.812 811.012 502.775 810.906 501.364C810.906 500.646 811.105 499.528 811.505 498.011C811.904 496.494 812.103 495.523 812.103 495.097C812.103 493.74 811.531 492.755 810.387 492.143C809.988 491.957 809.655 491.85 809.389 491.824C809.123 491.797 808.178 491.771 806.555 491.744H803.801L802.523 496.933C801.645 500.446 801.206 502.229 801.206 502.282C801.206 502.389 801.219 502.455 801.246 502.482C801.273 502.508 801.366 502.562 801.525 502.641C801.685 502.721 801.911 502.748 802.204 502.721C802.497 502.695 802.936 502.721 803.521 502.801H804.759C804.918 503.014 804.998 503.134 804.998 503.16C804.998 503.187 804.958 503.426 804.878 503.879C804.772 504.225 804.639 504.478 804.479 504.637H803.88C802.922 504.584 801.179 504.557 798.651 504.557C797.747 504.557 796.908 504.557 796.137 504.557C795.365 504.557 794.753 504.557 794.3 504.557C793.848 504.557 793.568 504.571 793.462 504.597C793.01 504.597 792.783 504.478 792.783 504.238C792.783 504.185 792.823 503.999 792.903 503.679C793.036 503.174 793.169 502.894 793.302 502.841C793.409 502.814 793.608 502.801 793.901 502.801H794.141C794.859 502.801 795.657 502.761 796.536 502.681C796.908 502.602 797.161 502.442 797.294 502.202C797.374 502.096 798.332 498.397 800.168 491.105C802.004 483.814 802.922 479.968 802.922 479.569C802.922 479.383 802.164 479.263 800.647 479.21ZM816.614 482.523C816.614 481.672 816.335 480.953 815.776 480.368C815.217 479.782 814.073 479.41 812.343 479.25C812.29 479.25 811.984 479.25 811.425 479.25C810.866 479.25 810.36 479.237 809.908 479.21H809.03C807.779 479.21 807.061 479.343 806.874 479.609C806.848 479.689 806.395 481.459 805.517 484.918C804.639 488.378 804.2 490.147 804.2 490.227C804.2 490.254 805.118 490.267 806.954 490.267C809.03 490.24 810.414 490.147 811.105 489.988C812.809 489.722 814.139 488.937 815.097 487.633C815.523 487.02 815.882 486.222 816.175 485.238C816.468 484.253 816.614 483.348 816.614 482.523Z" fill="#1C9812"/>
<path d="M823.993 486.94C823.88 486.94 823.626 486.884 823.231 486.771C822.836 486.658 822.629 486.545 822.61 486.432C822.61 486.301 823.128 484.118 824.162 479.885C825.197 475.652 825.771 473.441 825.884 473.253C826.166 472.651 826.655 472.35 827.351 472.35C827.728 472.35 828.123 472.491 828.537 472.773C828.951 473.055 829.158 473.469 829.158 474.015C829.158 474.109 829.139 474.25 829.101 474.438C829.082 474.57 828.264 476.668 826.646 480.732C825.028 484.796 824.191 486.846 824.134 486.884C824.078 486.922 824.031 486.94 823.993 486.94Z" fill="#1C9812"/>
<path d="M832.177 496.097C832.177 496.078 832.186 496.05 832.205 496.012C832.224 495.974 832.243 495.946 832.262 495.927C832.281 495.908 832.309 495.871 832.346 495.814C832.384 495.758 832.422 495.73 832.459 495.73C832.497 495.73 832.544 495.711 832.6 495.673C832.657 495.636 832.723 495.626 832.798 495.645C833.005 495.683 833.174 495.824 833.306 496.068V513.368H841.744C842.026 513.519 842.167 513.707 842.167 513.933C842.167 514.158 842.026 514.347 841.744 514.497H823.767C823.748 514.497 823.711 514.478 823.654 514.441C823.598 514.403 823.522 514.337 823.428 514.243C823.334 514.149 823.297 514.046 823.315 513.933C823.334 513.82 823.372 513.716 823.428 513.622C823.485 513.528 823.551 513.462 823.626 513.425C823.701 513.387 823.748 513.368 823.767 513.368H832.177V496.097Z" fill="#1C9812"/>
</svg>
