<svg width="100%" viewBox="0 0 1532 557" fill="none" xmlns="http://www.w3.org/2000/svg">
<path d="M478.924 383.841L476.323 386.88C477.873 388.206 480.173 388.154 481.66 386.758L478.924 383.841ZM577.298 291.566L581.232 292.285C581.543 290.587 580.728 288.88 579.212 288.054C577.696 287.227 575.821 287.467 574.561 288.648L577.298 291.566ZM561.464 378.165L557.957 380.089C558.772 381.574 560.432 382.385 562.103 382.114C563.775 381.844 565.095 380.55 565.399 378.885L561.464 378.165ZM399.676 77.3376C397.556 76.7193 395.335 77.9373 394.717 80.0581L384.641 114.619C384.022 116.74 385.24 118.961 387.361 119.579C389.482 120.197 391.702 118.979 392.321 116.858L401.277 86.1374L431.998 95.094C434.119 95.7123 436.34 94.4942 436.958 92.3734C437.576 90.2526 436.358 88.032 434.237 87.4137L399.676 77.3376ZM128.386 89.2225L476.323 386.88L481.524 380.801L133.586 83.1435L128.386 89.2225ZM481.66 386.758L580.034 294.483L574.561 288.648L476.187 380.924L481.66 386.758ZM573.363 290.846L557.53 377.446L565.399 378.885L581.232 292.285L573.363 290.846ZM564.971 376.242L402.064 79.254L395.05 83.1014L557.957 380.089L564.971 376.242Z" fill="#AD1E1E"/>
<path d="M437.63 388.726L437.191 392.702C438.944 392.895 440.616 391.918 441.309 390.296C442.001 388.674 441.549 386.791 440.197 385.659L437.63 388.726ZM81.2547 346.563C79.5307 347.944 79.2529 350.462 80.6343 352.186L103.145 380.28C104.527 382.004 107.044 382.281 108.768 380.9C110.492 379.519 110.77 377.001 109.388 375.277L89.3786 350.305L114.351 330.295C116.075 328.914 116.353 326.397 114.971 324.673C113.59 322.949 111.072 322.671 109.348 324.052L81.2547 346.563ZM107.179 117.354L435.062 391.793L440.197 385.659L112.314 111.219L107.179 117.354ZM438.068 384.75L84.1945 345.709L83.3172 353.66L437.191 392.702L438.068 384.75Z" fill="#1C9812"/>
<path d="M376.23 394.124L373.634 397.167C374.481 397.89 375.591 398.227 376.697 398.097C377.803 397.967 378.804 397.382 379.461 396.482L376.23 394.124ZM518.165 199.683L521.396 202.042C522.219 200.914 522.395 199.439 521.859 198.149C521.324 196.86 520.155 195.943 518.775 195.73L518.165 199.683ZM356.888 171.952C355.107 173.258 354.721 175.761 356.026 177.543L377.305 206.581C378.611 208.363 381.114 208.748 382.896 207.443C384.678 206.137 385.064 203.634 383.758 201.852L364.844 176.04L390.655 157.126C392.437 155.82 392.823 153.317 391.517 151.535C390.211 149.753 387.708 149.367 385.927 150.673L356.888 171.952ZM85.6151 151.489L373.634 397.167L378.826 391.081L90.8068 145.402L85.6151 151.489ZM379.461 396.482L521.396 202.042L514.934 197.325L372.999 391.766L379.461 396.482ZM518.775 195.73L359.862 171.225L358.643 179.131L517.555 203.637L518.775 195.73Z" fill="#2739DC"/>
<path d="M511.654 26.3071C507.322 46.1801 505.04 66.8187 505.04 87.9902C505.04 247.217 634.119 376.296 793.346 376.296C952.572 376.296 1081.65 247.217 1081.65 87.9902C1081.65 66.8187 1079.37 46.1801 1075.04 26.3071" stroke="#888888" stroke-width="12"/>
<path d="M23.5244 452.943C604.588 356.55 929.707 354.05 1508.11 467.143" stroke="var(--fg, black)" stroke-width="12"/>
</svg>
