<svg width="100%" viewBox="0 0 1533 557" fill="none" xmlns="http://www.w3.org/2000/svg">
<g clip-path="url(#clip0_4211_64830)">
<path d="M734.177 277.924C734.177 250.763 725.552 224.303 709.544 202.36" stroke="#2739DC" stroke-width="8"/>
<path d="M602.747 12.2331C601.185 10.671 598.652 10.671 597.09 12.2331L571.634 37.6889C570.072 39.251 570.072 41.7837 571.634 43.3458C573.196 44.9079 575.729 44.9079 577.291 43.3458L599.918 20.7184L622.546 43.3458C624.108 44.9079 626.641 44.9079 628.203 43.3458C629.765 41.7837 629.765 39.251 628.203 37.6889L602.747 12.2331ZM597.09 543.614C598.652 545.176 601.185 545.176 602.747 543.614L628.203 518.158C629.765 516.596 629.765 514.064 628.203 512.501C626.641 510.939 624.108 510.939 622.546 512.501L599.918 535.129L577.291 512.501C575.729 510.939 573.196 510.939 571.634 512.501C570.072 514.064 570.072 516.596 571.634 518.158L597.09 543.614ZM550.187 275.095C548.625 276.657 548.625 279.19 550.187 280.752L575.643 306.208C577.205 307.77 579.737 307.77 581.299 306.208C582.862 304.646 582.862 302.113 581.299 300.551L558.672 277.924L581.299 255.296C582.862 253.734 582.862 251.201 581.299 249.639C579.737 248.077 577.205 248.077 575.643 249.639L550.187 275.095ZM599.918 281.924H978.759V273.924H599.918V281.924ZM603.918 277.924V15.0615H595.918V277.924H603.918ZM603.918 540.786L603.918 277.924H595.918L595.918 540.786H603.918ZM599.918 273.924H553.015V281.924H599.918V273.924Z" fill="var(--fg, black)"/>
<path d="M669.943 326.756C679.784 312.643 685.132 295.887 685.285 278.683C685.438 261.479 680.389 244.631 670.801 230.346" stroke="#AD1E1E" stroke-width="8"/>
<path d="M697.608 323.524C697.608 319.662 698.347 315.591 699.823 311.312C701.3 307.034 703.307 303.342 705.844 300.237C708.381 297.132 711.012 295.352 713.739 294.898C713.777 294.898 713.928 294.898 714.193 294.898C714.458 294.898 714.685 294.879 714.875 294.841C716.919 294.993 718.51 295.92 719.646 297.624C721.122 299.896 721.861 302.944 721.861 306.769C721.861 311.123 721.009 315.553 719.305 320.059C717.601 324.565 715.424 328.257 712.773 331.135C710.123 334.012 707.586 335.451 705.162 335.451H704.765C703.402 335.451 702.228 335.073 701.243 334.315C700.259 333.558 699.521 332.555 699.028 331.305C698.536 330.055 698.176 328.787 697.949 327.5C697.722 326.212 697.608 324.887 697.608 323.524ZM717.374 302.736C717.374 298.874 716.37 296.943 714.364 296.943C713 296.943 711.675 297.795 710.388 299.499C709.1 301.203 708.04 303.134 707.207 305.292C706.374 307.45 705.73 309.343 705.276 310.972C704.822 312.6 704.575 313.546 704.538 313.812C706.393 313.849 708.229 313.868 710.047 313.868L715.556 313.812C715.594 313.774 715.746 313.149 716.011 311.937C716.276 310.726 716.579 309.211 716.919 307.393C717.26 305.576 717.412 304.023 717.374 302.736ZM702.039 327.386C702.039 331.4 703.042 333.406 705.049 333.406C705.617 333.406 706.223 333.217 706.866 332.839C707.51 332.46 708.286 331.74 709.195 330.68C710.104 329.62 711.012 327.973 711.921 325.739C712.83 323.505 713.739 320.741 714.648 317.447L714.931 316.481H703.856C703.856 316.595 703.686 317.314 703.345 318.639C703.004 319.965 702.701 321.441 702.436 323.069C702.171 324.698 702.039 326.136 702.039 327.386Z" fill="#AD1E1E"/>
<path d="M464.31 312.221C464.31 312.221 464.31 311.943 464.31 311.386C464.31 310.83 464.609 310.402 465.208 310.103H484.401V300.474L484.465 290.846C484.893 290.289 485.3 290.011 485.685 290.011C486.241 290.011 486.669 290.332 486.969 290.974V310.103H506.097C506.739 310.445 507.06 310.873 507.06 311.386C507.06 311.9 506.739 312.328 506.097 312.67H486.969V331.799C486.626 332.398 486.241 332.697 485.813 332.697H485.685H485.557C485.043 332.697 484.658 332.398 484.401 331.799V312.67H465.208C464.609 312.371 464.31 311.943 464.31 311.386V312.221Z" fill="var(--fg, black)"/>
<path d="M532.928 305.739C532.5 305.739 531.366 305.503 529.526 305.032C527.686 304.562 526.338 304.326 525.482 304.326C524.626 304.326 523.899 304.412 523.3 304.583C522.701 304.754 522.209 304.968 521.823 305.225C521.438 305.482 521.182 305.717 521.053 305.931C520.925 306.145 520.775 306.38 520.604 306.637L520.475 306.894C520.347 307.022 520.026 307.086 519.513 307.086C518.614 307.086 518.165 306.915 518.165 306.573C518.165 306.359 518.229 306.059 518.357 305.674C518.914 304.005 519.834 302.572 521.117 301.374C522.401 300.175 523.813 299.448 525.354 299.191C525.867 299.106 526.231 299.063 526.445 299.063C527.515 299.063 528.478 299.427 529.334 300.154C530.189 300.882 531.003 301.588 531.773 302.272C532.543 302.957 533.356 303.321 534.212 303.363C535.153 303.363 536.095 302.657 537.036 301.245C537.978 299.833 538.47 299.127 538.513 299.127C538.556 299.084 538.876 299.063 539.476 299.063H540.31C540.567 299.32 540.695 299.491 540.695 299.576C540.695 299.747 540.588 300.047 540.374 300.475C540.16 300.903 539.861 301.352 539.476 301.823C539.09 302.294 538.727 302.764 538.384 303.235C538.042 303.706 537.742 304.112 537.486 304.455L537.036 305.032C535.196 307.215 532.286 310.103 528.307 313.698C524.327 317.293 521.866 319.603 520.925 320.63L520.155 321.401L521.117 321.465C522.059 321.465 523.428 321.7 525.225 322.171C527.023 322.642 528.371 322.877 529.269 322.877C530.896 322.877 532.393 322.471 533.763 321.657C535.132 320.844 536.031 319.775 536.459 318.448C536.63 318.063 536.78 317.828 536.908 317.742C537.036 317.656 537.357 317.614 537.871 317.614C538.684 317.614 539.09 317.828 539.09 318.255C539.09 318.469 539.069 318.662 539.026 318.833C538.299 321.486 536.887 323.69 534.79 325.445C532.693 327.199 530.596 328.098 528.499 328.141C527.387 328.141 526.402 327.777 525.546 327.049C524.691 326.322 523.856 325.594 523.043 324.867C522.23 324.139 521.417 323.776 520.604 323.776C518.721 323.776 517.031 325.06 515.533 327.627C515.276 327.969 514.912 328.141 514.442 328.141H514.121H513.286C513.03 327.884 512.901 327.691 512.901 327.563C512.901 326.921 514.142 325.081 516.624 322.043C518.293 320.117 521.117 317.335 525.097 313.698C529.077 310.061 531.537 307.75 532.479 306.766C532.992 306.081 533.142 305.739 532.928 305.739Z" fill="var(--fg, black)"/>
<path d="M932.923 148.116C932.963 148.116 934.416 148.015 937.282 147.813C940.148 147.611 941.621 147.49 941.702 147.45C942.186 147.45 942.429 147.631 942.429 147.995C942.429 148.439 941.702 151.486 940.249 157.137C938.715 163.111 937.948 166.159 937.948 166.28C937.948 166.361 938.089 166.26 938.372 165.977C940.834 163.798 943.458 162.708 946.243 162.708C948.423 162.708 950.179 163.253 951.511 164.343C952.843 165.432 953.529 167.027 953.569 169.126C953.569 171.184 952.802 174.373 951.269 178.692C949.735 183.011 948.968 185.595 948.968 186.442C949.008 187.007 949.109 187.391 949.27 187.593C949.432 187.795 949.735 187.895 950.179 187.895C951.309 187.895 952.358 187.29 953.327 186.079C954.296 184.868 955.083 183.213 955.689 181.114C955.81 180.67 955.931 180.408 956.052 180.327C956.173 180.246 956.496 180.206 957.021 180.206C957.828 180.206 958.232 180.367 958.232 180.69C958.232 180.731 958.151 181.033 957.989 181.599C957.343 183.98 956.314 185.938 954.901 187.472C953.529 189.207 951.894 190.075 949.997 190.075H949.694C947.797 190.075 946.425 189.53 945.577 188.44C944.729 187.351 944.306 186.2 944.306 184.989C944.306 184.343 945.032 181.962 946.485 177.845C947.938 173.727 948.685 170.639 948.726 168.581C948.726 166.199 947.838 165.009 946.061 165.009H945.759C942.408 165.009 939.502 166.986 937.04 170.942L936.616 171.729L934.557 179.903C933.266 185.151 932.519 188.017 932.317 188.501C931.792 189.591 930.904 190.136 929.653 190.136C929.088 190.136 928.604 189.954 928.2 189.591C927.796 189.228 927.574 188.864 927.534 188.501C927.534 187.936 929.007 181.8 931.954 170.095L936.434 152.172C936.434 151.648 936.293 151.325 936.011 151.204C935.728 151.083 934.941 150.982 933.649 150.901H932.378C932.136 150.659 932.014 150.497 932.014 150.417C932.014 150.336 932.055 149.952 932.136 149.266C932.337 148.499 932.6 148.116 932.923 148.116Z" fill="#2739DC"/>
<path d="M859.682 247.859C858.912 247.859 858.299 247.602 857.843 247.089C857.386 246.576 857.158 245.948 857.158 245.207C857.158 243.182 857.914 241.428 859.425 239.945C860.937 238.462 862.819 237.721 865.072 237.721C867.667 237.721 869.835 238.519 871.574 240.116C873.314 241.713 874.198 243.781 874.227 246.319C874.227 247.545 873.942 248.715 873.371 249.827C872.801 250.939 872.116 251.909 871.318 252.736C870.519 253.563 869.379 254.618 867.896 255.901C866.869 256.785 865.443 258.097 863.618 259.837L861.094 262.233L864.345 262.275C868.822 262.275 871.204 262.204 871.489 262.061C871.689 262.004 872.031 260.735 872.516 258.254V258.126H874.227V258.254C874.198 258.34 874.013 259.637 873.671 262.147C873.328 264.657 873.115 265.969 873.029 266.083V266.211H857.158V265.398V264.885C857.158 264.685 857.244 264.471 857.415 264.243C857.586 264.015 858.014 263.516 858.698 262.746C859.525 261.833 860.238 261.035 860.837 260.35C861.094 260.065 861.579 259.538 862.292 258.768C863.005 257.998 863.489 257.47 863.746 257.185C864.003 256.9 864.416 256.429 864.987 255.773C865.557 255.117 865.956 254.632 866.184 254.319C866.413 254.005 866.741 253.577 867.168 253.035C867.596 252.493 867.896 252.037 868.067 251.666C868.238 251.296 868.452 250.882 868.708 250.426C868.965 249.969 869.15 249.513 869.264 249.057C869.379 248.601 869.478 248.173 869.564 247.773C869.649 247.374 869.692 246.904 869.692 246.362C869.692 244.565 869.207 243.011 868.238 241.699C867.268 240.387 865.885 239.731 864.088 239.731C863.147 239.731 862.32 239.974 861.607 240.458C860.894 240.943 860.395 241.414 860.11 241.87C859.825 242.326 859.682 242.597 859.682 242.683C859.682 242.711 859.753 242.726 859.896 242.726C860.409 242.726 860.937 242.925 861.479 243.325C862.021 243.724 862.292 244.38 862.292 245.292C862.292 246.005 862.063 246.604 861.607 247.089C861.151 247.574 860.509 247.831 859.682 247.859Z" fill="#AD1E1E"/>
<path d="M882.268 236.994C882.297 236.994 883.324 236.922 885.348 236.78C887.373 236.637 888.414 236.551 888.471 236.523C888.814 236.523 888.985 236.651 888.985 236.908C888.985 237.222 888.471 239.375 887.445 243.367C886.361 247.588 885.819 249.741 885.819 249.827C885.819 249.884 885.919 249.813 886.118 249.613C887.858 248.073 889.712 247.303 891.68 247.303C893.22 247.303 894.46 247.688 895.401 248.458C896.343 249.228 896.827 250.355 896.856 251.838C896.856 253.292 896.314 255.545 895.23 258.597C894.147 261.648 893.605 263.473 893.605 264.072C893.633 264.471 893.705 264.742 893.819 264.885C893.933 265.028 894.147 265.099 894.46 265.099C895.259 265.099 896 264.671 896.685 263.815C897.369 262.96 897.925 261.791 898.353 260.308C898.439 259.994 898.524 259.809 898.61 259.752C898.695 259.695 898.923 259.666 899.294 259.666C899.865 259.666 900.15 259.78 900.15 260.008C900.15 260.037 900.093 260.251 899.979 260.65C899.522 262.333 898.795 263.716 897.797 264.799C896.827 266.026 895.672 266.639 894.332 266.639H894.118C892.778 266.639 891.808 266.254 891.209 265.484C890.61 264.714 890.311 263.901 890.311 263.045C890.311 262.589 890.824 260.907 891.851 257.998C892.877 255.089 893.405 252.907 893.434 251.453C893.434 249.77 892.806 248.929 891.551 248.929H891.337C888.97 248.929 886.917 250.326 885.177 253.121L884.878 253.677L883.423 259.452C882.511 263.16 881.983 265.184 881.841 265.527C881.47 266.297 880.843 266.682 879.958 266.682C879.559 266.682 879.217 266.553 878.932 266.297C878.647 266.04 878.49 265.783 878.461 265.527C878.461 265.127 879.502 260.792 881.584 252.522L884.75 239.86C884.75 239.489 884.65 239.261 884.45 239.175C884.251 239.09 883.694 239.018 882.782 238.961H881.883C881.712 238.79 881.627 238.676 881.627 238.619C881.627 238.562 881.655 238.291 881.712 237.806C881.855 237.264 882.04 236.994 882.268 236.994Z" fill="#AD1E1E"/>
<path d="M740.429 219.928C740.429 217.134 740.963 214.189 742.032 211.093C743.1 207.998 744.552 205.327 746.387 203.08C748.223 200.834 750.127 199.546 752.099 199.218C752.127 199.218 752.236 199.218 752.428 199.218C752.62 199.218 752.784 199.204 752.921 199.177C754.4 199.286 755.551 199.957 756.373 201.19C757.441 202.834 757.975 205.039 757.975 207.806C757.975 210.956 757.359 214.162 756.126 217.422C754.893 220.682 753.318 223.353 751.401 225.435C749.483 227.517 747.648 228.558 745.894 228.558H745.607C744.62 228.558 743.771 228.284 743.059 227.736C742.347 227.188 741.812 226.462 741.456 225.558C741.1 224.654 740.84 223.736 740.676 222.805C740.511 221.873 740.429 220.914 740.429 219.928ZM754.729 204.888C754.729 202.094 754.003 200.697 752.551 200.697C751.565 200.697 750.606 201.313 749.675 202.546C748.743 203.779 747.976 205.176 747.374 206.738C746.771 208.299 746.305 209.669 745.976 210.847C745.648 212.025 745.47 212.71 745.442 212.901C746.785 212.929 748.113 212.943 749.428 212.943L753.414 212.901C753.442 212.874 753.551 212.422 753.743 211.545C753.935 210.669 754.154 209.573 754.4 208.258C754.647 206.943 754.756 205.82 754.729 204.888ZM743.634 222.723C743.634 225.626 744.36 227.078 745.812 227.078C746.223 227.078 746.661 226.941 747.127 226.667C747.593 226.393 748.154 225.873 748.812 225.106C749.469 224.339 750.127 223.147 750.784 221.531C751.442 219.915 752.099 217.915 752.757 215.531L752.962 214.833H744.949C744.949 214.915 744.826 215.435 744.579 216.394C744.333 217.353 744.114 218.422 743.922 219.599C743.73 220.777 743.634 221.818 743.634 222.723Z" fill="#2739DC"/>
<path d="M769.598 208.56C769.947 208.56 770.237 208.676 770.47 208.908C770.702 209.141 770.819 209.412 770.819 209.722C770.819 209.916 767.467 219.254 760.764 237.737C754.06 256.22 750.592 265.674 750.36 266.1C750.088 266.488 749.759 266.682 749.372 266.682C749.1 266.682 748.849 266.585 748.616 266.391C748.384 266.197 748.267 265.926 748.267 265.577C748.267 265.19 751.638 255.735 758.381 237.214C765.123 218.692 768.552 209.334 768.668 209.141C768.823 208.753 769.133 208.56 769.598 208.56Z" fill="#2739DC"/>
<path d="M768.846 251.112C768.106 251.112 767.517 250.865 767.079 250.372C766.641 249.879 766.421 249.276 766.421 248.564C766.421 246.619 767.147 244.934 768.599 243.51C770.051 242.085 771.859 241.373 774.023 241.373C776.516 241.373 778.598 242.14 780.27 243.674C781.941 245.208 782.79 247.194 782.817 249.632C782.817 250.81 782.543 251.933 781.995 253.002C781.447 254.07 780.79 255.002 780.023 255.796C779.256 256.591 778.16 257.604 776.736 258.837C775.749 259.686 774.38 260.946 772.626 262.617L770.202 264.919L773.325 264.96C777.626 264.96 779.913 264.891 780.187 264.754C780.379 264.699 780.708 263.48 781.174 261.097V260.974H782.817V261.097C782.79 261.179 782.612 262.426 782.283 264.836C781.954 267.247 781.749 268.507 781.667 268.617V268.74H766.421V267.959V267.466C766.421 267.275 766.504 267.069 766.668 266.85C766.832 266.631 767.243 266.151 767.901 265.412C768.695 264.535 769.38 263.768 769.955 263.111C770.202 262.837 770.668 262.33 771.352 261.59C772.037 260.851 772.503 260.344 772.75 260.07C772.996 259.796 773.393 259.344 773.941 258.714C774.489 258.084 774.873 257.618 775.092 257.317C775.311 257.015 775.626 256.604 776.037 256.084C776.448 255.563 776.736 255.125 776.9 254.769C777.064 254.413 777.27 254.015 777.516 253.577C777.763 253.139 777.941 252.701 778.051 252.262C778.16 251.824 778.256 251.413 778.338 251.029C778.42 250.646 778.461 250.194 778.461 249.673C778.461 247.948 777.996 246.454 777.064 245.194C776.133 243.934 774.804 243.304 773.078 243.304C772.174 243.304 771.38 243.537 770.695 244.003C770.01 244.468 769.531 244.92 769.257 245.359C768.983 245.797 768.846 246.057 768.846 246.139C768.846 246.167 768.914 246.181 769.051 246.181C769.544 246.181 770.051 246.372 770.572 246.756C771.092 247.139 771.352 247.769 771.352 248.646C771.352 249.331 771.133 249.906 770.695 250.372C770.257 250.838 769.64 251.084 768.846 251.112Z" fill="#2739DC"/>
<path d="M908.136 65.8584L908.136 77.685L912.136 77.685L912.136 65.8584L908.136 65.8584ZM908.136 101.338L908.136 124.992L912.136 124.992L912.136 101.338L908.136 101.338ZM908.136 148.645L908.136 172.298L912.136 172.298L912.136 148.645L908.136 148.645ZM908.136 195.952L908.136 219.605L912.136 219.605L912.136 195.952L908.136 195.952ZM908.136 243.258L908.136 266.911L912.136 266.911L912.136 243.258L908.136 243.258ZM908.136 290.565L908.136 314.218L912.136 314.218L912.136 290.565L908.136 290.565ZM908.136 337.871L908.136 361.525L912.136 361.525L912.136 337.871L908.136 337.871ZM908.136 385.178L908.136 408.831L912.136 408.831L912.136 385.178L908.136 385.178ZM908.136 432.484L908.136 456.138L912.136 456.138L912.136 432.484L908.136 432.484ZM908.136 479.791L908.136 491.618L912.136 491.618L912.136 479.791L908.136 479.791ZM906.136 65.8584L906.136 77.685L914.136 77.685L914.136 65.8584L906.136 65.8584ZM906.136 101.338L906.136 124.992L914.136 124.992L914.136 101.338L906.136 101.338ZM906.136 148.645L906.136 172.298L914.136 172.298L914.136 148.645L906.136 148.645ZM906.136 195.952L906.136 219.605L914.136 219.605L914.136 195.952L906.136 195.952ZM906.136 243.258L906.136 266.911L914.136 266.911L914.136 243.258L906.136 243.258ZM906.136 290.565L906.136 314.218L914.136 314.218L914.136 290.565L906.136 290.565ZM906.136 337.871L906.136 361.525L914.136 361.525L914.136 337.871L906.136 337.871ZM906.136 385.178L906.136 408.831L914.136 408.831L914.136 385.178L906.136 385.178ZM906.136 432.484L906.136 456.138L914.136 456.138L914.136 432.484L906.136 432.484ZM906.136 479.791L906.136 491.618L914.136 491.618L914.136 479.791L906.136 479.791Z" fill="#AD1E1E"/>
<path d="M943.25 64.9745C942.762 64.4864 941.97 64.4864 941.482 64.9745L933.527 72.9295C933.039 73.4176 933.039 74.2091 933.527 74.6972C934.016 75.1854 934.807 75.1854 935.295 74.6972L942.366 67.6262L949.437 74.6972C949.925 75.1854 950.717 75.1854 951.205 74.6972C951.693 74.2091 951.693 73.4176 951.205 72.9295L943.25 64.9745ZM941.116 65.8584L941.116 75.1881L943.616 75.1881L943.616 65.8584L941.116 65.8584ZM941.116 93.8474L941.116 112.507L943.616 112.507L943.616 93.8474L941.116 93.8474ZM941.116 131.166L941.116 140.496L943.616 140.496L943.616 131.166L941.116 131.166ZM944.134 64.0906C943.158 63.1143 941.575 63.1143 940.598 64.0906L924.689 80.0005C923.712 80.9768 923.712 82.5598 924.689 83.5361C925.665 84.5124 927.248 84.5124 928.224 83.5361L942.366 69.3939L956.508 83.5361C957.485 84.5124 959.068 84.5124 960.044 83.5361C961.02 82.5598 961.02 80.9768 960.044 80.0005L944.134 64.0906ZM939.866 65.8584L939.866 75.1881L944.866 75.1881L944.866 65.8584L939.866 65.8584ZM939.866 93.8474L939.866 112.507L944.866 112.507L944.866 93.8474L939.866 93.8474ZM939.866 131.166L939.866 140.496L944.866 140.496L944.866 131.166L939.866 131.166Z" fill="#2739DC"/>
<path d="M941.999 272.39C942.487 272.878 943.279 272.878 943.767 272.39L951.722 264.435C952.21 263.947 952.21 263.155 951.722 262.667C951.233 262.179 950.442 262.179 949.954 262.667L942.883 269.738L935.812 262.667C935.324 262.179 934.532 262.179 934.044 262.667C933.556 263.155 933.556 263.947 934.044 264.435L941.999 272.39ZM941.633 199.603L941.633 208.59L944.133 208.59L944.133 199.603L941.633 199.603ZM941.633 226.566L941.633 244.542L944.133 244.542L944.133 226.566L941.633 226.566ZM941.633 262.518L941.633 271.506L944.133 271.506L944.133 262.518L941.633 262.518ZM941.115 273.274C942.091 274.25 943.674 274.25 944.651 273.274L960.56 257.364C961.537 256.388 961.537 254.805 960.56 253.828C959.584 252.852 958.001 252.852 957.025 253.828L942.883 267.971L928.741 253.828C927.764 252.852 926.181 252.852 925.205 253.828C924.229 254.805 924.229 256.388 925.205 257.364L941.115 273.274ZM940.383 199.603L940.383 208.59L945.383 208.59L945.383 199.603L940.383 199.603ZM940.383 226.566L940.383 244.542L945.383 244.542L945.383 226.566L940.383 226.566ZM940.383 262.518L940.383 271.506L945.383 271.506L945.383 262.518L940.383 262.518Z" fill="#2739DC"/>
<path d="M938.695 45.0661L599.918 278.946L938.695 512.826" stroke="var(--fg, black)" stroke-width="8" stroke-linejoin="round"/>
<rect x="899.516" y="286.66" width="22.5556" height="29.7123" fill="var(--bg, white)"/>
<path d="M888.225 306.205C888.225 306.205 888.225 306.041 888.225 305.714C888.225 305.387 888.401 305.135 888.753 304.959H910.68C911.058 305.16 911.246 305.412 911.246 305.714C911.246 306.016 911.058 306.267 910.68 306.469H888.753C888.401 306.293 888.225 306.041 888.225 305.714V306.205Z" fill="var(--fg, black)"/>
<path d="M919.458 293.333L918.967 293.522C918.615 293.647 918.112 293.773 917.458 293.899C916.804 294.025 916.074 294.113 915.269 294.163H914.552V292.427H915.269C916.451 292.377 917.546 292.188 918.552 291.861C919.559 291.534 920.263 291.232 920.666 290.955C921.068 290.679 921.42 290.402 921.722 290.125C921.773 290.05 921.924 290.012 922.175 290.012C922.402 290.012 922.615 290.087 922.817 290.238V301.522L922.855 312.844C923.031 313.02 923.182 313.134 923.307 313.184C923.433 313.234 923.735 313.285 924.213 313.335C924.691 313.385 925.471 313.41 926.553 313.41H927.534V315.146H927.119C926.591 315.071 924.591 315.033 921.118 315.033C917.697 315.033 915.722 315.071 915.193 315.146H914.74V313.41H915.722C916.275 313.41 916.753 313.41 917.156 313.41C917.558 313.41 917.873 313.398 918.099 313.373C918.326 313.348 918.527 313.31 918.703 313.259C918.879 313.209 918.98 313.184 919.005 313.184C919.03 313.184 919.106 313.121 919.231 312.995C919.357 312.87 919.433 312.819 919.458 312.844V293.333Z" fill="var(--fg, black)"/>
</g>
<defs>
<clipPath id="clip0_4211_64830">
<rect width="1532" height="556" fill="var(--bg, white)" transform="translate(0.845703 0.103516)"/>
</clipPath>
</defs>
</svg>
