<svg width="100%" viewBox="0 0 1532 556" fill="none" xmlns="http://www.w3.org/2000/svg">

<circle cx="426" cy="281" r="209" fill="url(#paint0_radial_4203_64041)" stroke="var(--fg, black)" stroke-width="12"/>
<path d="M536.711 222.839C537.727 219.685 535.993 216.305 532.839 215.289L481.439 198.736C478.284 197.721 474.904 199.454 473.888 202.608C472.873 205.763 474.606 209.143 477.76 210.159L523.45 224.872L508.736 270.561C507.721 273.716 509.454 277.096 512.608 278.112C515.763 279.127 519.143 277.394 520.159 274.24L536.711 222.839ZM433.022 277.989L445.611 271.533L440.136 260.855L427.546 267.311L433.022 277.989ZM470.79 258.62L495.969 245.708L490.494 235.03L465.315 247.942L470.79 258.62ZM521.148 232.795L533.738 226.339L528.262 215.661L515.673 222.117L521.148 232.795Z" fill="#AD1E1E"/>
<path d="M666.704 156.862C667.732 153.712 666.012 150.325 662.862 149.296L611.53 132.535C608.38 131.506 604.992 133.226 603.964 136.376C602.935 139.526 604.655 142.913 607.805 143.942L653.434 158.841L638.535 204.47C637.506 207.62 639.226 211.008 642.376 212.036C645.526 213.065 648.913 211.345 649.942 208.195L666.704 156.862ZM533.716 226.35L663.716 160.35L658.284 149.65L528.284 215.65L533.716 226.35Z" fill="var(--fg, black)"/>
<circle cx="430.5" cy="272.5" r="14.5" fill="#AD1E1E"/>
<circle cx="531.5" cy="220.5" r="14.5" fill="var(--fg, black)"/>
<path d="M568.876 224.221C568.876 223.948 567.763 223.772 565.537 223.694C564.6 223.694 563.995 223.674 563.722 223.635C563.449 223.596 563.312 223.401 563.312 223.05C563.312 223.011 563.351 222.796 563.429 222.406C563.663 221.625 563.839 221.195 563.956 221.117C564.073 221.039 567.86 221 575.318 221C582.736 221.039 586.699 221.098 587.206 221.176C589.705 221.605 591.794 222.562 593.473 224.045C595.152 225.529 596.011 227.501 596.05 229.96C596.05 232.967 594.761 235.719 592.184 238.218C589.49 240.873 586.016 242.552 581.76 243.255C581.487 243.294 579.437 243.333 575.611 243.372H570.047L568.29 250.341C567.119 254.87 566.533 257.271 566.533 257.545C566.533 257.701 566.552 257.798 566.592 257.837C566.631 257.877 566.767 257.955 567.001 258.072C567.236 258.189 567.568 258.228 567.997 258.189C568.427 258.15 569.071 258.189 569.93 258.306H571.745C571.98 258.657 572.097 258.872 572.097 258.95C572.097 259.575 571.96 260.161 571.687 260.707C571.491 260.902 571.179 261 570.75 261C570.633 261 569.91 260.98 568.583 260.941C567.255 260.902 565.303 260.883 562.726 260.883C560.306 260.883 558.451 260.883 557.163 260.883C555.874 260.883 555.171 260.902 555.054 260.941C554.351 260.941 554 260.746 554 260.356C554 260.278 554.059 260.004 554.176 259.536C554.332 258.911 554.488 258.56 554.644 258.482C554.8 258.404 555.249 258.345 555.991 258.306C557.045 258.306 558.217 258.247 559.505 258.13C560.052 258.013 560.423 257.779 560.618 257.428C560.735 257.271 562.141 251.844 564.835 241.146C567.529 230.449 568.876 224.807 568.876 224.221ZM589.842 228.555C589.842 228.047 589.803 227.637 589.725 227.325C589.647 227.013 589.471 226.583 589.198 226.037C588.924 225.49 588.436 225.061 587.734 224.748C587.031 224.436 586.074 224.123 584.864 223.811C584.591 223.772 583.029 223.733 580.179 223.694C579.515 223.694 578.832 223.694 578.129 223.694C577.426 223.694 576.86 223.714 576.43 223.753C576.001 223.792 575.767 223.792 575.728 223.753C575.22 223.792 574.869 223.967 574.673 224.28C574.595 224.514 574.224 226.017 573.561 228.789C572.897 231.561 572.214 234.255 571.511 236.871C570.808 239.487 570.457 240.815 570.457 240.854C570.457 240.932 572.038 240.971 575.201 240.971H575.903H577.25C581.623 240.971 584.747 239.995 586.621 238.042C587.675 236.988 588.475 235.446 589.022 233.416C589.569 231.386 589.842 229.765 589.842 228.555Z" fill="var(--fg, black)"/>
<path d="M382.398 152.237C382.398 151.98 381.352 151.815 379.261 151.741C378.381 151.741 377.813 151.723 377.556 151.686C377.299 151.65 377.171 151.466 377.171 151.136C377.171 151.1 377.207 150.898 377.281 150.531C377.501 149.797 377.666 149.394 377.776 149.321C377.886 149.247 381.444 149.21 388.45 149.21C395.419 149.247 399.142 149.302 399.619 149.376C401.967 149.779 403.929 150.678 405.506 152.072C407.084 153.465 407.89 155.318 407.927 157.629C407.927 160.453 406.717 163.039 404.296 165.387C401.765 167.881 398.5 169.458 394.502 170.118C394.245 170.155 392.32 170.192 388.725 170.228H383.498L381.847 176.776C380.747 181.031 380.197 183.287 380.197 183.543C380.197 183.69 380.215 183.782 380.252 183.818C380.288 183.855 380.417 183.928 380.637 184.039C380.857 184.149 381.169 184.185 381.572 184.149C381.976 184.112 382.581 184.149 383.388 184.259H385.094C385.314 184.589 385.424 184.79 385.424 184.864C385.424 185.451 385.295 186.001 385.039 186.514C384.855 186.698 384.562 186.79 384.158 186.79C384.048 186.79 383.37 186.771 382.122 186.735C380.875 186.698 379.041 186.68 376.62 186.68C374.346 186.68 372.604 186.68 371.393 186.68C370.183 186.68 369.523 186.698 369.413 186.735C368.752 186.735 368.422 186.551 368.422 186.184C368.422 186.111 368.477 185.854 368.587 185.414C368.734 184.827 368.881 184.497 369.028 184.424C369.174 184.35 369.596 184.295 370.293 184.259C371.283 184.259 372.384 184.204 373.594 184.094C374.108 183.983 374.456 183.763 374.64 183.433C374.75 183.287 376.07 178.188 378.601 168.138C381.132 158.087 382.398 152.787 382.398 152.237ZM402.095 156.308C402.095 155.831 402.058 155.446 401.985 155.153C401.912 154.859 401.747 154.456 401.49 153.942C401.233 153.429 400.774 153.025 400.114 152.732C399.454 152.438 398.555 152.145 397.418 151.851C397.161 151.815 395.694 151.778 393.017 151.741C392.393 151.741 391.751 151.741 391.091 151.741C390.431 151.741 389.899 151.76 389.495 151.796C389.092 151.833 388.872 151.833 388.835 151.796C388.358 151.833 388.028 151.998 387.845 152.292C387.771 152.512 387.423 153.924 386.799 156.528C386.176 159.133 385.534 161.663 384.874 164.121C384.213 166.579 383.883 167.826 383.883 167.862C383.883 167.936 385.369 167.972 388.34 167.972H389H390.266C394.374 167.972 397.308 167.055 399.069 165.221C400.059 164.231 400.811 162.782 401.325 160.875C401.838 158.967 402.095 157.445 402.095 156.308Z" fill="#AD1E1E"/>
<path d="M424.774 173.75C424.774 173.75 424.774 173.511 424.774 173.034C424.774 172.558 425.031 172.191 425.545 171.934H457.512C458.062 172.227 458.337 172.594 458.337 173.034C458.337 173.475 458.062 173.841 457.512 174.135H425.545C425.031 173.878 424.774 173.511 424.774 173.034V173.75Z" fill="#AD1E1E"/>
<path d="M477.936 172.924C477.936 168.706 479.164 164.653 481.622 160.765C484.08 156.877 487.179 153.796 490.92 151.521C494.662 149.247 498.403 148.092 502.145 148.055C505.446 148.055 508.069 148.99 510.013 150.861C510.343 151.228 510.618 151.54 510.838 151.796C511.058 152.053 511.205 152.237 511.278 152.347L511.333 152.512C511.443 152.512 511.938 152.035 512.819 151.081C513.075 150.861 513.35 150.604 513.644 150.311C513.937 150.017 514.231 149.724 514.524 149.431C514.818 149.137 515.001 148.935 515.074 148.825L515.9 148H516.23C516.743 148 517 148.128 517 148.385C517 148.532 516.413 151.044 515.24 155.923C513.919 161.022 513.259 163.589 513.259 163.626C513.185 163.809 513.094 163.919 512.984 163.956C512.874 163.993 512.544 164.029 511.993 164.066H511.113C510.893 163.846 510.783 163.681 510.783 163.571C510.783 163.534 510.801 163.406 510.838 163.186C510.875 162.966 510.911 162.599 510.948 162.085C510.985 161.572 511.003 160.985 511.003 160.325C511.003 157.72 510.416 155.446 509.242 153.502C508.069 151.558 506.069 150.568 503.245 150.531C502.291 150.531 501.264 150.659 500.164 150.916C499.063 151.173 497.743 151.613 496.202 152.237C494.662 152.86 493.14 153.887 491.636 155.318C490.132 156.748 488.793 158.454 487.619 160.435C486.445 162.525 485.51 164.965 484.813 167.752C484.116 170.54 483.768 172.814 483.768 174.575C483.768 178.757 485.162 181.764 487.949 183.598C489.71 184.845 491.874 185.469 494.442 185.469C497.78 185.469 500.751 184.222 503.355 181.728C505.959 179.233 507.683 176.519 508.527 173.585C508.674 173.108 508.784 172.833 508.857 172.759C508.931 172.686 509.224 172.649 509.737 172.649C510.471 172.649 510.838 172.814 510.838 173.144C510.838 173.328 510.82 173.493 510.783 173.64C509.719 177.564 507.445 180.939 503.96 183.763C500.476 186.588 496.734 188 492.736 188C488.591 188 485.088 186.624 482.227 183.873C479.366 181.122 477.936 177.473 477.936 172.924Z" fill="#AD1E1E"/>
<path d="M447 312.924C447 308.706 448.229 304.653 450.686 300.765C453.144 296.877 456.243 293.796 459.985 291.521C463.726 289.247 467.468 288.092 471.209 288.055C474.51 288.055 477.133 288.99 479.077 290.861C479.407 291.228 479.682 291.54 479.902 291.796C480.122 292.053 480.269 292.237 480.343 292.347L480.398 292.512C480.508 292.512 481.003 292.035 481.883 291.081C482.14 290.861 482.415 290.604 482.708 290.311C483.002 290.017 483.295 289.724 483.589 289.431C483.882 289.137 484.066 288.935 484.139 288.825L484.964 288H485.294C485.808 288 486.065 288.128 486.065 288.385C486.065 288.532 485.478 291.044 484.304 295.923C482.983 301.022 482.323 303.589 482.323 303.626C482.25 303.809 482.158 303.919 482.048 303.956C481.938 303.993 481.608 304.029 481.058 304.066H480.177C479.957 303.846 479.847 303.681 479.847 303.571C479.847 303.534 479.866 303.406 479.902 303.186C479.939 302.966 479.976 302.599 480.012 302.085C480.049 301.572 480.067 300.985 480.067 300.325C480.067 297.72 479.481 295.446 478.307 293.502C477.133 291.558 475.134 290.568 472.309 290.531C471.356 290.531 470.329 290.659 469.228 290.916C468.128 291.173 466.807 291.613 465.267 292.237C463.726 292.86 462.204 293.887 460.7 295.318C459.196 296.748 457.857 298.454 456.684 300.435C455.51 302.525 454.575 304.965 453.878 307.752C453.181 310.54 452.832 312.814 452.832 314.575C452.832 318.757 454.226 321.764 457.014 323.598C458.774 324.845 460.939 325.469 463.506 325.469C466.844 325.469 469.815 324.222 472.42 321.728C475.024 319.233 476.748 316.519 477.591 313.585C477.738 313.108 477.848 312.833 477.922 312.759C477.995 312.686 478.288 312.649 478.802 312.649C479.536 312.649 479.902 312.814 479.902 313.144C479.902 313.328 479.884 313.493 479.847 313.64C478.784 317.564 476.509 320.939 473.025 323.763C469.54 326.588 465.799 328 461.801 328C457.656 328 454.153 326.624 451.292 323.873C448.431 321.122 447 317.473 447 312.924Z" fill="#AD1E1E"/>
<path d="M683.066 158.926C683.112 158.653 683.18 158.289 683.271 157.834C683.362 157.378 683.635 156.513 684.091 155.239C684.546 153.964 685.001 152.894 685.456 152.03C685.912 151.165 686.663 150.322 687.71 149.503C688.757 148.684 689.804 148.297 690.851 148.342C692.489 148.342 693.855 148.752 694.948 149.571C696.04 150.391 696.723 151.165 696.996 151.893C697.269 152.621 697.406 153.099 697.406 153.327C697.406 153.418 697.429 153.463 697.474 153.463L698.225 152.712C701.002 149.799 704.166 148.342 707.717 148.342C710.175 148.342 712.155 148.957 713.657 150.186C715.159 151.415 715.933 153.213 715.979 155.58C716.024 157.947 715.159 161.521 713.384 166.301C711.609 171.08 710.744 173.971 710.789 174.973C710.789 176.156 711.176 176.748 711.95 176.748C712.223 176.748 712.428 176.725 712.565 176.68C713.885 176.452 715.068 175.587 716.115 174.085C717.162 172.583 717.959 170.762 718.505 168.622C718.596 168.258 719.052 168.076 719.871 168.076C720.781 168.076 721.237 168.258 721.237 168.622C721.237 168.668 721.146 169.009 720.963 169.647C720.599 170.967 720.099 172.264 719.461 173.539C718.824 174.813 717.777 176.088 716.32 177.362C714.864 178.637 713.293 179.252 711.609 179.206C709.469 179.206 707.921 178.592 706.965 177.362C706.009 176.133 705.531 174.859 705.531 173.539C705.531 172.674 706.351 169.942 707.99 165.345C709.628 160.747 710.471 157.287 710.516 154.966C710.516 152.28 709.515 150.937 707.512 150.937H707.17C703.255 150.937 699.955 153.236 697.269 157.834L696.791 158.653L694.538 167.803C693.036 173.766 692.171 176.976 691.943 177.431C691.351 178.66 690.373 179.274 689.007 179.274C688.415 179.274 687.937 179.138 687.573 178.865C687.209 178.592 686.959 178.318 686.822 178.045C686.685 177.772 686.64 177.545 686.685 177.362C686.685 176.771 687.55 173.061 689.28 166.232C691.01 159.404 691.92 155.694 692.011 155.102C692.057 154.875 692.08 154.351 692.08 153.532C692.08 151.756 691.533 150.869 690.441 150.869C688.711 150.869 687.277 153.145 686.139 157.697C685.866 158.607 685.729 159.085 685.729 159.131C685.638 159.404 685.206 159.541 684.432 159.541H683.476C683.203 159.268 683.066 159.063 683.066 158.926Z" fill="var(--fg, black)"/>
<path d="M710.789 132.091C710.789 131.727 710.903 131.408 711.13 131.135C711.358 130.862 711.7 130.726 712.155 130.726C712.473 130.726 712.747 130.839 712.974 131.067C713.202 131.249 713.429 131.682 713.657 132.364C714.112 134.049 715.045 135.346 716.457 136.256C716.957 136.575 717.208 136.985 717.208 137.486C717.208 137.895 717.139 138.168 717.003 138.305C716.866 138.442 716.548 138.646 716.047 138.92C714.089 139.921 712.382 141.355 710.926 143.221C710.835 143.312 710.721 143.449 710.584 143.631C710.448 143.813 710.334 143.95 710.243 144.041C710.152 144.132 710.038 144.177 709.901 144.177C709.765 144.177 709.606 144.2 709.423 144.246C709.105 144.246 708.809 144.132 708.536 143.904C708.263 143.677 708.103 143.335 708.058 142.88C708.058 142.015 709.128 140.672 711.267 138.851H699.591L687.914 138.783C687.323 138.373 687.027 137.941 687.027 137.486C687.027 137.167 687.323 136.712 687.914 136.12H712.428C711.335 134.39 710.789 133.047 710.789 132.091Z" fill="var(--fg, black)"/>
<defs>
    <radialGradient id="paint0_radial_4203_64041" cx="0" cy="0" r="1" gradientUnits="userSpaceOnUse" gradientTransform="translate(494.582 226.429) rotate(141.882) scale(319.271 343.106)">
        <stop stop-color="var(--fg, black)" offset="0.0572917" stop-opacity="0"/>
        <stop stop-color="var(--fg, black)" offset="0.484375" stop-opacity="0.05"/>
        <stop stop-color="var(--fg, black)" offset="0.70167" stop-opacity="0.15"/>
        <stop stop-color="var(--fg, black)" offset="0.810021" stop-opacity="0.25"/>
        <stop stop-color="var(--fg, black)" offset="1" stop-opacity="0.7"/>
        </radialGradient>
</defs>
</svg>
