<svg width="100%" viewBox="0 0 1532 556" fill="none" xmlns="http://www.w3.org/2000/svg">

<path d="M566 96.1113L1228.48 298.001L566 499.889" stroke="var(--fg, black)" stroke-width="8" stroke-linejoin="round"/>
<line x1="1228.4" y1="85.7266" x2="1228.4" y2="412.081" stroke="var(--fg, black)" stroke-width="8"/>
<path d="M600.412 298.04C600.412 354.699 596.146 405.89 589.29 442.824C585.856 461.324 581.807 476.047 577.417 486.049C575.216 491.065 573.024 494.67 570.946 496.96C568.86 499.26 567.278 499.828 566.21 499.828C565.142 499.828 563.56 499.26 561.474 496.96C559.396 494.67 557.204 491.065 555.003 486.049C550.613 476.047 546.564 461.324 543.13 442.824C536.274 405.89 532.008 354.699 532.008 298.04C532.008 241.381 536.274 190.19 543.13 153.256C546.564 134.756 550.613 120.034 555.003 110.031C557.204 105.016 559.396 101.41 561.474 99.1204C563.56 96.8202 565.142 96.252 566.21 96.252C567.278 96.252 568.86 96.8202 570.946 99.1204C573.024 101.41 575.216 105.016 577.417 110.031C581.807 120.034 585.856 134.756 589.29 153.256C596.146 190.19 600.412 241.381 600.412 298.04Z" stroke="var(--fg, black)" stroke-width="8"/>
<path d="M566.21 297.897L1201.9 297.898" stroke="var(--fg, black)" stroke-width="4" stroke-linejoin="round" stroke-dasharray="30 30"/>
<line x1="1089.27" y1="131.379" x2="1089.27" y2="464.413" stroke="#AD1E1E" stroke-width="6"/>
<path d="M1094.32 298.07C1094.32 309.707 1093.44 320.165 1092.05 327.644C1091.35 331.408 1090.55 334.267 1089.74 336.115C1089.62 336.38 1089.51 336.611 1089.41 336.811C1089.3 336.611 1089.19 336.38 1089.08 336.115C1088.27 334.267 1087.46 331.408 1086.77 327.644C1085.38 320.165 1084.5 309.707 1084.5 298.07C1084.5 286.433 1085.38 275.975 1086.77 268.496C1087.46 264.732 1088.27 261.872 1089.08 260.025C1089.19 259.76 1089.3 259.529 1089.41 259.329C1089.51 259.529 1089.62 259.76 1089.74 260.025C1090.55 261.872 1091.35 264.732 1092.05 268.496C1093.44 275.975 1094.32 286.433 1094.32 298.07ZM1088.7 337.868C1088.7 337.868 1088.7 337.866 1088.71 337.862C1088.7 337.866 1088.7 337.868 1088.7 337.868ZM1090.11 337.862C1090.11 337.866 1090.12 337.868 1090.12 337.868C1090.12 337.868 1090.11 337.866 1090.11 337.862ZM1090.12 258.272C1090.12 258.272 1090.11 258.274 1090.11 258.278C1090.11 258.273 1090.12 258.271 1090.12 258.272ZM1088.71 258.278C1088.7 258.274 1088.7 258.272 1088.7 258.272C1088.7 258.271 1088.7 258.273 1088.71 258.278Z" fill="#AD1E1E" stroke="#AD1E1E" stroke-width="6"/>
<path d="M636.858 135.437C637.58 135.031 637.837 134.117 637.431 133.395L630.818 121.625C630.412 120.903 629.498 120.646 628.776 121.052C628.053 121.458 627.797 122.372 628.203 123.095L634.081 133.557L623.619 139.434C622.897 139.84 622.64 140.755 623.046 141.477C623.452 142.199 624.366 142.456 625.088 142.05L636.858 135.437ZM650.966 159.261C651.677 158.835 651.907 157.914 651.481 157.204L644.54 145.625C644.114 144.914 643.193 144.683 642.483 145.109C641.772 145.535 641.541 146.457 641.967 147.167L648.137 157.46L637.845 163.629C637.134 164.055 636.903 164.977 637.329 165.687C637.755 166.398 638.677 166.628 639.387 166.202L650.966 159.261ZM685.931 198.62C686.612 198.149 686.783 197.215 686.312 196.533L678.637 185.427C678.166 184.746 677.232 184.575 676.551 185.046C675.869 185.517 675.698 186.451 676.169 187.133L682.991 197.005L673.119 203.827C672.438 204.298 672.267 205.232 672.738 205.914C673.209 206.595 674.143 206.766 674.825 206.295L685.931 198.62ZM651.084 214.353C651.751 213.862 651.894 212.923 651.403 212.256L643.399 201.385C642.908 200.718 641.969 200.575 641.301 201.066C640.634 201.557 640.492 202.496 640.983 203.163L648.098 212.827L638.434 219.941C637.767 220.433 637.624 221.372 638.116 222.039C638.607 222.706 639.546 222.848 640.213 222.357L651.084 214.353ZM668.745 233.615C669.389 233.093 669.486 232.148 668.964 231.505L660.454 221.026C659.931 220.383 658.987 220.285 658.344 220.807C657.701 221.329 657.603 222.274 658.125 222.917L665.69 232.232L656.375 239.797C655.732 240.319 655.634 241.264 656.156 241.907C656.678 242.55 657.623 242.648 658.266 242.126L668.745 233.615ZM651.162 254.578C651.795 254.043 651.875 253.097 651.341 252.464L642.633 242.148C642.099 241.515 641.152 241.435 640.519 241.969C639.886 242.504 639.806 243.45 640.341 244.083L648.081 253.253L638.911 260.993C638.278 261.528 638.198 262.474 638.733 263.107C639.267 263.74 640.213 263.82 640.846 263.286L651.162 254.578ZM633.409 267.312C634.032 266.766 634.095 265.819 633.549 265.196L624.649 255.044C624.103 254.421 623.155 254.359 622.532 254.905C621.909 255.451 621.847 256.399 622.393 257.022L630.304 266.045L621.281 273.956C620.658 274.502 620.595 275.45 621.141 276.073C621.688 276.696 622.635 276.758 623.258 276.212L633.409 267.312ZM686.057 281.014C686.685 280.474 686.755 279.527 686.214 278.899L677.401 268.673C676.86 268.045 675.913 267.975 675.285 268.516C674.658 269.057 674.588 270.004 675.128 270.631L682.963 279.721L673.873 287.556C673.245 288.096 673.175 289.044 673.716 289.671C674.257 290.299 675.204 290.369 675.831 289.828L686.057 281.014ZM622.75 290.317C623.355 289.75 623.386 288.801 622.819 288.196L613.587 278.346C613.021 277.742 612.071 277.711 611.467 278.278C610.863 278.844 610.832 279.793 611.398 280.398L619.604 289.153L610.849 297.36C610.244 297.926 610.214 298.875 610.78 299.48C611.347 300.084 612.296 300.115 612.9 299.548L622.75 290.317ZM644.626 311.637C645.19 311.031 645.157 310.081 644.55 309.517L634.672 300.315C634.066 299.75 633.117 299.784 632.552 300.39C631.988 300.996 632.021 301.945 632.628 302.51L641.408 310.689L633.229 319.47C632.664 320.076 632.698 321.025 633.304 321.59C633.91 322.155 634.859 322.121 635.424 321.515L644.626 311.637ZM668.905 321.913C669.465 321.302 669.424 320.353 668.814 319.794L658.865 310.668C658.255 310.108 657.306 310.149 656.746 310.76C656.186 311.37 656.227 312.319 656.837 312.879L665.681 320.99L657.569 329.834C657.009 330.444 657.05 331.393 657.66 331.953C658.271 332.513 659.22 332.472 659.78 331.862L668.905 321.913ZM637.265 347.788C637.802 347.157 637.726 346.211 637.095 345.674L626.814 336.925C626.183 336.388 625.237 336.464 624.7 337.095C624.163 337.726 624.239 338.672 624.87 339.209L634.009 346.986L626.231 356.125C625.695 356.756 625.771 357.703 626.402 358.24C627.033 358.777 627.979 358.7 628.516 358.069L637.265 347.788ZM662.863 383.871C663.334 383.19 663.164 382.256 662.482 381.784L651.378 374.107C650.696 373.636 649.762 373.806 649.291 374.488C648.82 375.169 648.99 376.103 649.672 376.574L659.542 383.399L652.718 393.269C652.247 393.951 652.417 394.885 653.098 395.356C653.78 395.827 654.714 395.657 655.185 394.976L662.863 383.871ZM637.393 431.949C637.834 431.248 637.623 430.322 636.922 429.881L625.494 422.694C624.792 422.253 623.866 422.464 623.425 423.165C622.984 423.866 623.195 424.792 623.897 425.233L634.055 431.622L627.666 441.78C627.225 442.481 627.436 443.407 628.138 443.848C628.839 444.289 629.765 444.078 630.206 443.377L637.393 431.949ZM665.854 456.087C666.221 455.344 665.916 454.445 665.173 454.078L653.071 448.096C652.328 447.729 651.428 448.034 651.061 448.776C650.694 449.519 650.999 450.419 651.742 450.786L662.499 456.102L657.183 466.86C656.816 467.603 657.12 468.503 657.863 468.87C658.605 469.237 659.505 468.932 659.872 468.189L665.854 456.087ZM669.022 363.661C669.502 362.986 669.345 362.05 668.67 361.569L657.674 353.738C656.999 353.257 656.062 353.414 655.582 354.089C655.101 354.764 655.259 355.701 655.933 356.181L665.708 363.143L658.746 372.917C658.266 373.592 658.423 374.528 659.098 375.009C659.773 375.49 660.71 375.332 661.19 374.657L669.022 363.661ZM559.3 114.136L635.718 135.574L636.528 132.685L560.11 111.247L559.3 114.136ZM565.636 138.345L649.83 159.43L650.559 156.52L566.365 135.435L565.636 138.345ZM580.753 179.849L684.808 198.862L685.348 195.911L581.292 176.898L580.753 179.849ZM546.228 198.869L649.97 214.628L650.42 211.662L546.679 195.903L546.228 198.869ZM573.954 224.229L667.645 233.943L667.955 230.959L574.264 221.245L573.954 224.229ZM559.579 247.277L650.068 254.926L650.321 251.937L559.831 244.288L559.579 247.277ZM549.812 262.26L632.322 267.681L632.519 264.688L550.009 259.266L549.812 262.26ZM582.64 273.782L684.967 281.374L685.189 278.382L582.862 270.791L582.64 273.782ZM543.524 288.189L621.676 290.721L621.773 287.723L543.621 285.191L543.524 288.189ZM554.573 315.268L643.581 312.113L643.475 309.115L554.467 312.27L554.573 315.268ZM566.065 326.791L667.865 322.398L667.735 319.4L565.935 323.794L566.065 326.791ZM552.912 355.019L636.243 348.311L636.003 345.321L552.671 352.029L552.912 355.019ZM570.921 401.092L661.898 384.494L661.36 381.543L570.383 398.141L570.921 401.092ZM554.853 451.204L636.456 432.613L635.79 429.688L554.187 448.279L554.853 451.204ZM664.028 454.001L570.171 485.771L571.133 488.613L664.99 456.843L664.028 454.001ZM583 378.565L668.048 364.27L667.551 361.312L582.503 375.607L583 378.565Z" fill="var(--fg, black)"/>
<path d="M1073.23 293.367L1096.15 295.067M1068.07 287.431L1088.34 289.144M1064.46 296.593L1081.96 297.16M1069.48 305.239L1092.28 304.255M1066.52 311.563L1085.19 310.06M1070.52 321.886L1090.9 318.169M1066.91 333.113L1085.19 328.949M1069.48 263.041L1088.34 267.764M1072.84 272.332L1096.15 276.591M1065.1 276.591L1088.34 280.121M1071.3 282.269L1092.28 284.445M1065.88 290.786L1084.36 292M1066.91 302.658L1086.84 301.952M1070.52 341.501L1091.54 334.386M1068.07 257.621L1085.19 262.423M1073.23 316.84L1092.28 313.638" stroke="#AD1E1E" stroke-width="2"/>
<path d="M528.623 64.1517H529.162C530.162 64.1517 530.764 63.9722 530.97 63.6132V63.3055C530.97 63.0747 530.97 62.7799 530.97 62.4209C530.97 62.0619 530.97 61.6388 530.97 61.1517C530.97 60.6645 530.982 60.1132 531.008 59.4978C531.034 58.8824 531.034 58.2414 531.008 57.5747C530.982 56.9081 530.982 56.203 531.008 55.4594C531.034 54.7158 531.034 53.985 531.008 53.2671C531.008 52.3183 531.008 51.3183 531.008 50.2671C531.008 49.2158 531.008 48.2542 531.008 47.3824C531.008 46.5106 531.008 45.7414 531.008 45.0747C531.008 44.4081 530.995 43.844 530.97 43.3824C530.944 42.9209 530.944 42.703 530.97 42.7286C530.893 42.2414 530.713 41.9209 530.431 41.7671C530.149 41.6132 529.572 41.4978 528.7 41.4209H528.008V40.5363C528.008 39.9465 528.034 39.6517 528.085 39.6517L528.47 39.6132C528.726 39.5876 529.098 39.5619 529.585 39.5363C530.072 39.5106 530.547 39.485 531.008 39.4594C531.444 39.4337 531.918 39.4081 532.431 39.3824C532.944 39.3568 533.329 39.3183 533.585 39.2671C533.841 39.2158 533.982 39.203 534.008 39.2286H534.123V51.344C534.123 59.4722 534.136 63.5619 534.162 63.6132C534.264 63.8183 534.418 63.9594 534.623 64.0363C535.162 64.1132 535.79 64.1517 536.508 64.1517H537.123V65.9209H536.816L535.931 65.8824C535.341 65.8568 534.713 65.844 534.047 65.844C533.38 65.844 532.893 65.8312 532.585 65.8055C532.277 65.7799 531.79 65.7799 531.123 65.8055C530.457 65.8312 529.816 65.8568 529.2 65.8824L528.316 65.9209H528.008V64.1517H528.623Z" fill="var(--fg, black)"/>
<path d="M538.777 57.5361C538.777 56.1258 539.034 54.8438 539.546 53.6899C540.059 52.5361 540.7 51.6002 541.469 50.8822C542.239 50.1643 543.072 49.6258 543.969 49.2668C544.867 48.9079 545.713 48.7155 546.508 48.6899C547.867 48.6899 549.034 48.9207 550.008 49.3822C550.982 49.8438 551.726 50.4848 552.239 51.3053C552.751 52.1258 553.11 52.9463 553.316 53.7668C553.521 54.5873 553.636 55.4976 553.662 56.4976C553.662 56.6771 553.572 56.8566 553.392 57.0361H542.546V57.613C542.546 61.4079 543.828 63.7155 546.392 64.5361C546.905 64.6899 547.469 64.7668 548.085 64.7668C549.162 64.7668 550.085 64.3566 550.854 63.5361C551.29 63.1002 551.636 62.5617 551.892 61.9207L552.277 60.9976C552.354 60.9207 552.559 60.8822 552.892 60.8822H553.008C553.444 60.8822 553.662 61.0104 553.662 61.2668C553.662 61.3694 553.623 61.5361 553.546 61.7668C553.059 63.1771 552.251 64.2925 551.123 65.113C549.995 65.9335 548.726 66.3438 547.316 66.3438C544.88 66.3438 542.854 65.4591 541.239 63.6899C539.623 61.9207 538.803 59.8694 538.777 57.5361ZM550.508 55.3438C550.226 52.0617 549.008 50.3181 546.854 50.113H546.777C546.572 50.113 546.367 50.1258 546.162 50.1514C545.957 50.1771 545.636 50.2796 545.2 50.4591C544.764 50.6386 544.392 50.9079 544.085 51.2668C543.777 51.6258 543.482 52.1514 543.2 52.8438C542.918 53.5361 542.713 54.3822 542.585 55.3822V55.6514H550.508V55.3438Z" fill="var(--fg, black)"/>
<path d="M556.354 64.1517H556.893C557.893 64.1517 558.495 63.9722 558.701 63.6132V63.3055C558.701 63.0747 558.701 62.7799 558.701 62.4209C558.701 62.0619 558.701 61.6645 558.701 61.2286C558.701 60.7927 558.713 60.2927 558.739 59.7286C558.765 59.1645 558.765 58.626 558.739 58.1132C558.739 57.3183 558.739 56.4722 558.739 55.5747C558.739 54.6773 558.726 53.9209 558.701 53.3055V52.4209C558.624 51.9337 558.444 51.6132 558.162 51.4594C557.88 51.3055 557.303 51.1901 556.431 51.1132H555.739V50.2286C555.739 49.6388 555.765 49.344 555.816 49.344L556.201 49.3055C556.457 49.2799 556.816 49.2542 557.277 49.2286C557.739 49.2029 558.213 49.1773 558.701 49.1517C559.136 49.126 559.598 49.1004 560.085 49.0747C560.572 49.0491 560.944 49.0106 561.201 48.9594C561.457 48.9081 561.598 48.8953 561.624 48.9209H561.739V50.4594C561.739 51.4337 561.752 51.9209 561.777 51.9209C561.803 51.9209 561.867 51.8568 561.97 51.7286C562.072 51.6004 562.226 51.4081 562.431 51.1517C562.636 50.8953 562.88 50.6645 563.162 50.4594C563.444 50.2542 563.816 50.0106 564.277 49.7286C564.739 49.4465 565.226 49.2414 565.739 49.1132C566.252 48.985 566.906 48.9209 567.701 48.9209C570.624 49.0235 572.252 50.4722 572.585 53.2671C572.611 53.4465 572.624 55.2286 572.624 58.6132V61.9209C572.624 62.8953 572.649 63.4722 572.701 63.6517C572.752 63.8312 572.893 63.9594 573.124 64.0363C573.662 64.1132 574.29 64.1517 575.008 64.1517H575.624V65.9209H575.316L574.393 65.8824C573.803 65.8568 573.162 65.844 572.47 65.844C571.777 65.844 571.29 65.8312 571.008 65.8055C568.367 65.8055 566.931 65.844 566.701 65.9209H566.393V64.1517H567.008C568.572 64.1517 569.354 63.9465 569.354 63.5363C569.38 63.485 569.393 61.7158 569.393 58.2286C569.367 54.7671 569.342 52.9337 569.316 52.7286C569.162 52.0106 568.906 51.4722 568.547 51.1132C568.188 50.7542 567.88 50.5363 567.624 50.4594C567.367 50.3824 567.034 50.3568 566.624 50.3824C565.47 50.3824 564.457 50.8183 563.585 51.6901C562.893 52.3824 562.457 53.0876 562.277 53.8055C562.098 54.5235 561.995 55.5876 561.97 56.9978V59.4594V61.7671C561.97 62.5363 561.983 63.0491 562.008 63.3055C562.034 63.5619 562.072 63.7286 562.124 63.8055C562.175 63.8824 562.29 63.9594 562.47 64.0363C563.008 64.1132 563.636 64.1517 564.354 64.1517H564.97V65.9209H564.662L563.777 65.8824C563.162 65.8568 562.508 65.844 561.816 65.844C561.124 65.844 560.636 65.8312 560.354 65.8055C557.713 65.8055 556.277 65.844 556.047 65.9209H555.739V64.1517H556.354Z" fill="var(--fg, black)"/>
<path d="M587.508 53.7668C587.508 52.7412 587.162 51.8566 586.47 51.113C585.777 50.3694 584.777 49.9976 583.47 49.9976C582.547 49.9976 581.752 50.1643 581.085 50.4976C580.316 50.9848 579.931 51.6514 579.931 52.4976C579.906 52.6258 579.906 52.7925 579.931 52.9976C579.957 53.2027 580.162 53.5104 580.547 53.9207C580.931 54.3309 581.482 54.6514 582.2 54.8822C582.662 55.0104 583.226 55.1258 583.893 55.2284C584.559 55.3309 585.123 55.4463 585.585 55.5745C586.047 55.7027 586.457 55.8694 586.816 56.0745C587.252 56.2796 587.675 56.5361 588.085 56.8438C588.495 57.1514 588.906 57.6771 589.316 58.4207C589.726 59.1643 589.944 59.9591 589.97 60.8053C589.97 62.395 589.482 63.7027 588.508 64.7284C587.534 65.754 585.957 66.2796 583.777 66.3053H583.47C582.136 66.3053 580.906 65.8438 579.777 64.9207L579.47 65.1899L579.123 65.5361C578.97 65.6899 578.816 65.8309 578.662 65.9591L578.239 66.3438H577.931H577.777C577.7 66.3438 577.585 66.2668 577.431 66.113V63.0745V60.8438C577.431 60.3053 577.457 59.9848 577.508 59.8822C577.559 59.7796 577.688 59.7155 577.893 59.6899H578.239C578.547 59.6899 578.752 59.7412 578.854 59.8438C578.957 59.9463 579.021 60.1002 579.047 60.3053C579.072 60.5104 579.162 60.8566 579.316 61.3438C579.47 61.8309 579.713 62.3694 580.047 62.9591C580.944 64.2668 582.188 64.9207 583.777 64.9207C586.264 64.9207 587.508 63.9207 587.508 61.9207C587.508 61.1771 587.277 60.5745 586.816 60.113C586.303 59.4976 585.239 59.0361 583.623 58.7284C582.008 58.4207 580.944 58.1258 580.431 57.8438C579.508 57.4079 578.777 56.8181 578.239 56.0745C577.7 55.3309 577.431 54.5361 577.431 53.6899C577.431 52.6899 577.649 51.8438 578.085 51.1514C578.521 50.4591 579.072 49.9463 579.739 49.613C580.406 49.2796 581.047 49.0489 581.662 48.9207C582.277 48.7925 582.841 48.7284 583.354 48.7284H583.777C584.803 48.7284 585.7 48.9207 586.47 49.3053L587.047 49.613L587.393 49.3438C587.649 49.113 587.931 48.895 588.239 48.6899H588.547H588.7C588.777 48.6899 588.893 48.7668 589.047 48.9207V53.9976L588.816 54.2284H587.739C587.585 54.0745 587.508 53.9207 587.508 53.7668Z" fill="var(--fg, black)"/>
<path d="M1141.03 67.3438C1140.57 67.2668 1138.94 67.2284 1136.15 67.2284C1133.51 67.2284 1132.07 67.2668 1131.84 67.3438H1131.53V65.5745H1132.15C1132.86 65.5745 1133.49 65.5361 1134.03 65.4591C1134.24 65.3822 1134.39 65.2412 1134.49 65.0361C1134.52 64.9848 1134.53 62.8822 1134.53 58.7284V52.5361H1131.8V50.7668H1134.53V48.2284L1134.57 45.6514L1134.65 45.2668C1135.13 43.6002 1135.95 42.395 1137.11 41.6514C1138.26 40.9079 1139.48 40.4463 1140.76 40.2668C1140.79 40.2668 1140.9 40.2668 1141.11 40.2668C1141.31 40.2668 1141.49 40.254 1141.65 40.2284C1142.7 40.3053 1143.49 40.6386 1144.03 41.2284C1144.57 41.8181 1144.84 42.4848 1144.84 43.2284C1144.84 43.8181 1144.66 44.2925 1144.3 44.6514C1143.94 45.0104 1143.47 45.1899 1142.88 45.1899C1142.29 45.1899 1141.81 45.0104 1141.45 44.6514C1141.1 44.2925 1140.92 43.8181 1140.92 43.2284C1140.92 42.7155 1141.15 42.2027 1141.61 41.6899H1141.45C1141.35 41.6643 1141.21 41.6514 1141.03 41.6514C1140.31 41.6514 1139.67 41.9207 1139.11 42.4591C1138.54 42.9976 1138.11 43.7027 1137.8 44.5745C1137.65 45.0873 1137.56 46.3053 1137.53 48.2284V50.7668H1141.8V52.5361H1137.65V58.6899C1137.65 62.8438 1137.66 64.9463 1137.69 64.9976C1137.71 65.0489 1137.75 65.1002 1137.8 65.1514C1137.85 65.2027 1137.92 65.2412 1137.99 65.2668C1138.07 65.2925 1138.13 65.3309 1138.19 65.3822C1138.24 65.4335 1138.33 65.4591 1138.45 65.4591C1138.58 65.4591 1138.67 65.472 1138.72 65.4976C1138.77 65.5232 1138.89 65.5361 1139.07 65.5361C1139.25 65.5361 1139.36 65.5361 1139.42 65.5361C1139.47 65.5361 1139.6 65.5489 1139.8 65.5745C1140.01 65.6002 1140.13 65.6002 1140.19 65.5745H1141.38V67.3438H1141.03Z" fill="var(--fg, black)"/>
<path d="M1143.38 59.1122C1143.38 56.6763 1144.21 54.5737 1145.88 52.8045C1147.54 51.0352 1149.56 50.1378 1151.92 50.1122C1154.22 50.1122 1156.21 50.984 1157.88 52.7275C1159.54 54.4711 1160.39 56.5865 1160.42 59.0737C1160.42 61.5096 1159.59 63.5609 1157.95 65.2275C1156.31 66.8942 1154.3 67.7275 1151.92 67.7275C1149.43 67.7275 1147.39 66.8686 1145.8 65.1506C1144.21 63.4327 1143.4 61.4198 1143.38 59.1122ZM1151.92 66.1891C1155.04 66.1891 1156.61 64.0993 1156.61 59.9198V58.6891V57.7275C1156.61 57.1634 1156.59 56.6763 1156.57 56.266C1156.54 55.8557 1156.45 55.3686 1156.3 54.8045C1156.15 54.2404 1155.94 53.7788 1155.68 53.4198C1155.43 53.0609 1155.03 52.7019 1154.49 52.3429C1153.95 51.984 1153.33 51.7275 1152.61 51.5737C1152.48 51.5481 1152.27 51.5352 1151.99 51.5352C1151.22 51.5352 1150.49 51.6891 1149.8 51.9968C1148.7 52.5609 1147.98 53.3429 1147.65 54.3429C1147.31 55.3429 1147.15 56.5224 1147.15 57.8814V58.6506C1147.15 61.1122 1147.39 62.8429 1147.88 63.8429C1148.7 65.407 1150.04 66.1891 1151.92 66.1891Z" fill="var(--fg, black)"/>
<path d="M1175.76 55.6121C1175.76 55.6121 1175.49 55.6121 1174.95 55.6121C1174.42 55.6121 1173.95 55.4198 1173.57 55.0352C1173.19 54.6506 1172.98 54.1634 1172.95 53.5737C1172.95 52.9839 1173.15 52.4968 1173.53 52.1121C1173.66 51.9839 1173.72 51.907 1173.72 51.8814C1173.72 51.8557 1173.6 51.8301 1173.34 51.8045C1172.67 51.7019 1172.04 51.6506 1171.45 51.6506C1170.2 51.6506 1169.17 52.0609 1168.38 52.8814C1167.17 54.0865 1166.57 56.0993 1166.57 58.9198C1166.57 61.0224 1166.97 62.6762 1167.76 63.8814C1168.81 65.4455 1170.22 66.2275 1171.99 66.2275C1173.04 66.2275 1173.89 65.8942 1174.53 65.2275C1175.17 64.5609 1175.63 63.766 1175.92 62.8429C1175.97 62.6378 1176.03 62.5096 1176.11 62.4583C1176.19 62.407 1176.39 62.3814 1176.72 62.3814H1177.26C1177.42 62.5352 1177.49 62.6506 1177.49 62.7275C1177.49 62.8301 1177.44 63.0352 1177.34 63.3429C1177.24 63.6506 1177.03 64.0737 1176.72 64.6121C1176.42 65.1506 1176.04 65.6378 1175.61 66.0737C1175.17 66.5096 1174.56 66.907 1173.76 67.266C1172.97 67.625 1172.08 67.7916 1171.11 67.766C1168.9 67.766 1166.98 66.9455 1165.34 65.3045C1163.7 63.6634 1162.86 61.5993 1162.84 59.1121C1162.84 56.4455 1163.67 54.2788 1165.34 52.6121C1167.01 50.9455 1168.94 50.1121 1171.15 50.1121C1173.35 50.1121 1174.89 50.4583 1175.76 51.1506C1176.63 51.8429 1177.07 52.6634 1177.07 53.6121C1177.07 54.2019 1176.85 54.6762 1176.42 55.0352L1175.76 55.6121Z" fill="var(--fg, black)"/>
<path d="M1193.34 65.1128C1191.9 66.8563 1190.27 67.7281 1188.45 67.7281H1188.19C1184.98 67.7281 1183.13 66.4589 1182.65 63.9204C1182.62 63.741 1182.6 61.9845 1182.57 58.6512C1182.54 55.8563 1182.53 54.2922 1182.53 53.9589C1182.53 53.6256 1182.45 53.3563 1182.3 53.1512C1182.04 52.741 1181.27 52.5358 1179.99 52.5358H1179.57V51.6512C1179.57 51.0615 1179.6 50.7666 1179.65 50.7666L1180.07 50.7281C1180.33 50.7025 1180.7 50.6769 1181.19 50.6512C1181.67 50.6256 1182.16 50.5999 1182.65 50.5743C1183.08 50.5487 1183.56 50.523 1184.07 50.4974C1184.58 50.4717 1184.97 50.4333 1185.22 50.382C1185.48 50.3307 1185.63 50.3179 1185.69 50.3435H1185.8V57.3051C1185.83 62.023 1185.86 64.5487 1185.92 64.882C1185.99 65.2666 1186.17 65.5743 1186.45 65.8051C1186.97 66.164 1187.74 66.3435 1188.76 66.3435C1189.43 66.3435 1190.03 66.2281 1190.57 65.9974C1191.11 65.7666 1191.52 65.4717 1191.8 65.1128C1192.08 64.7538 1192.34 64.3435 1192.57 63.882C1192.8 63.4204 1192.95 63.0358 1193.03 62.7281C1193.11 62.4204 1193.16 62.1128 1193.19 61.8051C1193.19 61.7794 1193.19 61.5615 1193.19 61.1512C1193.19 60.741 1193.2 60.2281 1193.22 59.6128C1193.25 58.9974 1193.25 58.3948 1193.22 57.8051V55.2281C1193.22 54.0487 1193.1 53.3179 1192.84 53.0358C1192.58 52.7538 1191.94 52.5871 1190.92 52.5358H1190.22V50.7666C1190.27 50.7666 1191.25 50.7025 1193.15 50.5743C1195.04 50.4461 1196.06 50.3692 1196.19 50.3435H1196.45V57.1897C1196.45 61.8051 1196.47 64.1512 1196.49 64.2281C1196.57 64.741 1196.75 65.0743 1197.03 65.2281C1197.31 65.382 1197.89 65.4974 1198.76 65.5743H1199.45V67.3435C1199.4 67.3435 1198.44 67.4076 1196.57 67.5358C1194.7 67.664 1193.71 67.741 1193.61 67.7666H1193.34V65.1128Z" fill="var(--fg, black)"/>
<path d="M1211.34 55.1897C1211.34 54.164 1210.99 53.2794 1210.3 52.5358C1209.61 51.7922 1208.61 51.4204 1207.3 51.4204C1206.38 51.4204 1205.58 51.5871 1204.92 51.9204C1204.15 52.4076 1203.76 53.0743 1203.76 53.9204C1203.74 54.0487 1203.74 54.2153 1203.76 54.4204C1203.79 54.6256 1203.99 54.9333 1204.38 55.3435C1204.76 55.7538 1205.31 56.0743 1206.03 56.3051C1206.49 56.4333 1207.06 56.5487 1207.72 56.6512C1208.39 56.7538 1208.95 56.8692 1209.42 56.9974C1209.88 57.1256 1210.29 57.2922 1210.65 57.4974C1211.08 57.7025 1211.51 57.9589 1211.92 58.2666C1212.33 58.5743 1212.74 59.0999 1213.15 59.8435C1213.56 60.5871 1213.77 61.382 1213.8 62.2281C1213.8 63.8179 1213.31 65.1256 1212.34 66.1512C1211.36 67.1769 1209.79 67.7025 1207.61 67.7281H1207.3C1205.97 67.7281 1204.74 67.2666 1203.61 66.3435L1203.3 66.6128L1202.95 66.9589C1202.8 67.1128 1202.65 67.2538 1202.49 67.382L1202.07 67.7666H1201.76H1201.61C1201.53 67.7666 1201.42 67.6897 1201.26 67.5358V64.4974V62.2666C1201.26 61.7281 1201.29 61.4076 1201.34 61.3051C1201.39 61.2025 1201.52 61.1384 1201.72 61.1128H1202.07C1202.38 61.1128 1202.58 61.164 1202.69 61.2666C1202.79 61.3692 1202.85 61.523 1202.88 61.7281C1202.9 61.9333 1202.99 62.2794 1203.15 62.7666C1203.3 63.2538 1203.54 63.7922 1203.88 64.382C1204.77 65.6897 1206.02 66.3435 1207.61 66.3435C1210.1 66.3435 1211.34 65.3435 1211.34 63.3435C1211.34 62.5999 1211.11 61.9974 1210.65 61.5358C1210.13 60.9204 1209.07 60.4589 1207.45 60.1512C1205.84 59.8435 1204.77 59.5487 1204.26 59.2666C1203.34 58.8307 1202.61 58.241 1202.07 57.4974C1201.53 56.7538 1201.26 55.9589 1201.26 55.1128C1201.26 54.1128 1201.48 53.2666 1201.92 52.5743C1202.35 51.882 1202.9 51.3692 1203.57 51.0358C1204.24 50.7025 1204.88 50.4717 1205.49 50.3435C1206.11 50.2153 1206.67 50.1512 1207.19 50.1512H1207.61C1208.63 50.1512 1209.53 50.3435 1210.3 50.7281L1210.88 51.0358L1211.22 50.7666C1211.48 50.5358 1211.76 50.3179 1212.07 50.1128H1212.38H1212.53C1212.61 50.1128 1212.72 50.1897 1212.88 50.3435V55.4204L1212.65 55.6512H1211.57C1211.42 55.4974 1211.34 55.3435 1211.34 55.1897Z" fill="var(--fg, black)"/>
<path d="M1226.15 73.0355H1226.69C1227.69 73.0355 1228.29 72.856 1228.49 72.497V72.1893C1228.49 72.0098 1228.49 71.7662 1228.49 71.4585C1228.49 71.1508 1228.49 70.7662 1228.49 70.3047C1228.49 69.8431 1228.51 69.3431 1228.53 68.8047C1228.56 68.2662 1228.56 67.7021 1228.53 67.1124C1228.51 66.5226 1228.51 65.8944 1228.53 65.2278C1228.56 64.5611 1228.56 63.9073 1228.53 63.2662C1228.53 62.3944 1228.53 61.4842 1228.53 60.5355C1228.53 59.5867 1228.53 58.7406 1228.53 57.997C1228.53 57.2534 1228.53 56.5739 1228.53 55.9585C1228.53 55.3432 1228.52 54.8432 1228.49 54.4585C1228.47 54.0739 1228.47 53.8688 1228.49 53.8432C1228.42 53.356 1228.24 53.0355 1227.95 52.8816C1227.67 52.7278 1227.1 52.6124 1226.22 52.5355H1225.53V51.6508C1225.53 51.0611 1225.56 50.7662 1225.61 50.7662L1225.99 50.7278C1226.25 50.7021 1226.62 50.6765 1227.11 50.6508C1227.6 50.6252 1228.07 50.5996 1228.53 50.5739C1228.97 50.5483 1229.44 50.5226 1229.95 50.497C1230.47 50.4714 1230.85 50.4329 1231.11 50.3816C1231.36 50.3303 1231.51 50.3175 1231.53 50.3432H1231.65V51.3432L1231.69 52.3432L1231.99 52.0739C1233.51 50.9457 1235.27 50.3816 1237.3 50.3816C1239.38 50.3816 1241.15 51.2021 1242.61 52.8432C1244.07 54.4842 1244.81 56.5483 1244.84 59.0355C1244.84 61.6252 1244.01 63.7278 1242.34 65.3431C1240.67 66.9585 1238.79 67.7662 1236.69 67.7662C1234.94 67.7662 1233.4 67.2021 1232.07 66.0739L1231.76 65.8047V69.0739V71.2278C1231.76 71.9201 1231.79 72.3431 1231.84 72.497C1231.89 72.6508 1232.03 72.7919 1232.26 72.9201C1232.8 72.997 1233.43 73.0355 1234.15 73.0355H1234.76V74.8047H1234.45L1233.53 74.7662C1232.94 74.7406 1232.3 74.7278 1231.61 74.7278C1230.92 74.7278 1230.43 74.7149 1230.15 74.6893C1227.51 74.6893 1226.07 74.7278 1225.84 74.8047H1225.53V73.0355H1226.15ZM1241.07 58.9585C1241.07 57.0611 1240.63 55.4073 1239.76 53.997C1238.89 52.5867 1237.8 51.8816 1236.49 51.8816C1234.67 51.8816 1233.1 52.7149 1231.76 54.3816V63.5739C1232.79 65.4201 1234.22 66.3431 1236.07 66.3431C1237.38 66.3431 1238.53 65.6508 1239.53 64.2662C1240.53 62.8816 1241.04 61.1124 1241.07 58.9585Z" fill="var(--fg, black)"/>
<path d="M1247.76 65.5745H1248.3C1249.3 65.5745 1249.9 65.395 1250.11 65.0361V64.7284C1250.11 64.4976 1250.11 64.2027 1250.11 63.8438C1250.11 63.4848 1250.11 63.0617 1250.11 62.5745C1250.11 62.0873 1250.12 61.5361 1250.15 60.9207C1250.17 60.3053 1250.17 59.6643 1250.15 58.9976C1250.12 58.3309 1250.12 57.6258 1250.15 56.8822C1250.17 56.1386 1250.17 55.4079 1250.15 54.6899C1250.15 53.7412 1250.15 52.7412 1250.15 51.6899C1250.15 50.6386 1250.15 49.6771 1250.15 48.8053C1250.15 47.9335 1250.15 47.1643 1250.15 46.4976C1250.15 45.8309 1250.13 45.2668 1250.11 44.8053C1250.08 44.3438 1250.08 44.1258 1250.11 44.1514C1250.03 43.6643 1249.85 43.3438 1249.57 43.1899C1249.29 43.0361 1248.71 42.9207 1247.84 42.8438H1247.15V41.9591C1247.15 41.3694 1247.17 41.0745 1247.22 41.0745L1247.61 41.0361C1247.86 41.0104 1248.24 40.9848 1248.72 40.9591C1249.21 40.9335 1249.68 40.9079 1250.15 40.8822C1250.58 40.8566 1251.06 40.8309 1251.57 40.8053C1252.08 40.7796 1252.47 40.7412 1252.72 40.6899C1252.98 40.6386 1253.12 40.6258 1253.15 40.6514H1253.26V52.7668C1253.26 60.895 1253.27 64.9848 1253.3 65.0361C1253.4 65.2412 1253.56 65.3822 1253.76 65.4591C1254.3 65.5361 1254.93 65.5745 1255.65 65.5745H1256.26V67.3438H1255.95L1255.07 67.3053C1254.48 67.2796 1253.85 67.2668 1253.18 67.2668C1252.52 67.2668 1252.03 67.254 1251.72 67.2284C1251.42 67.2027 1250.93 67.2027 1250.26 67.2284C1249.59 67.254 1248.95 67.2796 1248.34 67.3053L1247.45 67.3438H1247.15V65.5745H1247.76Z" fill="var(--fg, black)"/>
<path d="M1262.11 55.6128C1262.11 55.6128 1261.83 55.6128 1261.26 55.6128C1260.7 55.6128 1260.22 55.4204 1259.84 55.0358C1259.45 54.6512 1259.26 54.1512 1259.26 53.5358C1259.26 52.6384 1259.7 51.8435 1260.57 51.1512C1261.44 50.4589 1262.99 50.1128 1265.22 50.1128C1267.09 50.1128 1268.61 50.523 1269.76 51.3435C1270.92 52.164 1271.68 53.1384 1272.07 54.2666C1272.2 54.6256 1272.26 55.023 1272.26 55.4589C1272.26 55.8948 1272.27 57.3692 1272.3 59.882V62.5743C1272.3 63.8051 1272.36 64.6512 1272.49 65.1128C1272.62 65.5743 1272.89 65.8051 1273.3 65.8051C1273.68 65.8051 1273.94 65.5999 1274.07 65.1897C1274.2 64.7794 1274.26 64.0999 1274.26 63.1512V61.7666H1275.8V63.2666C1275.77 64.2922 1275.74 64.8948 1275.68 65.0743C1275.45 65.8435 1275.01 66.4461 1274.34 66.882C1273.67 67.3179 1272.97 67.5487 1272.22 67.5743C1271.48 67.5999 1270.88 67.3692 1270.42 66.882C1269.95 66.3948 1269.65 65.8563 1269.49 65.2666V65.1128L1269.42 65.2281C1269.36 65.3051 1269.3 65.382 1269.22 65.4589C1269.15 65.5358 1269.04 65.6512 1268.92 65.8051C1268.79 65.9589 1268.63 66.0999 1268.45 66.2281C1268.27 66.3563 1268.08 66.5102 1267.88 66.6897C1267.67 66.8692 1267.44 67.0102 1267.18 67.1128C1266.93 67.2153 1266.65 67.3179 1266.34 67.4204C1266.03 67.523 1265.7 67.5999 1265.34 67.6512C1264.98 67.7025 1264.58 67.741 1264.15 67.7666C1262.61 67.7666 1261.22 67.3692 1259.99 66.5743C1258.76 65.7794 1258.15 64.664 1258.15 63.2281C1258.15 62.6897 1258.24 62.1769 1258.42 61.6897C1258.59 61.2025 1258.94 60.6769 1259.45 60.1128C1259.97 59.5487 1260.58 59.0743 1261.3 58.6897C1262.02 58.3051 1263.02 57.9461 1264.3 57.6128C1265.58 57.2794 1266.99 57.0871 1268.53 57.0358H1269.07V56.1897C1269.07 55.3179 1268.99 54.6769 1268.84 54.2666C1268.27 52.4461 1267.03 51.5358 1265.11 51.5358C1264.65 51.5358 1264.21 51.5487 1263.8 51.5743C1263.39 51.5999 1263.07 51.6512 1262.84 51.7281C1262.61 51.8051 1262.51 51.8435 1262.53 51.8435C1263.09 52.2281 1263.38 52.7922 1263.38 53.5358C1263.38 54.1769 1263.17 54.6769 1262.76 55.0358L1262.11 55.6128ZM1261.68 63.2666C1261.68 64.0615 1261.99 64.7666 1262.61 65.382C1263.22 65.9974 1263.98 66.3179 1264.88 66.3435C1265.85 66.3435 1266.71 66.0487 1267.45 65.4589C1268.2 64.8692 1268.7 64.0999 1268.95 63.1512C1269.01 62.9717 1269.04 62.1256 1269.07 60.6128C1269.07 59.1256 1269.06 58.382 1269.03 58.382C1268.83 58.382 1268.56 58.3948 1268.22 58.4204C1267.89 58.4461 1267.31 58.5615 1266.49 58.7666C1265.67 58.9717 1264.93 59.2281 1264.26 59.5358C1263.59 59.8435 1263.01 60.3179 1262.49 60.9589C1261.98 61.5999 1261.71 62.3692 1261.68 63.2666Z" fill="var(--fg, black)"/>
<path d="M1277.65 65.5745H1278.19C1279.19 65.5745 1279.79 65.395 1279.99 65.0361V64.7284C1279.99 64.4976 1279.99 64.2027 1279.99 63.8437C1279.99 63.4848 1279.99 63.0873 1279.99 62.6514C1279.99 62.2155 1280.01 61.7155 1280.03 61.1514C1280.06 60.5873 1280.06 60.0489 1280.03 59.5361C1280.03 58.7412 1280.03 57.895 1280.03 56.9976C1280.03 56.1002 1280.02 55.3437 1279.99 54.7284V53.8437C1279.92 53.3566 1279.74 53.0361 1279.45 52.8822C1279.17 52.7284 1278.6 52.613 1277.72 52.5361H1277.03V51.6514C1277.03 51.0617 1277.06 50.7668 1277.11 50.7668L1277.49 50.7284C1277.75 50.7027 1278.11 50.6771 1278.57 50.6514C1279.03 50.6258 1279.51 50.6002 1279.99 50.5745C1280.43 50.5489 1280.89 50.5232 1281.38 50.4976C1281.86 50.472 1282.24 50.4335 1282.49 50.3822C1282.75 50.3309 1282.89 50.3181 1282.92 50.3437H1283.03V51.8822C1283.03 52.8566 1283.04 53.3437 1283.07 53.3437C1283.1 53.3437 1283.16 53.2796 1283.26 53.1514C1283.36 53.0232 1283.52 52.8309 1283.72 52.5745C1283.93 52.3181 1284.17 52.0873 1284.45 51.8822C1284.74 51.6771 1285.11 51.4335 1285.57 51.1514C1286.03 50.8694 1286.52 50.6643 1287.03 50.5361C1287.54 50.4079 1288.2 50.3437 1288.99 50.3437C1291.92 50.4463 1293.54 51.895 1293.88 54.6899C1293.9 54.8694 1293.92 56.6514 1293.92 60.0361V63.3437C1293.92 64.3181 1293.94 64.895 1293.99 65.0745C1294.04 65.254 1294.19 65.3822 1294.42 65.4591C1294.95 65.5361 1295.58 65.5745 1296.3 65.5745H1296.92V67.3438H1296.61L1295.69 67.3053C1295.1 67.2796 1294.45 67.2668 1293.76 67.2668C1293.07 67.2668 1292.58 67.254 1292.3 67.2284C1289.66 67.2284 1288.22 67.2668 1287.99 67.3438H1287.69V65.5745H1288.3C1289.86 65.5745 1290.65 65.3694 1290.65 64.9591C1290.67 64.9079 1290.69 63.1386 1290.69 59.6514C1290.66 56.1899 1290.63 54.3566 1290.61 54.1514C1290.45 53.4335 1290.2 52.895 1289.84 52.5361C1289.48 52.1771 1289.17 51.9591 1288.92 51.8822C1288.66 51.8053 1288.33 51.7796 1287.92 51.8053C1286.76 51.8053 1285.75 52.2412 1284.88 53.113C1284.19 53.8053 1283.75 54.5104 1283.57 55.2284C1283.39 55.9463 1283.29 57.0104 1283.26 58.4207V60.8822V63.1899C1283.26 63.9591 1283.28 64.472 1283.3 64.7284C1283.33 64.9848 1283.36 65.1514 1283.42 65.2284C1283.47 65.3053 1283.58 65.3822 1283.76 65.4591C1284.3 65.5361 1284.93 65.5745 1285.65 65.5745H1286.26V67.3438H1285.95L1285.07 67.3053C1284.45 67.2796 1283.8 67.2668 1283.11 67.2668C1282.42 67.2668 1281.93 67.254 1281.65 67.2284C1279.01 67.2284 1277.57 67.2668 1277.34 67.3438H1277.03V65.5745H1277.65Z" fill="var(--fg, black)"/>
<path d="M1298.53 58.9589C1298.53 57.5487 1298.79 56.2666 1299.3 55.1128C1299.81 53.9589 1300.45 53.023 1301.22 52.3051C1301.99 51.5871 1302.83 51.0487 1303.72 50.6897C1304.62 50.3307 1305.47 50.1384 1306.26 50.1128C1307.62 50.1128 1308.79 50.3435 1309.76 50.8051C1310.74 51.2666 1311.48 51.9076 1311.99 52.7281C1312.51 53.5487 1312.87 54.3692 1313.07 55.1897C1313.28 56.0102 1313.39 56.9204 1313.42 57.9204C1313.42 58.0999 1313.33 58.2794 1313.15 58.4589H1302.3V59.0358C1302.3 62.8307 1303.58 65.1384 1306.15 65.9589C1306.66 66.1128 1307.22 66.1897 1307.84 66.1897C1308.92 66.1897 1309.84 65.7794 1310.61 64.9589C1311.04 64.523 1311.39 63.9846 1311.65 63.3435L1312.03 62.4204C1312.11 62.3435 1312.31 62.3051 1312.65 62.3051H1312.76C1313.2 62.3051 1313.42 62.4333 1313.42 62.6897C1313.42 62.7922 1313.38 62.9589 1313.3 63.1897C1312.81 64.5999 1312.01 65.7153 1310.88 66.5358C1309.75 67.3563 1308.48 67.7666 1307.07 67.7666C1304.63 67.7666 1302.61 66.882 1300.99 65.1128C1299.38 63.3435 1298.56 61.2922 1298.53 58.9589ZM1310.26 56.7666C1309.98 53.4846 1308.76 51.741 1306.61 51.5358H1306.53C1306.33 51.5358 1306.12 51.5487 1305.92 51.5743C1305.71 51.5999 1305.39 51.7025 1304.95 51.882C1304.52 52.0615 1304.15 52.3307 1303.84 52.6897C1303.53 53.0487 1303.24 53.5743 1302.95 54.2666C1302.67 54.9589 1302.47 55.8051 1302.34 56.8051V57.0743H1310.26V56.7666Z" fill="var(--fg, black)"/>
<path d="M1037.14 110.726C1037.14 108.291 1037.97 106.188 1039.64 104.419C1041.3 102.649 1043.32 101.752 1045.67 101.726C1047.98 101.726 1049.97 102.598 1051.64 104.342C1053.3 106.085 1054.15 108.201 1054.17 110.688C1054.17 113.124 1053.35 115.175 1051.71 116.842C1050.07 118.508 1048.06 119.342 1045.67 119.342C1043.19 119.342 1041.15 118.483 1039.56 116.765C1037.97 115.047 1037.16 113.034 1037.14 110.726ZM1045.67 117.803C1048.8 117.803 1050.37 115.714 1050.37 111.534V110.303V109.342C1050.37 108.778 1050.35 108.291 1050.33 107.88C1050.3 107.47 1050.21 106.983 1050.06 106.419C1049.91 105.855 1049.7 105.393 1049.44 105.034C1049.19 104.675 1048.79 104.316 1048.25 103.957C1047.71 103.598 1047.08 103.342 1046.37 103.188C1046.24 103.162 1046.03 103.149 1045.75 103.149C1044.98 103.149 1044.25 103.303 1043.56 103.611C1042.46 104.175 1041.74 104.957 1041.41 105.957C1041.07 106.957 1040.91 108.137 1040.91 109.496V110.265C1040.91 112.726 1041.15 114.457 1041.64 115.457C1042.46 117.021 1043.8 117.803 1045.67 117.803Z" fill="#AD1E1E"/>
<path d="M1067.1 119.381C1065.23 119.381 1063.44 118.535 1061.75 116.842L1061.37 117.535C1061.32 117.612 1061.25 117.727 1061.17 117.881C1061.1 118.035 1061.02 118.176 1060.94 118.304C1060.87 118.432 1060.82 118.522 1060.79 118.573L1060.6 118.919L1059.83 118.958H1059.06V107.496C1059.06 99.7783 1059.05 95.868 1059.02 95.7655C1058.94 95.2783 1058.76 94.9578 1058.48 94.8039C1058.2 94.6501 1057.62 94.5347 1056.75 94.4578H1056.06V93.5732C1056.06 92.9834 1056.08 92.6886 1056.14 92.6886L1056.52 92.6501C1056.78 92.6245 1057.15 92.5988 1057.64 92.5732C1058.12 92.5475 1058.6 92.5219 1059.06 92.4962C1059.49 92.4706 1059.97 92.445 1060.48 92.4193C1060.99 92.3937 1061.38 92.3552 1061.64 92.3039C1061.89 92.2527 1062.03 92.2398 1062.06 92.2655H1062.17V98.0732C1062.17 101.971 1062.19 103.919 1062.21 103.919L1062.33 103.804C1062.41 103.727 1062.52 103.637 1062.67 103.535C1062.83 103.432 1063.02 103.304 1063.25 103.15C1063.48 102.996 1063.75 102.868 1064.06 102.765C1064.37 102.663 1064.7 102.535 1065.06 102.381C1065.42 102.227 1065.83 102.124 1066.29 102.073C1066.75 102.022 1067.23 101.983 1067.71 101.958C1069.71 101.958 1071.48 102.765 1073.02 104.381C1074.56 105.996 1075.34 108.086 1075.37 110.65C1075.37 113.24 1074.55 115.342 1072.91 116.958C1071.26 118.573 1069.33 119.381 1067.1 119.381ZM1062.29 115.189C1062.29 115.214 1062.35 115.317 1062.48 115.496C1062.61 115.676 1062.73 115.817 1062.83 115.919C1062.93 116.022 1063.06 116.176 1063.21 116.381C1063.37 116.586 1063.52 116.74 1063.67 116.842C1063.83 116.945 1064.02 117.086 1064.25 117.265C1064.48 117.445 1064.7 117.56 1064.91 117.612C1065.11 117.663 1065.38 117.74 1065.71 117.842C1066.05 117.945 1066.35 117.983 1066.64 117.958C1067.53 117.958 1068.41 117.701 1069.25 117.189C1070.1 116.676 1070.73 115.817 1071.14 114.612C1071.44 113.714 1071.6 112.445 1071.6 110.804C1071.6 108.881 1071.44 107.458 1071.14 106.535C1070.44 104.432 1069.01 103.381 1066.83 103.381C1066.06 103.381 1065.28 103.573 1064.48 103.958C1063.69 104.342 1063.03 104.894 1062.52 105.612L1062.29 105.919V115.189Z" fill="#AD1E1E"/>
<path d="M1080.44 95.5341C1080.44 94.8162 1080.67 94.2521 1081.14 93.8418C1081.6 93.4315 1082.16 93.2264 1082.83 93.2264C1083.42 93.2777 1083.93 93.4956 1084.37 93.8803C1084.8 94.2649 1085.02 94.8162 1085.02 95.5341C1085.02 96.3033 1084.8 96.8803 1084.37 97.2649C1083.93 97.6495 1083.39 97.8418 1082.75 97.8418C1082.11 97.8418 1081.57 97.6495 1081.14 97.2649C1080.7 96.8803 1080.47 96.3033 1080.44 95.5341ZM1077.75 125.226C1078.52 125.355 1078.98 125.419 1079.14 125.419C1080.67 125.419 1081.58 124.252 1081.87 121.919C1081.92 121.611 1081.94 118.816 1081.94 113.534C1081.94 108.252 1081.93 105.534 1081.91 105.38C1081.8 104.919 1081.6 104.611 1081.29 104.457C1080.98 104.303 1080.37 104.201 1079.44 104.149H1078.67V103.265C1078.67 102.675 1078.7 102.38 1078.75 102.38L1078.91 102.342C1079.01 102.342 1079.16 102.342 1079.37 102.342C1079.57 102.342 1079.79 102.329 1080.02 102.303C1080.25 102.278 1080.52 102.265 1080.83 102.265C1081.14 102.265 1081.46 102.239 1081.79 102.188C1082.25 102.162 1082.74 102.137 1083.25 102.111C1083.76 102.085 1084.16 102.047 1084.44 101.996C1084.73 101.944 1084.88 101.932 1084.91 101.957H1085.06V111.88C1085.03 117.521 1085.02 120.637 1085.02 121.226C1085.02 121.816 1084.94 122.316 1084.79 122.726C1084.38 123.932 1083.64 124.919 1082.56 125.688C1081.48 126.457 1080.26 126.842 1078.91 126.842C1077.65 126.842 1076.61 126.508 1075.79 125.842C1074.97 125.175 1074.56 124.38 1074.56 123.457C1074.56 122.867 1074.75 122.38 1075.14 121.996C1075.52 121.611 1076.01 121.419 1076.6 121.419C1077.19 121.419 1077.67 121.611 1078.06 121.996C1078.44 122.38 1078.65 122.88 1078.67 123.496C1078.67 124.137 1078.37 124.714 1077.75 125.226Z" fill="#AD1E1E"/>
<path d="M1089.52 110.573C1089.52 109.163 1089.78 107.881 1090.29 106.727C1090.8 105.573 1091.44 104.637 1092.21 103.919C1092.98 103.201 1093.82 102.663 1094.71 102.304C1095.61 101.945 1096.46 101.753 1097.25 101.727C1098.61 101.727 1099.78 101.958 1100.75 102.419C1101.73 102.881 1102.47 103.522 1102.98 104.342C1103.5 105.163 1103.85 105.983 1104.06 106.804C1104.26 107.624 1104.38 108.535 1104.41 109.535C1104.41 109.714 1104.32 109.894 1104.14 110.073H1093.29V110.65C1093.29 114.445 1094.57 116.753 1097.14 117.573C1097.65 117.727 1098.21 117.804 1098.83 117.804C1099.91 117.804 1100.83 117.394 1101.6 116.573C1102.03 116.137 1102.38 115.599 1102.64 114.958L1103.02 114.035C1103.1 113.958 1103.3 113.919 1103.64 113.919H1103.75C1104.19 113.919 1104.41 114.048 1104.41 114.304C1104.41 114.407 1104.37 114.573 1104.29 114.804C1103.8 116.214 1103 117.33 1101.87 118.15C1100.74 118.971 1099.47 119.381 1098.06 119.381C1095.62 119.381 1093.6 118.496 1091.98 116.727C1090.37 114.958 1089.55 112.907 1089.52 110.573ZM1101.25 108.381C1100.97 105.099 1099.75 103.355 1097.6 103.15H1097.52C1097.32 103.15 1097.11 103.163 1096.91 103.189C1096.7 103.214 1096.38 103.317 1095.94 103.496C1095.51 103.676 1095.14 103.945 1094.83 104.304C1094.52 104.663 1094.23 105.189 1093.94 105.881C1093.66 106.573 1093.46 107.419 1093.33 108.419V108.689H1101.25V108.381Z" fill="#AD1E1E"/>
<path d="M1119.75 107.226C1119.75 107.226 1119.48 107.226 1118.94 107.226C1118.41 107.226 1117.94 107.034 1117.56 106.649C1117.17 106.265 1116.97 105.778 1116.94 105.188C1116.94 104.598 1117.14 104.111 1117.52 103.726C1117.65 103.598 1117.71 103.521 1117.71 103.496C1117.71 103.47 1117.59 103.444 1117.33 103.419C1116.66 103.316 1116.03 103.265 1115.44 103.265C1114.19 103.265 1113.16 103.675 1112.37 104.496C1111.16 105.701 1110.56 107.714 1110.56 110.534C1110.56 112.637 1110.96 114.291 1111.75 115.496C1112.8 117.06 1114.21 117.842 1115.98 117.842C1117.03 117.842 1117.88 117.508 1118.52 116.842C1119.16 116.175 1119.62 115.38 1119.91 114.457C1119.96 114.252 1120.02 114.124 1120.1 114.073C1120.17 114.021 1120.38 113.996 1120.71 113.996H1121.25C1121.41 114.149 1121.48 114.265 1121.48 114.342C1121.48 114.444 1121.43 114.649 1121.33 114.957C1121.23 115.265 1121.02 115.688 1120.71 116.226C1120.41 116.765 1120.03 117.252 1119.6 117.688C1119.16 118.124 1118.55 118.521 1117.75 118.88C1116.96 119.239 1116.07 119.406 1115.1 119.38C1112.89 119.38 1110.97 118.56 1109.33 116.919C1107.69 115.278 1106.85 113.214 1106.83 110.726C1106.83 108.06 1107.66 105.893 1109.33 104.226C1111 102.56 1112.93 101.726 1115.14 101.726C1117.34 101.726 1118.88 102.073 1119.75 102.765C1120.62 103.457 1121.06 104.278 1121.06 105.226C1121.06 105.816 1120.84 106.291 1120.41 106.649L1119.75 107.226Z" fill="#AD1E1E"/>
<path d="M1123.64 102.726C1124.99 102.624 1126.05 101.906 1126.79 100.573C1127.53 99.2392 1127.94 97.6751 1128.02 95.8803V95.3033H1129.56V102.38H1134.75V104.149H1129.56V109.688C1129.58 112.893 1129.6 114.701 1129.6 115.111C1129.6 115.521 1129.69 115.932 1129.87 116.342C1130.23 117.342 1130.85 117.842 1131.75 117.842C1132.88 117.842 1133.57 116.932 1133.83 115.111C1133.85 114.906 1133.87 114.316 1133.87 113.342V111.996H1135.4V113.342V113.803C1135.4 115.778 1134.87 117.278 1133.79 118.303C1133.1 118.996 1132.2 119.342 1131.1 119.342C1130.23 119.342 1129.47 119.188 1128.83 118.88C1128.19 118.573 1127.7 118.175 1127.37 117.688C1127.03 117.201 1126.79 116.752 1126.64 116.342C1126.48 115.932 1126.39 115.521 1126.37 115.111C1126.34 114.932 1126.33 113.034 1126.33 109.419V104.149H1123.29V102.726H1123.64Z" fill="#AD1E1E"/>
<path d="M1184.72 449.952H1185.16C1185.99 449.952 1186.48 449.805 1186.65 449.51V449.257C1186.65 449.11 1186.65 448.91 1186.65 448.657C1186.65 448.404 1186.65 448.088 1186.65 447.709C1186.65 447.33 1186.66 446.919 1186.68 446.477C1186.7 446.035 1186.7 445.571 1186.68 445.087C1186.66 444.603 1186.66 444.087 1186.68 443.539C1186.7 442.991 1186.7 442.454 1186.68 441.928C1186.68 441.212 1186.68 440.464 1186.68 439.685C1186.68 438.906 1186.68 438.211 1186.68 437.6C1186.68 436.989 1186.68 436.431 1186.68 435.925C1186.68 435.42 1186.67 435.009 1186.65 434.693C1186.63 434.377 1186.63 434.209 1186.65 434.188C1186.59 433.788 1186.44 433.524 1186.21 433.398C1185.97 433.272 1185.5 433.177 1184.78 433.114H1184.22V432.387C1184.22 431.903 1184.24 431.661 1184.28 431.661L1184.6 431.629C1184.81 431.608 1185.11 431.587 1185.51 431.566C1185.91 431.545 1186.3 431.524 1186.68 431.503C1187.04 431.482 1187.43 431.46 1187.85 431.439C1188.27 431.418 1188.59 431.387 1188.8 431.345C1189.01 431.303 1189.12 431.292 1189.14 431.313H1189.24V432.134L1189.27 432.956L1189.52 432.735C1190.77 431.808 1192.22 431.345 1193.88 431.345C1195.59 431.345 1197.04 432.019 1198.24 433.366C1199.44 434.714 1200.05 436.41 1200.08 438.453C1200.08 440.58 1199.39 442.307 1198.02 443.634C1196.65 444.961 1195.1 445.624 1193.38 445.624C1191.95 445.624 1190.68 445.161 1189.59 444.234L1189.33 444.013V446.698V448.467C1189.33 449.036 1189.35 449.383 1189.4 449.51C1189.44 449.636 1189.56 449.752 1189.74 449.857C1190.19 449.92 1190.7 449.952 1191.29 449.952H1191.8V451.405H1191.55L1190.79 451.374C1190.3 451.353 1189.78 451.342 1189.21 451.342C1188.64 451.342 1188.24 451.332 1188.01 451.31C1185.84 451.31 1184.66 451.342 1184.47 451.405H1184.22V449.952H1184.72ZM1196.98 438.39C1196.98 436.831 1196.62 435.473 1195.9 434.314C1195.19 433.156 1194.29 432.577 1193.22 432.577C1191.72 432.577 1190.43 433.261 1189.33 434.63V442.181C1190.18 443.697 1191.36 444.455 1192.87 444.455C1193.95 444.455 1194.89 443.886 1195.72 442.749C1196.54 441.612 1196.96 440.159 1196.98 438.39Z" fill="var(--fg, black)"/>
<path d="M1202.03 438.39C1202.03 437.231 1202.24 436.178 1202.67 435.23C1203.09 434.283 1203.61 433.514 1204.25 432.924C1204.88 432.335 1205.56 431.892 1206.3 431.597C1207.04 431.303 1207.73 431.145 1208.38 431.123C1209.5 431.123 1210.46 431.313 1211.26 431.692C1212.06 432.071 1212.67 432.598 1213.09 433.272C1213.51 433.946 1213.81 434.62 1213.98 435.294C1214.14 435.968 1214.24 436.715 1214.26 437.537C1214.26 437.684 1214.19 437.831 1214.04 437.979H1205.13V438.453C1205.13 441.57 1206.18 443.465 1208.29 444.139C1208.71 444.266 1209.17 444.329 1209.68 444.329C1210.56 444.329 1211.32 443.992 1211.95 443.318C1212.31 442.96 1212.6 442.518 1212.81 441.991L1213.12 441.233C1213.19 441.17 1213.35 441.138 1213.63 441.138H1213.72C1214.08 441.138 1214.26 441.243 1214.26 441.454C1214.26 441.538 1214.23 441.675 1214.17 441.865C1213.76 443.023 1213.1 443.939 1212.17 444.613C1211.25 445.287 1210.21 445.624 1209.05 445.624C1207.05 445.624 1205.38 444.897 1204.06 443.444C1202.73 441.991 1202.05 440.306 1202.03 438.39ZM1211.67 436.589C1211.44 433.893 1210.44 432.461 1208.67 432.292H1208.6C1208.44 432.292 1208.27 432.303 1208.1 432.324C1207.93 432.345 1207.67 432.429 1207.31 432.577C1206.95 432.724 1206.65 432.945 1206.39 433.24C1206.14 433.535 1205.9 433.967 1205.67 434.535C1205.44 435.104 1205.27 435.799 1205.16 436.62V436.842H1211.67V436.589Z" fill="var(--fg, black)"/>
<path d="M1216.31 443.822H1216.76C1217.58 443.822 1218.07 443.675 1218.24 443.38V443.127C1218.24 442.938 1218.24 442.695 1218.24 442.401C1218.24 442.106 1218.25 441.779 1218.27 441.421C1218.29 441.063 1218.29 440.652 1218.27 440.189C1218.25 439.726 1218.25 439.284 1218.27 438.862C1218.27 438.209 1218.27 437.514 1218.27 436.777C1218.27 436.04 1218.27 435.419 1218.27 434.913L1218.24 434.187C1218.18 433.787 1218.03 433.523 1217.8 433.397C1217.57 433.271 1217.09 433.176 1216.38 433.113H1215.81V432.386C1215.81 431.902 1215.83 431.659 1215.87 431.659L1216.19 431.628C1216.4 431.607 1216.69 431.586 1217.07 431.565C1217.45 431.544 1217.83 431.523 1218.21 431.501C1218.55 431.48 1218.91 431.459 1219.31 431.438C1219.71 431.417 1220.02 431.386 1220.23 431.344C1220.44 431.301 1220.56 431.291 1220.58 431.312H1220.67V433.492C1221.49 432.06 1222.52 431.344 1223.74 431.344H1223.93C1224.87 431.344 1225.57 431.575 1226.01 432.039C1226.45 432.502 1226.67 432.986 1226.67 433.492C1226.67 433.934 1226.54 434.313 1226.26 434.629C1225.99 434.945 1225.59 435.103 1225.06 435.103C1224.54 435.103 1224.15 434.934 1223.89 434.597C1223.64 434.26 1223.51 433.902 1223.48 433.523C1223.48 433.334 1223.51 433.165 1223.55 433.018C1223.59 432.87 1223.64 432.744 1223.71 432.639C1223.77 432.533 1223.8 432.481 1223.8 432.481C1223.76 432.439 1223.52 432.481 1223.07 432.607C1222.74 432.776 1222.48 432.934 1222.32 433.081C1221.33 434.029 1220.83 435.914 1220.83 438.736V440.41C1220.83 440.684 1220.83 440.968 1220.83 441.263C1220.83 441.558 1220.83 441.832 1220.83 442.085C1220.83 442.337 1220.84 442.548 1220.86 442.716C1220.88 442.885 1220.88 443.043 1220.86 443.19V443.348C1220.88 443.39 1220.91 443.433 1220.96 443.475C1221 443.517 1221.05 443.548 1221.11 443.569C1221.18 443.591 1221.23 443.622 1221.27 443.664C1221.31 443.706 1221.39 443.727 1221.49 443.727C1221.6 443.727 1221.67 443.738 1221.71 443.759C1221.76 443.78 1221.85 443.791 1222 443.791C1222.15 443.791 1222.24 443.791 1222.28 443.791C1222.33 443.791 1222.43 443.801 1222.6 443.822C1222.77 443.843 1222.87 443.843 1222.92 443.822H1223.89V445.275H1223.61C1223.23 445.212 1221.89 445.181 1219.6 445.181C1217.43 445.181 1216.25 445.212 1216.06 445.275H1215.81V443.822H1216.31Z" fill="var(--fg, black)"/>
<path d="M1236.18 445.275C1235.81 445.212 1234.47 445.181 1232.17 445.181C1230 445.181 1228.82 445.212 1228.63 445.275H1228.38V443.822H1228.89C1229.48 443.822 1229.99 443.791 1230.43 443.727C1230.6 443.664 1230.73 443.548 1230.81 443.38C1230.83 443.338 1230.85 441.611 1230.85 438.199V433.113H1228.6V431.659H1230.85V429.574L1230.88 427.458L1230.94 427.142C1231.34 425.773 1232.01 424.783 1232.96 424.172C1233.91 423.561 1234.91 423.182 1235.96 423.035C1235.98 423.035 1236.08 423.035 1236.25 423.035C1236.42 423.035 1236.56 423.024 1236.69 423.003C1237.55 423.067 1238.21 423.34 1238.65 423.825C1239.09 424.309 1239.31 424.857 1239.31 425.467C1239.31 425.952 1239.16 426.342 1238.87 426.636C1238.57 426.931 1238.19 427.079 1237.7 427.079C1237.22 427.079 1236.83 426.931 1236.53 426.636C1236.24 426.342 1236.09 425.952 1236.09 425.467C1236.09 425.046 1236.28 424.625 1236.66 424.204H1236.53C1236.45 424.183 1236.33 424.172 1236.18 424.172C1235.59 424.172 1235.07 424.393 1234.6 424.836C1234.14 425.278 1233.78 425.857 1233.53 426.573C1233.4 426.994 1233.33 427.995 1233.31 429.574V431.659H1236.82V433.113H1233.4V438.167C1233.4 441.579 1233.41 443.306 1233.44 443.348C1233.46 443.39 1233.49 443.433 1233.53 443.475C1233.57 443.517 1233.63 443.548 1233.69 443.569C1233.75 443.591 1233.8 443.622 1233.85 443.664C1233.89 443.706 1233.96 443.727 1234.07 443.727C1234.17 443.727 1234.25 443.738 1234.29 443.759C1234.33 443.78 1234.43 443.791 1234.57 443.791C1234.72 443.791 1234.82 443.791 1234.86 443.791C1234.9 443.791 1235 443.801 1235.17 443.822C1235.34 443.843 1235.45 443.843 1235.49 443.822H1236.47V445.275H1236.18Z" fill="var(--fg, black)"/>
<path d="M1238.11 438.39C1238.11 437.231 1238.32 436.178 1238.74 435.23C1239.16 434.283 1239.69 433.514 1240.32 432.924C1240.95 432.335 1241.64 431.892 1242.38 431.597C1243.11 431.303 1243.81 431.145 1244.46 431.123C1245.58 431.123 1246.54 431.313 1247.34 431.692C1248.14 432.071 1248.75 432.598 1249.17 433.272C1249.59 433.946 1249.88 434.62 1250.05 435.294C1250.22 435.968 1250.32 436.715 1250.34 437.537C1250.34 437.684 1250.26 437.831 1250.12 437.979H1241.21V438.453C1241.21 441.57 1242.26 443.465 1244.37 444.139C1244.79 444.266 1245.25 444.329 1245.76 444.329C1246.64 444.329 1247.4 443.992 1248.03 443.318C1248.39 442.96 1248.67 442.518 1248.88 441.991L1249.2 441.233C1249.26 441.17 1249.43 441.138 1249.71 441.138H1249.8C1250.16 441.138 1250.34 441.243 1250.34 441.454C1250.34 441.538 1250.31 441.675 1250.24 441.865C1249.84 443.023 1249.18 443.939 1248.25 444.613C1247.33 445.287 1246.28 445.624 1245.12 445.624C1243.12 445.624 1241.46 444.897 1240.13 443.444C1238.81 441.991 1238.13 440.306 1238.11 438.39ZM1247.75 436.589C1247.52 433.893 1246.51 432.461 1244.75 432.292H1244.68C1244.51 432.292 1244.35 432.303 1244.18 432.324C1244.01 432.345 1243.75 432.429 1243.39 432.577C1243.03 432.724 1242.72 432.945 1242.47 433.24C1242.22 433.535 1241.98 433.967 1241.74 434.535C1241.51 435.104 1241.34 435.799 1241.24 436.62V436.842H1247.75V436.589Z" fill="var(--fg, black)"/>
<path d="M1262.94 435.64C1262.94 435.64 1262.72 435.64 1262.28 435.64C1261.84 435.64 1261.46 435.482 1261.14 435.166C1260.83 434.85 1260.66 434.45 1260.64 433.966C1260.64 433.481 1260.79 433.081 1261.11 432.765C1261.22 432.66 1261.27 432.597 1261.27 432.576C1261.27 432.555 1261.16 432.533 1260.95 432.512C1260.4 432.428 1259.89 432.386 1259.4 432.386C1258.37 432.386 1257.53 432.723 1256.88 433.397C1255.89 434.387 1255.39 436.04 1255.39 438.357C1255.39 440.084 1255.72 441.442 1256.37 442.432C1257.23 443.717 1258.39 444.359 1259.85 444.359C1260.71 444.359 1261.4 444.085 1261.93 443.538C1262.46 442.99 1262.84 442.337 1263.07 441.579C1263.11 441.411 1263.16 441.305 1263.23 441.263C1263.29 441.221 1263.46 441.2 1263.73 441.2H1264.17C1264.3 441.326 1264.36 441.421 1264.36 441.484C1264.36 441.569 1264.32 441.737 1264.24 441.99C1264.15 442.243 1263.98 442.59 1263.73 443.032C1263.48 443.475 1263.17 443.875 1262.82 444.233C1262.46 444.591 1261.95 444.917 1261.3 445.212C1260.65 445.507 1259.92 445.644 1259.12 445.623C1257.31 445.623 1255.73 444.949 1254.38 443.601C1253.03 442.253 1252.35 440.558 1252.33 438.515C1252.33 436.324 1253.01 434.545 1254.38 433.176C1255.75 431.807 1257.34 431.122 1259.15 431.122C1260.96 431.122 1262.23 431.407 1262.94 431.975C1263.66 432.544 1264.02 433.218 1264.02 433.997C1264.02 434.482 1263.84 434.871 1263.48 435.166L1262.94 435.64Z" fill="var(--fg, black)"/>
<path d="M1266.13 431.944C1267.25 431.86 1268.11 431.27 1268.72 430.175C1269.33 429.08 1269.67 427.795 1269.73 426.321V425.847H1271V431.66H1275.26V433.113H1271V437.662C1271.02 440.295 1271.03 441.78 1271.03 442.117C1271.03 442.454 1271.1 442.791 1271.25 443.128C1271.55 443.949 1272.06 444.36 1272.8 444.36C1273.73 444.36 1274.29 443.612 1274.5 442.117C1274.53 441.948 1274.54 441.464 1274.54 440.664V439.558H1275.8V440.664V441.043C1275.8 442.664 1275.36 443.896 1274.47 444.739C1273.9 445.307 1273.17 445.592 1272.26 445.592C1271.55 445.592 1270.92 445.465 1270.4 445.213C1269.87 444.96 1269.47 444.634 1269.2 444.233C1268.92 443.833 1268.72 443.465 1268.6 443.128C1268.47 442.791 1268.4 442.454 1268.38 442.117C1268.35 441.969 1268.34 440.411 1268.34 437.441V433.113H1265.85V431.944H1266.13Z" fill="var(--fg, black)"/>
<path d="M1206.08 473.677C1205.7 473.614 1204.36 473.582 1202.07 473.582C1199.9 473.582 1198.72 473.614 1198.53 473.677H1198.27V472.224H1198.78C1199.37 472.224 1199.89 472.192 1200.33 472.129C1200.5 472.066 1200.62 471.95 1200.71 471.781C1200.73 471.739 1200.74 470.012 1200.74 466.6V461.514H1198.5V460.061H1200.74V457.976L1200.77 455.859L1200.83 455.543C1201.23 454.174 1201.91 453.184 1202.86 452.574C1203.8 451.963 1204.8 451.584 1205.86 451.436C1205.88 451.436 1205.97 451.436 1206.14 451.436C1206.31 451.436 1206.46 451.426 1206.58 451.405C1207.45 451.468 1208.1 451.742 1208.54 452.226C1208.98 452.71 1209.21 453.258 1209.21 453.869C1209.21 454.353 1209.06 454.743 1208.76 455.038C1208.47 455.333 1208.08 455.48 1207.59 455.48C1207.11 455.48 1206.72 455.333 1206.43 455.038C1206.13 454.743 1205.98 454.353 1205.98 453.869C1205.98 453.448 1206.17 453.026 1206.55 452.605H1206.43C1206.34 452.584 1206.23 452.574 1206.08 452.574C1205.49 452.574 1204.96 452.795 1204.5 453.237C1204.04 453.679 1203.68 454.258 1203.42 454.975C1203.3 455.396 1203.22 456.396 1203.2 457.976V460.061H1206.71V461.514H1203.3V466.569C1203.3 469.981 1203.31 471.708 1203.33 471.75C1203.35 471.792 1203.38 471.834 1203.42 471.876C1203.47 471.918 1203.52 471.95 1203.58 471.971C1203.65 471.992 1203.7 472.023 1203.74 472.066C1203.78 472.108 1203.86 472.129 1203.96 472.129C1204.07 472.129 1204.14 472.139 1204.18 472.16C1204.22 472.181 1204.32 472.192 1204.47 472.192C1204.61 472.192 1204.71 472.192 1204.75 472.192C1204.79 472.192 1204.9 472.202 1205.07 472.224C1205.24 472.245 1205.34 472.245 1205.38 472.224H1206.36V473.677H1206.08Z" fill="var(--fg, black)"/>
<path d="M1208 466.916C1208 464.915 1208.69 463.188 1210.06 461.735C1211.43 460.281 1213.08 459.544 1215.02 459.523C1216.91 459.523 1218.55 460.239 1219.91 461.671C1221.28 463.104 1221.98 464.841 1222 466.884C1222 468.885 1221.33 470.57 1219.98 471.939C1218.63 473.308 1216.98 473.992 1215.02 473.992C1212.98 473.992 1211.3 473.287 1210 471.876C1208.69 470.464 1208.03 468.811 1208 466.916ZM1215.02 472.729C1217.59 472.729 1218.87 471.012 1218.87 467.579V466.568V465.778C1218.87 465.315 1218.86 464.915 1218.84 464.578C1218.82 464.241 1218.75 463.841 1218.62 463.377C1218.49 462.914 1218.32 462.535 1218.11 462.24C1217.9 461.945 1217.58 461.65 1217.13 461.356C1216.69 461.061 1216.18 460.85 1215.59 460.724C1215.48 460.703 1215.31 460.692 1215.08 460.692C1214.45 460.692 1213.85 460.819 1213.28 461.071C1212.38 461.535 1211.79 462.177 1211.51 462.998C1211.24 463.82 1211.1 464.789 1211.1 465.905V466.537C1211.1 468.558 1211.3 469.98 1211.7 470.801C1212.38 472.086 1213.48 472.729 1215.02 472.729Z" fill="var(--fg, black)"/>
<path d="M1234.61 464.041C1234.61 464.041 1234.38 464.041 1233.94 464.041C1233.5 464.041 1233.12 463.883 1232.8 463.567C1232.49 463.252 1232.32 462.851 1232.3 462.367C1232.3 461.883 1232.46 461.482 1232.77 461.166C1232.88 461.061 1232.93 460.998 1232.93 460.977C1232.93 460.956 1232.83 460.935 1232.62 460.914C1232.07 460.83 1231.55 460.787 1231.07 460.787C1230.04 460.787 1229.19 461.124 1228.54 461.798C1227.55 462.788 1227.06 464.441 1227.06 466.758C1227.06 468.485 1227.38 469.844 1228.03 470.834C1228.9 472.118 1230.06 472.761 1231.51 472.761C1232.37 472.761 1233.07 472.487 1233.59 471.939C1234.12 471.392 1234.5 470.739 1234.73 469.981C1234.77 469.812 1234.83 469.707 1234.89 469.665C1234.95 469.623 1235.12 469.601 1235.4 469.601H1235.84C1235.96 469.728 1236.03 469.823 1236.03 469.886C1236.03 469.97 1235.98 470.138 1235.9 470.391C1235.82 470.644 1235.65 470.991 1235.4 471.434C1235.14 471.876 1234.84 472.276 1234.48 472.634C1234.12 472.992 1233.62 473.319 1232.96 473.614C1232.31 473.908 1231.58 474.045 1230.78 474.024C1228.97 474.024 1227.39 473.35 1226.04 472.002C1224.7 470.654 1224.01 468.959 1223.99 466.916C1223.99 464.726 1224.68 462.946 1226.04 461.577C1227.41 460.208 1229 459.524 1230.81 459.524C1232.63 459.524 1233.89 459.808 1234.61 460.377C1235.32 460.945 1235.68 461.619 1235.68 462.399C1235.68 462.883 1235.5 463.273 1235.14 463.567L1234.61 464.041Z" fill="var(--fg, black)"/>
<path d="M1249.04 471.845C1247.86 473.277 1246.53 473.993 1245.03 473.993H1244.81C1242.18 473.993 1240.66 472.95 1240.26 470.865C1240.24 470.718 1240.22 469.275 1240.2 466.537C1240.18 464.242 1240.17 462.957 1240.17 462.683C1240.17 462.409 1240.1 462.188 1239.98 462.02C1239.77 461.683 1239.13 461.514 1238.08 461.514H1237.73V460.788C1237.73 460.303 1237.75 460.061 1237.8 460.061L1238.14 460.029C1238.35 460.008 1238.66 459.987 1239.06 459.966C1239.46 459.945 1239.86 459.924 1240.26 459.903C1240.62 459.882 1241.01 459.861 1241.43 459.84C1241.85 459.819 1242.17 459.787 1242.38 459.745C1242.59 459.703 1242.71 459.692 1242.76 459.713H1242.85V465.432C1242.87 469.307 1242.9 471.381 1242.95 471.655C1243.01 471.971 1243.16 472.224 1243.39 472.413C1243.81 472.708 1244.44 472.856 1245.28 472.856C1245.83 472.856 1246.33 472.761 1246.77 472.571C1247.21 472.382 1247.55 472.139 1247.78 471.845C1248.01 471.55 1248.22 471.213 1248.41 470.834C1248.6 470.455 1248.73 470.139 1248.79 469.886C1248.85 469.633 1248.9 469.38 1248.92 469.128C1248.92 469.107 1248.92 468.928 1248.92 468.591C1248.92 468.254 1248.93 467.832 1248.95 467.327C1248.97 466.822 1248.97 466.327 1248.95 465.842V463.726C1248.95 462.757 1248.84 462.157 1248.63 461.925C1248.42 461.693 1247.89 461.556 1247.05 461.514H1246.48V460.061C1246.53 460.061 1247.33 460.008 1248.88 459.903C1250.44 459.798 1251.27 459.734 1251.38 459.713H1251.6V465.337C1251.6 469.128 1251.61 471.055 1251.63 471.118C1251.7 471.539 1251.84 471.813 1252.08 471.939C1252.31 472.066 1252.78 472.161 1253.5 472.224H1254.07V473.677C1254.02 473.677 1253.23 473.73 1251.7 473.835C1250.16 473.94 1249.35 474.003 1249.26 474.024H1249.04V471.845Z" fill="var(--fg, black)"/>
<path d="M1263.83 463.694C1263.83 462.852 1263.54 462.125 1262.97 461.514C1262.41 460.903 1261.58 460.598 1260.51 460.598C1259.75 460.598 1259.1 460.735 1258.55 461.009C1257.92 461.409 1257.6 461.956 1257.6 462.651C1257.58 462.757 1257.58 462.894 1257.6 463.062C1257.62 463.231 1257.79 463.483 1258.11 463.82C1258.43 464.157 1258.88 464.421 1259.47 464.61C1259.85 464.715 1260.31 464.81 1260.86 464.894C1261.41 464.979 1261.87 465.073 1262.25 465.179C1262.63 465.284 1262.96 465.421 1263.26 465.589C1263.62 465.758 1263.96 465.969 1264.3 466.221C1264.64 466.474 1264.98 466.906 1265.31 467.517C1265.65 468.127 1265.83 468.78 1265.85 469.475C1265.85 470.781 1265.45 471.855 1264.65 472.698C1263.85 473.54 1262.55 473.972 1260.76 473.993H1260.51C1259.41 473.993 1258.4 473.614 1257.48 472.856L1257.22 473.077L1256.94 473.361C1256.81 473.487 1256.69 473.603 1256.56 473.708L1256.21 474.024H1255.96H1255.83C1255.77 474.024 1255.68 473.961 1255.55 473.835V471.339V469.507C1255.55 469.065 1255.57 468.801 1255.61 468.717C1255.66 468.633 1255.76 468.58 1255.93 468.559H1256.21C1256.47 468.559 1256.63 468.601 1256.72 468.685C1256.8 468.77 1256.86 468.896 1256.88 469.065C1256.9 469.233 1256.97 469.517 1257.1 469.918C1257.22 470.318 1257.42 470.76 1257.7 471.244C1258.44 472.318 1259.46 472.856 1260.76 472.856C1262.81 472.856 1263.83 472.034 1263.83 470.391C1263.83 469.781 1263.64 469.286 1263.26 468.907C1262.84 468.401 1261.96 468.022 1260.64 467.769C1259.31 467.517 1258.44 467.274 1258.01 467.043C1257.26 466.685 1256.66 466.2 1256.21 465.589C1255.77 464.979 1255.55 464.326 1255.55 463.631C1255.55 462.809 1255.73 462.114 1256.09 461.546C1256.45 460.977 1256.9 460.556 1257.45 460.282C1257.99 460.008 1258.52 459.819 1259.03 459.713C1259.53 459.608 1259.99 459.555 1260.42 459.555H1260.76C1261.61 459.555 1262.34 459.713 1262.97 460.029L1263.45 460.282L1263.73 460.061C1263.94 459.871 1264.17 459.692 1264.43 459.524H1264.68H1264.81C1264.87 459.524 1264.96 459.587 1265.09 459.713V463.884L1264.9 464.073H1264.02C1263.89 463.947 1263.83 463.82 1263.83 463.694Z" fill="var(--fg, black)"/>
<path d="M1048.28 491.233C1046.74 491.233 1045.27 490.538 1043.88 489.148L1043.57 489.717C1043.53 489.78 1043.47 489.875 1043.41 490.001C1043.35 490.128 1043.28 490.244 1043.22 490.349C1043.16 490.454 1043.12 490.528 1043.09 490.57L1042.94 490.854L1042.3 490.886H1041.67V481.472C1041.67 475.132 1041.66 471.92 1041.64 471.836C1041.58 471.436 1041.43 471.173 1041.2 471.046C1040.97 470.92 1040.49 470.825 1039.78 470.762H1039.21V470.035C1039.21 469.551 1039.23 469.309 1039.27 469.309L1039.59 469.277C1039.8 469.256 1040.1 469.235 1040.5 469.214C1040.9 469.193 1041.29 469.172 1041.67 469.151C1042.03 469.13 1042.42 469.109 1042.84 469.088C1043.26 469.067 1043.58 469.035 1043.79 468.993C1044 468.951 1044.12 468.94 1044.14 468.961H1044.23V473.732C1044.23 476.933 1044.24 478.534 1044.26 478.534L1044.36 478.439C1044.42 478.376 1044.52 478.302 1044.64 478.218C1044.77 478.133 1044.93 478.028 1045.12 477.902C1045.31 477.775 1045.53 477.67 1045.78 477.586C1046.03 477.502 1046.31 477.396 1046.6 477.27C1046.9 477.144 1047.23 477.059 1047.61 477.017C1047.99 476.975 1048.38 476.943 1048.78 476.922C1050.42 476.922 1051.88 477.586 1053.14 478.913C1054.4 480.24 1055.05 481.956 1055.07 484.062C1055.07 486.189 1054.39 487.916 1053.05 489.243C1051.7 490.57 1050.11 491.233 1048.28 491.233ZM1044.33 487.79C1044.33 487.811 1044.38 487.895 1044.48 488.043C1044.59 488.19 1044.68 488.306 1044.77 488.39C1044.85 488.474 1044.96 488.601 1045.08 488.769C1045.21 488.938 1045.34 489.064 1045.46 489.148C1045.59 489.233 1045.75 489.348 1045.94 489.496C1046.13 489.643 1046.31 489.738 1046.47 489.78C1046.64 489.822 1046.86 489.885 1047.14 489.97C1047.41 490.054 1047.66 490.086 1047.9 490.065C1048.63 490.065 1049.35 489.854 1050.04 489.433C1050.74 489.011 1051.26 488.306 1051.59 487.316C1051.85 486.579 1051.97 485.536 1051.97 484.188C1051.97 482.609 1051.85 481.44 1051.59 480.682C1051.02 478.955 1049.84 478.091 1048.05 478.091C1047.42 478.091 1046.78 478.249 1046.13 478.565C1045.47 478.881 1044.94 479.334 1044.52 479.924L1044.33 480.176V487.79Z" fill="var(--fg, black)"/>
<path d="M1057.47 489.433H1057.91C1058.73 489.433 1059.23 489.285 1059.4 488.99V488.738C1059.4 488.548 1059.4 488.306 1059.4 488.011C1059.4 487.716 1059.4 487.369 1059.4 486.968C1059.4 486.568 1059.41 486.115 1059.43 485.61C1059.45 485.104 1059.45 484.578 1059.43 484.03C1059.41 483.483 1059.41 482.904 1059.43 482.293C1059.45 481.682 1059.45 481.082 1059.43 480.492C1059.43 479.713 1059.43 478.891 1059.43 478.028C1059.43 477.164 1059.43 476.375 1059.43 475.659C1059.43 474.943 1059.43 474.311 1059.43 473.763C1059.43 473.216 1059.42 472.752 1059.4 472.373C1059.37 471.994 1059.37 471.815 1059.4 471.836C1059.33 471.436 1059.19 471.173 1058.95 471.046C1058.72 470.92 1058.25 470.825 1057.53 470.762H1056.96V470.035C1056.96 469.551 1056.98 469.309 1057.03 469.309L1057.34 469.277C1057.55 469.256 1057.86 469.235 1058.26 469.214C1058.66 469.193 1059.05 469.172 1059.43 469.151C1059.79 469.13 1060.18 469.109 1060.6 469.088C1061.02 469.066 1061.33 469.035 1061.54 468.993C1061.75 468.951 1061.87 468.94 1061.89 468.961H1061.99V478.913C1061.99 485.589 1062 488.948 1062.02 488.99C1062.1 489.159 1062.23 489.275 1062.4 489.338C1062.84 489.401 1063.36 489.433 1063.95 489.433H1064.45V490.886H1064.2L1063.47 490.854C1062.99 490.833 1062.47 490.823 1061.92 490.823C1061.38 490.823 1060.98 490.812 1060.72 490.791C1060.47 490.77 1060.07 490.77 1059.52 490.791C1058.97 490.812 1058.45 490.833 1057.94 490.854L1057.22 490.886H1056.96V489.433H1057.47Z" fill="var(--fg, black)"/>
<path d="M1077.02 489.054C1075.84 490.486 1074.51 491.202 1073.01 491.202H1072.79C1070.16 491.202 1068.64 490.159 1068.24 488.074C1068.22 487.927 1068.2 486.484 1068.18 483.746C1068.16 481.451 1068.15 480.166 1068.15 479.892C1068.15 479.618 1068.08 479.397 1067.96 479.229C1067.75 478.892 1067.11 478.723 1066.06 478.723H1065.71V477.997C1065.71 477.512 1065.73 477.27 1065.78 477.27L1066.12 477.238C1066.34 477.217 1066.64 477.196 1067.04 477.175C1067.44 477.154 1067.84 477.133 1068.24 477.112C1068.6 477.091 1068.99 477.07 1069.41 477.049C1069.83 477.028 1070.15 476.996 1070.36 476.954C1070.57 476.912 1070.69 476.901 1070.74 476.922H1070.83V482.64C1070.85 486.516 1070.88 488.59 1070.93 488.864C1070.99 489.18 1071.14 489.433 1071.37 489.622C1071.79 489.917 1072.42 490.065 1073.26 490.065C1073.81 490.065 1074.31 489.97 1074.75 489.78C1075.19 489.591 1075.53 489.348 1075.76 489.054C1075.99 488.759 1076.2 488.422 1076.39 488.043C1076.58 487.664 1076.71 487.348 1076.77 487.095C1076.83 486.842 1076.88 486.589 1076.9 486.337C1076.9 486.316 1076.9 486.137 1076.9 485.8C1076.9 485.463 1076.91 485.041 1076.93 484.536C1076.95 484.031 1076.95 483.536 1076.93 483.051V480.935C1076.93 479.966 1076.82 479.365 1076.61 479.134C1076.4 478.902 1075.88 478.765 1075.03 478.723H1074.46V477.27C1074.51 477.27 1075.31 477.217 1076.87 477.112C1078.42 477.007 1079.26 476.943 1079.36 476.922H1079.58V482.546C1079.58 486.337 1079.59 488.264 1079.61 488.327C1079.68 488.748 1079.82 489.022 1080.06 489.148C1080.29 489.275 1080.76 489.369 1081.48 489.433H1082.05V490.886C1082 490.886 1081.21 490.939 1079.68 491.044C1078.14 491.149 1077.33 491.212 1077.24 491.233H1077.02V489.054Z" fill="var(--fg, black)"/>
<path d="M1083.63 489.433H1084.07C1084.89 489.433 1085.38 489.285 1085.55 488.99V488.738C1085.55 488.548 1085.55 488.306 1085.55 488.011C1085.55 487.716 1085.56 487.39 1085.58 487.032C1085.61 486.674 1085.61 486.263 1085.58 485.799C1085.56 485.336 1085.56 484.894 1085.58 484.473C1085.58 483.82 1085.58 483.125 1085.58 482.388C1085.58 481.65 1085.58 481.029 1085.58 480.524L1085.55 479.797C1085.49 479.397 1085.34 479.134 1085.11 479.007C1084.88 478.881 1084.41 478.786 1083.69 478.723H1083.12V477.996C1083.12 477.512 1083.14 477.27 1083.18 477.27L1083.5 477.238C1083.71 477.217 1084.01 477.196 1084.38 477.175C1084.76 477.154 1085.14 477.133 1085.52 477.112C1085.86 477.091 1086.23 477.07 1086.63 477.049C1087.03 477.028 1087.33 476.996 1087.54 476.954C1087.75 476.912 1087.87 476.901 1087.89 476.922H1087.99V479.102C1088.81 477.67 1089.83 476.954 1091.05 476.954H1091.24C1092.19 476.954 1092.88 477.186 1093.32 477.649C1093.77 478.112 1093.99 478.597 1093.99 479.102C1093.99 479.544 1093.85 479.923 1093.58 480.239C1093.3 480.555 1092.9 480.713 1092.38 480.713C1091.85 480.713 1091.46 480.545 1091.21 480.208C1090.96 479.871 1090.82 479.513 1090.8 479.134C1090.8 478.944 1090.82 478.776 1090.86 478.628C1090.9 478.481 1090.96 478.354 1091.02 478.249C1091.08 478.144 1091.11 478.091 1091.11 478.091C1091.07 478.049 1090.83 478.091 1090.39 478.218C1090.05 478.386 1089.8 478.544 1089.63 478.691C1088.64 479.639 1088.14 481.524 1088.14 484.346V486.021C1088.14 486.294 1088.14 486.579 1088.14 486.874C1088.14 487.168 1088.14 487.442 1088.14 487.695C1088.14 487.948 1088.15 488.158 1088.18 488.327C1088.2 488.495 1088.2 488.653 1088.18 488.801V488.959C1088.2 489.001 1088.23 489.043 1088.27 489.085C1088.31 489.127 1088.37 489.159 1088.43 489.18C1088.49 489.201 1088.54 489.232 1088.59 489.275C1088.63 489.317 1088.7 489.338 1088.81 489.338C1088.91 489.338 1088.99 489.348 1089.03 489.369C1089.07 489.39 1089.17 489.401 1089.31 489.401C1089.46 489.401 1089.55 489.401 1089.6 489.401C1089.64 489.401 1089.74 489.411 1089.91 489.433C1090.08 489.454 1090.19 489.454 1090.23 489.433H1091.21V490.886H1090.92C1090.54 490.823 1089.21 490.791 1086.91 490.791C1084.74 490.791 1083.56 490.823 1083.37 490.886H1083.12V489.433H1083.63Z" fill="var(--fg, black)"/>
<path d="M1096.01 489.433H1096.45C1097.27 489.433 1097.77 489.285 1097.94 488.99V488.738C1097.94 488.548 1097.94 488.306 1097.94 488.011C1097.94 487.716 1097.95 487.39 1097.97 487.032C1097.99 486.674 1097.99 486.263 1097.97 485.799C1097.95 485.336 1097.95 484.894 1097.97 484.473C1097.97 483.82 1097.97 483.125 1097.97 482.388C1097.97 481.65 1097.97 481.029 1097.97 480.524L1097.94 479.797C1097.87 479.397 1097.73 479.134 1097.5 479.007C1097.26 478.881 1096.79 478.786 1096.07 478.723H1095.5V477.996C1095.5 477.512 1095.53 477.27 1095.57 477.27L1095.88 477.238C1096.09 477.217 1096.39 477.196 1096.77 477.175C1097.15 477.154 1097.53 477.133 1097.91 477.112C1098.24 477.091 1098.61 477.07 1099.01 477.049C1099.41 477.028 1099.72 476.996 1099.93 476.954C1100.14 476.912 1100.25 476.901 1100.28 476.922H1100.37V479.102C1101.19 477.67 1102.21 476.954 1103.43 476.954H1103.62C1104.57 476.954 1105.27 477.186 1105.71 477.649C1106.15 478.112 1106.37 478.597 1106.37 479.102C1106.37 479.544 1106.24 479.923 1105.96 480.239C1105.69 480.555 1105.29 480.713 1104.76 480.713C1104.23 480.713 1103.85 480.545 1103.59 480.208C1103.34 479.871 1103.2 479.513 1103.18 479.134C1103.18 478.944 1103.2 478.776 1103.24 478.628C1103.29 478.481 1103.34 478.354 1103.4 478.249C1103.47 478.144 1103.5 478.091 1103.5 478.091C1103.46 478.049 1103.21 478.091 1102.77 478.218C1102.43 478.386 1102.18 478.544 1102.01 478.691C1101.02 479.639 1100.53 481.524 1100.53 484.346V486.021C1100.53 486.294 1100.53 486.579 1100.53 486.874C1100.53 487.168 1100.53 487.442 1100.53 487.695C1100.53 487.948 1100.54 488.158 1100.56 488.327C1100.58 488.495 1100.58 488.653 1100.56 488.801V488.959C1100.58 489.001 1100.61 489.043 1100.65 489.085C1100.7 489.127 1100.75 489.159 1100.81 489.18C1100.88 489.201 1100.93 489.232 1100.97 489.275C1101.01 489.317 1101.09 489.338 1101.19 489.338C1101.3 489.338 1101.37 489.348 1101.41 489.369C1101.45 489.39 1101.55 489.401 1101.7 489.401C1101.84 489.401 1101.94 489.401 1101.98 489.401C1102.02 489.401 1102.13 489.411 1102.3 489.433C1102.47 489.454 1102.57 489.454 1102.61 489.433H1103.59V490.886H1103.31C1102.93 490.823 1101.59 490.791 1099.3 490.791C1097.13 490.791 1095.95 490.823 1095.76 490.886H1095.5V489.433H1096.01Z" fill="var(--fg, black)"/>
<path d="M1108.14 483.999C1108.14 482.841 1108.35 481.788 1108.77 480.84C1109.19 479.892 1109.72 479.123 1110.35 478.534C1110.98 477.944 1111.67 477.502 1112.41 477.207C1113.14 476.912 1113.84 476.754 1114.49 476.733C1115.61 476.733 1116.57 476.922 1117.37 477.302C1118.17 477.681 1118.78 478.207 1119.2 478.881C1119.62 479.555 1119.91 480.229 1120.08 480.903C1120.25 481.577 1120.35 482.325 1120.37 483.146C1120.37 483.293 1120.29 483.441 1120.15 483.588H1111.24V484.062C1111.24 487.179 1112.29 489.075 1114.4 489.749C1114.82 489.875 1115.28 489.938 1115.79 489.938C1116.67 489.938 1117.43 489.601 1118.06 488.927C1118.42 488.569 1118.7 488.127 1118.91 487.6L1119.23 486.842C1119.29 486.779 1119.46 486.747 1119.74 486.747H1119.83C1120.19 486.747 1120.37 486.853 1120.37 487.063C1120.37 487.148 1120.34 487.284 1120.27 487.474C1119.87 488.632 1119.21 489.549 1118.28 490.222C1117.36 490.896 1116.31 491.233 1115.15 491.233C1113.15 491.233 1111.49 490.507 1110.16 489.054C1108.84 487.6 1108.16 485.915 1108.14 483.999ZM1117.78 482.198C1117.55 479.502 1116.54 478.07 1114.78 477.902H1114.71C1114.54 477.902 1114.38 477.912 1114.21 477.933C1114.04 477.954 1113.78 478.039 1113.42 478.186C1113.06 478.334 1112.75 478.555 1112.5 478.85C1112.25 479.144 1112.01 479.576 1111.77 480.145C1111.54 480.713 1111.37 481.408 1111.27 482.23V482.451H1117.78V482.198Z" fill="var(--fg, black)"/>
<path d="M1133.16 475.248C1133.16 474.911 1133.16 474.49 1133.16 473.984C1133.16 473.479 1133.17 473.131 1133.19 472.942C1133.19 471.994 1133.09 471.404 1132.88 471.173C1132.67 470.941 1132.13 470.804 1131.27 470.762H1130.7V470.035C1130.7 469.551 1130.72 469.309 1130.76 469.309L1131.08 469.277C1131.29 469.256 1131.59 469.235 1131.99 469.214C1132.39 469.193 1132.78 469.172 1133.16 469.151C1133.52 469.13 1133.91 469.109 1134.33 469.088C1134.75 469.067 1135.07 469.035 1135.28 468.993C1135.49 468.951 1135.61 468.94 1135.63 468.961H1135.72V478.565C1135.72 485.01 1135.73 488.264 1135.75 488.327C1135.82 488.748 1135.96 489.022 1136.19 489.148C1136.43 489.275 1136.9 489.369 1137.62 489.433H1138.19V490.886C1138.14 490.886 1137.34 490.939 1135.78 491.044C1134.23 491.149 1133.39 491.212 1133.29 491.233H1133.07V489.496L1132.81 489.717C1131.59 490.728 1130.22 491.233 1128.71 491.233C1127.09 491.233 1125.62 490.591 1124.32 489.306C1123.01 488.022 1122.36 486.284 1122.36 484.094C1122.36 481.988 1123.02 480.271 1124.35 478.944C1125.67 477.617 1127.22 476.943 1128.99 476.922C1130.57 476.922 1131.96 477.438 1133.16 478.47V475.248ZM1133.07 480.082C1132.12 478.755 1130.93 478.091 1129.5 478.091C1128.47 478.091 1127.55 478.47 1126.75 479.229C1126.18 479.818 1125.82 480.492 1125.67 481.25C1125.53 482.009 1125.44 482.999 1125.42 484.22C1125.42 485.399 1125.5 486.358 1125.64 487.095C1125.79 487.832 1126.16 488.474 1126.75 489.022C1127.38 489.717 1128.2 490.065 1129.21 490.065C1130.71 490.065 1131.99 489.254 1133.07 487.632V480.082Z" fill="var(--fg, black)"/>
<path d="M1064.77 516.793C1064.39 516.73 1063.05 516.698 1060.75 516.698C1058.59 516.698 1057.41 516.73 1057.22 516.793H1056.96V515.34H1057.47C1058.06 515.34 1058.57 515.308 1059.02 515.245C1059.19 515.182 1059.31 515.066 1059.4 514.897C1059.42 514.855 1059.43 513.128 1059.43 509.716V504.63H1057.18V503.177H1059.43V501.092L1059.46 498.975L1059.52 498.659C1059.92 497.29 1060.6 496.301 1061.54 495.69C1062.49 495.079 1063.49 494.7 1064.55 494.553C1064.57 494.553 1064.66 494.553 1064.83 494.553C1065 494.553 1065.15 494.542 1065.27 494.521C1066.14 494.584 1066.79 494.858 1067.23 495.342C1067.67 495.827 1067.89 496.374 1067.89 496.985C1067.89 497.469 1067.75 497.859 1067.45 498.154C1067.16 498.449 1066.77 498.596 1066.28 498.596C1065.8 498.596 1065.41 498.449 1065.11 498.154C1064.82 497.859 1064.67 497.469 1064.67 496.985C1064.67 496.564 1064.86 496.143 1065.24 495.721H1065.11C1065.03 495.7 1064.91 495.69 1064.77 495.69C1064.18 495.69 1063.65 495.911 1063.19 496.353C1062.72 496.796 1062.37 497.375 1062.11 498.091C1061.99 498.512 1061.91 499.512 1061.89 501.092V503.177H1065.4V504.63H1061.99V509.685C1061.99 513.097 1062 514.824 1062.02 514.866C1062.04 514.908 1062.07 514.95 1062.11 514.992C1062.15 515.034 1062.21 515.066 1062.27 515.087C1062.33 515.108 1062.39 515.14 1062.43 515.182C1062.47 515.224 1062.54 515.245 1062.65 515.245C1062.76 515.245 1062.83 515.256 1062.87 515.277C1062.91 515.298 1063.01 515.308 1063.16 515.308C1063.3 515.308 1063.4 515.308 1063.44 515.308C1063.48 515.308 1063.59 515.319 1063.76 515.34C1063.92 515.361 1064.03 515.361 1064.07 515.34H1065.05V516.793H1064.77Z" fill="var(--fg, black)"/>
<path d="M1066.69 510.032C1066.69 508.031 1067.38 506.304 1068.75 504.851C1070.12 503.398 1071.77 502.661 1073.71 502.639C1075.6 502.639 1077.23 503.356 1078.6 504.788C1079.97 506.22 1080.67 507.957 1080.69 510C1080.69 512.001 1080.01 513.686 1078.67 515.055C1077.32 516.424 1075.67 517.108 1073.71 517.108C1071.66 517.108 1069.99 516.403 1068.68 514.992C1067.38 513.581 1066.71 511.927 1066.69 510.032ZM1073.71 515.845C1076.28 515.845 1077.56 514.128 1077.56 510.695V509.684V508.895C1077.56 508.431 1077.55 508.031 1077.53 507.694C1077.51 507.357 1077.43 506.957 1077.31 506.494C1077.18 506.03 1077.01 505.651 1076.8 505.356C1076.59 505.061 1076.27 504.767 1075.82 504.472C1075.38 504.177 1074.87 503.966 1074.28 503.84C1074.17 503.819 1074 503.808 1073.77 503.808C1073.14 503.808 1072.54 503.935 1071.97 504.187C1071.06 504.651 1070.47 505.293 1070.2 506.115C1069.93 506.936 1069.79 507.905 1069.79 509.021V509.653C1069.79 511.675 1069.99 513.096 1070.39 513.918C1071.06 515.202 1072.17 515.845 1073.71 515.845Z" fill="var(--fg, black)"/>
<path d="M1093.29 507.158C1093.29 507.158 1093.07 507.158 1092.63 507.158C1092.19 507.158 1091.81 507 1091.49 506.684C1091.18 506.368 1091.01 505.968 1090.99 505.483C1090.99 504.999 1091.15 504.599 1091.46 504.283C1091.57 504.177 1091.62 504.114 1091.62 504.093C1091.62 504.072 1091.51 504.051 1091.3 504.03C1090.76 503.946 1090.24 503.904 1089.76 503.904C1088.72 503.904 1087.88 504.241 1087.23 504.915C1086.24 505.904 1085.74 507.558 1085.74 509.874C1085.74 511.601 1086.07 512.96 1086.72 513.95C1087.59 515.234 1088.74 515.877 1090.2 515.877C1091.06 515.877 1091.76 515.603 1092.28 515.055C1092.81 514.508 1093.19 513.855 1093.42 513.097C1093.46 512.928 1093.51 512.823 1093.58 512.781C1093.64 512.739 1093.81 512.718 1094.08 512.718H1094.53C1094.65 512.844 1094.72 512.939 1094.72 513.002C1094.72 513.086 1094.67 513.255 1094.59 513.507C1094.5 513.76 1094.34 514.108 1094.08 514.55C1093.83 514.992 1093.53 515.392 1093.17 515.75C1092.81 516.108 1092.3 516.435 1091.65 516.73C1091 517.025 1090.27 517.162 1089.47 517.14C1087.66 517.14 1086.08 516.467 1084.73 515.119C1083.38 513.771 1082.7 512.075 1082.68 510.032C1082.68 507.842 1083.36 506.062 1084.73 504.693C1086.1 503.324 1087.69 502.64 1089.5 502.64C1091.31 502.64 1092.58 502.924 1093.29 503.493C1094.01 504.062 1094.37 504.736 1094.37 505.515C1094.37 505.999 1094.19 506.389 1093.83 506.684L1093.29 507.158Z" fill="var(--fg, black)"/>
<path d="M1107.73 514.962C1106.55 516.394 1105.21 517.11 1103.72 517.11H1103.5C1100.86 517.11 1099.35 516.067 1098.95 513.982C1098.93 513.835 1098.91 512.392 1098.89 509.654C1098.86 507.359 1098.85 506.074 1098.85 505.8C1098.85 505.526 1098.79 505.305 1098.66 505.137C1098.45 504.8 1097.82 504.631 1096.77 504.631H1096.42V503.905C1096.42 503.42 1096.44 503.178 1096.48 503.178L1096.83 503.147C1097.04 503.125 1097.35 503.104 1097.75 503.083C1098.15 503.062 1098.55 503.041 1098.95 503.02C1099.31 502.999 1099.7 502.978 1100.12 502.957C1100.54 502.936 1100.85 502.904 1101.06 502.862C1101.28 502.82 1101.4 502.81 1101.44 502.831H1101.54V508.549C1101.56 512.424 1101.59 514.498 1101.63 514.772C1101.7 515.088 1101.84 515.341 1102.08 515.53C1102.5 515.825 1103.13 515.973 1103.97 515.973C1104.52 515.973 1105.01 515.878 1105.46 515.688C1105.9 515.499 1106.24 515.257 1106.47 514.962C1106.7 514.667 1106.91 514.33 1107.1 513.951C1107.29 513.572 1107.41 513.256 1107.48 513.003C1107.54 512.75 1107.58 512.498 1107.6 512.245C1107.6 512.224 1107.6 512.045 1107.6 511.708C1107.6 511.371 1107.61 510.95 1107.64 510.444C1107.66 509.939 1107.66 509.444 1107.64 508.959V506.843C1107.64 505.874 1107.53 505.274 1107.32 505.042C1107.11 504.81 1106.58 504.673 1105.74 504.631H1105.17V503.178C1105.21 503.178 1106.01 503.125 1107.57 503.02C1109.13 502.915 1109.96 502.852 1110.07 502.831H1110.29V508.454C1110.29 512.245 1110.3 514.172 1110.32 514.235C1110.38 514.656 1110.53 514.93 1110.76 515.057C1111 515.183 1111.47 515.278 1112.19 515.341H1112.75V516.794C1112.71 516.794 1111.92 516.847 1110.38 516.952C1108.85 517.057 1108.04 517.121 1107.95 517.142H1107.73V514.962Z" fill="var(--fg, black)"/>
<path d="M1122.52 506.811C1122.52 505.969 1122.23 505.242 1121.66 504.631C1121.09 504.021 1120.27 503.715 1119.2 503.715C1118.44 503.715 1117.79 503.852 1117.24 504.126C1116.61 504.526 1116.29 505.074 1116.29 505.769C1116.27 505.874 1116.27 506.011 1116.29 506.179C1116.31 506.348 1116.48 506.601 1116.8 506.938C1117.11 507.275 1117.57 507.538 1118.16 507.727C1118.54 507.833 1119 507.927 1119.55 508.012C1120.09 508.096 1120.56 508.191 1120.94 508.296C1121.32 508.401 1121.65 508.538 1121.95 508.707C1122.31 508.875 1122.65 509.086 1122.99 509.338C1123.33 509.591 1123.66 510.023 1124 510.634C1124.34 511.245 1124.52 511.897 1124.54 512.592C1124.54 513.898 1124.14 514.972 1123.34 515.815C1122.54 516.657 1121.24 517.089 1119.45 517.11H1119.2C1118.1 517.11 1117.09 516.731 1116.17 515.973L1115.91 516.194L1115.63 516.478C1115.5 516.605 1115.38 516.72 1115.25 516.826L1114.9 517.142H1114.65H1114.52C1114.46 517.142 1114.37 517.078 1114.24 516.952V514.456V512.624C1114.24 512.182 1114.26 511.918 1114.3 511.834C1114.34 511.75 1114.45 511.697 1114.62 511.676H1114.9C1115.15 511.676 1115.32 511.718 1115.41 511.803C1115.49 511.887 1115.54 512.013 1115.57 512.182C1115.59 512.35 1115.66 512.635 1115.79 513.035C1115.91 513.435 1116.11 513.877 1116.39 514.362C1117.12 515.436 1118.15 515.973 1119.45 515.973C1121.49 515.973 1122.52 515.151 1122.52 513.509C1122.52 512.898 1122.33 512.403 1121.95 512.024C1121.53 511.518 1120.65 511.139 1119.33 510.886C1118 510.634 1117.12 510.392 1116.7 510.16C1115.94 509.802 1115.34 509.317 1114.9 508.707C1114.46 508.096 1114.24 507.443 1114.24 506.748C1114.24 505.927 1114.42 505.232 1114.78 504.663C1115.13 504.094 1115.59 503.673 1116.13 503.399C1116.68 503.125 1117.21 502.936 1117.71 502.831C1118.22 502.725 1118.68 502.673 1119.1 502.673H1119.45C1120.29 502.673 1121.03 502.831 1121.66 503.147L1122.14 503.399L1122.42 503.178C1122.63 502.989 1122.86 502.81 1123.12 502.641H1123.37H1123.5C1123.56 502.641 1123.65 502.704 1123.78 502.831V507.001L1123.59 507.19H1122.71C1122.58 507.064 1122.52 506.938 1122.52 506.811Z" fill="var(--fg, black)"/>
</svg>
