<svg width="100%" viewBox="0 0 1533 556" fill="none" xmlns="http://www.w3.org/2000/svg">
    <path d="M993.793 5.28409C993.207 4.6983 992.257 4.6983 991.672 5.28409L982.126 14.83C981.54 15.4158 981.54 16.3656 982.126 16.9514C982.711 17.5371 983.661 17.5371 984.247 16.9514L992.732 8.46608L1001.22 16.9514C1001.8 17.5371 1002.75 17.5371 1003.34 16.9514C1003.92 16.3656 1003.92 15.4158 1003.34 14.83L993.793 5.28409ZM994.232 261.371L994.232 254.287L991.232 254.287L991.232 261.371L994.232 261.371ZM994.232 240.119L994.232 225.951L991.232 225.951L991.232 240.119L994.232 240.119ZM994.232 211.783L994.232 197.615L991.232 197.615L991.232 211.783L994.232 211.783ZM994.232 183.446L994.232 169.278L991.232 169.278L991.232 183.446L994.232 183.446ZM994.232 155.11L994.232 140.942L991.232 140.942L991.232 155.11L994.232 155.11ZM994.232 126.774L994.232 112.606L991.232 112.606L991.232 126.774L994.232 126.774ZM994.232 98.4376L994.232 84.2695L991.232 84.2695L991.232 98.4376L994.232 98.4376ZM994.232 70.1013L994.232 55.9332L991.232 55.9332L991.232 70.1013L994.232 70.1013ZM994.232 41.765L994.232 27.5969L991.232 27.5969L991.232 41.765L994.232 41.765ZM994.232 13.4288L994.232 6.34476L991.232 6.34476L991.232 13.4288L994.232 13.4288ZM994.853 4.22345C993.682 3.05185 991.782 3.05185 990.611 4.22345L971.519 23.3153C970.347 24.4869 970.347 26.3864 971.519 27.558C972.691 28.7295 974.59 28.7295 975.762 27.558L992.732 10.5874L1009.7 27.558C1010.87 28.7295 1012.77 28.7295 1013.95 27.558C1015.12 26.3864 1015.12 24.4869 1013.95 23.3153L994.853 4.22345ZM995.732 261.371L995.732 254.287L989.732 254.287L989.732 261.371L995.732 261.371ZM995.732 240.119L995.732 225.951L989.732 225.951L989.732 240.119L995.732 240.119ZM995.732 211.783L995.732 197.615L989.732 197.615L989.732 211.783L995.732 211.783ZM995.732 183.446L995.732 169.278L989.732 169.278L989.732 183.446L995.732 183.446ZM995.732 155.11L995.732 140.942L989.732 140.942L989.732 155.11L995.732 155.11ZM995.732 126.774L995.732 112.606L989.732 112.606L989.732 126.774L995.732 126.774ZM995.732 98.4376L995.732 84.2695L989.732 84.2695L989.732 98.4376L995.732 98.4376ZM995.732 70.1013L995.732 55.9332L989.732 55.9332L989.732 70.1013L995.732 70.1013ZM995.732 41.765L995.732 27.5969L989.732 27.5969L989.732 41.765L995.732 41.765ZM995.732 13.4288L995.732 6.34476L989.732 6.34476L989.732 13.4288L995.732 13.4288Z" fill=var(--fg, black)"/>
    <circle cx="1241.98" cy="382.889" r="14.5" fill=var(--fg, black)"/>
    <path d="M994.667 256.674C992.686 255.695 990.287 256.507 989.308 258.487C988.33 260.468 989.141 262.867 991.122 263.846L994.667 256.674ZM1229.44 380.348C1231.54 379.64 1232.66 377.369 1231.95 375.277L1220.41 341.176C1219.7 339.084 1217.43 337.961 1215.34 338.67C1213.25 339.378 1212.13 341.648 1212.83 343.741L1223.09 374.052L1192.78 384.309C1190.69 385.018 1189.56 387.288 1190.27 389.381C1190.98 391.473 1193.25 392.595 1195.34 391.887L1229.44 380.348ZM991.122 263.846L1226.39 380.145L1229.93 372.973L994.667 256.674L991.122 263.846Z" fill="#AD1E1E"/>
    <circle cx="558.834" cy="379.257" r="14.5" fill=var(--fg, black)"/>
    <path d="M149.273 432.533L285.528 34.7699L513.184 12.7656L314.303 543.399L149.273 432.533Z" stroke=var(--fg, black)" stroke-width="8" stroke-linecap="round" stroke-linejoin="round"/>
    <path d="M833.419 437.518L969.674 39.7552L1197.33 17.751L998.448 548.384L833.419 437.518Z" stroke=var(--fg, black)" stroke-width="8" stroke-linecap="round" stroke-linejoin="round"/>
    <path d="M313.522 254.042C311.541 253.063 309.142 253.875 308.163 255.855C307.184 257.836 307.996 260.235 309.976 261.214L313.522 254.042ZM548.299 377.716C550.391 377.008 551.514 374.738 550.806 372.645L539.266 338.545C538.558 336.452 536.288 335.33 534.195 336.038C532.102 336.746 530.98 339.016 531.688 341.109L541.945 371.42L511.634 381.678C509.541 382.386 508.419 384.656 509.127 386.749C509.835 388.841 512.106 389.964 514.198 389.255L548.299 377.716ZM309.976 261.214L545.244 377.513L548.789 370.341L313.522 254.042L309.976 261.214Z" fill="#AD1E1E"/>
    <path d="M310.511 258.22C311.811 257.193 312.032 255.306 311.004 254.006C309.977 252.706 308.09 252.485 306.791 253.513L310.511 258.22ZM233.541 312.523C233.349 314.169 234.526 315.659 236.172 315.852L262.989 318.992C264.634 319.185 266.125 318.007 266.317 316.362C266.51 314.716 265.332 313.226 263.687 313.033L239.85 310.241L242.641 286.404C242.834 284.759 241.656 283.268 240.011 283.076C238.365 282.883 236.875 284.061 236.682 285.706L233.541 312.523ZM306.791 253.513L234.661 310.518L238.381 315.226L310.511 258.22L306.791 253.513Z" fill="#AD1E1E"/>
    <path d="M311.473 256.884C312.035 255.326 311.227 253.606 309.669 253.044C308.11 252.482 306.391 253.29 305.829 254.848L311.473 256.884ZM259.982 384.533C260.687 386.032 262.473 386.677 263.973 385.972L288.41 374.491C289.91 373.787 290.555 372 289.85 370.501C289.146 369.001 287.359 368.356 285.859 369.061L264.137 379.266L253.932 357.544C253.227 356.044 251.44 355.4 249.941 356.104C248.441 356.809 247.797 358.595 248.501 360.095L259.982 384.533ZM305.829 254.848L259.875 382.239L265.519 384.275L311.473 256.884L305.829 254.848Z" fill="#AD1E1E"/>
    <path d="M311.564 255.148C311.167 253.539 309.541 252.557 307.932 252.954C306.324 253.35 305.341 254.976 305.738 256.585L311.564 255.148ZM328.622 345.688C330.04 346.545 331.884 346.09 332.741 344.672L346.705 321.563C347.562 320.145 347.107 318.301 345.689 317.444C344.271 316.587 342.427 317.042 341.57 318.46L329.158 339.001L308.617 326.588C307.198 325.732 305.354 326.186 304.497 327.605C303.64 329.023 304.095 330.867 305.513 331.724L328.622 345.688ZM305.738 256.585L327.261 343.839L333.086 342.402L311.564 255.148L305.738 256.585Z" fill="#AD1E1E"/>
    <path d="M309.51 252.992C307.922 252.517 306.251 253.42 305.776 255.007C305.302 256.595 306.205 258.266 307.792 258.741L309.51 252.992ZM390.106 282.419C391.564 281.632 392.108 279.812 391.321 278.354L378.494 254.595C377.707 253.137 375.887 252.594 374.429 253.381C372.971 254.168 372.427 255.988 373.214 257.446L384.616 278.564L363.497 289.966C362.039 290.753 361.495 292.573 362.283 294.031C363.07 295.489 364.89 296.033 366.348 295.246L390.106 282.419ZM307.792 258.741L387.822 282.654L389.54 276.905L309.51 252.992L307.792 258.741Z" fill="#AD1E1E"/>
    <path d="M306.869 253.453C305.536 254.437 305.253 256.315 306.238 257.648C307.222 258.981 309.1 259.263 310.433 258.279L306.869 253.453ZM387.238 200.47C387.484 198.831 386.356 197.303 384.717 197.057L358.018 193.04C356.379 192.794 354.851 193.922 354.605 195.56C354.358 197.199 355.487 198.727 357.125 198.973L380.858 202.544L377.288 226.277C377.041 227.915 378.169 229.443 379.808 229.69C381.446 229.936 382.974 228.808 383.221 227.169L387.238 200.47ZM310.433 258.279L386.053 202.437L382.489 197.61L306.869 253.453L310.433 258.279Z" fill="#AD1E1E"/>
    <path d="M305.864 254.756C305.251 256.296 306.002 258.041 307.541 258.653C309.08 259.266 310.825 258.515 311.438 256.976L305.864 254.756ZM362.595 126.126C361.94 124.605 360.176 123.902 358.654 124.557L333.854 135.231C332.332 135.886 331.629 137.651 332.284 139.173C332.939 140.695 334.704 141.398 336.226 140.743L358.27 131.254L367.759 153.299C368.414 154.821 370.179 155.523 371.7 154.868C373.222 154.213 373.925 152.449 373.27 150.927L362.595 126.126ZM311.438 256.976L362.627 128.422L357.053 126.203L305.864 254.756L311.438 256.976Z" fill="#AD1E1E"/>
    <path d="M305.693 256.366C305.968 258 307.516 259.1 309.15 258.825C310.784 258.549 311.885 257.001 311.609 255.367L305.693 256.366ZM294.684 160.351C293.334 159.391 291.461 159.707 290.501 161.057L274.852 183.06C273.891 184.41 274.207 186.283 275.558 187.243C276.908 188.203 278.781 187.887 279.741 186.537L293.651 166.979L313.209 180.89C314.559 181.85 316.432 181.534 317.393 180.184C318.353 178.833 318.037 176.96 316.687 176L294.684 160.351ZM289.987 163.295L305.693 256.366L311.609 255.367L295.903 162.297L289.987 163.295Z" fill="#AD1E1E"/>
    <path d="M307.699 258.711C309.271 259.237 310.97 258.389 311.496 256.818C312.022 255.246 311.174 253.547 309.603 253.021L307.699 258.711ZM238.311 230.102C236.828 230.842 236.226 232.643 236.965 234.126L249.015 258.288C249.755 259.771 251.556 260.373 253.039 259.634C254.522 258.894 255.124 257.093 254.385 255.61L243.673 234.133L265.151 223.422C266.633 222.682 267.236 220.881 266.496 219.398C265.757 217.916 263.956 217.313 262.473 218.052L238.311 230.102ZM309.603 253.021L240.602 229.942L238.698 235.632L307.699 258.711L309.603 253.021Z" fill="#AD1E1E"/>
    <ellipse cx="309.127" cy="256.275" rx="10.936" ry="16.3116" transform="rotate(19.2991 309.127 256.275)" fill=var(--fg, black)"/>
    <path d="M17.6509 191.475H18.3362C19.6089 191.475 20.3758 191.246 20.6369 190.789V190.398C20.6369 190.104 20.6369 189.729 20.6369 189.272C20.6369 188.815 20.6369 188.277 20.6369 187.657C20.6369 187.037 20.6532 186.335 20.6859 185.552C20.7185 184.769 20.7185 183.953 20.6859 183.104C20.6532 182.256 20.6532 181.358 20.6859 180.412C20.7185 179.465 20.7185 178.535 20.6859 177.622C20.6859 176.414 20.6859 175.141 20.6859 173.803C20.6859 172.465 20.6859 171.242 20.6859 170.132C20.6859 169.023 20.6859 168.044 20.6859 167.195C20.6859 166.347 20.6695 165.629 20.6369 165.041C20.6043 164.454 20.6043 164.176 20.6369 164.209C20.539 163.589 20.3106 163.181 19.9516 162.985C19.5926 162.79 18.8584 162.643 17.7488 162.545H16.8677V161.419C16.8677 160.668 16.9003 160.293 16.9656 160.293L17.4551 160.244C17.7814 160.211 18.2546 160.179 18.8747 160.146C19.4947 160.114 20.0984 160.081 20.6859 160.048C21.2406 160.016 21.8444 159.983 22.497 159.95C23.1497 159.918 23.6392 159.869 23.9656 159.803C24.2919 159.738 24.4714 159.722 24.504 159.755H24.6509V175.174C24.6509 185.519 24.6672 190.724 24.6998 190.789C24.8304 191.051 25.0262 191.23 25.2873 191.328C25.9726 191.426 26.7721 191.475 27.6859 191.475H28.4691V193.727H28.0775L26.9516 193.678C26.201 193.645 25.4015 193.629 24.553 193.629C23.7045 193.629 23.0845 193.612 22.6929 193.58C22.3012 193.547 21.6812 193.547 20.8327 193.58C19.9842 193.612 19.1684 193.645 18.3852 193.678L17.2593 193.727H16.8677V191.475H17.6509Z" fill=var(--fg, black)"/>
    <path d="M30.5737 183.251C30.5737 180.151 31.6343 177.475 33.7555 175.223C35.8768 172.971 38.4385 171.829 41.4409 171.796C44.3779 171.796 46.9071 172.906 49.0283 175.125C51.1495 177.344 52.2264 180.036 52.259 183.202C52.259 186.302 51.2148 188.913 49.1262 191.034C47.0376 193.155 44.4758 194.216 41.4409 194.216C38.2754 194.216 35.681 193.123 33.6576 190.936C31.6343 188.75 30.6064 186.188 30.5737 183.251ZM41.4409 192.258C45.4222 192.258 47.4129 189.598 47.4129 184.279V182.712V181.489C47.4129 180.771 47.3966 180.151 47.3639 179.628C47.3313 179.106 47.2171 178.486 47.0213 177.768C46.8255 177.05 46.5644 176.463 46.2381 176.006C45.9117 175.549 45.4059 175.092 44.7206 174.635C44.0353 174.179 43.2357 173.852 42.322 173.656C42.1588 173.624 41.8977 173.607 41.5388 173.607C40.5597 173.607 39.6297 173.803 38.7486 174.195C37.3453 174.913 36.4315 175.908 36.0073 177.181C35.5831 178.454 35.3709 179.955 35.3709 181.684V182.663C35.3709 185.796 35.681 187.999 36.301 189.272C37.3453 191.262 39.0586 192.258 41.4409 192.258Z" fill=var(--fg, black)"/>
    <path d="M55.0493 183.251C55.0493 180.151 56.1099 177.475 58.2311 175.223C60.3523 172.971 62.9141 171.829 65.9164 171.796C68.8535 171.796 71.3826 172.906 73.5039 175.125C75.6251 177.344 76.702 180.036 76.7346 183.202C76.7346 186.302 75.6903 188.913 73.6018 191.034C71.5132 193.155 68.9514 194.216 65.9164 194.216C62.7509 194.216 60.1565 193.123 58.1332 190.936C56.1099 188.75 55.082 186.188 55.0493 183.251ZM65.9164 192.258C69.8978 192.258 71.8885 189.598 71.8885 184.279V182.712V181.489C71.8885 180.771 71.8722 180.151 71.8395 179.628C71.8069 179.106 71.6927 178.486 71.4969 177.768C71.3011 177.05 71.04 176.463 70.7137 176.006C70.3873 175.549 69.8815 175.092 69.1962 174.635C68.5109 174.179 67.7113 173.852 66.7976 173.656C66.6344 173.624 66.3733 173.607 66.0144 173.607C65.0353 173.607 64.1053 173.803 63.2241 174.195C61.8209 174.913 60.9071 175.908 60.4829 177.181C60.0586 178.454 59.8465 179.955 59.8465 181.684V182.663C59.8465 185.796 60.1565 187.999 60.7766 189.272C61.8209 191.262 63.5342 192.258 65.9164 192.258Z" fill=var(--fg, black)"/>
    <path d="M79.9165 191.475H80.6018C81.8746 191.475 82.6415 191.246 82.9025 190.789V190.398C82.9025 190.104 82.9025 189.729 82.9025 189.272C82.9025 188.815 82.9025 188.277 82.9025 187.657C82.9025 187.037 82.9188 186.335 82.9515 185.552C82.9841 184.769 82.9841 183.953 82.9515 183.104C82.9188 182.256 82.9188 181.358 82.9515 180.412C82.9841 179.465 82.9841 178.535 82.9515 177.622C82.9515 176.414 82.9515 175.141 82.9515 173.803C82.9515 172.465 82.9515 171.242 82.9515 170.132C82.9515 169.023 82.9515 168.044 82.9515 167.195C82.9515 166.347 82.9352 165.629 82.9025 165.041C82.8699 164.454 82.8699 164.176 82.9025 164.209C82.8046 163.589 82.5762 163.181 82.2172 162.985C81.8582 162.79 81.124 162.643 80.0144 162.545H79.1333V161.419C79.1333 160.668 79.1659 160.293 79.2312 160.293L79.7207 160.244C80.0471 160.211 80.5202 160.179 81.1403 160.146C81.7603 160.114 82.3641 160.081 82.9515 160.048C83.5063 160.016 84.11 159.983 84.7627 159.95C85.4154 159.918 85.9049 159.869 86.2312 159.803C86.5575 159.738 86.737 159.722 86.7697 159.755H86.9165V171.062L86.9655 182.321L89.9025 179.678C91.8606 177.915 92.9049 176.936 93.0354 176.741C93.2312 176.447 93.3291 176.169 93.3291 175.908C93.3291 175.288 92.9864 174.946 92.3011 174.88H92.0564V172.629H92.4969C92.9864 172.727 94.9282 172.776 98.3221 172.776C100.378 172.776 101.553 172.727 101.847 172.629H102.091V174.88H101.455C99.2032 175.044 97.3105 175.762 95.7767 177.034C93.3617 179.09 92.1543 180.183 92.1543 180.314C92.1543 180.347 93.1823 181.864 95.2382 184.866C97.2941 187.869 98.4526 189.533 98.7137 189.859C99.1706 190.479 99.6764 190.904 100.231 191.132C100.786 191.361 101.586 191.475 102.63 191.475H103.168V193.727H102.875C102.581 193.629 101.161 193.58 98.6158 193.58C95.4829 193.58 93.6718 193.629 93.1823 193.727H92.7906V191.475H93.1333C93.9165 191.41 94.3081 191.1 94.3081 190.545C94.3081 190.316 94.2429 190.088 94.1123 189.859C94.0144 189.696 93.1986 188.489 91.6648 186.237C90.131 183.985 89.3478 182.859 89.3151 182.859L86.7697 185.111V187.852V189.615C86.7697 190.235 86.8023 190.643 86.8676 190.838C86.9328 191.034 87.1123 191.197 87.406 191.328C88.0913 191.426 88.8909 191.475 89.8046 191.475H90.5878V193.727H90.1962C89.7067 193.629 87.9282 193.58 84.8606 193.58C81.793 193.58 80.0144 193.629 79.5249 193.727H79.1333V191.475H79.9165Z" fill=var(--fg, black)"/>
    <path d="M129.602 193.727C129.015 193.629 126.942 193.58 123.385 193.58C120.024 193.58 118.197 193.629 117.903 193.727H117.511V191.475H118.294C119.208 191.475 120.008 191.426 120.693 191.328C120.954 191.23 121.15 191.051 121.28 190.789C121.313 190.724 121.329 188.048 121.329 182.762V174.88H117.854V172.629H121.329V169.398L121.378 166.118L121.476 165.629C122.096 163.507 123.141 161.974 124.609 161.027C126.078 160.081 127.628 159.493 129.259 159.265C129.292 159.265 129.439 159.265 129.7 159.265C129.961 159.265 130.19 159.249 130.385 159.216C131.723 159.314 132.735 159.738 133.42 160.489C134.106 161.239 134.448 162.088 134.448 163.034C134.448 163.785 134.22 164.389 133.763 164.845C133.306 165.302 132.702 165.531 131.952 165.531C131.201 165.531 130.597 165.302 130.141 164.845C129.684 164.389 129.455 163.785 129.455 163.034C129.455 162.382 129.749 161.729 130.336 161.076H130.141C130.01 161.044 129.831 161.027 129.602 161.027C128.688 161.027 127.873 161.37 127.155 162.055C126.437 162.741 125.882 163.638 125.49 164.748C125.294 165.4 125.18 166.95 125.148 169.398V172.629H130.581V174.88H125.294V182.713C125.294 187.999 125.311 190.675 125.343 190.741C125.376 190.806 125.425 190.871 125.49 190.936C125.556 191.002 125.637 191.051 125.735 191.083C125.833 191.116 125.914 191.165 125.98 191.23C126.045 191.295 126.159 191.328 126.322 191.328C126.486 191.328 126.6 191.344 126.665 191.377C126.73 191.41 126.877 191.426 127.106 191.426C127.334 191.426 127.481 191.426 127.546 191.426C127.611 191.426 127.775 191.442 128.036 191.475C128.297 191.507 128.46 191.507 128.525 191.475H130.043V193.727H129.602Z" fill=var(--fg, black)"/>
    <path d="M132.98 191.475H133.665C134.938 191.475 135.704 191.246 135.966 190.79V190.398C135.966 190.104 135.966 189.729 135.966 189.272C135.966 188.815 135.982 188.309 136.014 187.755C136.047 187.2 136.047 186.563 136.014 185.845C135.982 185.127 135.982 184.442 136.014 183.79C136.014 182.778 136.014 181.701 136.014 180.559C136.014 179.417 136.014 178.454 136.014 177.671L135.966 176.545C135.868 175.925 135.639 175.517 135.28 175.321C134.921 175.125 134.187 174.978 133.077 174.88H132.196V173.755C132.196 173.004 132.229 172.629 132.294 172.629L132.784 172.58C133.11 172.547 133.567 172.514 134.154 172.482C134.742 172.449 135.329 172.417 135.917 172.384C136.439 172.351 137.01 172.319 137.63 172.286C138.25 172.253 138.723 172.204 139.049 172.139C139.376 172.074 139.555 172.058 139.588 172.09H139.735V175.468C141.007 173.249 142.59 172.139 144.483 172.139H144.777C146.245 172.139 147.322 172.498 148.007 173.216C148.693 173.934 149.035 174.685 149.035 175.468C149.035 176.153 148.823 176.741 148.399 177.23C147.975 177.72 147.355 177.964 146.539 177.964C145.723 177.964 145.119 177.703 144.728 177.181C144.336 176.659 144.124 176.104 144.091 175.517C144.091 175.223 144.124 174.962 144.189 174.734C144.255 174.505 144.336 174.309 144.434 174.146C144.532 173.983 144.581 173.901 144.581 173.901C144.516 173.836 144.14 173.901 143.455 174.097C142.933 174.358 142.541 174.603 142.28 174.831C140.746 176.3 139.98 179.221 139.98 183.594V186.188C139.98 186.612 139.98 187.053 139.98 187.51C139.98 187.967 139.98 188.391 139.98 188.783C139.98 189.174 139.996 189.5 140.028 189.762C140.061 190.023 140.061 190.267 140.028 190.496V190.741C140.061 190.806 140.11 190.871 140.175 190.936C140.241 191.002 140.322 191.051 140.42 191.083C140.518 191.116 140.6 191.165 140.665 191.23C140.73 191.295 140.844 191.328 141.007 191.328C141.171 191.328 141.285 191.344 141.35 191.377C141.415 191.41 141.562 191.426 141.791 191.426C142.019 191.426 142.166 191.426 142.231 191.426C142.297 191.426 142.46 191.442 142.721 191.475C142.982 191.507 143.145 191.507 143.21 191.475H144.728V193.727H144.287C143.7 193.629 141.628 193.58 138.07 193.58C134.709 193.58 132.882 193.629 132.588 193.727H132.196V191.475H132.98Z" fill=var(--fg, black)"/>
    <path d="M151.777 183.251C151.777 180.151 152.837 177.475 154.959 175.223C157.08 172.971 159.642 171.829 162.644 171.796C165.581 171.796 168.11 172.906 170.231 175.125C172.353 177.344 173.43 180.036 173.462 183.202C173.462 186.302 172.418 188.913 170.329 191.034C168.241 193.155 165.679 194.216 162.644 194.216C159.478 194.216 156.884 193.123 154.861 190.936C152.837 188.75 151.809 186.188 151.777 183.251ZM162.644 192.258C166.625 192.258 168.616 189.598 168.616 184.279V182.712V181.489C168.616 180.771 168.6 180.151 168.567 179.628C168.534 179.106 168.42 178.486 168.224 177.768C168.029 177.05 167.768 176.463 167.441 176.006C167.115 175.549 166.609 175.092 165.924 174.635C165.238 174.179 164.439 173.852 163.525 173.656C163.362 173.624 163.101 173.607 162.742 173.607C161.763 173.607 160.833 173.803 159.952 174.195C158.548 174.913 157.635 175.908 157.21 177.181C156.786 178.454 156.574 179.955 156.574 181.684V182.663C156.574 185.796 156.884 187.999 157.504 189.272C158.548 191.262 160.262 192.258 162.644 192.258Z" fill=var(--fg, black)"/>
    <path d="M176.889 191.475H177.574C178.847 191.475 179.614 191.246 179.875 190.79V190.398C179.875 190.104 179.875 189.729 179.875 189.272C179.875 188.815 179.875 188.309 179.875 187.755C179.875 187.2 179.891 186.563 179.924 185.845C179.956 185.127 179.956 184.442 179.924 183.79C179.924 182.778 179.924 181.701 179.924 180.559C179.924 179.417 179.907 178.454 179.875 177.671V176.545C179.777 175.925 179.548 175.517 179.189 175.321C178.83 175.125 178.096 174.978 176.987 174.88H176.105V173.755C176.105 173.004 176.138 172.629 176.203 172.629L176.693 172.58C177.019 172.547 177.476 172.514 178.064 172.482C178.651 172.449 179.255 172.417 179.875 172.384C180.429 172.351 181.017 172.319 181.637 172.286C182.257 172.253 182.73 172.204 183.057 172.139C183.383 172.074 183.562 172.058 183.595 172.09H183.742V174.048C183.742 175.288 183.758 175.908 183.791 175.908C183.823 175.908 183.905 175.827 184.036 175.664C184.166 175.5 184.362 175.256 184.623 174.929C184.884 174.603 185.194 174.309 185.553 174.048C185.912 173.787 186.385 173.477 186.973 173.118C187.56 172.759 188.18 172.498 188.833 172.335C189.485 172.172 190.318 172.09 191.329 172.09C191.819 172.09 192.276 172.123 192.7 172.188C193.124 172.253 193.499 172.351 193.826 172.482C194.152 172.612 194.462 172.743 194.756 172.873C195.05 173.004 195.294 173.151 195.49 173.314C195.686 173.477 195.865 173.657 196.029 173.852C196.192 174.048 196.339 174.228 196.469 174.391C196.6 174.554 196.714 174.734 196.812 174.929C196.91 175.125 196.975 175.288 197.008 175.419C197.04 175.549 197.089 175.68 197.154 175.81L197.252 176.055L197.399 175.859C197.497 175.729 197.595 175.598 197.693 175.468C197.791 175.337 197.938 175.158 198.133 174.929C198.329 174.701 198.541 174.489 198.77 174.293C198.998 174.097 199.243 173.885 199.504 173.657C199.765 173.428 200.091 173.232 200.483 173.069C200.875 172.906 201.25 172.743 201.609 172.58C201.968 172.417 202.392 172.302 202.882 172.237C203.371 172.172 203.877 172.123 204.399 172.09C208.511 172.09 210.746 173.934 211.105 177.622C211.138 177.85 211.154 180.118 211.154 184.426V188.636C211.154 189.876 211.187 190.61 211.252 190.838C211.318 191.067 211.497 191.23 211.791 191.328C212.476 191.426 213.276 191.475 214.189 191.475H214.973V193.727H214.581L213.455 193.678C212.672 193.645 211.84 193.629 210.959 193.629C210.077 193.629 209.457 193.612 209.098 193.58C205.737 193.58 203.91 193.629 203.616 193.727H203.224V191.475H204.008C205.998 191.475 206.994 191.214 206.994 190.692C207.026 190.626 207.043 188.375 207.043 183.936C207.01 179.531 206.977 177.197 206.945 176.936C206.749 176.023 206.422 175.337 205.966 174.88C205.509 174.424 205.117 174.146 204.791 174.048C204.464 173.95 204.04 173.918 203.518 173.95C202.05 173.95 200.76 174.505 199.651 175.615C198.77 176.496 198.215 177.393 197.987 178.307C197.758 179.221 197.628 180.575 197.595 182.37V185.503V188.44C197.595 189.419 197.611 190.072 197.644 190.398C197.677 190.724 197.726 190.936 197.791 191.034C197.856 191.132 198.003 191.23 198.231 191.328C198.917 191.426 199.716 191.475 200.63 191.475H201.413V193.727H201.022L199.847 193.678C199.096 193.645 198.28 193.629 197.399 193.629C196.518 193.629 195.898 193.612 195.539 193.58C192.178 193.58 190.35 193.629 190.057 193.727H189.665V191.475H190.448C192.439 191.475 193.434 191.214 193.434 190.692C193.467 190.626 193.483 188.375 193.483 183.936C193.45 179.531 193.418 177.197 193.385 176.936C193.189 176.023 192.863 175.337 192.406 174.88C191.949 174.424 191.558 174.146 191.231 174.048C190.905 173.95 190.481 173.918 189.959 173.95C188.49 173.95 187.201 174.505 186.091 175.615C185.21 176.496 184.656 177.393 184.427 178.307C184.199 179.221 184.068 180.575 184.036 182.37V185.503V188.44C184.036 189.419 184.052 190.072 184.084 190.398C184.117 190.724 184.166 190.936 184.231 191.034C184.297 191.132 184.443 191.23 184.672 191.328C185.357 191.426 186.157 191.475 187.071 191.475H187.854V193.727H187.462L186.336 193.678C185.553 193.645 184.721 193.629 183.84 193.629C182.959 193.629 182.339 193.612 181.98 193.58C178.618 193.58 176.791 193.629 176.497 193.727H176.105V191.475H176.889Z" fill=var(--fg, black)"/>
    <path d="M529.716 320.129H530.411C531.701 320.129 532.478 319.897 532.743 319.434V319.037C532.743 318.739 532.743 318.359 532.743 317.896C532.743 317.432 532.743 316.887 532.743 316.258C532.743 315.629 532.759 314.918 532.792 314.124C532.825 313.33 532.825 312.503 532.792 311.643C532.759 310.783 532.759 309.873 532.792 308.914C532.825 307.955 532.825 307.012 532.792 306.086C532.792 304.862 532.792 303.571 532.792 302.215C532.792 300.859 532.792 299.618 532.792 298.493C532.792 297.369 532.792 296.376 532.792 295.516C532.792 294.656 532.776 293.928 532.743 293.333C532.71 292.737 532.71 292.456 532.743 292.489C532.644 291.861 532.412 291.447 532.048 291.249C531.684 291.05 530.94 290.901 529.815 290.802H528.922V289.661C528.922 288.9 528.955 288.519 529.021 288.519L529.517 288.47C529.848 288.437 530.328 288.404 530.956 288.37C531.585 288.337 532.197 288.304 532.792 288.271C533.355 288.238 533.967 288.205 534.628 288.172C535.29 288.139 535.786 288.089 536.117 288.023C536.448 287.957 536.63 287.94 536.663 287.974H536.812V303.604C536.812 314.091 536.828 319.368 536.861 319.434C536.994 319.698 537.192 319.88 537.457 319.98C538.152 320.079 538.962 320.129 539.888 320.129H540.682V322.411H540.285L539.144 322.362C538.383 322.328 537.573 322.312 536.713 322.312C535.852 322.312 535.224 322.295 534.827 322.262C534.43 322.229 533.801 322.229 532.941 322.262C532.081 322.295 531.254 322.328 530.46 322.362L529.319 322.411H528.922V320.129H529.716Z" fill=var(--fg, black)"/>
    <path d="M542.816 311.792C542.816 308.649 543.891 305.937 546.041 303.654C548.192 301.371 550.789 300.213 553.832 300.18C556.809 300.18 559.373 301.305 561.523 303.555C563.674 305.804 564.765 308.533 564.798 311.742C564.798 314.885 563.74 317.532 561.623 319.682C559.505 321.832 556.909 322.907 553.832 322.907C550.623 322.907 547.993 321.799 545.942 319.583C543.891 317.366 542.849 314.769 542.816 311.792ZM553.832 320.922C557.868 320.922 559.886 318.226 559.886 312.834V311.246V310.006C559.886 309.278 559.869 308.649 559.836 308.12C559.803 307.591 559.687 306.962 559.489 306.234C559.29 305.506 559.026 304.911 558.695 304.448C558.364 303.985 557.851 303.522 557.157 303.058C556.462 302.595 555.651 302.265 554.725 302.066C554.56 302.033 554.295 302.016 553.931 302.016C552.939 302.016 551.996 302.215 551.103 302.612C549.68 303.34 548.754 304.349 548.324 305.639C547.894 306.929 547.679 308.451 547.679 310.204V311.196C547.679 314.372 547.993 316.605 548.622 317.895C549.68 319.913 551.417 320.922 553.832 320.922Z" fill=var(--fg, black)"/>
    <path d="M567.627 311.792C567.627 308.649 568.702 305.937 570.852 303.654C573.003 301.371 575.6 300.213 578.643 300.18C581.62 300.18 584.184 301.305 586.334 303.555C588.485 305.804 589.576 308.533 589.609 311.742C589.609 314.885 588.551 317.532 586.434 319.682C584.316 321.832 581.72 322.907 578.643 322.907C575.434 322.907 572.804 321.799 570.753 319.583C568.702 317.366 567.66 314.769 567.627 311.792ZM578.643 320.922C582.679 320.922 584.697 318.226 584.697 312.834V311.246V310.006C584.697 309.278 584.68 308.649 584.647 308.12C584.614 307.591 584.498 306.962 584.3 306.234C584.101 305.506 583.837 304.911 583.506 304.448C583.175 303.985 582.662 303.522 581.968 303.058C581.273 302.595 580.462 302.265 579.536 302.066C579.371 302.033 579.106 302.016 578.742 302.016C577.75 302.016 576.807 302.215 575.914 302.612C574.491 303.34 573.565 304.349 573.135 305.639C572.705 306.929 572.49 308.451 572.49 310.204V311.196C572.49 314.372 572.804 316.605 573.433 317.895C574.491 319.913 576.228 320.922 578.643 320.922Z" fill=var(--fg, black)"/>
    <path d="M592.835 320.129H593.53C594.82 320.129 595.597 319.897 595.862 319.434V319.037C595.862 318.739 595.862 318.359 595.862 317.896C595.862 317.432 595.862 316.887 595.862 316.258C595.862 315.629 595.878 314.918 595.912 314.124C595.945 313.33 595.945 312.503 595.912 311.643C595.878 310.783 595.878 309.873 595.912 308.914C595.945 307.955 595.945 307.012 595.912 306.086C595.912 304.862 595.912 303.571 595.912 302.215C595.912 300.859 595.912 299.618 595.912 298.493C595.912 297.369 595.912 296.376 595.912 295.516C595.912 294.656 595.895 293.928 595.862 293.333C595.829 292.737 595.829 292.456 595.862 292.489C595.763 291.861 595.531 291.447 595.167 291.249C594.803 291.05 594.059 290.901 592.934 290.802H592.041V289.661C592.041 288.9 592.074 288.519 592.14 288.519L592.636 288.47C592.967 288.437 593.447 288.404 594.076 288.37C594.704 288.337 595.316 288.304 595.912 288.271C596.474 288.238 597.086 288.205 597.748 288.172C598.409 288.139 598.905 288.089 599.236 288.023C599.567 287.957 599.749 287.94 599.782 287.974H599.931V299.436L599.981 310.849L602.958 308.17C604.943 306.383 606.001 305.391 606.134 305.192C606.332 304.895 606.431 304.613 606.431 304.349C606.431 303.72 606.084 303.373 605.389 303.307H605.141V301.024H605.588C606.084 301.123 608.052 301.173 611.493 301.173C613.577 301.173 614.768 301.123 615.066 301.024H615.314V303.307H614.669C612.386 303.472 610.467 304.2 608.912 305.49C606.464 307.574 605.24 308.682 605.24 308.815C605.24 308.848 606.283 310.386 608.367 313.43C610.451 316.473 611.625 318.16 611.89 318.491C612.353 319.12 612.866 319.55 613.428 319.781C613.99 320.013 614.801 320.129 615.86 320.129H616.405V322.411H616.108C615.81 322.312 614.371 322.262 611.791 322.262C608.615 322.262 606.779 322.312 606.283 322.411H605.886V320.129H606.233C607.027 320.062 607.424 319.748 607.424 319.186C607.424 318.954 607.358 318.723 607.225 318.491C607.126 318.326 606.299 317.102 604.744 314.819C603.189 312.536 602.395 311.395 602.362 311.395L599.782 313.678V316.457V318.243C599.782 318.871 599.815 319.285 599.881 319.483C599.947 319.682 600.129 319.847 600.427 319.98C601.122 320.079 601.932 320.129 602.859 320.129H603.653V322.411H603.256C602.759 322.312 600.956 322.262 597.847 322.262C594.737 322.262 592.934 322.312 592.438 322.411H592.041V320.129H592.835Z" fill=var(--fg, black)"/>
    <path d="M636.453 307.276C636.453 307.276 636.089 307.276 635.361 307.276C634.633 307.276 634.021 307.028 633.525 306.532C633.029 306.036 632.781 305.391 632.781 304.597C632.781 303.439 633.343 302.414 634.468 301.52C635.592 300.627 637.594 300.181 640.472 300.181C642.887 300.181 644.839 300.71 646.327 301.768C647.816 302.827 648.808 304.084 649.305 305.54C649.47 306.003 649.553 306.516 649.553 307.078C649.553 307.64 649.569 309.543 649.602 312.785V316.258C649.602 317.846 649.685 318.938 649.851 319.533C650.016 320.129 650.363 320.426 650.893 320.426C651.389 320.426 651.72 320.162 651.885 319.632C652.05 319.103 652.133 318.226 652.133 317.002V315.216H654.118V317.151C654.085 318.475 654.035 319.252 653.969 319.483C653.671 320.476 653.093 321.253 652.232 321.816C651.372 322.378 650.463 322.676 649.503 322.709C648.544 322.742 647.766 322.444 647.171 321.816C646.575 321.187 646.179 320.492 645.98 319.732V319.533L645.881 319.682C645.815 319.781 645.732 319.88 645.633 319.98C645.533 320.079 645.401 320.228 645.236 320.426C645.07 320.625 644.872 320.807 644.64 320.972C644.409 321.138 644.161 321.336 643.896 321.568C643.631 321.799 643.334 321.981 643.003 322.113C642.672 322.246 642.308 322.378 641.911 322.51C641.514 322.643 641.084 322.742 640.621 322.808C640.158 322.874 639.645 322.924 639.083 322.957C637.098 322.957 635.311 322.444 633.723 321.419C632.136 320.393 631.342 318.954 631.342 317.102C631.342 316.407 631.457 315.745 631.689 315.117C631.92 314.488 632.367 313.81 633.029 313.082C633.69 312.354 634.484 311.742 635.411 311.246C636.337 310.75 637.627 310.287 639.281 309.857C640.935 309.427 642.755 309.179 644.739 309.113H645.434V308.021C645.434 306.896 645.335 306.069 645.136 305.54C644.409 303.191 642.804 302.017 640.323 302.017C639.728 302.017 639.165 302.033 638.636 302.066C638.107 302.099 637.693 302.165 637.395 302.265C637.098 302.364 636.965 302.414 636.998 302.414C637.726 302.91 638.09 303.638 638.09 304.597C638.09 305.424 637.825 306.069 637.296 306.532L636.453 307.276ZM635.907 317.151C635.907 318.177 636.304 319.087 637.098 319.88C637.892 320.674 638.868 321.088 640.025 321.121C641.282 321.121 642.391 320.741 643.35 319.98C644.309 319.219 644.955 318.226 645.285 317.002C645.351 316.771 645.401 315.679 645.434 313.727C645.434 311.809 645.418 310.849 645.385 310.849C645.12 310.849 644.773 310.866 644.342 310.899C643.912 310.932 643.168 311.081 642.11 311.345C641.051 311.61 640.092 311.941 639.231 312.338C638.371 312.735 637.61 313.347 636.949 314.174C636.287 315.001 635.94 315.993 635.907 317.151Z" fill=var(--fg, black)"/>
    <path d="M655.805 301.471C657.559 301.338 658.915 300.412 659.874 298.692C660.834 296.971 661.363 294.954 661.462 292.638V291.894H663.447V301.024H670.146V303.307H663.447V310.452C663.48 314.587 663.497 316.92 663.497 317.449C663.497 317.978 663.612 318.507 663.844 319.037C664.307 320.327 665.118 320.972 666.275 320.972C667.731 320.972 668.624 319.798 668.955 317.449C668.988 317.184 669.005 316.423 669.005 315.166V313.429H670.99V315.166V315.762C670.99 318.309 670.295 320.244 668.905 321.567C668.012 322.461 666.854 322.907 665.432 322.907C664.307 322.907 663.331 322.709 662.504 322.312C661.677 321.915 661.049 321.402 660.619 320.773C660.189 320.145 659.874 319.566 659.676 319.037C659.477 318.507 659.361 317.978 659.328 317.449C659.295 317.217 659.279 314.769 659.279 310.105V303.307H655.359V301.471H655.805Z" fill=var(--fg, black)"/>
    <path d="M1034.14 216.808C1034.14 215.891 1033.79 215.433 1033.1 215.433C1032.22 215.433 1031.3 215.965 1030.35 217.028C1029.39 218.092 1028.61 219.723 1027.98 221.923C1027.95 221.96 1027.91 222.015 1027.87 222.088C1027.84 222.162 1027.82 222.217 1027.82 222.253C1027.82 222.29 1027.78 222.327 1027.71 222.363C1027.63 222.4 1027.58 222.418 1027.54 222.418C1027.51 222.418 1027.43 222.418 1027.32 222.418C1027.21 222.418 1027.07 222.418 1026.88 222.418H1026.11C1025.89 222.198 1025.78 222.033 1025.78 221.923C1025.78 221.667 1025.93 221.135 1026.22 220.328C1026.52 219.522 1026.96 218.568 1027.54 217.468C1028.13 216.368 1028.94 215.433 1029.96 214.663C1030.99 213.893 1032.14 213.49 1033.43 213.453C1034.97 213.453 1036.16 213.893 1037 214.773C1037.85 215.653 1038.29 216.68 1038.32 217.853C1038.32 218.477 1038.27 218.953 1038.16 219.283C1038.16 219.503 1037.88 220.31 1037.33 221.703C1036.78 223.097 1036.22 224.728 1035.63 226.598C1035.04 228.468 1034.71 230.1 1034.64 231.493C1034.64 232.483 1034.73 233.29 1034.91 233.913C1035.39 235.49 1036.55 236.278 1038.38 236.278C1039.74 236.278 1041 235.655 1042.17 234.408C1043.35 233.162 1044.26 231.713 1044.92 230.063C1045.58 228.413 1046.12 226.892 1046.52 225.498C1046.92 224.105 1047.12 223.097 1047.12 222.473C1047.12 221.63 1046.98 220.897 1046.68 220.273C1046.39 219.65 1046.06 219.173 1045.69 218.843C1045.33 218.513 1045 218.183 1044.7 217.853C1044.41 217.523 1044.26 217.12 1044.26 216.643C1044.26 215.836 1044.61 215.085 1045.31 214.388C1046.01 213.691 1046.76 213.343 1047.56 213.343C1048.26 213.343 1048.88 213.673 1049.43 214.333C1049.98 214.993 1050.28 216.057 1050.31 217.523C1050.31 218.513 1050.09 220.035 1049.65 222.088C1049.21 224.142 1048.54 226.433 1047.62 228.963C1046.7 231.493 1045.4 233.675 1043.71 235.508C1042.03 237.342 1040.08 238.277 1037.88 238.313C1035.54 238.313 1033.67 237.708 1032.27 236.498C1030.92 235.325 1030.24 233.583 1030.24 231.273C1030.24 230.137 1030.38 228.963 1030.68 227.753C1030.97 226.543 1031.72 224.398 1032.93 221.318C1033.74 218.972 1034.14 217.468 1034.14 216.808Z" fill="#2739DC"/>
    <path d="M933.125 284.728C933.125 284.403 933.307 283.773 933.673 282.839C934.038 281.905 934.546 280.849 935.196 279.671C935.846 278.493 936.739 277.478 937.877 276.625C939.014 275.772 940.212 275.325 941.471 275.284C943.339 275.284 944.741 275.792 945.675 276.807C946.609 277.823 947.076 279.021 947.076 280.402C947.076 281.133 946.386 283.408 945.005 287.225C943.624 291.043 942.933 293.907 942.933 295.816C942.933 297.562 943.218 298.781 943.786 299.471C944.355 300.162 945.208 300.527 946.345 300.568C947.482 300.608 948.559 300.263 949.574 299.532C950.589 298.801 951.341 298.11 951.828 297.461L952.498 296.425C952.579 296.262 953.351 293.176 954.813 287.165C956.032 282.291 956.763 279.448 957.007 278.635C957.25 277.823 957.535 277.234 957.86 276.868C958.55 276.259 959.281 275.955 960.053 275.955C960.743 275.955 961.251 276.158 961.576 276.564C961.901 276.97 962.063 277.356 962.063 277.721L957.433 297.095C957.392 297.298 957.372 297.623 957.372 298.07C957.372 299.085 957.514 299.755 957.799 300.08C958.083 300.405 958.509 300.588 959.078 300.629C959.972 300.507 960.682 299.877 961.21 298.74C961.738 297.603 962.348 295.816 963.038 293.379C963.119 293.054 963.525 292.891 964.257 292.891C965.028 292.891 965.414 293.074 965.414 293.44C965.373 293.643 965.333 293.927 965.292 294.293C965.252 294.658 965.069 295.308 964.744 296.242C964.419 297.176 964.074 298.05 963.708 298.862C963.343 299.674 962.835 300.446 962.185 301.177C961.535 301.908 960.804 302.416 959.992 302.7C959.667 302.781 959.18 302.822 958.53 302.822C955.849 302.822 954.001 301.685 952.986 299.41C952.904 299.451 952.681 299.654 952.315 300.019C951.95 300.385 951.584 300.69 951.219 300.933C950.853 301.177 950.407 301.482 949.879 301.847C949.351 302.213 948.762 302.456 948.112 302.578C947.462 302.7 946.771 302.802 946.04 302.883C944.253 302.883 942.669 302.517 941.288 301.786C939.176 300.527 938.12 298.374 938.12 295.328C938.12 293.013 938.831 289.987 940.253 286.251C941.674 282.514 942.385 280.138 942.385 279.123C942.385 279.082 942.385 279.041 942.385 279.001C942.385 278.635 942.385 278.391 942.385 278.27C942.385 278.148 942.304 278.006 942.141 277.843C941.979 277.681 941.755 277.599 941.471 277.599H941.227C940.293 277.599 939.44 277.985 938.669 278.757C937.897 279.529 937.288 280.361 936.841 281.255C936.394 282.148 936.049 283.001 935.805 283.814C935.561 284.626 935.399 285.073 935.318 285.154C935.237 285.235 934.912 285.276 934.343 285.276H933.49C933.246 285.032 933.125 284.849 933.125 284.728Z" fill="#2739DC"/>
    <path d="M876.925 197.393C876.925 196.626 877.272 195.914 877.966 195.257C878.659 194.6 879.426 194.253 880.266 194.216C880.923 194.216 881.526 194.545 882.073 195.202C882.621 195.859 882.913 196.9 882.95 198.324C882.95 199.383 882.603 201.482 881.909 204.622C881.361 206.667 880.868 208.346 880.43 209.661C879.992 210.975 879.353 212.454 878.513 214.097C877.674 215.74 876.669 216.982 875.501 217.821C874.333 218.661 873.018 219.081 871.558 219.081C869.951 219.081 868.527 218.789 867.286 218.205C866.044 217.621 865.15 216.836 864.602 215.85C864.566 215.886 864.511 215.959 864.438 216.069C862.941 218.077 861.115 219.081 858.961 219.081C858.012 219.081 857.099 218.972 856.223 218.752C855.346 218.533 854.488 218.187 853.649 217.712C852.809 217.237 852.133 216.525 851.622 215.576C851.111 214.627 850.855 213.476 850.855 212.125C850.855 210.154 851.476 207.488 852.717 204.129C853.959 200.77 854.598 198.634 854.634 197.721C854.634 197.685 854.634 197.648 854.634 197.612C854.634 197.283 854.634 197.064 854.634 196.955C854.634 196.845 854.561 196.717 854.415 196.571C854.269 196.425 854.068 196.352 853.813 196.352H853.594C852.754 196.352 851.987 196.699 851.293 197.393C850.6 198.087 850.052 198.835 849.65 199.638C849.249 200.442 848.938 201.208 848.719 201.939C848.5 202.669 848.354 203.07 848.281 203.143C848.208 203.216 847.916 203.253 847.405 203.253H846.638C846.419 203.034 846.31 202.87 846.31 202.76C846.31 202.541 846.456 202.03 846.748 201.227C847.04 200.423 847.46 199.492 848.007 198.433C848.555 197.375 849.358 196.425 850.417 195.585C851.476 194.746 852.663 194.326 853.977 194.326C855.547 194.326 856.752 194.782 857.592 195.695C858.432 196.608 858.852 197.667 858.852 198.872C858.852 199.529 858.249 201.5 857.044 204.787C855.839 208.073 855.237 210.61 855.237 212.399C855.237 214.079 855.62 215.266 856.387 215.959C857.154 216.653 858.121 217.018 859.29 217.055C860.86 217.055 862.247 215.941 863.452 213.714L863.726 213.221V211.961C863.726 211.852 863.726 211.687 863.726 211.468C863.726 211.249 863.744 211.103 863.781 211.03C863.817 210.957 863.835 210.829 863.835 210.647C863.835 210.464 863.854 210.3 863.89 210.154C863.927 210.008 863.981 209.77 864.055 209.442C864.128 209.113 864.182 208.803 864.219 208.511C864.255 208.219 864.365 207.781 864.547 207.196C864.73 206.612 864.876 206.028 864.986 205.444C865.095 204.86 865.296 204.075 865.588 203.089C866.647 198.926 867.249 196.681 867.395 196.352C867.87 195.366 868.655 194.873 869.75 194.873C870.444 194.873 870.919 195.056 871.174 195.421C871.43 195.786 871.576 196.133 871.613 196.462C871.613 196.936 871.083 199.273 870.024 203.472C868.965 207.671 868.381 210.081 868.272 210.701C868.199 211.103 868.162 211.742 868.162 212.618V213.002C868.162 213.549 868.217 214.079 868.326 214.59C868.436 215.101 868.783 215.631 869.367 216.178C869.951 216.726 870.773 217.018 871.832 217.055C874.424 217.055 876.487 214.827 878.02 210.373C878.349 209.533 878.714 208.346 879.116 206.813C879.517 205.279 879.737 204.184 879.773 203.527C879.773 202.322 879.536 201.373 879.061 200.679C878.586 199.985 878.112 199.401 877.637 198.926C877.162 198.452 876.925 197.94 876.925 197.393Z" fill="#1C9812"/>
    <path d="M1010.2 67.5222C1010.2 66.6388 1009.86 66.197 1009.19 66.197C1008.34 66.197 1007.46 66.7094 1006.54 67.7342C1005.62 68.759 1004.86 70.3316 1004.26 72.4519C1004.23 72.4872 1004.19 72.5402 1004.16 72.6109C1004.12 72.6816 1004.1 72.7346 1004.1 72.7699C1004.1 72.8053 1004.07 72.8406 1004 72.8759C1003.93 72.9113 1003.87 72.929 1003.84 72.929C1003.8 72.929 1003.73 72.929 1003.63 72.929C1003.52 72.929 1003.38 72.929 1003.2 72.929H1002.46C1002.25 72.7169 1002.14 72.5579 1002.14 72.4519C1002.14 72.2045 1002.28 71.6921 1002.57 70.9147C1002.85 70.1372 1003.27 69.2184 1003.84 68.1583C1004.4 67.0982 1005.18 66.197 1006.17 65.4549C1007.16 64.7128 1008.27 64.3241 1009.51 64.2888C1010.99 64.2888 1012.14 64.7128 1012.96 65.5609C1013.77 66.4091 1014.19 67.3985 1014.23 68.5293C1014.23 69.1301 1014.17 69.5895 1014.07 69.9075C1014.07 70.1196 1013.8 70.897 1013.27 72.2399C1012.74 73.5827 1012.2 75.1553 1011.63 76.9575C1011.06 78.7597 1010.75 80.3323 1010.68 81.6751C1010.68 82.6293 1010.76 83.4067 1010.94 84.0075C1011.4 85.527 1012.51 86.2868 1014.28 86.2868C1015.59 86.2868 1016.81 85.686 1017.94 84.4845C1019.07 83.283 1019.95 81.8872 1020.59 80.297C1021.22 78.7067 1021.74 77.2402 1022.13 75.8974C1022.51 74.5545 1022.71 73.5827 1022.71 72.982C1022.71 72.1692 1022.57 71.4624 1022.28 70.8617C1022 70.2609 1021.68 69.8015 1021.33 69.4835C1020.98 69.1654 1020.66 68.8474 1020.38 68.5293C1020.09 68.2113 1019.95 67.8226 1019.95 67.3632C1019.95 66.5857 1020.29 65.8613 1020.96 65.1899C1021.63 64.5185 1022.36 64.1828 1023.13 64.1828C1023.8 64.1828 1024.41 64.5008 1024.94 65.1369C1025.47 65.773 1025.75 66.7978 1025.78 68.2113C1025.78 69.1654 1025.57 70.632 1025.15 72.6109C1024.72 74.5898 1024.07 76.7985 1023.19 79.2368C1022.3 81.6751 1021.05 83.7778 1019.42 85.5447C1017.8 87.3116 1015.92 88.2127 1013.8 88.248C1011.54 88.248 1009.74 87.665 1008.4 86.4988C1007.09 85.368 1006.44 83.6894 1006.44 81.4631C1006.44 80.3676 1006.58 79.2368 1006.86 78.0707C1007.14 76.9045 1007.87 74.8372 1009.03 71.8688C1009.81 69.6072 1010.2 68.1583 1010.2 67.5222Z" fill=var(--fg, black)"/>
    <path d="M1027.52 84.8604C1027.52 84.6606 1027.64 84.2733 1027.86 83.6987C1028.09 83.124 1028.4 82.4745 1028.8 81.7499C1029.2 81.0254 1029.75 80.4008 1030.45 79.8761C1031.15 79.3514 1031.88 79.0766 1032.66 79.0516C1033.81 79.0516 1034.67 79.3639 1035.24 79.9885C1035.82 80.6131 1036.11 81.3502 1036.11 82.1996C1036.11 82.6493 1035.68 84.0485 1034.83 86.397C1033.98 88.7455 1033.56 90.5068 1033.56 91.6811C1033.56 92.7554 1033.73 93.5049 1034.08 93.9297C1034.43 94.3544 1034.96 94.5792 1035.66 94.6042C1036.36 94.6292 1037.02 94.4168 1037.64 93.9671C1038.27 93.5174 1038.73 93.0927 1039.03 92.6929L1039.44 92.0559C1039.49 91.9559 1039.97 90.0571 1040.87 86.3595C1041.62 83.3614 1042.07 81.6125 1042.22 81.1128C1042.36 80.6131 1042.54 80.2509 1042.74 80.026C1043.16 79.6513 1043.61 79.4639 1044.09 79.4639C1044.51 79.4639 1044.83 79.5888 1045.03 79.8386C1045.23 80.0885 1045.33 80.3258 1045.33 80.5507L1042.48 92.4681C1042.45 92.593 1042.44 92.7929 1042.44 93.0677C1042.44 93.6923 1042.53 94.1045 1042.7 94.3044C1042.88 94.5043 1043.14 94.6167 1043.49 94.6417C1044.04 94.5668 1044.48 94.1795 1044.8 93.4799C1045.13 92.7804 1045.5 91.6811 1045.93 90.182C1045.98 89.9822 1046.23 89.8822 1046.67 89.8822C1047.15 89.8822 1047.39 89.9947 1047.39 90.2195C1047.36 90.3444 1047.34 90.5193 1047.31 90.7442C1047.29 90.969 1047.17 91.3688 1046.97 91.9434C1046.77 92.5181 1046.56 93.0552 1046.34 93.5549C1046.11 94.0546 1045.8 94.5293 1045.4 94.979C1045 95.4287 1044.55 95.741 1044.05 95.9159C1043.85 95.9659 1043.55 95.9908 1043.15 95.9908C1041.5 95.9908 1040.37 95.2913 1039.74 93.8922C1039.69 93.9172 1039.55 94.0421 1039.33 94.2669C1039.1 94.4918 1038.88 94.6792 1038.65 94.8291C1038.43 94.979 1038.16 95.1664 1037.83 95.3912C1037.51 95.6161 1037.14 95.766 1036.74 95.8409C1036.34 95.9159 1035.92 95.9784 1035.47 96.0283C1034.37 96.0283 1033.4 95.8035 1032.55 95.3538C1031.25 94.5792 1030.6 93.2551 1030.6 91.3813C1030.6 89.9572 1031.03 88.0959 1031.91 85.7973C1032.78 83.4988 1033.22 82.0372 1033.22 81.4126C1033.22 81.3876 1033.22 81.3627 1033.22 81.3377C1033.22 81.1128 1033.22 80.9629 1033.22 80.888C1033.22 80.813 1033.17 80.7256 1033.07 80.6256C1032.97 80.5257 1032.83 80.4757 1032.66 80.4757H1032.51C1031.93 80.4757 1031.41 80.7131 1030.93 81.1878C1030.46 81.6625 1030.09 82.1746 1029.81 82.7243C1029.54 83.2739 1029.32 83.7986 1029.17 84.2983C1029.02 84.798 1028.92 85.0728 1028.87 85.1228C1028.82 85.1727 1028.62 85.1977 1028.27 85.1977H1027.75C1027.6 85.0478 1027.52 84.9354 1027.52 84.8604Z" fill=var(--fg, black)"/>
    <path d="M1049.04 84.8607C1049.06 84.7857 1049.09 84.6858 1049.11 84.5609C1049.14 84.436 1049.2 84.1611 1049.3 83.7364C1049.4 83.3117 1049.52 82.9244 1049.67 82.5747C1049.82 82.2249 1050.01 81.8126 1050.23 81.3379C1050.46 80.8632 1050.71 80.4885 1050.98 80.2137C1051.26 79.9388 1051.58 79.664 1051.96 79.3892C1052.33 79.1144 1052.75 79.0019 1053.2 79.0519C1055.07 79.0519 1056.27 79.8514 1056.79 81.4504L1057.17 81.1131C1058.72 79.739 1060.19 79.0519 1061.59 79.0519C1063.21 79.0519 1064.49 79.639 1065.41 80.8133C1066.34 81.9875 1066.8 83.4116 1066.8 85.0856C1066.8 87.7838 1065.85 90.2698 1063.95 92.5433C1062.05 94.8169 1059.9 95.9661 1057.51 95.9911C1056.96 95.9911 1056.47 95.9162 1056.04 95.7663C1055.77 95.6413 1055.48 95.454 1055.18 95.2041C1054.88 94.9543 1054.64 94.7419 1054.47 94.567L1054.21 94.2672C1054.18 94.2922 1053.91 95.379 1053.38 97.5276C1052.86 99.6763 1052.6 100.763 1052.6 100.788C1052.6 100.938 1052.7 101.025 1052.9 101.05C1053.1 101.075 1053.56 101.113 1054.28 101.163H1055.22C1055.37 101.338 1055.44 101.45 1055.44 101.5C1055.44 101.55 1055.41 101.775 1055.33 102.175C1055.26 102.474 1055.18 102.662 1055.11 102.737C1055.03 102.812 1054.87 102.862 1054.62 102.887C1054.57 102.887 1054.43 102.887 1054.21 102.887C1053.98 102.887 1053.56 102.874 1052.93 102.849C1052.31 102.824 1051.53 102.812 1050.61 102.812C1048.86 102.812 1047.75 102.837 1047.27 102.887H1046.97C1046.8 102.712 1046.71 102.574 1046.71 102.474C1046.76 101.8 1046.92 101.363 1047.2 101.163H1047.95C1048.8 101.138 1049.29 100.988 1049.41 100.713C1049.49 100.563 1050.25 97.5776 1051.7 91.7563C1053.15 85.935 1053.91 82.8495 1053.98 82.4997C1054.01 82.3748 1054.02 82.1999 1054.02 81.975C1054.02 80.9507 1053.71 80.4385 1053.08 80.4385C1052.53 80.4385 1052.07 80.7883 1051.7 81.4879C1051.32 82.1874 1051.03 82.9494 1050.83 83.7739C1050.63 84.5984 1050.48 85.0481 1050.38 85.123C1050.33 85.173 1050.13 85.198 1049.79 85.198H1049.26C1049.11 85.0481 1049.04 84.9357 1049.04 84.8607ZM1054.84 91.7938C1055.39 93.6926 1056.32 94.642 1057.62 94.642C1058.37 94.642 1059.09 94.3547 1059.79 93.78C1060.49 93.2054 1061.07 92.4808 1061.52 91.6064C1061.96 90.7569 1062.41 89.4078 1062.86 87.559C1063.31 85.7102 1063.55 84.336 1063.58 83.4366V83.2118C1063.58 81.3629 1062.81 80.4385 1061.29 80.4385C1061.02 80.4385 1060.74 80.476 1060.47 80.5509C1060.19 80.6259 1059.92 80.7383 1059.64 80.8882C1059.37 81.0381 1059.12 81.2005 1058.89 81.3754C1058.67 81.5503 1058.45 81.7377 1058.25 81.9376C1058.05 82.1374 1057.87 82.3248 1057.69 82.4997C1057.52 82.6746 1057.38 82.8495 1057.28 83.0244C1057.18 83.1993 1057.08 83.3242 1056.98 83.3991L1056.87 83.549C1056.87 83.574 1056.83 83.7489 1056.76 84.0737C1056.68 84.3985 1056.54 84.9481 1056.34 85.7227C1056.14 86.4972 1055.97 87.1467 1055.82 87.6714C1055.17 90.3197 1054.84 91.6938 1054.84 91.7938Z" fill=var(--fg, black)"/>
    <path d="M989.08 259.373C988.262 261.425 989.264 263.752 991.316 264.569C993.369 265.386 995.695 264.385 996.512 262.332L989.08 259.373ZM1034.31 164.252C1033.43 162.222 1031.08 161.286 1029.05 162.159L995.983 176.392C993.954 177.265 993.017 179.618 993.891 181.647C994.764 183.676 997.117 184.613 999.146 183.74L1028.54 171.089L1041.19 200.481C1042.06 202.511 1044.42 203.448 1046.45 202.574C1048.48 201.701 1049.41 199.348 1048.54 197.319L1034.31 164.252ZM996.512 262.332L1034.35 167.313L1026.92 164.353L989.08 259.373L996.512 262.332Z" fill="#2739DC"/>
    <path d="M991.527 264.646C993.622 265.347 995.889 264.216 996.589 262.121C997.29 260.026 996.16 257.76 994.065 257.059L991.527 264.646ZM911.852 230.796C909.875 231.782 909.072 234.184 910.058 236.161L926.124 268.377C927.11 270.354 929.512 271.157 931.489 270.171C933.466 269.185 934.269 266.784 933.283 264.807L919.002 236.17L947.638 221.889C949.615 220.903 950.419 218.501 949.433 216.524C948.447 214.547 946.045 213.744 944.068 214.73L911.852 230.796ZM994.065 257.059L914.906 230.583L912.368 238.169L991.527 264.646L994.065 257.059Z" fill="#2739DC"/>
    <ellipse cx="993.272" cy="261.26" rx="10.936" ry="16.3116" transform="rotate(19.2991 993.272 261.26)" fill=var(--fg, black)"/>
    <path d="M990.896 264.244C992.819 265.332 995.259 264.655 996.347 262.732C997.435 260.81 996.758 258.369 994.835 257.281L990.896 264.244ZM891.456 200.138C889.327 200.728 888.08 202.932 888.671 205.061L898.291 239.752C898.881 241.881 901.086 243.128 903.215 242.537C905.343 241.947 906.591 239.743 906 237.614L897.449 206.778L928.285 198.226C930.414 197.636 931.661 195.432 931.07 193.303C930.48 191.174 928.276 189.927 926.147 190.517L891.456 200.138ZM994.835 257.281L894.495 200.511L890.555 207.474L990.896 264.244L994.835 257.281Z" fill="#1C9812"/>
    </svg>
    