<svg width="100%" viewBox="0 0 1532 633" fill="none" xmlns="http://www.w3.org/2000/svg">
<rect x="258.895" y="2" width="96" height="96" stroke="var(--fg, black)" stroke-width="4"/>
<circle cx="306.895" cy="50" r="10" fill="#888888"/>
<rect x="358.895" y="2" width="96" height="96" stroke="var(--fg, black)" stroke-width="4"/>
<circle cx="406.895" cy="50" r="10" fill="#888888"/>
<rect x="458.895" y="2" width="96" height="96" stroke="var(--fg, black)" stroke-width="4"/>
<circle cx="506.895" cy="50" r="10" fill="#888888"/>
<rect x="558.895" y="2" width="96" height="96" stroke="var(--fg, black)" stroke-width="4"/>
<circle cx="606.895" cy="50" r="10" fill="#888888"/>
<rect x="258.895" y="102" width="96" height="96" stroke="var(--fg, black)" stroke-width="4"/>
<circle cx="306.895" cy="150" r="10" fill="#888888"/>
<rect x="358.895" y="102" width="96" height="96" stroke="var(--fg, black)" stroke-width="4"/>
<circle cx="406.895" cy="150" r="10" fill="#888888"/>
<rect x="458.895" y="102" width="96" height="96" stroke="var(--fg, black)" stroke-width="4"/>
<circle cx="506.895" cy="150" r="10" fill="#888888"/>
<rect width="100" height="100" transform="translate(556.895 100)" fill="#AD1E1E" fill-opacity="0.5"/>
<rect x="558.895" y="102" width="96" height="96" stroke="var(--fg, black)" stroke-width="4"/>
<circle cx="606.895" cy="150" r="10" fill="#AD1E1E"/>
<rect x="258.895" y="202" width="96" height="96" stroke="var(--fg, black)" stroke-width="4"/>
<circle cx="306.895" cy="250" r="10" fill="#888888"/>
<rect x="358.895" y="202" width="96" height="96" stroke="var(--fg, black)" stroke-width="4"/>
<circle cx="406.895" cy="250" r="10" fill="#888888"/>
<rect width="100" height="100" transform="translate(456.895 200)" fill="#AD1E1E" fill-opacity="0.5"/>
<rect x="458.895" y="202" width="96" height="96" stroke="var(--fg, black)" stroke-width="4"/>
<circle cx="506.895" cy="250" r="10" fill="#AD1E1E"/>
<rect width="100" height="100" transform="translate(556.895 200)" fill="#AD1E1E" fill-opacity="0.5"/>
<rect x="558.895" y="202" width="96" height="96" stroke="var(--fg, black)" stroke-width="4"/>
<circle cx="606.895" cy="250" r="10" fill="#AD1E1E"/>
<rect x="258.895" y="302" width="96" height="96" stroke="var(--fg, black)" stroke-width="4"/>
<circle cx="306.895" cy="350" r="10" fill="#888888"/>
<rect x="358.895" y="302" width="96" height="96" stroke="var(--fg, black)" stroke-width="4"/>
<circle cx="406.895" cy="350" r="10" fill="#888888"/>
<rect width="100" height="100" transform="translate(456.895 300)" fill="#AD1E1E" fill-opacity="0.5"/>
<rect x="458.895" y="302" width="96" height="96" stroke="var(--fg, black)" stroke-width="4"/>
<circle cx="506.895" cy="350" r="10" fill="#AD1E1E"/>
<rect width="100" height="100" transform="translate(556.895 300)" fill="#AD1E1E" fill-opacity="0.5"/>
<rect x="558.895" y="302" width="96" height="96" stroke="var(--fg, black)" stroke-width="4"/>
<circle cx="606.895" cy="350" r="10" fill="#AD1E1E"/>
<rect x="258.895" y="402" width="96" height="96" stroke="var(--fg, black)" stroke-width="4"/>
<circle cx="306.895" cy="450" r="10" fill="#888888"/>
<rect width="100" height="100" transform="translate(356.895 400)" fill="#AD1E1E" fill-opacity="0.5"/>
<rect x="358.895" y="402" width="96" height="96" stroke="var(--fg, black)" stroke-width="4"/>
<circle cx="406.895" cy="450" r="10" fill="#AD1E1E"/>
<rect width="100" height="100" transform="translate(456.895 400)" fill="#AD1E1E" fill-opacity="0.5"/>
<rect x="458.895" y="402" width="96" height="96" stroke="var(--fg, black)" stroke-width="4"/>
<circle cx="506.895" cy="450" r="10" fill="#AD1E1E"/>
<rect width="100" height="100" transform="translate(556.895 400)" fill="#AD1E1E" fill-opacity="0.5"/>
<rect x="558.895" y="402" width="96" height="96" stroke="var(--fg, black)" stroke-width="4"/>
<circle cx="606.895" cy="450" r="10" fill="#AD1E1E"/>
<rect x="258.895" y="502" width="96" height="96" stroke="var(--fg, black)" stroke-width="4"/>
<circle cx="306.895" cy="550" r="10" fill="#888888"/>
<rect width="100" height="100" transform="translate(356.895 500)" fill="#AD1E1E" fill-opacity="0.5"/>
<rect x="358.895" y="502" width="96" height="96" stroke="var(--fg, black)" stroke-width="4"/>
<circle cx="406.895" cy="550" r="10" fill="#AD1E1E"/>
<rect width="100" height="100" transform="translate(456.895 500)" fill="#AD1E1E" fill-opacity="0.5"/>
<rect x="458.895" y="502" width="96" height="96" stroke="var(--fg, black)" stroke-width="4"/>
<circle cx="506.895" cy="550" r="10" fill="#AD1E1E"/>
<rect width="100" height="100" transform="translate(556.895 500)" fill="#AD1E1E" fill-opacity="0.5"/>
<rect x="558.895" y="502" width="96" height="96" stroke="var(--fg, black)" stroke-width="4"/>
<circle cx="606.895" cy="550" r="10" fill="#AD1E1E"/>
<path d="M718.689 16.6729C612.281 80.8063 523.928 170.943 461.933 278.611C399.939 386.278 366.338 507.941 364.291 632.165" stroke="#AD1E1E" stroke-width="8"/>
<rect x="902.229" y="2" width="96" height="96" stroke="var(--fg, black)" stroke-width="4"/>
<circle cx="940.229" cy="60" r="10" fill="#888888"/>
<circle cx="930.229" cy="20" r="10" fill="#888888"/>
<circle cx="960.229" cy="84.0078" r="10" fill="#888888"/>
<circle cx="975.434" cy="30" r="10" fill="#888888"/>
<rect x="1002.23" y="2" width="96" height="96" stroke="var(--fg, black)" stroke-width="4"/>
<circle cx="1060.23" cy="70" r="10" fill="#888888"/>
<circle cx="1030.23" cy="20" r="10" fill="#888888"/>
<circle cx="1080.23" cy="80" r="10" fill="#888888"/>
<circle cx="1080.23" cy="20" r="10" fill="#888888"/>
<rect x="1102.23" y="2" width="96" height="96" stroke="var(--fg, black)" stroke-width="4"/>
<circle cx="1140.23" cy="60" r="10" fill="#888888"/>
<circle cx="1130.23" cy="20" r="10" fill="#888888"/>
<circle cx="1160.23" cy="84.0078" r="10" fill="#888888"/>
<circle cx="1175.43" cy="30" r="10" fill="#888888"/>
<rect x="1202.23" y="98" width="96" height="96" transform="rotate(-90 1202.23 98)" stroke="var(--fg, black)" stroke-width="4"/>
<circle cx="1260.23" cy="60" r="10" transform="rotate(-90 1260.23 60)" fill="#888888"/>
<circle cx="1220.23" cy="70" r="10" transform="rotate(-90 1220.23 70)" fill="#888888"/>
<circle cx="1284.24" cy="40" r="10" transform="rotate(-90 1284.24 40)" fill="#888888"/>
<circle cx="1230.23" cy="24.7949" r="10" transform="rotate(-90 1230.23 24.7949)" fill="#888888"/>
<rect x="902.229" y="102" width="96" height="96" stroke="var(--fg, black)" stroke-width="4"/>
<circle cx="970.229" cy="160" r="10" fill="#888888"/>
<circle cx="930.229" cy="120" r="10" fill="#888888"/>
<circle cx="930.229" cy="180" r="10" fill="#888888"/>
<circle cx="960.229" cy="130" r="10" fill="#888888"/>
<rect x="1002.23" y="198" width="96" height="96" transform="rotate(-90 1002.23 198)" stroke="var(--fg, black)" stroke-width="4"/>
<circle cx="1070.23" cy="140" r="10" transform="rotate(-90 1070.23 140)" fill="#888888"/>
<circle cx="1020.23" cy="170" r="10" transform="rotate(-90 1020.23 170)" fill="#888888"/>
<circle cx="1080.23" cy="120" r="10" transform="rotate(-90 1080.23 120)" fill="#888888"/>
<circle cx="1020.23" cy="120" r="10" transform="rotate(-90 1020.23 120)" fill="#888888"/>
<rect x="1198.23" y="198" width="96" height="96" transform="rotate(-180 1198.23 198)" stroke="var(--fg, black)" stroke-width="4"/>
<circle cx="1160.23" cy="140" r="10" transform="rotate(-180 1160.23 140)" fill="#888888"/>
<circle cx="1170.23" cy="180" r="10" transform="rotate(-180 1170.23 180)" fill="#888888"/>
<circle cx="1140.23" cy="115.992" r="10" transform="rotate(-180 1140.23 115.992)" fill="#888888"/>
<circle cx="1125.02" cy="170" r="10" transform="rotate(-180 1125.02 170)" fill="#888888"/>
<rect width="100" height="100" transform="translate(1200.23 100)" fill="#AD1E1E" fill-opacity="0.5"/>
<rect x="1202.23" y="102" width="96" height="96" stroke="var(--fg, black)" stroke-width="4"/>
<circle cx="1250.23" cy="155.279" r="10" fill="#AD1E1E"/>
<circle cx="1274.97" cy="130.283" r="10" fill="#AD1E1E"/>
<circle cx="1280.23" cy="180" r="10" fill="#AD1E1E"/>
<circle cx="1220.23" cy="165.279" r="10" fill="#AD1E1E"/>
<rect x="902.229" y="202" width="96" height="96" stroke="var(--fg, black)" stroke-width="4"/>
<circle cx="950.229" cy="255.279" r="10" fill="#888888"/>
<circle cx="974.969" cy="230.283" r="10" fill="#888888"/>
<circle cx="980.229" cy="280" r="10" fill="#888888"/>
<circle cx="920.229" cy="265.279" r="10" fill="#888888"/>
<rect x="1002.23" y="202" width="96" height="96" stroke="var(--fg, black)" stroke-width="4"/>
<circle cx="1070.23" cy="260" r="10" fill="#888888"/>
<circle cx="1030.23" cy="220" r="10" fill="#888888"/>
<circle cx="1030.23" cy="280" r="10" fill="#888888"/>
<circle cx="1060.23" cy="230" r="10" fill="#888888"/>
<rect width="100" height="100" transform="translate(1200.23 300) rotate(-180)" fill="#AD1E1E" fill-opacity="0.38"/>
<rect x="1198.23" y="298" width="96" height="96" transform="rotate(-180 1198.23 298)" stroke="var(--fg, black)" stroke-width="4"/>
<circle cx="1150.23" cy="244.721" r="10" transform="rotate(-180 1150.23 244.721)" fill="#AD1E1E"/>
<circle cx="1125.49" cy="269.717" r="10" transform="rotate(-180 1125.49 269.717)" fill="#AD1E1E"/>
<circle cx="1120.23" cy="220" r="10" transform="rotate(-180 1120.23 220)" fill="#888888"/>
<circle cx="1180.23" cy="234.721" r="10" transform="rotate(-180 1180.23 234.721)" fill="#AD1E1E"/>
<rect width="100" height="100" transform="translate(1200.23 200)" fill="#AD1E1E" fill-opacity="0.5"/>
<rect x="1202.23" y="202" width="96" height="96" stroke="var(--fg, black)" stroke-width="4"/>
<circle cx="1260.23" cy="270" r="10" fill="#AD1E1E"/>
<circle cx="1230.23" cy="220" r="10" fill="#AD1E1E"/>
<circle cx="1280.23" cy="280" r="10" fill="#AD1E1E"/>
<circle cx="1280.23" cy="220" r="10" fill="#AD1E1E"/>
<rect x="998.229" y="398" width="96" height="96" transform="rotate(-180 998.229 398)" stroke="var(--fg, black)" stroke-width="4"/>
<circle cx="940.229" cy="330" r="10" transform="rotate(-180 940.229 330)" fill="#888888"/>
<circle cx="970.229" cy="380" r="10" transform="rotate(-180 970.229 380)" fill="#888888"/>
<circle cx="920.229" cy="320" r="10" transform="rotate(-180 920.229 320)" fill="#888888"/>
<circle cx="920.229" cy="380" r="10" transform="rotate(-180 920.229 380)" fill="#888888"/>
<rect width="100" height="100" transform="translate(1100.23 300) rotate(90)" fill="#AD1E1E" fill-opacity="0.25"/>
<rect x="1098.23" y="302" width="96" height="96" transform="rotate(90 1098.23 302)" stroke="var(--fg, black)" stroke-width="4"/>
<circle cx="1040.23" cy="370" r="10" transform="rotate(90 1040.23 370)" fill="#888888"/>
<circle cx="1080.23" cy="330" r="10" transform="rotate(90 1080.23 330)" fill="#AD1E1E"/>
<circle cx="1020.23" cy="330" r="10" transform="rotate(90 1020.23 330)" fill="#888888"/>
<circle cx="1070.23" cy="360" r="10" transform="rotate(90 1070.23 360)" fill="#AD1E1E"/>
<rect width="100" height="100" transform="translate(1100.23 300)" fill="#AD1E1E" fill-opacity="0.5"/>
<rect x="1102.23" y="302" width="96" height="96" stroke="var(--fg, black)" stroke-width="4"/>
<circle cx="1140.23" cy="360" r="10" fill="#AD1E1E"/>
<circle cx="1130.23" cy="320" r="10" fill="#AD1E1E"/>
<circle cx="1160.23" cy="384.008" r="10" fill="#AD1E1E"/>
<circle cx="1175.43" cy="330" r="10" fill="#AD1E1E"/>
<rect width="100" height="100" transform="translate(1300.23 400) rotate(180)" fill="#AD1E1E" fill-opacity="0.5"/>
<rect x="1298.23" y="398" width="96" height="96" transform="rotate(180 1298.23 398)" stroke="var(--fg, black)" stroke-width="4"/>
<circle cx="1230.23" cy="340" r="10" transform="rotate(180 1230.23 340)" fill="#AD1E1E"/>
<circle cx="1270.23" cy="380" r="10" transform="rotate(180 1270.23 380)" fill="#AD1E1E"/>
<circle cx="1270.23" cy="320" r="10" transform="rotate(180 1270.23 320)" fill="#AD1E1E"/>
<circle cx="1240.23" cy="370" r="10" transform="rotate(180 1240.23 370)" fill="#AD1E1E"/>
<rect x="-2" y="2" width="96" height="96" transform="matrix(-1 0 0 1 996.229 400)" stroke="var(--fg, black)" stroke-width="4"/>
<circle r="10" transform="matrix(-1 0 0 1 930.229 460)" fill="#888888"/>
<circle r="10" transform="matrix(-1 0 0 1 970.229 420)" fill="#888888"/>
<circle r="10" transform="matrix(-1 0 0 1 970.229 480)" fill="#888888"/>
<circle r="10" transform="matrix(-1 0 0 1 940.229 430)" fill="#888888"/>
<rect width="100" height="100" transform="translate(1000.23 500) rotate(-90)" fill="#AD1E1E" fill-opacity="0.38"/>
<rect x="1002.23" y="498" width="96" height="96" transform="rotate(-90 1002.23 498)" stroke="var(--fg, black)" stroke-width="4"/>
<circle cx="1055.51" cy="450" r="10" transform="rotate(-90 1055.51 450)" fill="#AD1E1E"/>
<circle cx="1030.51" cy="425.26" r="10" transform="rotate(-90 1030.51 425.26)" fill="#888888"/>
<circle cx="1080.23" cy="420" r="10" transform="rotate(-90 1080.23 420)" fill="#AD1E1E"/>
<circle cx="1065.51" cy="480" r="10" transform="rotate(-90 1065.51 480)" fill="#AD1E1E"/>
<rect width="100" height="100" transform="matrix(0 -1 -1 0 1200.23 500)" fill="#AD1E1E" fill-opacity="0.5"/>
<rect x="-2" y="-2" width="96" height="96" transform="matrix(0 -1 -1 0 1196.23 496)" stroke="var(--fg, black)" stroke-width="4"/>
<circle r="10" transform="matrix(0 -1 -1 0 1130.23 440)" fill="#AD1E1E"/>
<circle r="10" transform="matrix(0 -1 -1 0 1180.23 470)" fill="#AD1E1E"/>
<circle r="10" transform="matrix(0 -1 -1 0 1120.23 420)" fill="#AD1E1E"/>
<circle r="10" transform="matrix(0 -1 -1 0 1180.23 420)" fill="#AD1E1E"/>
<rect width="100" height="100" transform="translate(1200.23 400)" fill="#AD1E1E" fill-opacity="0.5"/>
<rect x="1202.23" y="402" width="96" height="96" stroke="var(--fg, black)" stroke-width="4"/>
<circle cx="1240.23" cy="460" r="10" fill="#AD1E1E"/>
<circle cx="1230.23" cy="420" r="10" fill="#AD1E1E"/>
<circle cx="1260.23" cy="484.008" r="10" fill="#AD1E1E"/>
<circle cx="1275.43" cy="430" r="10" fill="#AD1E1E"/>
<rect x="902.229" y="502" width="96" height="96" stroke="var(--fg, black)" stroke-width="4"/>
<circle cx="950.229" cy="555.279" r="10" fill="#888888"/>
<circle cx="974.969" cy="530.283" r="10" fill="#888888"/>
<circle cx="980.229" cy="580" r="10" fill="#888888"/>
<circle cx="920.229" cy="565.279" r="10" fill="#888888"/>
<rect width="100" height="100" transform="translate(1000.23 500)" fill="#AD1E1E" fill-opacity="0.5"/>
<rect x="1002.23" y="502" width="96" height="96" stroke="var(--fg, black)" stroke-width="4"/>
<circle cx="1070.23" cy="560" r="10" fill="#AD1E1E"/>
<circle cx="1030.23" cy="520" r="10" fill="#AD1E1E"/>
<circle cx="1030.23" cy="580" r="10" fill="#AD1E1E"/>
<circle cx="1060.23" cy="530" r="10" fill="#AD1E1E"/>
<rect width="100" height="100" transform="matrix(1 0 0 -1 1100.23 600)" fill="#AD1E1E" fill-opacity="0.5"/>
<rect x="2" y="-2" width="96" height="96" transform="matrix(1 0 0 -1 1100.23 596)" stroke="var(--fg, black)" stroke-width="4"/>
<circle r="10" transform="matrix(1 0 0 -1 1140.23 540)" fill="#AD1E1E"/>
<circle r="10" transform="matrix(1 0 0 -1 1130.23 580)" fill="#AD1E1E"/>
<circle r="10" transform="matrix(1 0 0 -1 1160.23 515.992)" fill="#AD1E1E"/>
<circle r="10" transform="matrix(1 0 0 -1 1175.43 570)" fill="#AD1E1E"/>
<rect width="100" height="100" transform="translate(1200.23 500)" fill="#AD1E1E" fill-opacity="0.5"/>
<rect x="1202.23" y="502" width="96" height="96" stroke="var(--fg, black)" stroke-width="4"/>
<circle cx="1270.23" cy="560" r="10" fill="#AD1E1E"/>
<circle cx="1230.23" cy="520" r="10" fill="#AD1E1E"/>
<circle cx="1230.23" cy="580" r="10" fill="#AD1E1E"/>
<circle cx="1260.23" cy="530" r="10" fill="#AD1E1E"/>
<path d="M1362.02 16.6729C1255.62 80.8063 1167.26 170.943 1105.27 278.611C1043.27 386.278 1009.67 507.941 1007.62 632.165" stroke="#AD1E1E" stroke-width="8"/>
</svg>
