<svg width="100%" viewBox="0 0 1532 557" fill="none" xmlns="http://www.w3.org/2000/svg">
    <path d="M538.839 278.896C538.839 211.168 552.038 146.533 576 87.414C599.962 146.533 613.161 211.169 613.161 278.897C613.161 346.625 599.962 411.261 576 470.38C552.038 411.261 538.839 346.624 538.839 278.896Z" stroke="var(--fg, black)" stroke-width="8" stroke-linejoin="round"/>
    <path d="M576.602 476.421L268.299 278.897L576.602 81.3728L1224.75 278.897L576.602 476.421Z" stroke="var(--fg, black)" stroke-width="8" stroke-linejoin="round"/>
    <path d="M264.306 278.897L1211.9 278.897" stroke="var(--fg, black)" stroke-width="4" stroke-linejoin="round" stroke-dasharray="30 30"/>
    <path d="M380.196 513.715L771.804 513.715" stroke="var(--fg, black)" stroke-width="4" stroke-linejoin="round"/>
    <path d="M576 80.7656L576 546.645" stroke="var(--fg, black)" stroke-width="4" stroke-linejoin="round" stroke-dasharray="20 20"/>
    <line x1="1233.4" y1="59.7051" x2="1233.4" y2="472.548" stroke="var(--fg, black)" stroke-width="8"/>
    <line x1="265.183" y1="143.89" x2="265.183" y2="391.509" stroke="var(--fg, black)" stroke-width="8"/>
    <line x1="1099.27" y1="112.379" x2="1099.27" y2="445.413" stroke="#AD1E1E" stroke-width="6"/>
    <path d="M1104.32 279.07C1104.32 290.707 1103.44 301.165 1102.05 308.644C1101.35 312.408 1100.55 315.267 1099.74 317.115C1099.62 317.38 1099.51 317.611 1099.41 317.811C1099.3 317.611 1099.19 317.38 1099.08 317.115C1098.27 315.267 1097.46 312.408 1096.77 308.644C1095.38 301.165 1094.5 290.707 1094.5 279.07C1094.5 267.433 1095.38 256.975 1096.77 249.496C1097.46 245.732 1098.27 242.872 1099.08 241.025C1099.19 240.76 1099.3 240.529 1099.41 240.329C1099.51 240.529 1099.62 240.76 1099.74 241.025C1100.55 242.872 1101.35 245.732 1102.05 249.496C1103.44 256.975 1104.32 267.433 1104.32 279.07ZM1098.7 318.868C1098.7 318.868 1098.7 318.866 1098.71 318.862C1098.7 318.866 1098.7 318.868 1098.7 318.868ZM1100.11 318.862C1100.11 318.866 1100.12 318.868 1100.12 318.868C1100.12 318.868 1100.11 318.866 1100.11 318.862ZM1100.12 239.272C1100.12 239.272 1100.11 239.274 1100.11 239.278C1100.11 239.273 1100.12 239.271 1100.12 239.272ZM1098.71 239.278C1098.7 239.274 1098.7 239.272 1098.7 239.272C1098.7 239.271 1098.7 239.273 1098.71 239.278Z" fill="#AD1E1E" stroke="#AD1E1E" stroke-width="6"/>
    <path d="M239.604 51.6123C239.093 51.5272 237.292 51.4846 234.2 51.4846C231.278 51.4846 229.689 51.5272 229.434 51.6123H229.093V49.6549H229.774C230.568 49.6549 231.263 49.6123 231.859 49.5272C232.086 49.4421 232.256 49.2861 232.37 49.0591C232.398 49.0024 232.412 46.6761 232.412 42.0804V35.2293H229.391V33.2719H232.412V30.4634L232.455 27.6123L232.54 27.1868C233.079 25.3428 233.987 24.0095 235.263 23.1868C236.54 22.3641 237.888 21.8534 239.306 21.6549C239.334 21.6549 239.462 21.6549 239.689 21.6549C239.916 21.6549 240.115 21.6407 240.285 21.6123C241.448 21.6974 242.327 22.0662 242.923 22.7187C243.519 23.3712 243.817 24.1088 243.817 24.9315C243.817 25.5839 243.618 26.1088 243.221 26.5059C242.824 26.9031 242.299 27.1017 241.646 27.1017C240.994 27.1017 240.469 26.9031 240.072 26.5059C239.675 26.1088 239.476 25.5839 239.476 24.9315C239.476 24.3641 239.732 23.7967 240.242 23.2293H240.072C239.959 23.201 239.802 23.1868 239.604 23.1868C238.81 23.1868 238.1 23.4846 237.476 24.0804C236.852 24.6761 236.37 25.4563 236.029 26.4208C235.859 26.9882 235.76 28.3357 235.732 30.4634V33.2719H240.455V35.2293H235.859V42.0378C235.859 46.6336 235.873 48.9598 235.902 49.0166C235.93 49.0733 235.973 49.13 236.029 49.1868C236.086 49.2435 236.157 49.2861 236.242 49.3144C236.327 49.3428 236.398 49.3854 236.455 49.4421C236.512 49.4988 236.611 49.5272 236.753 49.5272C236.895 49.5272 236.994 49.5414 237.051 49.5698C237.107 49.5981 237.235 49.6123 237.434 49.6123C237.632 49.6123 237.76 49.6123 237.817 49.6123C237.873 49.6123 238.015 49.6265 238.242 49.6549C238.469 49.6832 238.611 49.6832 238.668 49.6549H239.987V51.6123H239.604Z" fill="var(--fg, black)"/>
    <path d="M243.945 25.6974C243.945 24.9031 244.2 24.279 244.71 23.8251C245.221 23.3712 245.845 23.1442 246.583 23.1442C247.235 23.201 247.803 23.4421 248.285 23.8676C248.767 24.2932 249.008 24.9031 249.008 25.6974C249.008 26.5485 248.767 27.1868 248.285 27.6123C247.803 28.0378 247.207 28.2506 246.498 28.2506C245.789 28.2506 245.193 28.0378 244.71 27.6123C244.228 27.1868 243.973 26.5485 243.945 25.6974ZM251.519 51.6123C251.093 51.5272 249.618 51.4846 247.093 51.4846C246.781 51.4846 246.257 51.4846 245.519 51.4846C244.781 51.4846 244.072 51.513 243.391 51.5698L242.455 51.6123H242.115V49.6549H242.796C243.59 49.6549 244.285 49.6123 244.881 49.5272C245.136 49.4137 245.292 49.2577 245.349 49.0591C245.406 48.8605 245.434 48.2648 245.434 47.2719V42.8889V39.1442C245.434 37.669 245.406 36.7329 245.349 36.3357C245.292 35.9385 245.093 35.669 244.753 35.5272C244.356 35.3286 243.689 35.2293 242.753 35.2293H242.285V34.2506C242.285 33.5981 242.313 33.2719 242.37 33.2719L242.796 33.2293C243.079 33.201 243.476 33.1726 243.987 33.1442C244.498 33.1159 245.008 33.0875 245.519 33.0591C246.001 33.0307 246.512 33.0024 247.051 32.974C247.59 32.9456 248.001 32.9031 248.285 32.8463C248.569 32.7896 248.725 32.7754 248.753 32.8038H248.881V48.974C249.023 49.2577 249.193 49.4279 249.391 49.4846C249.59 49.5414 250.086 49.5981 250.881 49.6549H251.859V51.6123H251.519Z" fill="var(--fg, black)"/>
    <path d="M254.625 49.6549H255.221C256.327 49.6549 256.994 49.4563 257.221 49.0591V48.7187C257.221 48.4634 257.221 48.1371 257.221 47.74C257.221 47.3428 257.221 46.8747 257.221 46.3357C257.221 45.7967 257.235 45.1868 257.263 44.5059C257.292 43.8251 257.292 43.1159 257.263 42.3783C257.235 41.6407 257.235 40.8605 257.263 40.0378C257.292 39.2151 257.292 38.4066 257.263 37.6123C257.263 36.5627 257.263 35.4563 257.263 34.2932C257.263 33.13 257.263 32.0662 257.263 31.1017C257.263 30.1371 257.263 29.2861 257.263 28.5485C257.263 27.8109 257.249 27.1868 257.221 26.6761C257.193 26.1655 257.193 25.9244 257.221 25.9527C257.136 25.4137 256.937 25.0591 256.625 24.8889C256.313 24.7187 255.675 24.591 254.71 24.5059H253.944V23.5272C253.944 22.8747 253.973 22.5485 254.029 22.5485L254.455 22.5059C254.739 22.4776 255.15 22.4492 255.689 22.4208C256.228 22.3924 256.753 22.3641 257.263 22.3357C257.746 22.3073 258.271 22.279 258.838 22.2506C259.405 22.2222 259.831 22.1797 260.115 22.1229C260.398 22.0662 260.554 22.052 260.583 22.0804H260.71V35.4846C260.71 44.4776 260.724 49.0024 260.753 49.0591C260.866 49.2861 261.037 49.4421 261.263 49.5272C261.859 49.6123 262.554 49.6549 263.349 49.6549H264.029V51.6123H263.689L262.71 51.5698C262.058 51.5414 261.363 51.5272 260.625 51.5272C259.888 51.5272 259.349 51.513 259.008 51.4846C258.668 51.4563 258.129 51.4563 257.391 51.4846C256.654 51.513 255.944 51.5414 255.263 51.5698L254.285 51.6123H253.944V49.6549H254.625Z" fill="var(--fg, black)"/>
    <path d="M266.412 49.6549H267.008C268.114 49.6549 268.781 49.4563 269.008 49.0591V48.7187C269.008 48.4634 269.008 48.1371 269.008 47.74C269.008 47.3428 269.008 46.9031 269.008 46.4208C269.008 45.9385 269.022 45.3854 269.051 44.7612C269.079 44.1371 269.079 43.5414 269.051 42.974C269.051 42.0946 269.051 41.1584 269.051 40.1655C269.051 39.1726 269.036 38.3357 269.008 37.6549V36.6761C268.923 36.1371 268.724 35.7825 268.412 35.6123C268.1 35.4421 267.462 35.3144 266.497 35.2293H265.731V34.2506C265.731 33.5981 265.76 33.2719 265.817 33.2719L266.242 33.2293C266.526 33.201 266.923 33.1726 267.434 33.1442C267.944 33.1158 268.469 33.0875 269.008 33.0591C269.49 33.0307 270.001 33.0024 270.54 32.974C271.079 32.9456 271.49 32.9031 271.774 32.8463C272.058 32.7896 272.214 32.7754 272.242 32.8038H272.37V34.5059C272.37 35.5839 272.384 36.1229 272.412 36.1229C272.441 36.1229 272.512 36.052 272.625 35.9102C272.739 35.7683 272.909 35.5556 273.136 35.2719C273.363 34.9882 273.632 34.7329 273.944 34.5059C274.256 34.279 274.668 34.0095 275.178 33.6974C275.689 33.3854 276.228 33.1584 276.795 33.0166C277.363 32.8747 278.086 32.8038 278.965 32.8038C279.391 32.8038 279.788 32.8322 280.157 32.8889C280.526 32.9456 280.852 33.0307 281.136 33.1442C281.419 33.2577 281.689 33.3712 281.944 33.4846C282.2 33.5981 282.412 33.7258 282.583 33.8676C282.753 34.0095 282.909 34.1655 283.051 34.3357C283.192 34.5059 283.32 34.6619 283.434 34.8038C283.547 34.9456 283.646 35.1017 283.731 35.2719C283.817 35.4421 283.873 35.5839 283.902 35.6974C283.93 35.8109 283.973 35.9244 284.029 36.0378L284.114 36.2506L284.242 36.0804C284.327 35.9669 284.412 35.8534 284.497 35.74C284.583 35.6265 284.71 35.4705 284.88 35.2719C285.051 35.0733 285.235 34.8889 285.434 34.7187C285.632 34.5485 285.845 34.3641 286.072 34.1655C286.299 33.9669 286.583 33.7967 286.923 33.6549C287.263 33.513 287.59 33.3712 287.902 33.2293C288.214 33.0875 288.583 32.9882 289.008 32.9315C289.434 32.8747 289.873 32.8322 290.327 32.8038C293.902 32.8038 295.845 34.4066 296.157 37.6123C296.185 37.8109 296.2 39.7825 296.2 43.5272V47.1868C296.2 48.2648 296.228 48.9031 296.285 49.1017C296.341 49.3002 296.497 49.4421 296.753 49.5272C297.348 49.6123 298.044 49.6549 298.838 49.6549H299.519V51.6123H299.178L298.2 51.5698C297.519 51.5414 296.795 51.5272 296.029 51.5272C295.263 51.5272 294.724 51.513 294.412 51.4846C291.49 51.4846 289.902 51.5272 289.646 51.6123H289.306V49.6549H289.987C291.717 49.6549 292.583 49.4279 292.583 48.974C292.611 48.9173 292.625 46.9598 292.625 43.1017C292.597 39.2719 292.568 37.2435 292.54 37.0166C292.37 36.2222 292.086 35.6265 291.689 35.2293C291.292 34.8322 290.951 34.591 290.668 34.5059C290.384 34.4208 290.015 34.3924 289.561 34.4208C288.285 34.4208 287.164 34.9031 286.2 35.8676C285.434 36.6336 284.951 37.4137 284.753 38.208C284.554 39.0024 284.441 40.1797 284.412 41.74V44.4634V47.0166C284.412 47.8676 284.426 48.435 284.455 48.7187C284.483 49.0024 284.526 49.1868 284.583 49.2719C284.639 49.357 284.767 49.4421 284.965 49.5272C285.561 49.6123 286.256 49.6549 287.051 49.6549H287.731V51.6123H287.391L286.37 51.5698C285.717 51.5414 285.008 51.5272 284.242 51.5272C283.476 51.5272 282.937 51.513 282.625 51.4846C279.703 51.4846 278.114 51.5272 277.859 51.6123H277.519V49.6549H278.2C279.93 49.6549 280.795 49.4279 280.795 48.974C280.824 48.9173 280.838 46.9598 280.838 43.1017C280.809 39.2719 280.781 37.2435 280.753 37.0166C280.583 36.2222 280.299 35.6265 279.902 35.2293C279.504 34.8322 279.164 34.591 278.88 34.5059C278.597 34.4208 278.228 34.3924 277.774 34.4208C276.497 34.4208 275.377 34.9031 274.412 35.8676C273.646 36.6336 273.164 37.4137 272.965 38.208C272.767 39.0024 272.653 40.1797 272.625 41.74V44.4634V47.0166C272.625 47.8676 272.639 48.435 272.668 48.7187C272.696 49.0024 272.739 49.1868 272.795 49.2719C272.852 49.357 272.98 49.4421 273.178 49.5272C273.774 49.6123 274.469 49.6549 275.263 49.6549H275.944V51.6123H275.604L274.625 51.5698C273.944 51.5414 273.221 51.5272 272.455 51.5272C271.689 51.5272 271.15 51.513 270.838 51.4846C267.916 51.4846 266.327 51.5272 266.072 51.6123H265.731V49.6549H266.412Z" fill="var(--fg, black)"/>
    <path d="M545.635 49.4202H546.173C547.173 49.4202 547.776 49.2407 547.981 48.8818V48.5741C547.981 48.3433 547.981 48.0484 547.981 47.6895C547.981 47.3305 547.981 46.9074 547.981 46.4202C547.981 45.933 547.994 45.3818 548.019 44.7664C548.045 44.151 548.045 43.51 548.019 42.8433C547.994 42.1766 547.994 41.4715 548.019 40.7279C548.045 39.9843 548.045 39.2536 548.019 38.5356C548.019 37.5869 548.019 36.5869 548.019 35.5356C548.019 34.4843 548.019 33.5228 548.019 32.651C548.019 31.7792 548.019 31.01 548.019 30.3433C548.019 29.6766 548.006 29.1125 547.981 28.651C547.955 28.1895 547.955 27.9715 547.981 27.9971C547.904 27.51 547.724 27.1895 547.442 27.0356C547.16 26.8818 546.583 26.7664 545.712 26.6895H545.019V25.8048C545.019 25.2151 545.045 24.9202 545.096 24.9202L545.481 24.8818C545.737 24.8561 546.109 24.8305 546.596 24.8048C547.083 24.7792 547.558 24.7536 548.019 24.7279C548.455 24.7023 548.93 24.6766 549.442 24.651C549.955 24.6254 550.34 24.5869 550.596 24.5356C550.853 24.4843 550.994 24.4715 551.019 24.4971H551.135V36.6125C551.135 44.7407 551.147 48.8305 551.173 48.8818C551.276 49.0869 551.43 49.2279 551.635 49.3048C552.173 49.3818 552.801 49.4202 553.519 49.4202H554.135V51.1895H553.827L552.942 51.151C552.353 51.1254 551.724 51.1125 551.058 51.1125C550.391 51.1125 549.904 51.0997 549.596 51.0741C549.289 51.0484 548.801 51.0484 548.135 51.0741C547.468 51.0997 546.827 51.1254 546.212 51.151L545.327 51.1895H545.019V49.4202H545.635Z" fill="var(--fg, black)"/>
    <path d="M555.788 42.8046C555.788 41.3944 556.045 40.1123 556.558 38.9585C557.07 37.8046 557.711 36.8687 558.481 36.1508C559.25 35.4328 560.083 34.8944 560.981 34.5354C561.878 34.1764 562.724 33.9841 563.519 33.9585C564.878 33.9585 566.045 34.1892 567.019 34.6508C567.993 35.1123 568.737 35.7533 569.25 36.5738C569.763 37.3944 570.122 38.2149 570.327 39.0354C570.532 39.8559 570.647 40.7662 570.673 41.7662C570.673 41.9456 570.583 42.1251 570.404 42.3046H559.558V42.8815C559.558 46.6764 560.84 48.9841 563.404 49.8046C563.917 49.9585 564.481 50.0354 565.096 50.0354C566.173 50.0354 567.096 49.6251 567.865 48.8046C568.301 48.3687 568.647 47.8303 568.904 47.1892L569.288 46.2662C569.365 46.1892 569.57 46.1508 569.904 46.1508H570.019C570.455 46.1508 570.673 46.279 570.673 46.5354C570.673 46.6379 570.634 46.8046 570.558 47.0354C570.07 48.4456 569.263 49.561 568.134 50.3815C567.006 51.202 565.737 51.6123 564.327 51.6123C561.891 51.6123 559.865 50.7277 558.25 48.9585C556.634 47.1892 555.814 45.1379 555.788 42.8046ZM567.519 40.6123C567.237 37.3303 566.019 35.5867 563.865 35.3815H563.788C563.583 35.3815 563.378 35.3944 563.173 35.42C562.968 35.4456 562.647 35.5482 562.211 35.7277C561.776 35.9072 561.404 36.1764 561.096 36.5354C560.788 36.8944 560.493 37.42 560.211 38.1123C559.929 38.8046 559.724 39.6508 559.596 40.6508V40.92H567.519V40.6123Z" fill="var(--fg, black)"/>
    <path d="M573.366 49.4202H573.904C574.904 49.4202 575.507 49.2407 575.712 48.8818V48.5741C575.712 48.3433 575.712 48.0484 575.712 47.6895C575.712 47.3305 575.712 46.933 575.712 46.4971C575.712 46.0612 575.725 45.5612 575.75 44.9971C575.776 44.433 575.776 43.8946 575.75 43.3818C575.75 42.5869 575.75 41.7407 575.75 40.8433C575.75 39.9459 575.737 39.1895 575.712 38.5741V37.6895C575.635 37.2023 575.455 36.8818 575.173 36.7279C574.891 36.5741 574.314 36.4587 573.443 36.3818H572.75V35.4971C572.75 34.9074 572.776 34.6125 572.827 34.6125L573.212 34.5741C573.468 34.5484 573.827 34.5228 574.289 34.4971C574.75 34.4715 575.225 34.4459 575.712 34.4202C576.148 34.3946 576.609 34.3689 577.096 34.3433C577.584 34.3177 577.955 34.2792 578.212 34.2279C578.468 34.1766 578.609 34.1638 578.635 34.1895H578.75V35.7279C578.75 36.7023 578.763 37.1895 578.789 37.1895C578.814 37.1895 578.878 37.1254 578.981 36.9971C579.084 36.8689 579.237 36.6766 579.443 36.4202C579.648 36.1638 579.891 35.933 580.173 35.7279C580.455 35.5228 580.827 35.2792 581.289 34.9971C581.75 34.7151 582.237 34.51 582.75 34.3818C583.263 34.2536 583.917 34.1895 584.712 34.1895C587.635 34.292 589.263 35.7407 589.596 38.5356C589.622 38.7151 589.635 40.4971 589.635 43.8818V47.1895C589.635 48.1638 589.66 48.7407 589.712 48.9202C589.763 49.0997 589.904 49.2279 590.135 49.3048C590.673 49.3818 591.302 49.4202 592.019 49.4202H592.635V51.1895H592.327L591.404 51.151C590.814 51.1254 590.173 51.1125 589.481 51.1125C588.789 51.1125 588.302 51.0997 588.019 51.0741C585.378 51.0741 583.943 51.1125 583.712 51.1895H583.404V49.4202H584.019C585.584 49.4202 586.366 49.2151 586.366 48.8048C586.391 48.7536 586.404 46.9843 586.404 43.4971C586.378 40.0356 586.353 38.2023 586.327 37.9971C586.173 37.2792 585.917 36.7407 585.558 36.3818C585.199 36.0228 584.891 35.8048 584.635 35.7279C584.378 35.651 584.045 35.6253 583.635 35.651C582.481 35.651 581.468 36.0869 580.596 36.9587C579.904 37.651 579.468 38.3561 579.289 39.0741C579.109 39.792 579.007 40.8561 578.981 42.2664V44.7279V47.0356C578.981 47.8048 578.994 48.3177 579.019 48.5741C579.045 48.8305 579.084 48.9971 579.135 49.0741C579.186 49.151 579.302 49.2279 579.481 49.3048C580.019 49.3818 580.648 49.4202 581.366 49.4202H581.981V51.1895H581.673L580.789 51.151C580.173 51.1254 579.519 51.1125 578.827 51.1125C578.135 51.1125 577.648 51.0997 577.366 51.0741C574.725 51.0741 573.289 51.1125 573.058 51.1895H572.75V49.4202H573.366Z" fill="var(--fg, black)"/>
    <path d="M604.519 39.0354C604.519 38.0097 604.173 37.1251 603.481 36.3815C602.789 35.6379 601.789 35.2662 600.481 35.2662C599.558 35.2662 598.763 35.4328 598.096 35.7662C597.327 36.2533 596.942 36.92 596.942 37.7662C596.917 37.8944 596.917 38.061 596.942 38.2662C596.968 38.4713 597.173 38.779 597.558 39.1892C597.942 39.5995 598.494 39.92 599.212 40.1508C599.673 40.279 600.237 40.3944 600.904 40.4969C601.571 40.5995 602.135 40.7149 602.596 40.8431C603.058 40.9713 603.468 41.1379 603.827 41.3431C604.263 41.5482 604.686 41.8046 605.096 42.1123C605.506 42.42 605.917 42.9456 606.327 43.6892C606.737 44.4328 606.955 45.2277 606.981 46.0738C606.981 47.6636 606.494 48.9713 605.519 49.9969C604.545 51.0226 602.968 51.5482 600.789 51.5738H600.481C599.148 51.5738 597.917 51.1123 596.789 50.1892L596.481 50.4585L596.135 50.8046C595.981 50.9585 595.827 51.0995 595.673 51.2277L595.25 51.6123H594.942H594.789C594.712 51.6123 594.596 51.5354 594.442 51.3815V48.3431V46.1123C594.442 45.5738 594.468 45.2533 594.519 45.1508C594.571 45.0482 594.699 44.9841 594.904 44.9585H595.25C595.558 44.9585 595.763 45.0097 595.865 45.1123C595.968 45.2149 596.032 45.3687 596.058 45.5738C596.083 45.779 596.173 46.1251 596.327 46.6123C596.481 47.0995 596.724 47.6379 597.058 48.2277C597.955 49.5354 599.199 50.1892 600.789 50.1892C603.276 50.1892 604.519 49.1892 604.519 47.1892C604.519 46.4456 604.289 45.8431 603.827 45.3815C603.314 44.7662 602.25 44.3046 600.635 43.9969C599.019 43.6892 597.955 43.3944 597.442 43.1123C596.519 42.6764 595.789 42.0867 595.25 41.3431C594.712 40.5995 594.442 39.8046 594.442 38.9585C594.442 37.9585 594.66 37.1123 595.096 36.42C595.532 35.7277 596.083 35.2149 596.75 34.8815C597.417 34.5482 598.058 34.3174 598.673 34.1892C599.289 34.061 599.853 33.9969 600.365 33.9969H600.789C601.814 33.9969 602.712 34.1892 603.481 34.5738L604.058 34.8815L604.404 34.6123C604.66 34.3815 604.942 34.1636 605.25 33.9585H605.558H605.712C605.789 33.9585 605.904 34.0354 606.058 34.1892V39.2662L605.827 39.4969H604.75C604.596 39.3431 604.519 39.1892 604.519 39.0354Z" fill="var(--fg, black)"/>
    <path d="M1163 44.1514C1162.54 44.0744 1160.91 44.036 1158.12 44.036C1155.48 44.036 1154.04 44.0744 1153.81 44.1514H1153.5V42.3821H1154.12C1154.84 42.3821 1155.46 42.3437 1156 42.2668C1156.21 42.1898 1156.36 42.0488 1156.46 41.8437C1156.49 41.7924 1156.5 39.6898 1156.5 35.536V29.3437H1153.77V27.5744H1156.5V25.036L1156.54 22.4591L1156.62 22.0744C1157.11 20.4078 1157.93 19.2027 1159.08 18.4591C1160.23 17.7155 1161.45 17.2539 1162.73 17.0744C1162.76 17.0744 1162.88 17.0744 1163.08 17.0744C1163.29 17.0744 1163.46 17.0616 1163.62 17.036C1164.67 17.1129 1165.46 17.4462 1166 18.036C1166.54 18.6257 1166.81 19.2924 1166.81 20.036C1166.81 20.6257 1166.63 21.1001 1166.27 21.4591C1165.91 21.818 1165.44 21.9975 1164.85 21.9975C1164.26 21.9975 1163.79 21.818 1163.43 21.4591C1163.07 21.1001 1162.89 20.6257 1162.89 20.036C1162.89 19.5232 1163.12 19.0103 1163.58 18.4975H1163.43C1163.32 18.4719 1163.18 18.4591 1163 18.4591C1162.29 18.4591 1161.64 18.7283 1161.08 19.2668C1160.52 19.8052 1160.08 20.5103 1159.77 21.3821C1159.62 21.895 1159.53 23.1129 1159.5 25.036V27.5744H1163.77V29.3437H1159.62V35.4975C1159.62 39.6514 1159.63 41.7539 1159.66 41.8052C1159.68 41.8565 1159.72 41.9078 1159.77 41.9591C1159.82 42.0103 1159.89 42.0488 1159.96 42.0744C1160.04 42.1001 1160.11 42.1385 1160.16 42.1898C1160.21 42.2411 1160.3 42.2668 1160.43 42.2668C1160.55 42.2668 1160.64 42.2796 1160.7 42.3052C1160.75 42.3309 1160.86 42.3437 1161.04 42.3437C1161.22 42.3437 1161.34 42.3437 1161.39 42.3437C1161.44 42.3437 1161.57 42.3565 1161.77 42.3821C1161.98 42.4078 1162.11 42.4078 1162.16 42.3821H1163.35V44.1514H1163Z" fill="var(--fg, black)"/>
    <path d="M1165.35 35.9198C1165.35 33.4839 1166.18 31.3813 1167.85 29.6121C1169.52 27.8428 1171.53 26.9454 1173.89 26.9198C1176.2 26.9198 1178.18 27.7916 1179.85 29.5352C1181.52 31.2787 1182.36 33.3941 1182.39 35.8813C1182.39 38.3172 1181.57 40.3685 1179.93 42.0352C1178.29 43.7018 1176.27 44.5352 1173.89 44.5352C1171.4 44.5352 1169.36 43.6762 1167.77 41.9582C1166.18 40.2403 1165.37 38.2275 1165.35 35.9198ZM1173.89 42.9967C1177.02 42.9967 1178.58 40.907 1178.58 36.7275V35.4967V34.5352C1178.58 33.9711 1178.57 33.4839 1178.54 33.0736C1178.52 32.6634 1178.43 32.1762 1178.27 31.6121C1178.12 31.048 1177.91 30.5864 1177.66 30.2275C1177.4 29.8685 1177 29.5095 1176.46 29.1505C1175.93 28.7916 1175.3 28.5352 1174.58 28.3813C1174.45 28.3557 1174.25 28.3428 1173.96 28.3428C1173.2 28.3428 1172.46 28.4967 1171.77 28.8044C1170.67 29.3685 1169.95 30.1505 1169.62 31.1505C1169.29 32.1505 1169.12 33.33 1169.12 34.689V35.4582C1169.12 37.9198 1169.36 39.6505 1169.85 40.6505C1170.67 42.2146 1172.02 42.9967 1173.89 42.9967Z" fill="var(--fg, black)"/>
    <path d="M1197.73 32.4198C1197.73 32.4198 1197.46 32.4198 1196.93 32.4198C1196.39 32.4198 1195.93 32.2275 1195.54 31.8428C1195.16 31.4582 1194.95 30.971 1194.93 30.3813C1194.93 29.7916 1195.12 29.3044 1195.5 28.9198C1195.63 28.7916 1195.7 28.7146 1195.7 28.689C1195.7 28.6634 1195.57 28.6377 1195.31 28.6121C1194.64 28.5095 1194.02 28.4582 1193.43 28.4582C1192.17 28.4582 1191.14 28.8685 1190.35 29.689C1189.14 30.8941 1188.54 32.9069 1188.54 35.7275C1188.54 37.83 1188.94 39.4839 1189.73 40.689C1190.79 42.2531 1192.2 43.0351 1193.96 43.0351C1195.02 43.0351 1195.86 42.7018 1196.5 42.0351C1197.14 41.3685 1197.61 40.5736 1197.89 39.6505C1197.94 39.4454 1198 39.3172 1198.08 39.2659C1198.16 39.2146 1198.36 39.189 1198.7 39.189H1199.23C1199.39 39.3428 1199.46 39.4582 1199.46 39.5351C1199.46 39.6377 1199.41 39.8428 1199.31 40.1505C1199.21 40.4582 1199 40.8813 1198.7 41.4198C1198.39 41.9582 1198.02 42.4454 1197.58 42.8813C1197.14 43.3172 1196.53 43.7146 1195.73 44.0736C1194.94 44.4326 1194.05 44.5992 1193.08 44.5736C1190.88 44.5736 1188.95 43.7531 1187.31 42.1121C1185.67 40.471 1184.84 38.4069 1184.81 35.9198C1184.81 33.2531 1185.64 31.0864 1187.31 29.4198C1188.98 27.7531 1190.91 26.9198 1193.12 26.9198C1195.32 26.9198 1196.86 27.2659 1197.73 27.9582C1198.61 28.6505 1199.04 29.471 1199.04 30.4198C1199.04 31.0095 1198.82 31.4839 1198.39 31.8428L1197.73 32.4198Z" fill="var(--fg, black)"/>
    <path d="M1215.31 41.9204C1213.88 43.664 1212.25 44.5358 1210.43 44.5358H1210.16C1206.95 44.5358 1205.11 43.2665 1204.62 40.7281C1204.59 40.5486 1204.57 38.7922 1204.54 35.4588C1204.52 32.664 1204.5 31.0999 1204.5 30.7665C1204.5 30.4332 1204.43 30.164 1204.27 29.9588C1204.02 29.5486 1203.25 29.3434 1201.97 29.3434H1201.54V28.4588C1201.54 27.8691 1201.57 27.5742 1201.62 27.5742L1202.04 27.5358C1202.3 27.5101 1202.67 27.4845 1203.16 27.4588C1203.64 27.4332 1204.13 27.4076 1204.62 27.3819C1205.05 27.3563 1205.53 27.3306 1206.04 27.305C1206.55 27.2793 1206.94 27.2409 1207.2 27.1896C1207.45 27.1383 1207.61 27.1255 1207.66 27.1511H1207.77V34.1127C1207.8 38.8306 1207.84 41.3563 1207.89 41.6896C1207.97 42.0742 1208.14 42.3819 1208.43 42.6127C1208.94 42.9717 1209.71 43.1511 1210.73 43.1511C1211.4 43.1511 1212 43.0358 1212.54 42.805C1213.08 42.5742 1213.49 42.2793 1213.77 41.9204C1214.05 41.5614 1214.31 41.1511 1214.54 40.6896C1214.77 40.2281 1214.93 39.8434 1215 39.5358C1215.08 39.2281 1215.13 38.9204 1215.16 38.6127C1215.16 38.587 1215.16 38.3691 1215.16 37.9588C1215.16 37.5486 1215.17 37.0358 1215.2 36.4204C1215.22 35.805 1215.22 35.2024 1215.2 34.6127V32.0358C1215.2 30.8563 1215.07 30.1255 1214.81 29.8434C1214.55 29.5614 1213.91 29.3947 1212.89 29.3434H1212.2V27.5742C1212.25 27.5742 1213.22 27.5101 1215.12 27.3819C1217.02 27.2537 1218.03 27.1768 1218.16 27.1511H1218.43V33.9973C1218.43 38.6127 1218.44 40.9588 1218.47 41.0358C1218.54 41.5486 1218.72 41.8819 1219 42.0358C1219.29 42.1896 1219.86 42.305 1220.73 42.3819H1221.43V44.1511C1221.38 44.1511 1220.41 44.2152 1218.54 44.3434C1216.67 44.4717 1215.68 44.5486 1215.58 44.5742H1215.31V41.9204Z" fill="var(--fg, black)"/>
    <path d="M1233.31 31.9973C1233.31 30.9717 1232.96 30.087 1232.27 29.3435C1231.58 28.5999 1230.58 28.2281 1229.27 28.2281C1228.35 28.2281 1227.55 28.3947 1226.89 28.7281C1226.12 29.2152 1225.73 29.8819 1225.73 30.7281C1225.71 30.8563 1225.71 31.0229 1225.73 31.2281C1225.76 31.4332 1225.96 31.7409 1226.35 32.1511C1226.73 32.5614 1227.29 32.8819 1228 33.1127C1228.46 33.2409 1229.03 33.3563 1229.7 33.4588C1230.36 33.5614 1230.93 33.6768 1231.39 33.805C1231.85 33.9332 1232.26 34.0999 1232.62 34.305C1233.05 34.5101 1233.48 34.7665 1233.89 35.0742C1234.3 35.3819 1234.71 35.9076 1235.12 36.6511C1235.53 37.3947 1235.75 38.1896 1235.77 39.0358C1235.77 40.6255 1235.29 41.9332 1234.31 42.9588C1233.34 43.9845 1231.76 44.5101 1229.58 44.5358H1229.27C1227.94 44.5358 1226.71 44.0742 1225.58 43.1511L1225.27 43.4204L1224.93 43.7665C1224.77 43.9204 1224.62 44.0614 1224.46 44.1896L1224.04 44.5742H1223.73H1223.58C1223.5 44.5742 1223.39 44.4973 1223.23 44.3434V41.305V39.0742C1223.23 38.5358 1223.26 38.2152 1223.31 38.1127C1223.36 38.0101 1223.49 37.946 1223.7 37.9204H1224.04C1224.35 37.9204 1224.55 37.9717 1224.66 38.0742C1224.76 38.1768 1224.82 38.3306 1224.85 38.5358C1224.88 38.7409 1224.96 39.087 1225.12 39.5742C1225.27 40.0614 1225.52 40.5999 1225.85 41.1896C1226.75 42.4973 1227.99 43.1511 1229.58 43.1511C1232.07 43.1511 1233.31 42.1511 1233.31 40.1511C1233.31 39.4076 1233.08 38.805 1232.62 38.3434C1232.11 37.7281 1231.04 37.2665 1229.43 36.9588C1227.81 36.6511 1226.75 36.3563 1226.23 36.0742C1225.31 35.6383 1224.58 35.0486 1224.04 34.305C1223.5 33.5614 1223.23 32.7665 1223.23 31.9204C1223.23 30.9204 1223.45 30.0742 1223.89 29.3819C1224.32 28.6896 1224.88 28.1768 1225.54 27.8435C1226.21 27.5101 1226.85 27.2793 1227.46 27.1511C1228.08 27.0229 1228.64 26.9588 1229.16 26.9588H1229.58C1230.61 26.9588 1231.5 27.1511 1232.27 27.5358L1232.85 27.8435L1233.2 27.5742C1233.45 27.3435 1233.73 27.1255 1234.04 26.9204H1234.35H1234.5C1234.58 26.9204 1234.7 26.9973 1234.85 27.1511V32.2281L1234.62 32.4588H1233.54C1233.39 32.305 1233.31 32.1511 1233.31 31.9973Z" fill="var(--fg, black)"/>
    <path d="M1248.12 49.8431H1248.66C1249.66 49.8431 1250.26 49.6636 1250.46 49.3046V48.9969C1250.46 48.8174 1250.46 48.5738 1250.46 48.2662C1250.46 47.9585 1250.46 47.5738 1250.46 47.1123C1250.46 46.6508 1250.48 46.1508 1250.5 45.6123C1250.53 45.0738 1250.53 44.5097 1250.5 43.92C1250.48 43.3303 1250.48 42.702 1250.5 42.0354C1250.53 41.3687 1250.53 40.7149 1250.5 40.0738C1250.5 39.202 1250.5 38.2918 1250.5 37.3431C1250.5 36.3944 1250.5 35.5482 1250.5 34.8046C1250.5 34.061 1250.5 33.3815 1250.5 32.7662C1250.5 32.1508 1250.49 31.6508 1250.46 31.2662C1250.44 30.8815 1250.44 30.6764 1250.46 30.6508C1250.39 30.1636 1250.21 29.8431 1249.93 29.6892C1249.64 29.5354 1249.07 29.42 1248.2 29.3431H1247.5V28.4585C1247.5 27.8687 1247.53 27.5738 1247.58 27.5738L1247.96 27.5354C1248.22 27.5097 1248.59 27.4841 1249.08 27.4585C1249.57 27.4328 1250.04 27.4072 1250.5 27.3815C1250.94 27.3559 1251.41 27.3303 1251.93 27.3046C1252.44 27.279 1252.82 27.2405 1253.08 27.1892C1253.34 27.1379 1253.48 27.1251 1253.5 27.1508H1253.62V28.1508L1253.66 29.1508L1253.96 28.8815C1255.48 27.7533 1257.25 27.1892 1259.27 27.1892C1261.35 27.1892 1263.12 28.0097 1264.58 29.6508C1266.04 31.2918 1266.79 33.3559 1266.81 35.8431C1266.81 38.4328 1265.98 40.5354 1264.31 42.1508C1262.64 43.7662 1260.76 44.5738 1258.66 44.5738C1256.91 44.5738 1255.38 44.0097 1254.04 42.8815L1253.73 42.6123V45.8815V48.0354C1253.73 48.7277 1253.76 49.1508 1253.81 49.3046C1253.86 49.4585 1254 49.5995 1254.23 49.7277C1254.77 49.8046 1255.4 49.8431 1256.12 49.8431H1256.73V51.6123H1256.43L1255.5 51.5738C1254.91 51.5482 1254.27 51.5354 1253.58 51.5354C1252.89 51.5354 1252.4 51.5226 1252.12 51.4969C1249.48 51.4969 1248.04 51.5354 1247.81 51.6123H1247.5V49.8431H1248.12ZM1263.04 35.7662C1263.04 33.8687 1262.61 32.2149 1261.73 30.8046C1260.86 29.3944 1259.77 28.6892 1258.46 28.6892C1256.64 28.6892 1255.07 29.5226 1253.73 31.1892V40.3815C1254.76 42.2277 1256.2 43.1508 1258.04 43.1508C1259.35 43.1508 1260.5 42.4585 1261.5 41.0738C1262.5 39.6892 1263.02 37.92 1263.04 35.7662Z" fill="var(--fg, black)"/>
    <path d="M1269.73 42.3821H1270.27C1271.27 42.3821 1271.87 42.2026 1272.08 41.8437V41.536C1272.08 41.3052 1272.08 41.0103 1272.08 40.6514C1272.08 40.2924 1272.08 39.8693 1272.08 39.3821C1272.08 38.895 1272.09 38.3437 1272.12 37.7283C1272.14 37.1129 1272.14 36.4719 1272.12 35.8052C1272.09 35.1385 1272.09 34.4334 1272.12 33.6898C1272.14 32.9462 1272.14 32.2155 1272.12 31.4975C1272.12 30.5488 1272.12 29.5488 1272.12 28.4975C1272.12 27.4462 1272.12 26.4847 1272.12 25.6129C1272.12 24.7411 1272.12 23.9719 1272.12 23.3052C1272.12 22.6385 1272.11 22.0744 1272.08 21.6129C1272.05 21.1514 1272.05 20.9334 1272.08 20.9591C1272 20.4719 1271.82 20.1514 1271.54 19.9975C1271.26 19.8437 1270.68 19.7283 1269.81 19.6514H1269.12V18.7668C1269.12 18.177 1269.14 17.8821 1269.2 17.8821L1269.58 17.8437C1269.84 17.818 1270.21 17.7924 1270.7 17.7668C1271.18 17.7411 1271.66 17.7155 1272.12 17.6898C1272.55 17.6642 1273.03 17.6385 1273.54 17.6129C1274.05 17.5873 1274.44 17.5488 1274.7 17.4975C1274.95 17.4462 1275.09 17.4334 1275.12 17.4591H1275.23V29.5744C1275.23 37.7026 1275.25 41.7924 1275.27 41.8437C1275.37 42.0488 1275.53 42.1898 1275.73 42.2668C1276.27 42.3437 1276.9 42.3821 1277.62 42.3821H1278.23V44.1514H1277.93L1277.04 44.1129C1276.45 44.0873 1275.82 44.0744 1275.16 44.0744C1274.49 44.0744 1274 44.0616 1273.7 44.036C1273.39 44.0103 1272.9 44.0103 1272.23 44.036C1271.57 44.0616 1270.93 44.0873 1270.31 44.1129L1269.43 44.1514H1269.12V42.3821H1269.73Z" fill="var(--fg, black)"/>
    <path d="M1284.08 32.4204C1284.08 32.4204 1283.8 32.4204 1283.23 32.4204C1282.67 32.4204 1282.2 32.2281 1281.81 31.8435C1281.43 31.4588 1281.23 30.9588 1281.23 30.3435C1281.23 29.446 1281.67 28.6511 1282.54 27.9588C1283.41 27.2665 1284.96 26.9204 1287.2 26.9204C1289.07 26.9204 1290.58 27.3306 1291.73 28.1511C1292.89 28.9717 1293.66 29.946 1294.04 31.0742C1294.17 31.4332 1294.23 31.8306 1294.23 32.2665C1294.23 32.7024 1294.25 34.1768 1294.27 36.6896V39.3819C1294.27 40.6127 1294.34 41.4588 1294.46 41.9204C1294.59 42.3819 1294.86 42.6127 1295.27 42.6127C1295.66 42.6127 1295.91 42.4076 1296.04 41.9973C1296.17 41.587 1296.23 40.9076 1296.23 39.9588V38.5742H1297.77V40.0742C1297.75 41.0999 1297.71 41.7024 1297.66 41.8819C1297.43 42.6511 1296.98 43.2537 1296.31 43.6896C1295.64 44.1255 1294.94 44.3563 1294.2 44.3819C1293.45 44.4076 1292.85 44.1768 1292.39 43.6896C1291.93 43.2024 1291.62 42.664 1291.46 42.0742V41.9204L1291.39 42.0358C1291.34 42.1127 1291.27 42.1896 1291.2 42.2665C1291.12 42.3434 1291.02 42.4588 1290.89 42.6127C1290.76 42.7665 1290.61 42.9076 1290.43 43.0358C1290.25 43.164 1290.05 43.3178 1289.85 43.4973C1289.64 43.6768 1289.41 43.8178 1289.16 43.9204C1288.9 44.0229 1288.62 44.1255 1288.31 44.2281C1288 44.3306 1287.67 44.4076 1287.31 44.4588C1286.95 44.5101 1286.55 44.5486 1286.12 44.5742C1284.58 44.5742 1283.2 44.1768 1281.96 43.3819C1280.73 42.587 1280.12 41.4717 1280.12 40.0358C1280.12 39.4973 1280.21 38.9845 1280.39 38.4973C1280.57 38.0101 1280.91 37.4845 1281.43 36.9204C1281.94 36.3563 1282.55 35.8819 1283.27 35.4973C1283.99 35.1127 1284.99 34.7537 1286.27 34.4204C1287.55 34.087 1288.96 33.8947 1290.5 33.8435H1291.04V32.9973C1291.04 32.1255 1290.96 31.4845 1290.81 31.0742C1290.25 29.2537 1289 28.3435 1287.08 28.3435C1286.62 28.3435 1286.18 28.3563 1285.77 28.3819C1285.36 28.4076 1285.04 28.4588 1284.81 28.5358C1284.58 28.6127 1284.48 28.6511 1284.5 28.6511C1285.07 29.0358 1285.35 29.5999 1285.35 30.3435C1285.35 30.9845 1285.14 31.4845 1284.73 31.8435L1284.08 32.4204ZM1283.66 40.0742C1283.66 40.8691 1283.96 41.5742 1284.58 42.1896C1285.2 42.805 1285.95 43.1255 1286.85 43.1511C1287.82 43.1511 1288.68 42.8563 1289.43 42.2665C1290.17 41.6768 1290.67 40.9076 1290.93 39.9588C1290.98 39.7793 1291.02 38.9332 1291.04 37.4204C1291.04 35.9332 1291.03 35.1896 1291 35.1896C1290.8 35.1896 1290.53 35.2024 1290.2 35.2281C1289.86 35.2537 1289.29 35.3691 1288.46 35.5742C1287.64 35.7793 1286.9 36.0358 1286.23 36.3435C1285.57 36.6511 1284.98 37.1255 1284.46 37.7665C1283.95 38.4076 1283.68 39.1768 1283.66 40.0742Z" fill="var(--fg, black)"/>
    <path d="M1299.62 42.3821H1300.16C1301.16 42.3821 1301.76 42.2026 1301.97 41.8437V41.536C1301.97 41.3052 1301.97 41.0103 1301.97 40.6514C1301.97 40.2924 1301.97 39.895 1301.97 39.4591C1301.97 39.0232 1301.98 38.5232 1302 37.9591C1302.03 37.395 1302.03 36.8565 1302 36.3437C1302 35.5488 1302 34.7026 1302 33.8052C1302 32.9078 1301.99 32.1514 1301.97 31.536V30.6514C1301.89 30.1642 1301.71 29.8437 1301.43 29.6898C1301.14 29.536 1300.57 29.4206 1299.7 29.3437H1299V28.4591C1299 27.8693 1299.03 27.5744 1299.08 27.5744L1299.47 27.536C1299.72 27.5103 1300.08 27.4847 1300.54 27.4591C1301 27.4334 1301.48 27.4078 1301.97 27.3821C1302.4 27.3565 1302.86 27.3309 1303.35 27.3052C1303.84 27.2796 1304.21 27.2411 1304.47 27.1898C1304.72 27.1385 1304.86 27.1257 1304.89 27.1514H1305V28.6898C1305 29.6642 1305.02 30.1514 1305.04 30.1514C1305.07 30.1514 1305.13 30.0873 1305.23 29.9591C1305.34 29.8309 1305.49 29.6385 1305.7 29.3821C1305.9 29.1257 1306.14 28.895 1306.43 28.6898C1306.71 28.4847 1307.08 28.2411 1307.54 27.9591C1308 27.677 1308.49 27.4719 1309 27.3437C1309.52 27.2155 1310.17 27.1514 1310.97 27.1514C1313.89 27.2539 1315.52 28.7026 1315.85 31.4975C1315.88 31.677 1315.89 33.4591 1315.89 36.8437V40.1514C1315.89 41.1257 1315.91 41.7026 1315.97 41.8821C1316.02 42.0616 1316.16 42.1898 1316.39 42.2668C1316.93 42.3437 1317.55 42.3821 1318.27 42.3821H1318.89V44.1514H1318.58L1317.66 44.1129C1317.07 44.0873 1316.43 44.0744 1315.73 44.0744C1315.04 44.0744 1314.55 44.0616 1314.27 44.036C1311.63 44.036 1310.2 44.0744 1309.97 44.1514H1309.66V42.3821H1310.27C1311.84 42.3821 1312.62 42.177 1312.62 41.7668C1312.64 41.7155 1312.66 39.9462 1312.66 36.4591C1312.63 32.9975 1312.61 31.1642 1312.58 30.9591C1312.43 30.2411 1312.17 29.7026 1311.81 29.3437C1311.45 28.9847 1311.14 28.7668 1310.89 28.6898C1310.63 28.6129 1310.3 28.5873 1309.89 28.6129C1308.73 28.6129 1307.72 29.0488 1306.85 29.9206C1306.16 30.6129 1305.72 31.318 1305.54 32.036C1305.36 32.7539 1305.26 33.818 1305.23 35.2283V37.6898V39.9975C1305.23 40.7668 1305.25 41.2796 1305.27 41.536C1305.3 41.7924 1305.34 41.9591 1305.39 42.036C1305.44 42.1129 1305.55 42.1898 1305.73 42.2668C1306.27 42.3437 1306.9 42.3821 1307.62 42.3821H1308.23V44.1514H1307.93L1307.04 44.1129C1306.43 44.0873 1305.77 44.0744 1305.08 44.0744C1304.39 44.0744 1303.9 44.0616 1303.62 44.036C1300.98 44.036 1299.54 44.0744 1299.31 44.1514H1299V42.3821H1299.62Z" fill="var(--fg, black)"/>
    <path d="M1320.5 35.7665C1320.5 34.3563 1320.76 33.0742 1321.27 31.9204C1321.79 30.7665 1322.43 29.8306 1323.2 29.1127C1323.97 28.3947 1324.8 27.8563 1325.7 27.4973C1326.59 27.1383 1327.44 26.946 1328.23 26.9204C1329.59 26.9204 1330.76 27.1511 1331.73 27.6127C1332.71 28.0742 1333.45 28.7152 1333.97 29.5358C1334.48 30.3563 1334.84 31.1768 1335.04 31.9973C1335.25 32.8178 1335.36 33.7281 1335.39 34.7281C1335.39 34.9076 1335.3 35.087 1335.12 35.2665H1324.27V35.8435C1324.27 39.6383 1325.56 41.946 1328.12 42.7665C1328.63 42.9204 1329.2 42.9973 1329.81 42.9973C1330.89 42.9973 1331.81 42.587 1332.58 41.7665C1333.02 41.3306 1333.36 40.7922 1333.62 40.1511L1334 39.2281C1334.08 39.1511 1334.29 39.1127 1334.62 39.1127H1334.73C1335.17 39.1127 1335.39 39.2409 1335.39 39.4973C1335.39 39.5999 1335.35 39.7665 1335.27 39.9973C1334.79 41.4076 1333.98 42.5229 1332.85 43.3434C1331.72 44.164 1330.45 44.5742 1329.04 44.5742C1326.61 44.5742 1324.58 43.6896 1322.97 41.9204C1321.35 40.1511 1320.53 38.0999 1320.5 35.7665ZM1332.23 33.5742C1331.95 30.2922 1330.73 28.5486 1328.58 28.3435H1328.5C1328.3 28.3435 1328.09 28.3563 1327.89 28.3819C1327.68 28.4076 1327.36 28.5101 1326.93 28.6896C1326.49 28.8691 1326.12 29.1383 1325.81 29.4973C1325.5 29.8563 1325.21 30.3819 1324.93 31.0742C1324.64 31.7665 1324.44 32.6127 1324.31 33.6127V33.8819H1332.23V33.5742Z" fill="var(--fg, black)"/>
    <path d="M1050.27 82.1874C1050.27 79.7515 1051.11 77.6489 1052.77 75.8797C1054.44 74.1104 1056.45 73.213 1058.81 73.1874C1061.12 73.1874 1063.11 74.0591 1064.77 75.8027C1066.44 77.5463 1067.29 79.6617 1067.31 82.1489C1067.31 84.5848 1066.49 86.6361 1064.85 88.3027C1063.21 89.9694 1061.2 90.8027 1058.81 90.8027C1056.32 90.8027 1054.29 89.9438 1052.7 88.2258C1051.11 86.5079 1050.3 84.495 1050.27 82.1874ZM1058.81 89.2643C1061.94 89.2643 1063.5 87.1745 1063.5 82.995V81.7643V80.8027C1063.5 80.2386 1063.49 79.7515 1063.47 79.3412C1063.44 78.9309 1063.35 78.4438 1063.2 77.8797C1063.04 77.3156 1062.84 76.854 1062.58 76.495C1062.32 76.1361 1061.93 75.7771 1061.39 75.4181C1060.85 75.0591 1060.22 74.8027 1059.5 74.6489C1059.38 74.6232 1059.17 74.6104 1058.89 74.6104C1058.12 74.6104 1057.39 74.7643 1056.7 75.072C1055.59 75.6361 1054.88 76.4181 1054.54 77.4181C1054.21 78.4181 1054.04 79.5976 1054.04 80.9566V81.7258C1054.04 84.1874 1054.29 85.9181 1054.77 86.9181C1055.59 88.4822 1056.94 89.2643 1058.81 89.2643Z" fill="#AD1E1E"/>
    <path d="M1080.23 90.8418C1078.36 90.8418 1076.58 89.9956 1074.89 88.3033L1074.5 88.9956C1074.45 89.0726 1074.39 89.188 1074.31 89.3418C1074.23 89.4956 1074.16 89.6367 1074.08 89.7649C1074 89.8931 1073.95 89.9828 1073.93 90.0341L1073.73 90.3803L1072.97 90.4187H1072.2V78.9572C1072.2 71.2392 1072.18 67.329 1072.16 67.2264C1072.08 66.7392 1071.9 66.4187 1071.62 66.2649C1071.34 66.111 1070.76 65.9956 1069.89 65.9187H1069.2V65.0341C1069.2 64.4444 1069.22 64.1495 1069.27 64.1495L1069.66 64.111C1069.91 64.0854 1070.29 64.0597 1070.77 64.0341C1071.26 64.0085 1071.73 63.9828 1072.2 63.9572C1072.63 63.9315 1073.11 63.9059 1073.62 63.8803C1074.13 63.8546 1074.52 63.8162 1074.77 63.7649C1075.03 63.7136 1075.17 63.7008 1075.2 63.7264H1075.31V69.5341C1075.31 73.4315 1075.32 75.3803 1075.35 75.3803L1075.47 75.2649C1075.54 75.188 1075.66 75.0982 1075.81 74.9956C1075.97 74.8931 1076.16 74.7649 1076.39 74.611C1076.62 74.4572 1076.89 74.329 1077.2 74.2264C1077.5 74.1238 1077.84 73.9956 1078.2 73.8418C1078.56 73.688 1078.97 73.5854 1079.43 73.5341C1079.89 73.4828 1080.36 73.4444 1080.85 73.4187C1082.85 73.4187 1084.62 74.2264 1086.16 75.8418C1087.7 77.4572 1088.48 79.5469 1088.5 82.111C1088.5 84.7008 1087.68 86.8033 1086.04 88.4187C1084.4 90.0341 1082.47 90.8418 1080.23 90.8418ZM1075.43 86.6495C1075.43 86.6751 1075.49 86.7777 1075.62 86.9572C1075.75 87.1367 1075.86 87.2777 1075.97 87.3803C1076.07 87.4828 1076.2 87.6367 1076.35 87.8418C1076.5 88.0469 1076.66 88.2008 1076.81 88.3033C1076.97 88.4059 1077.16 88.5469 1077.39 88.7264C1077.62 88.9059 1077.84 89.0213 1078.04 89.0726C1078.25 89.1238 1078.52 89.2008 1078.85 89.3033C1079.18 89.4059 1079.49 89.4444 1079.77 89.4187C1080.67 89.4187 1081.54 89.1623 1082.39 88.6495C1083.23 88.1367 1083.86 87.2777 1084.27 86.0726C1084.58 85.1751 1084.73 83.9059 1084.73 82.2649C1084.73 80.3418 1084.58 78.9187 1084.27 77.9956C1083.58 75.8931 1082.15 74.8418 1079.97 74.8418C1079.2 74.8418 1078.41 75.0341 1077.62 75.4187C1076.82 75.8033 1076.17 76.3546 1075.66 77.0726L1075.43 77.3803V86.6495Z" fill="#AD1E1E"/>
    <path d="M1093.58 66.995C1093.58 66.2771 1093.81 65.713 1094.27 65.3027C1094.74 64.8925 1095.3 64.6873 1095.97 64.6873C1096.56 64.7386 1097.07 64.9566 1097.5 65.3412C1097.94 65.7258 1098.16 66.2771 1098.16 66.995C1098.16 67.7643 1097.94 68.3412 1097.5 68.7258C1097.07 69.1104 1096.53 69.3027 1095.89 69.3027C1095.25 69.3027 1094.71 69.1104 1094.27 68.7258C1093.84 68.3412 1093.61 67.7643 1093.58 66.995ZM1090.89 96.6873C1091.66 96.8156 1092.12 96.8797 1092.27 96.8797C1093.81 96.8797 1094.72 95.713 1095 93.3797C1095.06 93.072 1095.08 90.2771 1095.08 84.995C1095.08 79.713 1095.07 76.995 1095.04 76.8412C1094.94 76.3797 1094.74 76.072 1094.43 75.9181C1094.12 75.7643 1093.5 75.6617 1092.58 75.6104H1091.81V74.7258C1091.81 74.1361 1091.84 73.8412 1091.89 73.8412L1092.04 73.8027C1092.15 73.8027 1092.3 73.8027 1092.5 73.8027C1092.71 73.8027 1092.93 73.7899 1093.16 73.7643C1093.39 73.7386 1093.66 73.7258 1093.97 73.7258C1094.27 73.7258 1094.59 73.7002 1094.93 73.6489C1095.39 73.6232 1095.88 73.5976 1096.39 73.572C1096.9 73.5463 1097.3 73.5079 1097.58 73.4566C1097.86 73.4053 1098.02 73.3925 1098.04 73.4181H1098.2V83.3412C1098.17 88.9822 1098.16 92.0976 1098.16 92.6873C1098.16 93.2771 1098.08 93.7771 1097.93 94.1873C1097.52 95.3925 1096.77 96.3797 1095.7 97.1489C1094.62 97.9181 1093.4 98.3027 1092.04 98.3027C1090.79 98.3027 1089.75 97.9694 1088.93 97.3027C1088.11 96.6361 1087.7 95.8412 1087.7 94.9181C1087.7 94.3284 1087.89 93.8412 1088.27 93.4566C1088.66 93.072 1089.15 92.8797 1089.74 92.8797C1090.32 92.8797 1090.81 93.072 1091.2 93.4566C1091.58 93.8412 1091.79 94.3412 1091.81 94.9566C1091.81 95.5976 1091.5 96.1745 1090.89 96.6873Z" fill="#AD1E1E"/>
    <path d="M1102.66 82.0341C1102.66 80.6238 1102.91 79.3418 1103.43 78.188C1103.94 77.0341 1104.58 76.0982 1105.35 75.3803C1106.12 74.6623 1106.95 74.1238 1107.85 73.7649C1108.75 73.4059 1109.59 73.2136 1110.39 73.188C1111.75 73.188 1112.91 73.4187 1113.89 73.8803C1114.86 74.3418 1115.61 74.9828 1116.12 75.8033C1116.63 76.6238 1116.99 77.4444 1117.2 78.2649C1117.4 79.0854 1117.52 79.9956 1117.54 80.9956C1117.54 81.1751 1117.45 81.3546 1117.27 81.5341H1106.43V82.111C1106.43 85.9059 1107.71 88.2136 1110.27 89.0341C1110.79 89.188 1111.35 89.2649 1111.97 89.2649C1113.04 89.2649 1113.97 88.8546 1114.74 88.0341C1115.17 87.5982 1115.52 87.0597 1115.77 86.4187L1116.16 85.4956C1116.24 85.4187 1116.44 85.3803 1116.77 85.3803H1116.89C1117.33 85.3803 1117.54 85.5085 1117.54 85.7649C1117.54 85.8674 1117.5 86.0341 1117.43 86.2649C1116.94 87.6751 1116.13 88.7905 1115 89.611C1113.88 90.4315 1112.61 90.8418 1111.2 90.8418C1108.76 90.8418 1106.74 89.9572 1105.12 88.188C1103.5 86.4187 1102.68 84.3674 1102.66 82.0341ZM1114.39 79.8418C1114.11 76.5597 1112.89 74.8162 1110.74 74.611H1110.66C1110.45 74.611 1110.25 74.6238 1110.04 74.6495C1109.84 74.6751 1109.52 74.7777 1109.08 74.9572C1108.65 75.1367 1108.27 75.4059 1107.97 75.7649C1107.66 76.1238 1107.36 76.6495 1107.08 77.3418C1106.8 78.0341 1106.59 78.8803 1106.47 79.8803V80.1495H1114.39V79.8418Z" fill="#AD1E1E"/>
    <path d="M1132.89 78.6873C1132.89 78.6873 1132.62 78.6873 1132.08 78.6873C1131.54 78.6873 1131.08 78.495 1130.7 78.1104C1130.31 77.7258 1130.11 77.2386 1130.08 76.6489C1130.08 76.0591 1130.27 75.572 1130.66 75.1873C1130.79 75.0591 1130.85 74.9822 1130.85 74.9566C1130.85 74.9309 1130.72 74.9053 1130.47 74.8796C1129.8 74.7771 1129.17 74.7258 1128.58 74.7258C1127.33 74.7258 1126.3 75.1361 1125.5 75.9566C1124.3 77.1617 1123.7 79.1745 1123.7 81.995C1123.7 84.0976 1124.09 85.7514 1124.89 86.9566C1125.94 88.5207 1127.35 89.3027 1129.12 89.3027C1130.17 89.3027 1131.02 88.9694 1131.66 88.3027C1132.3 87.6361 1132.76 86.8412 1133.04 85.9181C1133.09 85.713 1133.16 85.5848 1133.24 85.5335C1133.31 85.4822 1133.52 85.4566 1133.85 85.4566H1134.39C1134.54 85.6104 1134.62 85.7258 1134.62 85.8027C1134.62 85.9053 1134.57 86.1104 1134.47 86.4181C1134.36 86.7258 1134.16 87.1489 1133.85 87.6873C1133.54 88.2258 1133.17 88.713 1132.74 89.1489C1132.3 89.5848 1131.68 89.9822 1130.89 90.3412C1130.09 90.7002 1129.21 90.8668 1128.24 90.8412C1126.03 90.8412 1124.11 90.0207 1122.47 88.3796C1120.83 86.7386 1119.99 84.6745 1119.97 82.1873C1119.97 79.5207 1120.8 77.354 1122.47 75.6873C1124.13 74.0207 1126.07 73.1873 1128.27 73.1873C1130.48 73.1873 1132.02 73.5335 1132.89 74.2258C1133.76 74.9181 1134.2 75.7386 1134.2 76.6873C1134.2 77.2771 1133.98 77.7514 1133.54 78.1104L1132.89 78.6873Z" fill="#AD1E1E"/>
    <path d="M1136.77 74.1874C1138.13 74.0848 1139.18 73.3668 1139.93 72.0335C1140.67 70.7002 1141.08 69.1361 1141.16 67.3412V66.7643H1142.7V73.8412H1147.89V75.6104H1142.7V81.1489C1142.72 84.354 1142.73 86.1617 1142.73 86.572C1142.73 86.9822 1142.82 87.3925 1143 87.8027C1143.36 88.8027 1143.99 89.3027 1144.89 89.3027C1146.02 89.3027 1146.71 88.3925 1146.97 86.572C1146.99 86.3668 1147 85.7771 1147 84.8027V83.4566H1148.54V84.8027V85.2643C1148.54 87.2386 1148 88.7386 1146.93 89.7643C1146.23 90.4566 1145.34 90.8027 1144.23 90.8027C1143.36 90.8027 1142.61 90.6489 1141.97 90.3412C1141.32 90.0335 1140.84 89.6361 1140.5 89.1489C1140.17 88.6617 1139.93 88.213 1139.77 87.8027C1139.62 87.3925 1139.53 86.9822 1139.5 86.572C1139.48 86.3925 1139.47 84.495 1139.47 80.8797V75.6104H1136.43V74.1874H1136.77Z" fill="#AD1E1E"/>
    <path d="M415.712 469.416C415.712 468.622 415.967 467.998 416.478 467.544C416.988 467.091 417.612 466.864 418.349 466.864C419.001 466.92 419.568 467.161 420.05 467.587C420.532 468.012 420.773 468.622 420.773 469.416C420.773 470.266 420.532 470.904 420.05 471.33C419.568 471.755 418.973 471.968 418.264 471.968C417.555 471.968 416.96 471.755 416.478 471.33C415.996 470.904 415.74 470.266 415.712 469.416ZM423.283 495.318C422.858 495.233 421.383 495.191 418.859 495.191C418.548 495.191 418.023 495.191 417.286 495.191C416.548 495.191 415.84 495.219 415.159 495.276L414.223 495.318H413.883V493.362H414.564C415.358 493.362 416.052 493.319 416.648 493.234C416.903 493.121 417.059 492.965 417.116 492.766C417.172 492.568 417.201 491.972 417.201 490.98V486.599V482.856C417.201 481.382 417.172 480.446 417.116 480.049C417.059 479.652 416.86 479.383 416.52 479.241C416.123 479.042 415.457 478.943 414.521 478.943H414.053V477.965C414.053 477.313 414.082 476.987 414.138 476.987L414.564 476.944C414.847 476.916 415.244 476.887 415.755 476.859C416.265 476.831 416.775 476.802 417.286 476.774C417.768 476.746 418.278 476.717 418.817 476.689C419.356 476.661 419.767 476.618 420.05 476.561C420.334 476.505 420.49 476.49 420.518 476.519H420.646V492.681C420.788 492.965 420.958 493.135 421.156 493.192C421.355 493.248 421.851 493.305 422.645 493.362H423.623V495.318H423.283Z" fill="var(--fg, black)"/>
    <path d="M426.346 493.362H426.941C428.047 493.362 428.713 493.163 428.94 492.766V492.426C428.94 492.171 428.94 491.845 428.94 491.448C428.94 491.051 428.94 490.611 428.94 490.129C428.94 489.647 428.954 489.094 428.983 488.471C429.011 487.847 429.011 487.251 428.983 486.684C428.983 485.805 428.983 484.869 428.983 483.877C428.983 482.885 428.968 482.048 428.94 481.368V480.389C428.855 479.85 428.657 479.496 428.345 479.326C428.033 479.156 427.395 479.028 426.431 478.943H425.665V477.965C425.665 477.313 425.693 476.987 425.75 476.987L426.175 476.944C426.459 476.916 426.856 476.887 427.366 476.859C427.877 476.831 428.401 476.802 428.94 476.774C429.422 476.746 429.933 476.717 430.471 476.689C431.01 476.661 431.421 476.618 431.705 476.561C431.988 476.505 432.144 476.49 432.173 476.519H432.3V478.22C432.3 479.298 432.314 479.836 432.343 479.836C432.371 479.836 432.442 479.765 432.555 479.624C432.669 479.482 432.839 479.269 433.066 478.986C433.293 478.702 433.562 478.447 433.874 478.22C434.186 477.993 434.597 477.724 435.107 477.412C435.618 477.1 436.157 476.873 436.724 476.731C437.291 476.59 438.014 476.519 438.893 476.519C442.125 476.632 443.926 478.234 444.295 481.325C444.323 481.523 444.337 483.494 444.337 487.237V490.895C444.337 491.972 444.365 492.61 444.422 492.809C444.479 493.007 444.635 493.149 444.89 493.234C445.485 493.319 446.18 493.362 446.974 493.362H447.655V495.318H447.314L446.294 495.276C445.641 495.247 444.933 495.233 444.167 495.233C443.401 495.233 442.863 495.219 442.551 495.191C439.63 495.191 438.042 495.233 437.787 495.318H437.447V493.362H438.127C439.857 493.362 440.722 493.135 440.722 492.681C440.75 492.625 440.764 490.668 440.764 486.812C440.736 482.984 440.708 480.956 440.679 480.73C440.509 479.936 440.226 479.34 439.829 478.943C439.432 478.546 439.091 478.305 438.808 478.22C438.524 478.135 438.156 478.107 437.702 478.135C436.426 478.135 435.306 478.617 434.342 479.581C433.576 480.347 433.094 481.126 432.896 481.92C432.697 482.714 432.584 483.891 432.555 485.451V488.173V490.725C432.555 491.575 432.57 492.143 432.598 492.426C432.626 492.71 432.669 492.894 432.726 492.979C432.782 493.064 432.91 493.149 433.108 493.234C433.704 493.319 434.398 493.362 435.192 493.362H435.873V495.318H435.533L434.554 495.276C433.874 495.247 433.151 495.233 432.385 495.233C431.62 495.233 431.081 495.219 430.769 495.191C427.848 495.191 426.261 495.233 426.005 495.318H425.665V493.362H426.346Z" fill="var(--fg, black)"/>
    <path d="M460.797 481.878C460.797 480.744 460.414 479.765 459.649 478.943C458.883 478.121 457.777 477.71 456.331 477.71C455.31 477.71 454.431 477.894 453.694 478.263C452.843 478.801 452.418 479.538 452.418 480.474C452.39 480.616 452.39 480.8 452.418 481.027C452.446 481.254 452.673 481.594 453.098 482.048C453.524 482.502 454.133 482.856 454.927 483.111C455.438 483.253 456.062 483.381 456.799 483.494C457.536 483.607 458.16 483.735 458.67 483.877C459.181 484.019 459.634 484.203 460.031 484.43C460.513 484.657 460.981 484.94 461.435 485.28C461.889 485.621 462.342 486.202 462.796 487.024C463.25 487.847 463.491 488.726 463.519 489.661C463.519 491.419 462.98 492.866 461.903 494C460.825 495.134 459.081 495.715 456.671 495.744H456.331C454.857 495.744 453.495 495.233 452.248 494.212L451.908 494.51L451.525 494.893C451.355 495.063 451.185 495.219 451.014 495.361L450.547 495.786H450.206H450.036C449.951 495.786 449.823 495.701 449.653 495.531V492.171V489.704C449.653 489.108 449.682 488.754 449.738 488.641C449.795 488.527 449.937 488.456 450.164 488.428H450.547C450.887 488.428 451.114 488.485 451.227 488.598C451.34 488.711 451.411 488.882 451.44 489.108C451.468 489.335 451.567 489.718 451.737 490.257C451.908 490.796 452.177 491.391 452.546 492.043C453.538 493.489 454.913 494.212 456.671 494.212C459.422 494.212 460.797 493.107 460.797 490.895C460.797 490.073 460.542 489.406 460.031 488.896C459.464 488.215 458.288 487.705 456.501 487.365C454.715 487.024 453.538 486.698 452.971 486.386C451.95 485.904 451.142 485.252 450.547 484.43C449.951 483.607 449.653 482.728 449.653 481.793C449.653 480.687 449.894 479.751 450.376 478.986C450.858 478.22 451.468 477.653 452.205 477.284C452.943 476.916 453.651 476.66 454.332 476.519C455.012 476.377 455.636 476.306 456.203 476.306H456.671C457.805 476.306 458.798 476.519 459.649 476.944L460.287 477.284L460.669 476.987C460.953 476.731 461.265 476.49 461.605 476.263H461.945H462.116C462.201 476.263 462.328 476.349 462.498 476.519V482.133L462.243 482.388H461.052C460.882 482.218 460.797 482.048 460.797 481.878Z" fill="var(--fg, black)"/>
    <path d="M467.943 469.416C467.943 468.622 468.198 467.998 468.708 467.544C469.219 467.091 469.843 466.864 470.58 466.864C471.232 466.92 471.799 467.161 472.281 467.587C472.763 468.012 473.004 468.622 473.004 469.416C473.004 470.266 472.763 470.904 472.281 471.33C471.799 471.755 471.204 471.968 470.495 471.968C469.786 471.968 469.19 471.755 468.708 471.33C468.226 470.904 467.971 470.266 467.943 469.416ZM475.514 495.318C475.088 495.233 473.614 495.191 471.09 495.191C470.778 495.191 470.254 495.191 469.516 495.191C468.779 495.191 468.07 495.219 467.39 495.276L466.454 495.318H466.114V493.362H466.794C467.588 493.362 468.283 493.319 468.878 493.234C469.134 493.121 469.29 492.965 469.346 492.766C469.403 492.568 469.431 491.972 469.431 490.98V486.599V482.856C469.431 481.382 469.403 480.446 469.346 480.049C469.29 479.652 469.091 479.383 468.751 479.241C468.354 479.042 467.687 478.943 466.752 478.943H466.284V477.965C466.284 477.313 466.312 476.987 466.369 476.987L466.794 476.944C467.078 476.916 467.475 476.887 467.985 476.859C468.496 476.831 469.006 476.802 469.516 476.774C469.998 476.746 470.509 476.717 471.048 476.689C471.586 476.661 471.998 476.618 472.281 476.561C472.565 476.505 472.721 476.49 472.749 476.519H472.877V492.681C473.018 492.965 473.188 493.135 473.387 493.192C473.585 493.248 474.082 493.305 474.876 493.362H475.854V495.318H475.514Z" fill="var(--fg, black)"/>
    <path d="M492.825 474.264C492.825 473.811 492.825 473.244 492.825 472.563C492.825 471.883 492.839 471.415 492.867 471.159C492.867 469.883 492.725 469.09 492.442 468.778C492.158 468.466 491.435 468.281 490.273 468.225H489.507V467.246C489.507 466.594 489.535 466.268 489.592 466.268L490.017 466.226C490.301 466.197 490.712 466.169 491.251 466.141C491.79 466.112 492.314 466.084 492.825 466.056C493.307 466.027 493.831 465.999 494.398 465.97C494.965 465.942 495.391 465.9 495.674 465.843C495.958 465.786 496.114 465.772 496.142 465.8H496.27V478.73C496.27 487.407 496.284 491.788 496.312 491.873C496.397 492.44 496.596 492.809 496.908 492.979C497.22 493.149 497.858 493.277 498.822 493.362H499.587V495.318C499.531 495.318 498.453 495.389 496.355 495.531C494.257 495.673 493.137 495.758 492.995 495.786H492.697V493.447L492.357 493.745C490.712 495.106 488.869 495.786 486.827 495.786C484.644 495.786 482.673 494.921 480.915 493.192C479.157 491.462 478.278 489.123 478.278 486.174C478.278 483.338 479.172 481.027 480.958 479.241C482.744 477.454 484.828 476.547 487.21 476.519C489.337 476.519 491.208 477.213 492.825 478.603V474.264ZM492.697 480.772C491.421 478.986 489.819 478.092 487.891 478.092C486.501 478.092 485.268 478.603 484.19 479.624C483.425 480.418 482.943 481.325 482.744 482.346C482.546 483.366 482.432 484.699 482.404 486.344C482.404 487.932 482.503 489.222 482.702 490.214C482.9 491.207 483.396 492.072 484.19 492.809C485.041 493.745 486.147 494.212 487.508 494.212C489.521 494.212 491.251 493.121 492.697 490.937V480.772Z" fill="var(--fg, black)"/>
    <path d="M501.671 486.046C501.671 484.487 501.955 483.069 502.522 481.793C503.089 480.517 503.798 479.482 504.649 478.688C505.499 477.894 506.421 477.298 507.413 476.901C508.406 476.504 509.342 476.292 510.221 476.263C511.723 476.263 513.014 476.519 514.091 477.029C515.169 477.539 515.991 478.248 516.558 479.156C517.125 480.063 517.522 480.97 517.749 481.878C517.976 482.785 518.103 483.792 518.132 484.898C518.132 485.096 518.032 485.295 517.834 485.493H505.84V486.131C505.84 490.328 507.257 492.88 510.093 493.787C510.66 493.957 511.284 494.042 511.964 494.042C513.155 494.042 514.176 493.589 515.027 492.681C515.509 492.199 515.892 491.604 516.175 490.895L516.6 489.874C516.686 489.789 516.912 489.746 517.281 489.746H517.409C517.891 489.746 518.132 489.888 518.132 490.172C518.132 490.285 518.089 490.469 518.004 490.725C517.465 492.284 516.572 493.518 515.325 494.425C514.077 495.332 512.673 495.786 511.114 495.786C508.42 495.786 506.18 494.808 504.394 492.851C502.607 490.895 501.7 488.626 501.671 486.046ZM514.644 483.622C514.332 479.992 512.985 478.064 510.603 477.837H510.518C510.291 477.837 510.065 477.851 509.838 477.88C509.611 477.908 509.256 478.021 508.774 478.22C508.292 478.418 507.881 478.716 507.541 479.113C507.201 479.51 506.875 480.091 506.563 480.857C506.251 481.623 506.024 482.558 505.882 483.664V483.962H514.644V483.622Z" fill="var(--fg, black)"/>
    <path d="M619.528 484.342C619.528 481.648 620.45 479.323 622.293 477.366C624.136 475.41 626.362 474.417 628.971 474.389C631.523 474.389 633.72 475.353 635.563 477.281C637.406 479.209 638.342 481.549 638.37 484.299C638.37 486.993 637.463 489.261 635.648 491.104C633.834 492.948 631.608 493.869 628.971 493.869C626.22 493.869 623.966 492.919 622.208 491.019C620.45 489.12 619.557 486.894 619.528 484.342ZM628.971 492.168C632.43 492.168 634.16 489.857 634.16 485.235V483.874V482.811C634.16 482.187 634.146 481.648 634.117 481.194C634.089 480.741 633.99 480.202 633.819 479.578C633.649 478.954 633.422 478.444 633.139 478.047C632.855 477.65 632.416 477.253 631.82 476.856C631.225 476.459 630.53 476.175 629.736 476.005C629.594 475.977 629.368 475.963 629.056 475.963C628.205 475.963 627.397 476.133 626.631 476.473C625.412 477.097 624.618 477.962 624.249 479.068C623.881 480.173 623.697 481.478 623.697 482.981V483.831C623.697 486.553 623.966 488.467 624.505 489.573C625.412 491.303 626.901 492.168 628.971 492.168Z" fill="var(--fg, black)"/>
    <path d="M655.894 490.977C654.306 492.905 652.506 493.87 650.492 493.87H650.195C646.65 493.87 644.609 492.466 644.07 489.659C644.042 489.46 644.013 487.518 643.985 483.832C643.956 480.741 643.942 479.011 643.942 478.643C643.942 478.274 643.857 477.976 643.687 477.75C643.404 477.296 642.553 477.069 641.135 477.069H640.667V476.091C640.667 475.439 640.696 475.112 640.752 475.112L641.22 475.07C641.504 475.042 641.915 475.013 642.454 474.985C642.992 474.957 643.531 474.928 644.07 474.9C644.552 474.871 645.076 474.843 645.644 474.815C646.211 474.786 646.636 474.744 646.92 474.687C647.203 474.63 647.373 474.616 647.43 474.645H647.558V482.343C647.586 487.561 647.628 490.354 647.685 490.722C647.77 491.147 647.969 491.488 648.281 491.743C648.848 492.14 649.698 492.338 650.833 492.338C651.57 492.338 652.236 492.211 652.832 491.956C653.427 491.7 653.881 491.374 654.193 490.977C654.505 490.58 654.788 490.127 655.043 489.616C655.299 489.106 655.469 488.681 655.554 488.34C655.639 488 655.696 487.66 655.724 487.319C655.724 487.291 655.724 487.05 655.724 486.596C655.724 486.143 655.738 485.576 655.766 484.895C655.795 484.215 655.795 483.548 655.766 482.896V480.046C655.766 478.742 655.625 477.934 655.341 477.622C655.058 477.31 654.349 477.126 653.214 477.069H652.449V475.112C652.506 475.112 653.583 475.042 655.681 474.9C657.78 474.758 658.9 474.673 659.042 474.645H659.339V482.216C659.339 487.319 659.353 489.914 659.382 489.999C659.467 490.566 659.665 490.935 659.977 491.105C660.289 491.275 660.927 491.403 661.891 491.488H662.657V493.444C662.6 493.444 661.537 493.515 659.467 493.657C657.397 493.799 656.305 493.884 656.192 493.912H655.894V490.977Z" fill="var(--fg, black)"/>
    <path d="M664.401 475.495C665.903 475.381 667.066 474.587 667.888 473.113C668.711 471.639 669.164 469.909 669.249 467.924V467.286H670.951V475.112H676.693V477.069H670.951V483.193C670.979 486.738 670.993 488.737 670.993 489.191C670.993 489.644 671.092 490.098 671.291 490.552C671.688 491.657 672.383 492.21 673.375 492.21C674.623 492.21 675.388 491.204 675.672 489.191C675.7 488.964 675.714 488.311 675.714 487.234V485.745H677.416V487.234V487.744C677.416 489.928 676.82 491.587 675.629 492.721C674.864 493.486 673.871 493.869 672.652 493.869C671.688 493.869 670.851 493.699 670.143 493.359C669.434 493.018 668.895 492.579 668.526 492.04C668.158 491.501 667.888 491.005 667.718 490.552C667.548 490.098 667.449 489.644 667.42 489.191C667.392 488.992 667.378 486.894 667.378 482.896V477.069H664.018V475.495H664.401Z" fill="var(--fg, black)"/>
    <path d="M692.345 480.004C692.345 478.87 691.962 477.891 691.197 477.069C690.431 476.247 689.325 475.836 687.879 475.836C686.858 475.836 685.979 476.02 685.242 476.388C684.391 476.927 683.966 477.664 683.966 478.6C683.938 478.742 683.938 478.926 683.966 479.153C683.994 479.38 684.221 479.72 684.647 480.174C685.072 480.628 685.682 480.982 686.476 481.237C686.986 481.379 687.61 481.507 688.347 481.62C689.084 481.733 689.708 481.861 690.218 482.003C690.729 482.145 691.183 482.329 691.579 482.556C692.062 482.783 692.529 483.066 692.983 483.406C693.437 483.747 693.89 484.328 694.344 485.15C694.798 485.973 695.039 486.852 695.067 487.787C695.067 489.545 694.528 490.992 693.451 492.126C692.373 493.26 690.63 493.841 688.219 493.87H687.879C686.405 493.87 685.044 493.359 683.796 492.338L683.456 492.636L683.073 493.019C682.903 493.189 682.733 493.345 682.562 493.487L682.095 493.912H681.754H681.584C681.499 493.912 681.372 493.827 681.201 493.657V490.297V487.83C681.201 487.234 681.23 486.88 681.286 486.767C681.343 486.653 681.485 486.582 681.712 486.554H682.095C682.435 486.554 682.662 486.611 682.775 486.724C682.889 486.837 682.959 487.008 682.988 487.234C683.016 487.461 683.115 487.844 683.286 488.383C683.456 488.922 683.725 489.517 684.094 490.169C685.086 491.615 686.461 492.338 688.219 492.338C690.97 492.338 692.345 491.233 692.345 489.021C692.345 488.198 692.09 487.532 691.579 487.022C691.012 486.341 689.836 485.831 688.049 485.491C686.263 485.15 685.086 484.824 684.519 484.512C683.498 484.03 682.69 483.378 682.095 482.556C681.499 481.733 681.201 480.854 681.201 479.919C681.201 478.813 681.442 477.877 681.924 477.112C682.407 476.346 683.016 475.779 683.753 475.41C684.491 475.042 685.2 474.786 685.88 474.645C686.561 474.503 687.184 474.432 687.752 474.432H688.219C689.354 474.432 690.346 474.645 691.197 475.07L691.835 475.41L692.217 475.112C692.501 474.857 692.813 474.616 693.153 474.389H693.493H693.664C693.749 474.389 693.876 474.474 694.046 474.645V480.259L693.791 480.514H692.6C692.43 480.344 692.345 480.174 692.345 480.004Z" fill="var(--fg, black)"/>
    <path d="M699.491 467.542C699.491 466.748 699.746 466.124 700.256 465.67C700.767 465.217 701.39 464.99 702.128 464.99C702.78 465.046 703.347 465.287 703.829 465.713C704.311 466.138 704.552 466.748 704.552 467.542C704.552 468.392 704.311 469.03 703.829 469.456C703.347 469.881 702.751 470.094 702.043 470.094C701.334 470.094 700.738 469.881 700.256 469.456C699.774 469.03 699.519 468.392 699.491 467.542ZM707.061 493.444C706.636 493.359 705.162 493.317 702.638 493.317C702.326 493.317 701.802 493.317 701.064 493.317C700.327 493.317 699.618 493.345 698.938 493.402L698.002 493.444H697.662V491.488H698.342C699.136 491.488 699.831 491.445 700.426 491.36C700.681 491.247 700.837 491.091 700.894 490.892C700.951 490.694 700.979 490.098 700.979 489.106V484.725V480.982C700.979 479.508 700.951 478.572 700.894 478.175C700.837 477.778 700.639 477.509 700.299 477.367C699.902 477.168 699.235 477.069 698.3 477.069H697.832V476.091C697.832 475.439 697.86 475.113 697.917 475.113L698.342 475.07C698.626 475.042 699.023 475.013 699.533 474.985C700.043 474.957 700.554 474.928 701.064 474.9C701.546 474.872 702.057 474.843 702.595 474.815C703.134 474.786 703.545 474.744 703.829 474.687C704.112 474.631 704.268 474.616 704.297 474.645H704.424V490.807C704.566 491.091 704.736 491.261 704.935 491.318C705.133 491.374 705.629 491.431 706.423 491.488H707.402V493.444H707.061Z" fill="var(--fg, black)"/>
    <path d="M724.372 472.39C724.372 471.937 724.372 471.37 724.372 470.689C724.372 470.009 724.386 469.541 724.415 469.285C724.415 468.009 724.273 467.216 723.989 466.904C723.706 466.592 722.983 466.407 721.82 466.351H721.055V465.372C721.055 464.72 721.083 464.394 721.14 464.394L721.565 464.352C721.849 464.323 722.26 464.295 722.799 464.267C723.337 464.238 723.862 464.21 724.372 464.181C724.854 464.153 725.379 464.125 725.946 464.096C726.513 464.068 726.938 464.026 727.222 463.969C727.506 463.912 727.661 463.898 727.69 463.926H727.817V476.856C727.817 485.533 727.832 489.914 727.86 489.999C727.945 490.566 728.144 490.935 728.455 491.105C728.767 491.275 729.405 491.403 730.369 491.488H731.135V493.444C731.078 493.444 730.001 493.515 727.902 493.657C725.804 493.799 724.684 493.884 724.542 493.912H724.245V491.573L723.904 491.871C722.26 493.232 720.417 493.912 718.375 493.912C716.192 493.912 714.221 493.047 712.463 491.318C710.705 489.588 709.826 487.249 709.826 484.3C709.826 481.464 710.719 479.153 712.506 477.367C714.292 475.58 716.376 474.673 718.758 474.645C720.885 474.645 722.756 475.339 724.372 476.729V472.39ZM724.245 478.898C722.969 477.112 721.367 476.218 719.438 476.218C718.049 476.218 716.816 476.729 715.738 477.75C714.972 478.543 714.49 479.451 714.292 480.472C714.093 481.492 713.98 482.825 713.952 484.47C713.952 486.058 714.051 487.348 714.249 488.34C714.448 489.333 714.944 490.198 715.738 490.935C716.589 491.871 717.695 492.338 719.056 492.338C721.069 492.338 722.799 491.247 724.245 489.063V478.898Z" fill="var(--fg, black)"/>
    <path d="M733.219 484.172C733.219 482.612 733.503 481.195 734.07 479.919C734.637 478.643 735.346 477.608 736.197 476.814C737.047 476.02 737.969 475.424 738.961 475.027C739.954 474.63 740.889 474.418 741.768 474.389C743.271 474.389 744.561 474.645 745.639 475.155C746.716 475.665 747.539 476.374 748.106 477.282C748.673 478.189 749.07 479.096 749.297 480.004C749.524 480.911 749.651 481.918 749.68 483.024C749.68 483.222 749.58 483.421 749.382 483.619H737.387V484.257C737.387 488.454 738.805 491.006 741.641 491.913C742.208 492.083 742.832 492.168 743.512 492.168C744.703 492.168 745.724 491.715 746.575 490.807C747.057 490.325 747.439 489.73 747.723 489.021L748.148 488C748.233 487.915 748.46 487.872 748.829 487.872H748.956C749.439 487.872 749.68 488.014 749.68 488.298C749.68 488.411 749.637 488.595 749.552 488.851C749.013 490.41 748.12 491.644 746.872 492.551C745.625 493.458 744.221 493.912 742.662 493.912C739.968 493.912 737.728 492.934 735.941 490.977C734.155 489.021 733.248 486.752 733.219 484.172ZM746.192 481.748C745.88 478.118 744.533 476.19 742.151 475.963H742.066C741.839 475.963 741.612 475.977 741.386 476.006C741.159 476.034 740.804 476.147 740.322 476.346C739.84 476.544 739.429 476.842 739.089 477.239C738.749 477.636 738.422 478.217 738.111 478.983C737.799 479.749 737.572 480.684 737.43 481.79V482.088H746.192V481.748Z" fill="var(--fg, black)"/>
    </svg>
    