<svg width="100%" viewBox="0 0 1532 557" fill="none" xmlns="http://www.w3.org/2000/svg">
    <g clip-path="url(#clip0_4203_64333)">
    <path d="M214.145 349.119C212.511 350.605 212.391 353.135 213.878 354.769L238.103 381.399C239.589 383.033 242.119 383.153 243.753 381.666C245.387 380.18 245.507 377.65 244.021 376.016L222.487 352.345L246.158 330.812C247.792 329.325 247.912 326.795 246.425 325.161C244.939 323.527 242.409 323.407 240.775 324.894L214.145 349.119ZM444.361 358.833L217.026 348.082L216.648 356.073L443.983 366.824L444.361 358.833Z" fill="#AD1E1E"/>
    <path d="M293.118 638.323C407.336 405.502 531.779 214.253 711.945 -5.13562" stroke=var(--fg, black)" stroke-width="12"/>
    <path d="M283.281 256.742C281.119 257.198 279.737 259.32 280.193 261.481L287.624 296.706C288.08 298.868 290.202 300.25 292.364 299.794C294.525 299.338 295.908 297.216 295.452 295.055L288.846 263.744L320.157 257.138C322.319 256.682 323.701 254.56 323.245 252.399C322.789 250.237 320.667 248.855 318.506 249.311L283.281 256.742ZM444.913 360.658L286.29 257.304L281.923 264.007L440.546 367.361L444.913 360.658Z" fill=var(--fg, black)"/>
    <ellipse xmlns="http://www.w3.org/2000/svg" cx="279.424" cy="257.418" rx="199.233" ry="197.842" stroke="#AD1E1E" stroke-width="8" stroke-dasharray="20 20"/>
    <circle cx="442.73" cy="364.01" r="14.5" transform="rotate(-17.5152 442.73 364.01)" fill=var(--fg, black)"/>
    <circle cx="276.995" cy="256.379" r="14.5" transform="rotate(-17.5152 276.995 256.379)" fill=var(--fg, black)"/>
    <circle cx="211.639" cy="352.078" r="14.5" transform="rotate(-17.5152 211.639 352.078)" fill="#AD1E1E"/>
    <path d="M472.508 367.231C472.508 366.958 471.395 366.782 469.17 366.704C468.233 366.704 467.627 366.684 467.354 366.645C467.081 366.606 466.944 366.411 466.944 366.06C466.944 366.021 466.983 365.806 467.061 365.415C467.296 364.634 467.471 364.205 467.588 364.127C467.706 364.049 471.493 364.01 478.95 364.01C486.368 364.049 490.331 364.107 490.839 364.185C493.338 364.615 495.426 365.572 497.105 367.055C498.784 368.539 499.643 370.51 499.682 372.97C499.682 375.977 498.394 378.729 495.817 381.228C493.123 383.883 489.648 385.562 485.392 386.265C485.119 386.304 483.069 386.343 479.243 386.382H473.679L471.922 393.351C470.751 397.88 470.165 400.281 470.165 400.554C470.165 400.711 470.185 400.808 470.224 400.847C470.263 400.886 470.4 400.964 470.634 401.082C470.868 401.199 471.2 401.238 471.629 401.199C472.059 401.16 472.703 401.199 473.562 401.316H475.378C475.612 401.667 475.729 401.882 475.729 401.96C475.729 402.585 475.592 403.17 475.319 403.717C475.124 403.912 474.811 404.01 474.382 404.01C474.265 404.01 473.543 403.99 472.215 403.951C470.888 403.912 468.935 403.893 466.359 403.893C463.938 403.893 462.083 403.893 460.795 403.893C459.506 403.893 458.804 403.912 458.686 403.951C457.984 403.951 457.632 403.756 457.632 403.366C457.632 403.287 457.691 403.014 457.808 402.546C457.964 401.921 458.12 401.57 458.277 401.491C458.433 401.413 458.882 401.355 459.624 401.316C460.678 401.316 461.849 401.257 463.137 401.14C463.684 401.023 464.055 400.789 464.25 400.437C464.367 400.281 465.773 394.854 468.467 384.156C471.161 373.458 472.508 367.817 472.508 367.231ZM493.474 371.565C493.474 371.057 493.435 370.647 493.357 370.335C493.279 370.022 493.103 369.593 492.83 369.046C492.557 368.5 492.069 368.07 491.366 367.758C490.663 367.446 489.707 367.133 488.496 366.821C488.223 366.782 486.661 366.743 483.811 366.704C483.147 366.704 482.464 366.704 481.761 366.704C481.058 366.704 480.492 366.723 480.063 366.762C479.633 366.801 479.399 366.801 479.36 366.762C478.852 366.801 478.501 366.977 478.306 367.289C478.228 367.524 477.857 369.027 477.193 371.799C476.529 374.571 475.846 377.265 475.143 379.881C474.441 382.497 474.089 383.824 474.089 383.863C474.089 383.941 475.67 383.98 478.833 383.98H479.536H480.883C485.256 383.98 488.379 383.004 490.253 381.052C491.307 379.998 492.108 378.456 492.654 376.426C493.201 374.395 493.474 372.775 493.474 371.565Z" fill=var(--fg, black)"/>
    <path d="M997.118 638.323C1111.34 405.502 1235.78 214.253 1415.94 -5.13562" stroke=var(--fg, black)" stroke-width="12"/>
    <path d="M987.281 256.742C985.119 257.198 983.737 259.32 984.193 261.481L991.624 296.706C992.08 298.868 994.202 300.25 996.364 299.794C998.525 299.338 999.908 297.216 999.452 295.055L992.846 263.744L1024.16 257.138C1026.32 256.682 1027.7 254.56 1027.25 252.399C1026.79 250.237 1024.67 248.855 1022.51 249.311L987.281 256.742ZM1148.91 360.658L990.29 257.304L985.923 264.007L1144.55 367.361L1148.91 360.658Z" fill=var(--fg, black)"/>
    <circle cx="1146.73" cy="364.01" r="14.5" transform="rotate(-17.5152 1146.73 364.01)" fill=var(--fg, black)"/>
    <path d="M1176.51 367.231C1176.51 366.958 1175.4 366.782 1173.17 366.704C1172.23 366.704 1171.63 366.684 1171.35 366.645C1171.08 366.606 1170.94 366.411 1170.94 366.06C1170.94 366.021 1170.98 365.806 1171.06 365.415C1171.3 364.634 1171.47 364.205 1171.59 364.127C1171.71 364.049 1175.49 364.01 1182.95 364.01C1190.37 364.049 1194.33 364.107 1194.84 364.185C1197.34 364.615 1199.43 365.572 1201.11 367.055C1202.78 368.539 1203.64 370.51 1203.68 372.97C1203.68 375.977 1202.39 378.729 1199.82 381.228C1197.12 383.883 1193.65 385.562 1189.39 386.265C1189.12 386.304 1187.07 386.343 1183.24 386.382H1177.68L1175.92 393.351C1174.75 397.88 1174.17 400.281 1174.17 400.554C1174.17 400.711 1174.18 400.808 1174.22 400.847C1174.26 400.886 1174.4 400.964 1174.63 401.082C1174.87 401.199 1175.2 401.238 1175.63 401.199C1176.06 401.16 1176.7 401.199 1177.56 401.316H1179.38C1179.61 401.667 1179.73 401.882 1179.73 401.96C1179.73 402.585 1179.59 403.17 1179.32 403.717C1179.12 403.912 1178.81 404.01 1178.38 404.01C1178.26 404.01 1177.54 403.99 1176.22 403.951C1174.89 403.912 1172.94 403.893 1170.36 403.893C1167.94 403.893 1166.08 403.893 1164.79 403.893C1163.51 403.893 1162.8 403.912 1162.69 403.951C1161.98 403.951 1161.63 403.756 1161.63 403.366C1161.63 403.287 1161.69 403.014 1161.81 402.546C1161.96 401.921 1162.12 401.57 1162.28 401.491C1162.43 401.413 1162.88 401.355 1163.62 401.316C1164.68 401.316 1165.85 401.257 1167.14 401.14C1167.68 401.023 1168.05 400.789 1168.25 400.437C1168.37 400.281 1169.77 394.854 1172.47 384.156C1175.16 373.458 1176.51 367.817 1176.51 367.231ZM1197.47 371.565C1197.47 371.057 1197.44 370.647 1197.36 370.335C1197.28 370.022 1197.1 369.593 1196.83 369.046C1196.56 368.5 1196.07 368.07 1195.37 367.758C1194.66 367.446 1193.71 367.133 1192.5 366.821C1192.22 366.782 1190.66 366.743 1187.81 366.704C1187.15 366.704 1186.46 366.704 1185.76 366.704C1185.06 366.704 1184.49 366.723 1184.06 366.762C1183.63 366.801 1183.4 366.801 1183.36 366.762C1182.85 366.801 1182.5 366.977 1182.31 367.289C1182.23 367.524 1181.86 369.027 1181.19 371.799C1180.53 374.571 1179.85 377.265 1179.14 379.881C1178.44 382.497 1178.09 383.824 1178.09 383.863C1178.09 383.941 1179.67 383.98 1182.83 383.98H1183.54H1184.88C1189.26 383.98 1192.38 383.004 1194.25 381.052C1195.31 379.998 1196.11 378.456 1196.65 376.426C1197.2 374.395 1197.47 372.775 1197.47 371.565Z" fill=var(--fg, black)"/>
    <path d="M380 297.167C380.044 296.907 380.109 296.561 380.195 296.128C380.282 295.696 380.541 294.874 380.974 293.662C381.407 292.451 381.839 291.434 382.272 290.612C382.705 289.79 383.419 288.989 384.414 288.21C385.409 287.431 386.404 287.064 387.399 287.107C388.957 287.107 390.255 287.496 391.294 288.275C392.332 289.054 392.981 289.79 393.241 290.482C393.5 291.174 393.63 291.629 393.63 291.845C393.63 291.931 393.652 291.975 393.695 291.975L394.409 291.261C397.048 288.492 400.055 287.107 403.43 287.107C405.767 287.107 407.649 287.691 409.077 288.859C410.505 290.028 411.24 291.737 411.284 293.987C411.327 296.237 410.505 299.633 408.817 304.176C407.13 308.72 406.308 311.467 406.351 312.419C406.351 313.544 406.719 314.106 407.454 314.106C407.714 314.106 407.909 314.085 408.038 314.042C409.293 313.825 410.418 313.003 411.413 311.575C412.408 310.147 413.166 308.417 413.685 306.383C413.771 306.037 414.204 305.864 414.983 305.864C415.848 305.864 416.281 306.037 416.281 306.383C416.281 306.426 416.194 306.751 416.021 307.357C415.675 308.611 415.199 309.844 414.594 311.056C413.988 312.268 412.993 313.479 411.608 314.691C410.223 315.902 408.731 316.486 407.13 316.443C405.096 316.443 403.625 315.859 402.716 314.691C401.808 313.522 401.353 312.311 401.353 311.056C401.353 310.234 402.132 307.638 403.69 303.268C405.248 298.898 406.048 295.609 406.091 293.403C406.091 290.85 405.139 289.573 403.236 289.573H402.911C399.19 289.573 396.053 291.758 393.5 296.128L393.046 296.907L390.904 305.604C389.476 311.272 388.654 314.323 388.438 314.755C387.875 315.924 386.945 316.508 385.647 316.508C385.085 316.508 384.63 316.378 384.284 316.118C383.938 315.859 383.7 315.599 383.57 315.34C383.44 315.08 383.397 314.864 383.44 314.691C383.44 314.128 384.262 310.602 385.907 304.111C387.551 297.621 388.416 294.095 388.503 293.532C388.546 293.316 388.568 292.818 388.568 292.04C388.568 290.352 388.048 289.508 387.01 289.508C385.366 289.508 384.003 291.672 382.921 295.999C382.661 296.864 382.532 297.318 382.532 297.362C382.445 297.621 382.034 297.751 381.299 297.751H380.39C380.13 297.491 380 297.297 380 297.167Z" fill=var(--fg, black)"/>
    <path d="M406.351 271.66C406.351 271.314 406.459 271.011 406.675 270.752C406.892 270.492 407.216 270.362 407.649 270.362C407.952 270.362 408.211 270.47 408.428 270.687C408.644 270.86 408.86 271.271 409.077 271.92C409.509 273.521 410.396 274.754 411.738 275.619C412.214 275.922 412.452 276.312 412.452 276.788C412.452 277.177 412.387 277.437 412.257 277.566C412.127 277.696 411.824 277.891 411.348 278.15C409.488 279.102 407.865 280.465 406.481 282.239C406.394 282.326 406.286 282.456 406.156 282.629C406.026 282.802 405.918 282.932 405.832 283.018C405.745 283.105 405.637 283.148 405.507 283.148C405.377 283.148 405.226 283.17 405.053 283.213C404.75 283.213 404.469 283.105 404.209 282.888C403.949 282.672 403.798 282.348 403.755 281.915C403.755 281.093 404.771 279.816 406.805 278.086H395.707L384.608 278.021C384.046 277.631 383.765 277.22 383.765 276.788C383.765 276.485 384.046 276.052 384.608 275.489H407.908C406.87 273.845 406.351 272.569 406.351 271.66Z" fill=var(--fg, black)"/>
    <path d="M293.243 207.282C293.243 207.112 292.55 207.002 291.162 206.954C290.578 206.954 290.201 206.941 290.03 206.917C289.86 206.893 289.775 206.771 289.775 206.552C289.775 206.528 289.799 206.394 289.848 206.15C289.994 205.663 290.103 205.396 290.176 205.347C290.249 205.298 292.611 205.274 297.26 205.274C301.885 205.298 304.356 205.335 304.673 205.383C306.231 205.651 307.533 206.248 308.58 207.173C309.626 208.098 310.162 209.327 310.186 210.861C310.186 212.735 309.383 214.451 307.776 216.009C306.097 217.665 303.93 218.711 301.277 219.149C301.106 219.174 299.828 219.198 297.443 219.222H293.974L292.878 223.568C292.148 226.392 291.783 227.889 291.783 228.059C291.783 228.156 291.795 228.217 291.819 228.242C291.844 228.266 291.929 228.315 292.075 228.388C292.221 228.461 292.428 228.485 292.696 228.461C292.964 228.436 293.365 228.461 293.901 228.534H295.033C295.179 228.753 295.252 228.887 295.252 228.935C295.252 229.325 295.167 229.69 294.996 230.031C294.874 230.153 294.68 230.213 294.412 230.213C294.339 230.213 293.889 230.201 293.061 230.177C292.233 230.153 291.016 230.14 289.409 230.14C287.9 230.14 286.744 230.14 285.941 230.14C285.137 230.14 284.699 230.153 284.626 230.177C284.188 230.177 283.969 230.055 283.969 229.812C283.969 229.763 284.005 229.593 284.078 229.301C284.176 228.911 284.273 228.692 284.37 228.643C284.468 228.595 284.748 228.558 285.21 228.534C285.868 228.534 286.598 228.497 287.401 228.424C287.742 228.351 287.973 228.205 288.095 227.986C288.168 227.889 289.044 224.505 290.724 217.835C292.404 211.165 293.243 207.647 293.243 207.282ZM306.316 209.984C306.316 209.668 306.291 209.412 306.243 209.217C306.194 209.023 306.084 208.755 305.914 208.414C305.744 208.073 305.439 207.806 305.001 207.611C304.563 207.416 303.967 207.221 303.212 207.027C303.042 207.002 302.068 206.978 300.291 206.954C299.877 206.954 299.451 206.954 299.013 206.954C298.575 206.954 298.222 206.966 297.954 206.99C297.686 207.014 297.54 207.014 297.516 206.99C297.199 207.014 296.98 207.124 296.858 207.319C296.81 207.465 296.578 208.402 296.165 210.13C295.751 211.859 295.325 213.538 294.887 215.169C294.448 216.8 294.229 217.628 294.229 217.652C294.229 217.701 295.215 217.725 297.187 217.725H297.625H298.465C301.191 217.725 303.139 217.117 304.307 215.9C304.965 215.242 305.464 214.281 305.804 213.015C306.145 211.749 306.316 210.739 306.316 209.984Z" fill=var(--fg, black)"/>
    <path d="M320.345 221.559C320.345 221.559 320.345 221.401 320.345 221.085C320.345 220.768 320.515 220.525 320.856 220.354H331.774V214.877L331.81 209.4C332.054 209.084 332.285 208.925 332.504 208.925C332.821 208.925 333.064 209.108 333.234 209.473V220.354H344.116C344.481 220.549 344.663 220.793 344.663 221.085C344.663 221.377 344.481 221.62 344.116 221.815H333.234V232.696C333.04 233.037 332.821 233.208 332.577 233.208H332.504H332.431C332.139 233.208 331.92 233.037 331.774 232.696V221.815H320.856C320.515 221.645 320.345 221.401 320.345 221.085V221.559Z" fill=var(--fg, black)"/>
    <path d="M355.588 219.734C355.613 219.588 355.649 219.393 355.698 219.15C355.747 218.906 355.893 218.444 356.136 217.762C356.38 217.08 356.623 216.508 356.866 216.046C357.11 215.583 357.511 215.133 358.071 214.695C358.631 214.257 359.191 214.05 359.751 214.074C360.627 214.074 361.358 214.293 361.942 214.731C362.526 215.17 362.891 215.583 363.037 215.973C363.183 216.362 363.256 216.618 363.256 216.74C363.256 216.788 363.269 216.813 363.293 216.813L363.695 216.411C365.18 214.853 366.871 214.074 368.77 214.074C370.085 214.074 371.144 214.403 371.947 215.06C372.75 215.717 373.164 216.679 373.188 217.945C373.213 219.21 372.75 221.121 371.801 223.677C370.851 226.233 370.389 227.779 370.413 228.315C370.413 228.948 370.62 229.264 371.034 229.264C371.18 229.264 371.29 229.252 371.363 229.228C372.069 229.106 372.702 228.643 373.261 227.84C373.821 227.037 374.247 226.063 374.539 224.919C374.588 224.724 374.832 224.627 375.27 224.627C375.757 224.627 376 224.724 376 224.919C376 224.943 375.951 225.126 375.854 225.467C375.659 226.173 375.391 226.866 375.051 227.548C374.71 228.23 374.15 228.911 373.371 229.593C372.592 230.274 371.752 230.603 370.851 230.579C369.707 230.579 368.88 230.25 368.368 229.593C367.857 228.936 367.602 228.254 367.602 227.548C367.602 227.085 368.04 225.625 368.916 223.166C369.793 220.708 370.243 218.858 370.267 217.616C370.267 216.18 369.732 215.462 368.661 215.462H368.478C366.385 215.462 364.62 216.691 363.183 219.15L362.928 219.588L361.723 224.481C360.92 227.67 360.457 229.386 360.335 229.629C360.019 230.287 359.495 230.615 358.765 230.615C358.449 230.615 358.193 230.542 357.998 230.396C357.804 230.25 357.67 230.104 357.597 229.958C357.524 229.812 357.499 229.69 357.524 229.593C357.524 229.276 357.986 227.292 358.911 223.641C359.836 219.989 360.323 218.006 360.372 217.689C360.396 217.567 360.408 217.287 360.408 216.849C360.408 215.9 360.116 215.425 359.532 215.425C358.607 215.425 357.84 216.642 357.232 219.077C357.085 219.563 357.012 219.819 357.012 219.843C356.964 219.989 356.733 220.063 356.319 220.063H355.807C355.661 219.916 355.588 219.807 355.588 219.734Z" fill=var(--fg, black)"/>
    <path d="M370.414 205.384C370.414 205.189 370.474 205.019 370.596 204.872C370.718 204.726 370.9 204.653 371.144 204.653C371.314 204.653 371.46 204.714 371.582 204.836C371.704 204.933 371.826 205.165 371.947 205.53C372.191 206.43 372.69 207.124 373.444 207.611C373.712 207.781 373.846 208.001 373.846 208.268C373.846 208.487 373.809 208.633 373.736 208.707C373.663 208.78 373.493 208.889 373.225 209.035C372.179 209.571 371.266 210.338 370.487 211.336C370.438 211.384 370.377 211.457 370.304 211.555C370.231 211.652 370.17 211.725 370.122 211.774C370.073 211.822 370.012 211.847 369.939 211.847C369.866 211.847 369.781 211.859 369.683 211.883C369.513 211.883 369.355 211.822 369.209 211.701C369.063 211.579 368.977 211.396 368.953 211.153C368.953 210.69 369.525 209.972 370.669 208.999H364.425L358.181 208.962C357.865 208.743 357.707 208.512 357.707 208.268C357.707 208.098 357.865 207.855 358.181 207.538H371.29C370.706 206.613 370.414 205.895 370.414 205.384Z" fill=var(--fg, black)"/>
    <path d="M186.43 339.275C188.594 339.275 190.575 338.321 192.372 336.414C194.17 334.506 195.087 332.287 195.123 329.756C195.123 327.445 194.17 325.85 192.262 324.969C188.374 323.979 185.88 323.3 184.779 322.934C183.679 322.567 182.909 322.2 182.469 321.833C180.268 320.293 179.167 318.073 179.167 315.176C179.167 312.938 179.754 310.902 180.928 309.068C182.102 307.234 183.294 305.859 184.504 304.942C185.568 304.025 186.852 303.291 188.356 302.741C189.86 302.191 191.033 301.897 191.877 301.861H192.482H192.867C196.389 301.861 198.938 303.034 200.515 305.382C200.552 305.382 200.79 305.144 201.231 304.667C201.671 304.19 202.148 303.658 202.661 303.071C203.175 302.484 203.541 302.081 203.762 301.861C203.798 301.861 203.872 301.861 203.982 301.861C204.092 301.861 204.183 301.842 204.257 301.806C204.734 301.806 204.972 301.934 204.972 302.191C204.972 302.448 204.458 304.667 203.431 308.848C202.404 313.03 201.817 315.194 201.671 315.341C201.524 315.487 201.231 315.542 200.79 315.506C200.057 315.506 199.69 315.341 199.69 315.011C199.69 314.791 199.708 314.607 199.745 314.46C199.745 314.35 199.763 314.002 199.8 313.415C199.837 312.828 199.873 312.351 199.91 311.984C199.91 310.737 199.745 309.655 199.415 308.738C199.085 307.821 198.755 307.143 198.425 306.702C198.094 306.262 197.636 305.804 197.049 305.327C195.728 304.557 194.225 304.172 192.537 304.172C190.447 304.172 188.502 305.015 186.705 306.702C184.908 308.39 183.991 310.334 183.954 312.535C183.954 313.635 184.229 314.589 184.779 315.396C185.33 316.203 186.082 316.771 187.035 317.101C187.182 317.175 188.466 317.523 190.887 318.147C193.308 318.77 194.536 319.1 194.573 319.137C195.82 319.541 197.031 320.421 198.204 321.778C199.378 323.135 199.965 324.969 199.965 327.28C199.965 328.234 199.818 329.261 199.525 330.361C199.342 331.168 199.011 332.067 198.535 333.057C198.058 334.048 197.397 335.13 196.554 336.304C195.71 337.477 194.5 338.578 192.922 339.605C191.345 340.632 189.621 341.329 187.751 341.696C187.31 341.769 186.687 341.806 185.88 341.806C182.248 341.806 179.424 340.797 177.407 338.78L176.856 338.174L175.316 339.88C174.472 340.87 173.959 341.439 173.775 341.586C173.592 341.732 173.353 341.806 173.06 341.806C172.583 341.806 172.345 341.659 172.345 341.365C172.345 341.255 173.408 336.946 175.536 328.436C175.609 328.216 175.976 328.106 176.636 328.106H177.352C177.572 328.326 177.682 328.527 177.682 328.711C177.682 328.784 177.663 328.949 177.627 329.206C177.59 329.463 177.517 329.848 177.407 330.361C177.297 330.875 177.26 331.48 177.297 332.177C177.37 333.608 177.7 334.818 178.287 335.808C178.874 336.799 179.662 337.532 180.653 338.009C181.643 338.486 182.597 338.816 183.514 339C184.431 339.183 185.403 339.275 186.43 339.275Z" fill="#AD1E1E"/>
    <path d="M956.663 476.129C956.448 476.929 956.922 477.752 957.722 477.967L970.758 481.476C971.558 481.692 972.381 481.218 972.596 480.418C972.811 479.618 972.337 478.795 971.538 478.579L959.95 475.46L963.069 463.873C963.285 463.073 962.811 462.25 962.011 462.034C961.211 461.819 960.388 462.293 960.172 463.093L956.663 476.129ZM1147.99 365.456L957.363 475.219L958.86 477.819L1149.48 368.056L1147.99 365.456Z" fill=var(--fg, black)"/>
    <path d="M874.001 421.169C873.543 421.859 873.731 422.79 874.421 423.249L885.668 430.715C886.358 431.174 887.289 430.986 887.747 430.295C888.205 429.605 888.017 428.674 887.327 428.216L877.33 421.579L883.967 411.582C884.425 410.891 884.237 409.96 883.547 409.502C882.857 409.044 881.926 409.232 881.468 409.922L874.001 421.169ZM1148.44 365.286L874.953 420.529L875.547 423.469L1149.03 368.226L1148.44 365.286Z" fill=var(--fg, black)"/>
    <path d="M816.623 346.232C816.004 346.783 815.949 347.731 816.499 348.35L825.47 358.438C826.021 359.057 826.969 359.112 827.588 358.562C828.207 358.011 828.263 357.063 827.712 356.444L819.738 347.477L828.705 339.503C829.324 338.952 829.38 338.004 828.829 337.385C828.279 336.766 827.33 336.71 826.711 337.261L816.623 346.232ZM1148.82 365.259L817.708 345.856L817.532 348.85L1148.65 368.253L1148.82 365.259Z" fill=var(--fg, black)"/>
    <path d="M822.65 150.427C821.838 150.593 821.315 151.386 821.482 152.197L824.195 165.422C824.362 166.234 825.154 166.756 825.966 166.59C826.777 166.423 827.3 165.631 827.134 164.819L824.722 153.064L836.477 150.652C837.289 150.486 837.812 149.693 837.645 148.881C837.479 148.07 836.686 147.547 835.874 147.713L822.65 150.427ZM1149.56 365.504L823.777 150.644L822.125 153.148L1147.91 368.009L1149.56 365.504Z" fill=var(--fg, black)"/>
    <path d="M917.725 96.1635C916.899 96.1008 916.178 96.7196 916.116 97.5456L915.094 111.007C915.031 111.833 915.65 112.553 916.476 112.616C917.302 112.679 918.022 112.06 918.085 111.234L918.993 99.2684L930.959 100.177C931.785 100.239 932.506 99.6207 932.568 98.7946C932.631 97.9686 932.012 97.2481 931.186 97.1854L917.725 96.1635ZM1149.87 365.779L918.749 96.6819L916.473 98.6365L1147.6 367.733L1149.87 365.779Z" fill=var(--fg, black)"/>
    <path d="M1002.93 70.4481C1002.14 70.1837 1001.29 70.6057 1001.03 71.3908L996.718 84.1846C996.453 84.9696 996.875 85.8205 997.66 86.0849C998.445 86.3493 999.296 85.9273 999.561 85.1422L1003.39 73.77L1014.76 77.6005C1015.55 77.8649 1016.4 77.4428 1016.66 76.6578C1016.93 75.8727 1016.51 75.0219 1015.72 74.7574L1002.93 70.4481ZM1150.08 366.089L1003.79 71.203L1001.1 72.5362L1147.39 367.422L1150.08 366.089Z" fill=var(--fg, black)"/>
    <path d="M1093.53 105.255C1092.84 104.805 1091.91 105.005 1091.46 105.701L1084.14 117.042C1083.69 117.738 1083.89 118.666 1084.58 119.116C1085.28 119.565 1086.21 119.365 1086.66 118.669L1093.17 108.588L1103.25 115.098C1103.94 115.548 1104.87 115.348 1105.32 114.652C1105.77 113.956 1105.57 113.027 1104.87 112.578L1093.53 105.255ZM1150.2 366.44L1094.19 106.199L1091.25 106.83L1147.27 367.072L1150.2 366.44Z" fill=var(--fg, black)"/>
    <path d="M1171.42 159.709C1170.9 159.066 1169.95 158.967 1169.31 159.489L1158.82 167.992C1158.18 168.514 1158.08 169.458 1158.6 170.102C1159.13 170.745 1160.07 170.844 1160.71 170.322L1170.03 162.764L1177.59 172.084C1178.11 172.728 1179.06 172.826 1179.7 172.305C1180.35 171.783 1180.44 170.838 1179.92 170.195L1171.42 159.709ZM1150.23 366.912L1171.75 160.81L1168.76 160.498L1147.24 366.6L1150.23 366.912Z" fill=var(--fg, black)"/>
    <path d="M1205.03 213.811C1204.67 213.061 1203.78 212.739 1203.03 213.091L1190.81 218.832C1190.06 219.185 1189.74 220.078 1190.09 220.828C1190.44 221.578 1191.34 221.9 1192.09 221.548L1202.95 216.445L1208.05 227.305C1208.4 228.055 1209.3 228.377 1210.05 228.025C1210.8 227.673 1211.12 226.779 1210.77 226.03L1205.03 213.811ZM1150.15 367.265L1205.08 214.958L1202.26 213.94L1147.32 366.247L1150.15 367.265Z" fill=var(--fg, black)"/>
    <path d="M799.448 245.509C798.706 245.878 798.405 246.779 798.774 247.52L804.795 259.603C805.164 260.345 806.065 260.646 806.807 260.277C807.548 259.907 807.85 259.007 807.48 258.265L802.128 247.525L812.869 242.173C813.61 241.804 813.912 240.903 813.542 240.162C813.173 239.42 812.272 239.118 811.531 239.488L799.448 245.509ZM1149.63 362.307L800.593 245.429L799.64 248.274L1148.68 365.152L1149.63 362.307Z" fill=var(--fg, black)"/>
    <path d="M1017.97 485.842C1017.93 486.67 1018.58 487.368 1019.4 487.402L1032.89 487.952C1033.72 487.986 1034.42 487.342 1034.45 486.514C1034.49 485.686 1033.84 484.988 1033.01 484.954L1021.02 484.466L1021.51 472.476C1021.55 471.648 1020.9 470.95 1020.08 470.916C1019.25 470.882 1018.55 471.526 1018.52 472.354L1017.97 485.842ZM1147.72 365.653L1018.45 484.8L1020.48 487.006L1149.75 367.859L1147.72 365.653Z" fill=var(--fg, black)"/>
    </g>
    <defs>
    <clipPath id="clip0_4203_64333">
    <rect width="1532" height="556" fill=var(--bg, white) transform="translate(0 0.896973)"/>
    </clipPath>
    </defs>
    </svg>
    